<svg id="Layer_1" data-name="Layer 1" xmlns="http://www.w3.org/2000/svg" xmlns:xlink="http://www.w3.org/1999/xlink" viewBox="0 0 688 347.74"><defs><style>.cls-1{fill:url(#radial-gradient);}.cls-2{fill:#21bca5;}.cls-3{fill:#e9b213;}.cls-10,.cls-14,.cls-15,.cls-18,.cls-19,.cls-23,.cls-24,.cls-4,.cls-9{fill:none;}.cls-4{stroke:#fff;opacity:0.5;}.cls-12,.cls-4{isolation:isolate;}.cls-12,.cls-27,.cls-5{fill:#fff;}.cls-6{fill:url(#radial-gradient-2);}.cls-7{fill:url(#linear-gradient);}.cls-8{opacity:0.9;}.cls-10,.cls-14,.cls-15,.cls-18,.cls-19,.cls-23,.cls-24,.cls-9{stroke-width:2.48px;}.cls-9{stroke:url(#radial-gradient-3);}.cls-10{stroke:url(#linear-gradient-2);}.cls-11{fill:url(#radial-gradient-4);}.cls-12{opacity:0.3;}.cls-13{fill:url(#radial-gradient-5);}.cls-14{stroke:url(#radial-gradient-6);}.cls-15{stroke:url(#linear-gradient-3);}.cls-16{fill:url(#radial-gradient-7);}.cls-17{fill:url(#radial-gradient-8);}.cls-18{stroke:url(#radial-gradient-9);}.cls-19{stroke:url(#linear-gradient-4);}.cls-20{fill:url(#radial-gradient-10);}.cls-21{fill:url(#radial-gradient-11);}.cls-22{opacity:0.8;}.cls-23{stroke:url(#radial-gradient-12);}.cls-24{stroke:url(#linear-gradient-5);}.cls-25{fill:url(#radial-gradient-13);}.cls-26{fill:url(#radial-gradient-14);}.cls-27{fill-rule:evenodd;}.cls-28{fill:#f4f4f4;}.cls-29{fill:url(#radial-gradient-15);}</style><radialGradient id="radial-gradient" cx="-2493.62" cy="1878.98" r="1" gradientTransform="matrix(-688, 0, 0, 347, -1714922, -651657.46)" gradientUnits="userSpaceOnUse"><stop offset="0" stop-color="#260133"/><stop offset="1" stop-color="#1f2348"/></radialGradient><radialGradient id="radial-gradient-2" cx="-2505.09" cy="1890.82" r="1" gradientTransform="matrix(-165, 0, 0, 94, -412700, -177414.03)" gradientUnits="userSpaceOnUse"><stop offset="0" stop-color="#ec991c"/><stop offset="1" stop-color="#e9b213"/></radialGradient><linearGradient id="linear-gradient" x1="635.36" y1="8.18" x2="474.61" y2="96.94" gradientTransform="matrix(1, 0, 0, -1, 0, 347.57)" gradientUnits="userSpaceOnUse"><stop offset="0" stop-color="#fff" stop-opacity="0"/><stop offset="0.54" stop-color="#fff" stop-opacity="0.62"/><stop offset="1" stop-color="#fff" stop-opacity="0"/></linearGradient><radialGradient id="radial-gradient-3" cx="-2397.44" cy="1850.76" gradientTransform="matrix(24.46, -3.06, -9.49, -76, 76605.08, 133594.07)" xlink:href="#radial-gradient"/><linearGradient id="linear-gradient-2" x1="401.12" y1="157.05" x2="412.62" y2="74.05" gradientTransform="matrix(1, 0, 0, -1, 0, 347.57)" gradientUnits="userSpaceOnUse"><stop offset="0" stop-color="#fff" stop-opacity="0"/><stop offset="0.4" stop-color="#fff" stop-opacity="0.47"/><stop offset="0.63" stop-color="#fff" stop-opacity="0.72"/><stop offset="1" stop-color="#fff"/></linearGradient><radialGradient id="radial-gradient-4" cx="-2454.72" cy="1845.49" r="1" gradientTransform="matrix(64.17, -8.02, -7.77, -62.23, 172236.39, 95354.93)" gradientUnits="userSpaceOnUse"><stop offset="0" stop-color="#0ca6fe"/><stop offset="1" stop-color="#e9b213"/></radialGradient><radialGradient id="radial-gradient-5" cx="-2305.06" cy="1523.38" r="1" gradientTransform="matrix(12.24, -1.53, -0.64, -5.15, 29600.88, 4511.8)" xlink:href="#radial-gradient-4"/><radialGradient id="radial-gradient-6" cx="-2433.2" cy="1863.36" gradientTransform="matrix(43.83, 0, 0, -136.2, 107074.84, 254020.8)" xlink:href="#radial-gradient"/><linearGradient id="linear-gradient-3" x1="455.08" y1="248.31" x2="420.58" y2="89.31" gradientTransform="matrix(1, 0, 0, -1, 0, 347.57)" gradientUnits="userSpaceOnUse"><stop offset="0" stop-color="#fff" stop-opacity="0"/><stop offset="0.35" stop-color="#fff" stop-opacity="0.69"/><stop offset="0.69" stop-color="#fff" stop-opacity="0.17"/><stop offset="1" stop-color="#fff"/></linearGradient><radialGradient id="radial-gradient-7" cx="400" cy="0" r="105.26" gradientUnits="userSpaceOnUse"><stop offset="0" stop-color="#d94432"/><stop offset="1" stop-color="#e9b213"/></radialGradient><radialGradient id="radial-gradient-8" cx="-2376.5" cy="1709.23" r="1" gradientTransform="matrix(21.94, 0, 0, -9.24, 52582.76, 15877.05)" xlink:href="#radial-gradient-7"/><radialGradient id="radial-gradient-9" cx="647.56" cy="262.36" r="33.51" gradientTransform="matrix(1, 0, 0, 1, 0, 0)" xlink:href="#radial-gradient"/><linearGradient id="linear-gradient-4" x1="671.19" y1="335.82" x2="641.02" y2="196.78" gradientTransform="matrix(1, 0, 0, 1, 0, 0)" xlink:href="#linear-gradient-3"/><radialGradient id="radial-gradient-10" cx="622.74" cy="185.22" r="111.63" xlink:href="#radial-gradient-7"/><radialGradient id="radial-gradient-11" cx="-2376.5" cy="1709.23" r="1" gradientTransform="matrix(21.94, 0, 0, -9.24, 52799.76, 15964.05)" xlink:href="#radial-gradient-7"/><radialGradient id="radial-gradient-12" cx="-2669.04" cy="1894.26" gradientTransform="matrix(-15.06, -3.38, -10.51, 46.8, -19837.54, -97420.14)" xlink:href="#radial-gradient"/><linearGradient id="linear-gradient-5" x1="462.78" y1="128.57" x2="440.55" y2="69.48" gradientTransform="matrix(1, 0, 0, -1, 0, 347.57)" gradientUnits="userSpaceOnUse"><stop offset="0" stop-color="#fff" stop-opacity="0"/><stop offset="0.36" stop-color="#fff" stop-opacity="0.47"/><stop offset="0.59" stop-color="#fff" stop-opacity="0.81"/><stop offset="1" stop-color="#fff"/></linearGradient><radialGradient id="radial-gradient-13" cx="-2558.24" cy="1898.62" r="1" gradientTransform="matrix(-39.52, -8.87, -8.6, 38.32, -84282.86, -95239.68)" gradientUnits="userSpaceOnUse"><stop offset="0" stop-color="#fc8702"/><stop offset="1" stop-color="#e9b213"/></radialGradient><radialGradient id="radial-gradient-14" cx="-2847.73" cy="2164.94" r="1" gradientTransform="matrix(-7.54, -1.69, -0.71, 3.17, -19463.87, -11476.66)" xlink:href="#radial-gradient-13"/><radialGradient id="radial-gradient-15" cx="417.29" cy="290.4" r="22.63" gradientTransform="translate(0 -273.14) scale(1 1.94)" xlink:href="#radial-gradient-2"/></defs><path class="cls-1" d="M0,8A8,8,0,0,1,8,0H680a8,8,0,0,1,8,8V339a8,8,0,0,1-8,8H8a8,8,0,0,1-8-8Z" transform="translate(0 0)"/><g id="mask0"><path class="cls-2" d="M464.12,284.57a6.18,6.18,0,0,1-.73,2.14l-14.85,25.74a6,6,0,0,1-5.14,3H413.74a6,6,0,0,1-5.14-3l-14.81-25.74a5.92,5.92,0,0,1-.73-2.14,6,6,0,0,1,.73-3.82l4.43-7.71L408.6,255a6,6,0,0,1,5.14-3H443.4a5.91,5.91,0,0,1,5.14,3L459,273l4.44,7.71A5.88,5.88,0,0,1,464.12,284.57Z" transform="translate(0 0)"/></g><path class="cls-3" d="M464.12,284.57H393.06a6,6,0,0,1,.73-3.82l4.43-7.71H459l4.44,7.71A5.88,5.88,0,0,1,464.12,284.57Z" transform="translate(0 0)"/><rect class="cls-3" x="422.76" y="252" width="11.53" height="63.41"/><line class="cls-4" x1="17" y1="107.5" x2="384" y2="107.5"/><path class="cls-5" d="M61.23,311.65l-4.47-7.75a1.78,1.78,0,0,0-1.55-.9h-9a1.78,1.78,0,0,0-1.55.9l-4.47,7.75a1.79,1.79,0,0,0,0,1.79l4.47,7.75a1.78,1.78,0,0,0,1.55.9h9a1.78,1.78,0,0,0,1.55-.9l4.47-7.75A1.79,1.79,0,0,0,61.23,311.65Z" transform="translate(0 0)"/><path class="cls-5" d="M77.13,306.88h2v11.33h-1.5l-6.11-7.9v7.9H69.53V306.88H71l6.11,7.9Z" transform="translate(0 0)"/><path class="cls-5" d="M83,318.21V306.88H85v11.33Z" transform="translate(0 0)"/><path class="cls-5" d="M98.31,306.88H100v11.33H98.16v-7l-3.06,7H93.76l-3.06-7v7H88.91V306.88h1.64l3.88,8.87Z" transform="translate(0 0)"/><path class="cls-5" d="M103.83,318.21V306.88h2.09v11.33Z" transform="translate(0 0)"/><path class="cls-5" d="M119.86,315.63a4.74,4.74,0,0,1-2.39,2.27,6.53,6.53,0,0,0,.91,1.22,14.37,14.37,0,0,0,1.18,1.11l-1.41,1.12a8.41,8.41,0,0,1-1.44-1.31,10,10,0,0,1-1.22-1.69H115a5.88,5.88,0,0,1-3-.7,4.61,4.61,0,0,1-1.9-2,7,7,0,0,1-.66-3.08,6.77,6.77,0,0,1,.66-3.09,4.74,4.74,0,0,1,1.92-2,5.73,5.73,0,0,1,2.93-.71,5.91,5.91,0,0,1,2.95.71,4.61,4.61,0,0,1,1.91,2,6.77,6.77,0,0,1,.66,3.09A6.84,6.84,0,0,1,119.86,315.63Zm-7.37,0a3.49,3.49,0,0,0,5.05,0,4.69,4.69,0,0,0,.9-3.09,4.73,4.73,0,0,0-.9-3.1,3.5,3.5,0,0,0-5.05,0,5.74,5.74,0,0,0,0,6.2Z" transform="translate(0 0)"/><path class="cls-6" d="M500,240.68V267h-3.55l-14.19-18.44V267h-4.43V240.68h3.54l14.16,18.41V240.68Zm5.39,7.66H510V267h-4.59Zm4.85-8.47v4.55h-5.14v-4.55Zm26.82,8a5.71,5.71,0,0,1,4.73,1.92c1,1.25,1.55,3.18,1.55,5.76V267h-4.62V255.69a5.24,5.24,0,0,0-.74-3.18,2.69,2.69,0,0,0-2.36-1,3.7,3.7,0,0,0-3,1.37,5.72,5.72,0,0,0-1.08,3.7V267h-4.62V255.69a5.2,5.2,0,0,0-.77-3.18,2.76,2.76,0,0,0-2.37-1,3.7,3.7,0,0,0-3,1.37,5.61,5.61,0,0,0-1.11,3.7V267h-4.58V253.62a43.7,43.7,0,0,0-.29-5.28h4.32l.33,2.95a5.83,5.83,0,0,1,2.33-2.55,7.06,7.06,0,0,1,3.55-.88q4.29,0,5.58,3.54a6.3,6.3,0,0,1,2.51-2.58A7.26,7.26,0,0,1,537.08,247.86Zm11.21.48h4.59V267h-4.59Zm4.85-8.47v4.55H548v-4.55Zm23,8.47a36.39,36.39,0,0,0-.33,5.28V275h-4.62V264.15a5.72,5.72,0,0,1-2.44,2.33,7.41,7.41,0,0,1-3.55.82,8,8,0,0,1-4.32-1.19,7.81,7.81,0,0,1-2.92-3.36,11.66,11.66,0,0,1-1-5.06,11.88,11.88,0,0,1,1-5.1,8.2,8.2,0,0,1,3-3.48,8,8,0,0,1,8.09-.29,5.79,5.79,0,0,1,2.44,2.69l.33-3.17Zm-9.68,15.33a4.27,4.27,0,0,0,3.55-1.59,7,7,0,0,0,1.26-4.47,7.15,7.15,0,0,0-1.26-4.54,4.77,4.77,0,0,0-7.17.07,7.26,7.26,0,0,0-1.26,4.55,6.86,6.86,0,0,0,1.26,4.43A4.43,4.43,0,0,0,566.43,263.67Zm-66.63,37.1v12.64a18.46,18.46,0,0,1-4.36,1.41,26.53,26.53,0,0,1-5.21.51,14.61,14.61,0,0,1-7.06-1.62,11,11,0,0,1-4.59-4.66,15.53,15.53,0,0,1-1.58-7.24,15.35,15.35,0,0,1,1.58-7.17,11.14,11.14,0,0,1,4.51-4.66,14.1,14.1,0,0,1,6.92-1.63,15.83,15.83,0,0,1,5.17.82,11.17,11.17,0,0,1,4.07,2.29l-1.63,3.47a13.1,13.1,0,0,0-3.62-2.07,11.52,11.52,0,0,0-3.88-.63,7.76,7.76,0,0,0-6.18,2.44c-1.38,1.63-2.06,4-2.06,7.14s.71,5.66,2.14,7.31,3.56,2.44,6.39,2.44a18.73,18.73,0,0,0,5.1-.7v-6.65h-5.69v-3.44Zm5-4.43h4.58V315h-4.58Zm4.84-8.47v4.55h-5.14v-4.55Zm13.63,3.59c-2,0-3,1.09-3,3.29v1.59h4.18v3.47h-4.18V315h-4.62V299.81h-3.54v-3.47h3.54v-1.82a7.2,7.2,0,0,1,1.67-5.1,6.33,6.33,0,0,1,4.84-1.81,8.26,8.26,0,0,1,2.92.45v3.66A7.28,7.28,0,0,0,523.31,291.46Zm9.6,8.35v8.35c0,2.2,1,3.29,3.07,3.29a6.86,6.86,0,0,0,1.85-.29v3.66a8.88,8.88,0,0,1-3,.44,6.45,6.45,0,0,1-4.88-1.77,7.13,7.13,0,0,1-1.7-5.11v-8.57h-3.58v-3.47h3.58v-4.55l4.62-1.55v6.1h5v3.47Zm30.54,15.52a13.49,13.49,0,0,1-6.8-1.66,11.15,11.15,0,0,1-4.43-4.69,15.65,15.65,0,0,1-1.56-7.17,15.32,15.32,0,0,1,1.56-7.1,10.81,10.81,0,0,1,4.43-4.69,13.49,13.49,0,0,1,6.8-1.67,14.61,14.61,0,0,1,5,.85,10.64,10.64,0,0,1,3.92,2.29L570.81,295a12.25,12.25,0,0,0-3.55-2.07,10.21,10.21,0,0,0-3.73-.67,7.36,7.36,0,0,0-5.92,2.48q-2.07,2.48-2.07,7.1t2.07,7.17a7.28,7.28,0,0,0,5.92,2.47,10.86,10.86,0,0,0,3.73-.63,12.87,12.87,0,0,0,3.55-2.1l1.55,3.47a11,11,0,0,1-3.92,2.33A15.09,15.09,0,0,1,563.45,315.33Zm30.52-19V315h-4.54v-3a6.22,6.22,0,0,1-2.44,2.44,7.65,7.65,0,0,1-3.62.85,8,8,0,0,1-4.33-1.19,7.81,7.81,0,0,1-2.92-3.36,11.66,11.66,0,0,1-1-5.06,11.88,11.88,0,0,1,1-5.1,8.2,8.2,0,0,1,3-3.48,7.53,7.53,0,0,1,4.29-1.25,7.32,7.32,0,0,1,3.62.88,5.94,5.94,0,0,1,2.44,2.4v-2.8Zm-9.35,15.33a4.27,4.27,0,0,0,3.55-1.59,7,7,0,0,0,1.26-4.47,7.15,7.15,0,0,0-1.26-4.54,4.77,4.77,0,0,0-7.17.07,7.26,7.26,0,0,0-1.26,4.55,6.86,6.86,0,0,0,1.26,4.43A4.43,4.43,0,0,0,584.62,311.67Zm24.44-15.78a5.16,5.16,0,0,1,1.85.3l0,4.21a6.43,6.43,0,0,0-2.44-.48,4.67,4.67,0,0,0-3.62,1.37,5.2,5.2,0,0,0-1.22,3.62V315H599V301.62a41.61,41.61,0,0,0-.3-5.28H603l.37,3.29a5.57,5.57,0,0,1,2.22-2.78A6.3,6.3,0,0,1,609.06,295.89ZM631,287.8V315h-4.55v-3a6.16,6.16,0,0,1-2.44,2.44,7.62,7.62,0,0,1-3.62.85,7.76,7.76,0,0,1-4.29-1.22,8.31,8.31,0,0,1-3-3.44,12.19,12.19,0,0,1-1-5.14,11.66,11.66,0,0,1,1-5.06,7.77,7.77,0,0,1,7.24-4.58,7.23,7.23,0,0,1,3.55.85,5.7,5.7,0,0,1,2.44,2.32V287.8Zm-9.39,23.87a4.27,4.27,0,0,0,3.55-1.59,7,7,0,0,0,1.29-4.5,7.16,7.16,0,0,0-1.25-4.51,4.27,4.27,0,0,0-3.55-1.59,4.4,4.4,0,0,0-3.62,1.59,6.86,6.86,0,0,0-1.26,4.43,7.28,7.28,0,0,0,1.26,4.55A4.32,4.32,0,0,0,621.58,311.67Z" transform="translate(0 0)"/><path class="cls-7" d="M500,240.68V267h-3.55l-14.19-18.44V267h-4.43V240.68h3.54l14.16,18.41V240.68Zm5.39,7.66H510V267h-4.59Zm4.85-8.47v4.55h-5.14v-4.55Zm26.82,8a5.71,5.71,0,0,1,4.73,1.92c1,1.25,1.55,3.18,1.55,5.76V267h-4.62V255.69a5.24,5.24,0,0,0-.74-3.18,2.69,2.69,0,0,0-2.36-1,3.7,3.7,0,0,0-3,1.37,5.72,5.72,0,0,0-1.08,3.7V267h-4.62V255.69a5.2,5.2,0,0,0-.77-3.18,2.76,2.76,0,0,0-2.37-1,3.7,3.7,0,0,0-3,1.37,5.61,5.61,0,0,0-1.11,3.7V267h-4.58V253.62a43.7,43.7,0,0,0-.29-5.28h4.32l.33,2.95a5.83,5.83,0,0,1,2.33-2.55,7.06,7.06,0,0,1,3.55-.88q4.29,0,5.58,3.54a6.3,6.3,0,0,1,2.51-2.58A7.26,7.26,0,0,1,537.08,247.86Zm11.21.48h4.59V267h-4.59Zm4.85-8.47v4.55H548v-4.55Zm23,8.47a36.39,36.39,0,0,0-.33,5.28V275h-4.62V264.15a5.72,5.72,0,0,1-2.44,2.33,7.41,7.41,0,0,1-3.55.82,8,8,0,0,1-4.32-1.19,7.81,7.81,0,0,1-2.92-3.36,11.66,11.66,0,0,1-1-5.06,11.88,11.88,0,0,1,1-5.1,8.2,8.2,0,0,1,3-3.48,8,8,0,0,1,8.09-.29,5.79,5.79,0,0,1,2.44,2.69l.33-3.17Zm-9.68,15.33a4.27,4.27,0,0,0,3.55-1.59,7,7,0,0,0,1.26-4.47,7.15,7.15,0,0,0-1.26-4.54,4.77,4.77,0,0,0-7.17.07,7.26,7.26,0,0,0-1.26,4.55,6.86,6.86,0,0,0,1.26,4.43A4.43,4.43,0,0,0,566.43,263.67Zm-66.63,37.1v12.64a18.46,18.46,0,0,1-4.36,1.41,26.53,26.53,0,0,1-5.21.51,14.61,14.61,0,0,1-7.06-1.62,11,11,0,0,1-4.59-4.66,15.53,15.53,0,0,1-1.58-7.24,15.35,15.35,0,0,1,1.58-7.17,11.14,11.14,0,0,1,4.51-4.66,14.1,14.1,0,0,1,6.92-1.63,15.83,15.83,0,0,1,5.17.82,11.17,11.17,0,0,1,4.07,2.29l-1.63,3.47a13.1,13.1,0,0,0-3.62-2.07,11.52,11.52,0,0,0-3.88-.63,7.76,7.76,0,0,0-6.18,2.44c-1.38,1.63-2.06,4-2.06,7.14s.71,5.66,2.14,7.31,3.56,2.44,6.39,2.44a18.73,18.73,0,0,0,5.1-.7v-6.65h-5.69v-3.44Zm5-4.43h4.58V315h-4.58Zm4.84-8.47v4.55h-5.14v-4.55Zm13.63,3.59c-2,0-3,1.09-3,3.29v1.59h4.18v3.47h-4.18V315h-4.62V299.81h-3.54v-3.47h3.54v-1.82a7.2,7.2,0,0,1,1.67-5.1,6.33,6.33,0,0,1,4.84-1.81,8.26,8.26,0,0,1,2.92.45v3.66A7.28,7.28,0,0,0,523.31,291.46Zm9.6,8.35v8.35c0,2.2,1,3.29,3.07,3.29a6.86,6.86,0,0,0,1.85-.29v3.66a8.88,8.88,0,0,1-3,.44,6.45,6.45,0,0,1-4.88-1.77,7.13,7.13,0,0,1-1.7-5.11v-8.57h-3.58v-3.47h3.58v-4.55l4.62-1.55v6.1h5v3.47Zm30.54,15.52a13.49,13.49,0,0,1-6.8-1.66,11.15,11.15,0,0,1-4.43-4.69,15.65,15.65,0,0,1-1.56-7.17,15.32,15.32,0,0,1,1.56-7.1,10.81,10.81,0,0,1,4.43-4.69,13.49,13.49,0,0,1,6.8-1.67,14.61,14.61,0,0,1,5,.85,10.64,10.64,0,0,1,3.92,2.29L570.81,295a12.25,12.25,0,0,0-3.55-2.07,10.21,10.21,0,0,0-3.73-.67,7.36,7.36,0,0,0-5.92,2.48q-2.07,2.48-2.07,7.1t2.07,7.17a7.28,7.28,0,0,0,5.92,2.47,10.86,10.86,0,0,0,3.73-.63,12.87,12.87,0,0,0,3.55-2.1l1.55,3.47a11,11,0,0,1-3.92,2.33A15.09,15.09,0,0,1,563.45,315.33Zm30.52-19V315h-4.54v-3a6.22,6.22,0,0,1-2.44,2.44,7.65,7.65,0,0,1-3.62.85,8,8,0,0,1-4.33-1.19,7.81,7.81,0,0,1-2.92-3.36,11.66,11.66,0,0,1-1-5.06,11.88,11.88,0,0,1,1-5.1,8.2,8.2,0,0,1,3-3.48,7.53,7.53,0,0,1,4.29-1.25,7.32,7.32,0,0,1,3.62.88,5.94,5.94,0,0,1,2.44,2.4v-2.8Zm-9.35,15.33a4.27,4.27,0,0,0,3.55-1.59,7,7,0,0,0,1.26-4.47,7.15,7.15,0,0,0-1.26-4.54,4.77,4.77,0,0,0-7.17.07,7.26,7.26,0,0,0-1.26,4.55,6.86,6.86,0,0,0,1.26,4.43A4.43,4.43,0,0,0,584.62,311.67Zm24.44-15.78a5.16,5.16,0,0,1,1.85.3l0,4.21a6.43,6.43,0,0,0-2.44-.48,4.67,4.67,0,0,0-3.62,1.37,5.2,5.2,0,0,0-1.22,3.62V315H599V301.62a41.61,41.61,0,0,0-.3-5.28H603l.37,3.29a5.57,5.57,0,0,1,2.22-2.78A6.3,6.3,0,0,1,609.06,295.89ZM631,287.8V315h-4.55v-3a6.16,6.16,0,0,1-2.44,2.44,7.62,7.62,0,0,1-3.62.85,7.76,7.76,0,0,1-4.29-1.22,8.31,8.31,0,0,1-3-3.44,12.19,12.19,0,0,1-1-5.14,11.66,11.66,0,0,1,1-5.06,7.77,7.77,0,0,1,7.24-4.58,7.23,7.23,0,0,1,3.55.85,5.7,5.7,0,0,1,2.44,2.32V287.8Zm-9.39,23.87a4.27,4.27,0,0,0,3.55-1.59,7,7,0,0,0,1.29-4.5,7.16,7.16,0,0,0-1.25-4.51,4.27,4.27,0,0,0-3.55-1.59,4.4,4.4,0,0,0-3.62,1.59,6.86,6.86,0,0,0-1.26,4.43,7.28,7.28,0,0,0,1.26,4.55A4.32,4.32,0,0,0,621.58,311.67Z" transform="translate(0 0)"/><g class="cls-8"><path class="cls-9" d="M410,187c17.53,47.54-42.42,52.23,11,85.51" transform="translate(0 0)"/><path class="cls-10" d="M410,187c17.53,47.54-42.42,52.23,11,85.51" transform="translate(0 0)"/><path class="cls-11" d="M373.89,159.91c2.14,17.18,23.71,28.63,36,27.1,11.08-1.38,30.34-17.94,28.19-35.12s-18.25-29.32-36-27.11S371.74,142.72,373.89,159.91Z" transform="translate(0 0)"/><path class="cls-12" d="M402.24,124.76c17.66-2.12,33.67,10,35.81,27.13s-17.11,33.74-28,35.1Z" transform="translate(0 0)"/><path class="cls-13" d="M416.17,189.34c.26.16.14.5-.2.54l-11.49,1.43c-.33.05-.54-.25-.33-.47l5.18-5.28a.45.45,0,0,1,.53-.06Z" transform="translate(0 0)"/><path class="cls-12" d="M416,190c.34,0,.46-.38.2-.54l-6.31-3.84a.37.37,0,0,0-.27,0l.64,5.15Z" transform="translate(0 0)"/></g><path class="cls-14" d="M457.8,94.52c9.95,62.69-78.68,126.34-26.3,174.16" transform="translate(0 0)"/><path class="cls-15" d="M457.8,94.52c9.95,62.69-78.68,126.34-26.3,174.16" transform="translate(0 0)"/><path class="cls-16" d="M515,38.76c0,30.79-37.64,55.76-57.5,55.76-22,0-57.5-25-57.5-55.76A54.7,54.7,0,0,1,416.17,0h82.66A54.7,54.7,0,0,1,515,38.76Z" transform="translate(0 0)"/><path class="cls-12" d="M515,38.76c0,30.7-37.64,55.76-57.22,55.76V0h41.05A54.7,54.7,0,0,1,515,38.76Z" transform="translate(0 0)"/><path class="cls-17" d="M468.13,100c.43.34.13.91-.47.91H447.07c-.6,0-.9-.57-.48-.91l10.3-8.17a.8.8,0,0,1,.95,0Z" transform="translate(0 0)"/><path class="cls-12" d="M467.65,101.06c.61,0,.91-.58.48-.91L457.84,92a.86.86,0,0,0-.47-.16v9.24Z" transform="translate(0 0)"/><path class="cls-18" d="M674.8,181.52c9.36,59-68.5,118.78-34.19,165.48" transform="translate(0 0)"/><path class="cls-19" d="M674.8,181.52c9.36,59-68.5,118.78-34.19,165.48" transform="translate(0 0)"/><path class="cls-20" d="M688,71.55V178.71a39.86,39.86,0,0,1-13.5,2.81c-22,0-57.5-25-57.5-55.76S642.74,70,674.5,70A58.82,58.82,0,0,1,688,71.55Z" transform="translate(0 0)"/><path class="cls-12" d="M688,71.55V178.76a39.21,39.21,0,0,1-13.22,2.76V70A58.69,58.69,0,0,1,688,71.55Z" transform="translate(0 0)"/><path class="cls-21" d="M685.13,187c.43.34.13.91-.47.91H664.07c-.6,0-.9-.57-.48-.91l10.3-8.17a.8.8,0,0,1,1,0Z" transform="translate(0 0)"/><path class="cls-12" d="M684.66,188.06c.6,0,.9-.58.47-.91L674.84,179a.78.78,0,0,0-.47-.15v9.23Z" transform="translate(0 0)"/><g class="cls-22"><path class="cls-23" d="M457.94,214.14c-13.8,28.58,14,43.94-21.27,61.46" transform="translate(0 0)"/><path class="cls-24" d="M457.94,214.14c-13.8,28.58,14,43.94-21.27,61.46" transform="translate(0 0)"/><path class="cls-25" d="M482.11,199.44c-2.38,10.58-16.52,16.42-24.06,14.72-6.83-1.53-17.84-13-15.46-23.6s13.15-17.17,24.06-14.72S484.48,188.85,482.11,199.44Z" transform="translate(0 0)"/><path class="cls-12" d="M466.55,175.82c-10.88-2.39-21.59,4.19-24,14.74s8.63,22.07,15.36,23.58Z" transform="translate(0 0)"/><path class="cls-26" d="M454,215.23c-.17.08-.12.3.09.35l7.08,1.59c.2,0,.35-.13.23-.28l-2.91-3.6a.29.29,0,0,0-.33-.07Z" transform="translate(0 0)"/><path class="cls-12" d="M454.05,215.62c-.21,0-.26-.26-.09-.35l4.16-2a.37.37,0,0,1,.18,0l-.72,3.18Z" transform="translate(0 0)"/></g><path class="cls-27" d="M646.57,66.25v8.37a1.44,1.44,0,0,0,.69,1.4c2,1.27,4.64,3,7.6,4.77.86.53,1,1,1,1.37v17a2.12,2.12,0,0,1-1.15,1.78c-.63.36-7.06,4-7.56,4.36s-.54.67-.54,1.48c0,1.64,0,5.54,0,7.68,0,1.31.53,2,2.12,2.88s4.09,2.19,6.09,3.3a1.69,1.69,0,0,1,1.05,1.89v15.35c0,1.9-.4,2.3-1.67,3.2-1.47,1.05-2.2,1.51-6.68,4.74a1.81,1.81,0,0,0-.9,1.61v7.53a1.69,1.69,0,0,0,1.11,1.83c1.67.93,3.79,2.13,7.06,3.9.72.38,1.08.65,1.08,1.63v17.35a1.72,1.72,0,0,1-.91,1.39c-3.15,1.83-4.21,2.35-6.87,3.86a2.59,2.59,0,0,0-1.47,2.29v8c0,.77.39,1.32,1.41,1.9,1.61.9,4,2.28,6.94,4.05a1.48,1.48,0,0,1,.9,1.65v14.41a4,4,0,0,1-4.27,4h-14a2.67,2.67,0,0,1-2.24-1.22c-.21-.22-2.23-4.13-3.5-6.31a1.64,1.64,0,0,0-1.68-1h-9.35a2.46,2.46,0,0,0-2,1.35c-1.59,2.55-1.29,2.39-3.22,5.46-.69,1.1-1.26,1.75-2.28,1.75H596.9c-1.1,0-1.52-1-1.74-1.38-.36-.66-3.17-5.65-3.46-6.22-.4-.76-.67-1-1.35-1H580.29a1.6,1.6,0,0,0-1.47,1.13c-1,2-1.46,2.86-3.27,6a2.18,2.18,0,0,1-2.18,1.44H557.15a2.29,2.29,0,0,1-1.89-1.15c0-.05-3.27-5.56-3.74-6.38a2.27,2.27,0,0,0-2.22-1h-9.6a2.06,2.06,0,0,0-1.78,1.32c-.64,1.3-1.46,3.16-2.65,6a2.08,2.08,0,0,1-2,1.27H516.83a2.09,2.09,0,0,1-1.55-1c-.71-1-2.91-4.82-4.2-6.78a2.07,2.07,0,0,0-1.93-.82h-8.71c-1.35,0-1.82.82-2.38,2-.79,1.63-.91,1.94-2.39,5.19-.23.51-1,1.4-1.54,1.4H481c-4,0-5.77-2-5.77-5V202.35a3,3,0,0,1,1.14-2.31c.33-.21,7-4.3,7.2-4.47a.82.82,0,0,0,.34-.66v-9a1,1,0,0,0-.56-1c-1.42-.84-5-3.07-7.17-4.5a1.85,1.85,0,0,1-.95-1.67V161.86a1.74,1.74,0,0,1,1-1.74c.29-.19,6.56-4,7.12-4.37a1.18,1.18,0,0,0,.6-1.06V146a1.24,1.24,0,0,0-.62-1.22c-2.28-1.23-4.56-2.65-6.87-4.13a2,2,0,0,1-1.19-2V122a2.21,2.21,0,0,1,1-1.76c1.86-1.18,5.39-3.29,7.17-4.27a1.09,1.09,0,0,0,.51-1v-8.85a1.48,1.48,0,0,0-.61-1.11c-.08-.07-7.19-4.87-7.65-5.27a2.11,2.11,0,0,1-.42-1.47V81.86a1.7,1.7,0,0,1,.74-1.47c.8-.55,6.86-4.31,7.12-4.48a2,2,0,0,0,.83-1.76c0-.58,0-7.23,0-8.16s-.44-1.23-1-1.56c-2.05-1.24-4.37-2.54-6.38-3.77a2.88,2.88,0,0,1-1.31-2.4V43.41a3.18,3.18,0,0,1,3.06-3.22h15.91a1.79,1.79,0,0,1,1.47.78c.87,1.37,3.93,6.82,4.32,7.48s.78,1.22,1.39,1.22h8.52c.54,0,1-.51,1.6-1.58,1.51-2.69,2.15-4,3.15-5.84s1.53-2.06,2.86-2.06h17.22c.75,0,1.14.68,1.36,1.1s3.79,6.88,4.1,7.42a1.54,1.54,0,0,0,1.32,1h8.7c.48,0,1.3-.8,1.66-1.45,1.22-2.22,2.39-4.84,3.9-7.06a2.1,2.1,0,0,1,1.82-1h17.33c.68,0,1,.45,1.32,1,.77,1.35,2.93,5.42,4.26,7.41a2,2,0,0,0,1.35,1h8.09c1.43,0,2.14-1.33,2.57-2.09.93-1.61,1.71-3.23,3.38-6.32a1.61,1.61,0,0,1,1.66-1.07h17.24c1.18,0,1.76,1.27,1.84,1.43,2.63,4.75,2.42,4.42,3.83,6.84a2.59,2.59,0,0,0,2.32,1.21h7a2.54,2.54,0,0,0,2.56-1.6c1.22-2.31,1.22-2.31,3.32-6.13.77-1.41,1.38-1.77,2.14-1.75.23,0,14.3,0,16.3,0A2,2,0,0,1,655.82,42V59.43a1.36,1.36,0,0,1-.86,1.39c-2.23,1.3-5.65,3.24-7.89,4.57A.93.93,0,0,0,646.57,66.25Z" transform="translate(0 0)"/><path class="cls-28" d="M431.92,295.68a6.07,6.07,0,0,1-5.1-2.78,2,2,0,0,0-2.67-.6,6.13,6.13,0,0,1-8.65-8,2,2,0,0,0-.82-2.62,6.12,6.12,0,0,1,2.6-11.48,2,2,0,0,0,1.86-2,6.12,6.12,0,0,1,11.25-3.49,2,2,0,0,0,2.68.6,6.12,6.12,0,0,1,8.64,8,2,2,0,0,0,.82,2.62,6.12,6.12,0,0,1-2.6,11.48,2,2,0,0,0-1.86,2,6.08,6.08,0,0,1-4.31,6A6.18,6.18,0,0,1,431.92,295.68ZM425.18,288a6,6,0,0,1,5,2.71,2.12,2.12,0,0,0,3.9-1.21,5.94,5.94,0,0,1,5.64-6.1,2.12,2.12,0,0,0,.9-4,6,6,0,0,1-2.47-7.94,2.12,2.12,0,0,0-3-2.77h0a6,6,0,0,1-8.11-1.83,2.12,2.12,0,0,0-3.9,1.21,5.94,5.94,0,0,1-5.64,6.1,2.12,2.12,0,0,0-.9,4,6,6,0,0,1,2.47,7.94,2.12,2.12,0,0,0,3,2.77A5.9,5.9,0,0,1,425.18,288Z" transform="translate(0 0)"/><path class="cls-29" d="M441.66,281.74a2,2,0,0,1-2,1.65,6,6,0,0,0-5.64,6.11,2.13,2.13,0,0,1-3.9,1.21,5.94,5.94,0,0,0-8.1-1.83,2.13,2.13,0,0,1-3-2.78,5.94,5.94,0,0,0-2.47-7.93,2.12,2.12,0,0,1,.9-4,5.94,5.94,0,0,0,5.64-6.1,2.13,2.13,0,0,1,3.9-1.22,6,6,0,0,0,5,2.72,6,6,0,0,0,3.12-.88,2.12,2.12,0,0,1,3,2.77,5.94,5.94,0,0,0,2.47,7.93A2.06,2.06,0,0,1,441.66,281.74Z" transform="translate(0 0)"/></svg>