<svg xmlns="http://www.w3.org/2000/svg" fill="none" viewBox="0 0 690 349"><path d="M1 9a8 8 0 018-8h672a8 8 0 018 8v331a8 8 0 01-8 8H9a8 8 0 01-8-8V9z" fill="#D94432"/><path d="M681 349H9c-5 0-9-4-9-9V9c0-5 4-9 9-9h672c5 0 9 4 9 9v331c0 5-4 9-9 9zM9 2a7 7 0 00-7 7v331a7 7 0 007 7h672a7 7 0 007-7V9a7 7 0 00-7-7H9z" fill="url(#a)"/><path d="M450.5.9l-.9 9v.3l.1.3.2.2.3.1h.3l.2-.1.2-.2.1-.3 1-9.2V.9zm-71 .1h-.3c-.4.1-.5.5-.4.9l5 15.6.4.4.5.1.3-.1.1-.2v-.3l-.1-.3-5-15.5-.5-.6zM163.3 1l34.5 21.6.2.1h.3l.2-.1.1-.1.1-.1v-.6l-.1-.2-.2-.1L165.7 1zm69 0l4.5 3.8.5.2.5-.2.1-.5-.3-.5-3.3-2.8zm49.2 0l16.4 18.1.2.2.3.1h.3l.2-.1.2-.2v-.3l-.1-.2-.2-.2L283.2 1zm38.1 0l.5.7c.1.2.2.3.4.3l.5-.1c.3-.1.3-.6.1-.9zm31.5 0l2.3 4.7.3.3.5.1.3-.1.1-.3v-.3l-.1-.3-2-4.1zm52.4 0l1.9 10.9.2.5.5.2.2-.1.2-.2.1-.3v-.3L404.7 1zm23.7 0l.3 8.4.2.5c.1.2.3.3.5.3l.4-.3.2-.5-.3-8.4zM322.5 3.8l-.2.1-.2.5.1.5 3.8 5.6c.1.2.2.3.4.3l.5-.1.1-.2.1-.2V10l-.1-.2-3.7-5.6c-.2-.2-.5-.4-.8-.4zM69.3 6.6h-.1l-.4.3.1.5.4.4 110.4 49.1h.5c.2 0 .4-.2.5-.3l-.1-.5a.8.8 0 00-.4-.4L69.8 6.6h-.5zm172.4.9l-.2.1-.2.1c-.3.2-.2.7.1.9l12.7 10.5.2.1.2.1.2-.1h.1l.1-.1.2-.2c0-.2-.1-.5-.4-.7L242.1 7.7h-.1l-.1-.1-.2-.1zm114.8 2.9h-.2c-.3.1-.4.5-.2.9l7.2 14.7.4.4h.5l.3-.4-.1-.5-7.2-14.7a.7.7 0 00-.7-.4zM328.1 12l-.3.1c-.3.2-.3.6-.1 1l3.8 5.5.1.2.2.1h.4l.2-.1.2-.2-.1-.8-3.8-5.5-.1-.2-.2-.1zm100.1 0c-.3 0-.6.4-.6.8l1 28.3.2.5.5.2c.3 0 .6-.3.6-.8l-1.1-28.1v-.3l-.1-.3-.2-.2-.3-.1zm21.7.6l-.5.2-.2.5-2.9 28.1v.3l.1.3.2.2.3.1h.3l.2-.1.2-.2.1-.3 3-28.2c0-.4-.2-.8-.8-.9zm-43 1.7h-.3l-.3.1-.2.2-.1.3v.3l4.9 27.9.3.5.5.2.5-.5v-.5l-4.9-27.9c0-.3-.3-.5-.5-.6zm-21.7 5.5c-.3.1-.4.5-.3.9l8.8 26.9c0 .2.2.3.3.4l.5.1h.3l.1-.2v-.5l-.1-.1-8.7-26.9-.1-.3-.2-.2-.3-.1zm-128.3.5l-.2.1-.2.1-.1.2v.3l.1.3.2.2 21.7 18.2.5.2a.7.7 0 00.5-.2l-.1-.5-.3-.5-21.7-18.2h-.1l-.1-.1-.2-.1zm44 .6h-.2l-.2.1-.2.2-.1.3.1.3.2.2 4.5 5 .2.2.3.1h.3l.2-.1.2-.6-.2-.5-4.5-4.9a1 1 0 00-.6-.3zm34.6 1.9a1 1 0 00-.5.1l-.1.2-.1.2.1.2.1.2 9.1 13.6c.2.3.6.5.9.2l.1-.1.1-.2v-.3l-.1-.2-9.1-13.6c-.2-.2-.3-.3-.5-.3zm-133.3 1.3c-.2 0-.4 0-.4.2l-.1.3v.3l.1.2.2.1 5.7 3.6.2.1h.3l.2-.1.1-.1.1-.1.1-.1v-.3l-.1-.3-.2-.2-5.7-3.5a.9.9 0 00-.5-.1zm163 4h-.2l-.2.2-.1.2v.3l.1.2 12.4 25.5.4.3.5.1.3-.5-.1-.5-12.4-25.4c-.2-.3-.4-.5-.7-.5zm-58 .2l-.2.1c-.3.2-.2.6 0 .9l4.5 5c.2.2.3.3.5.3l.5-.1a.8.8 0 00.2-.4l-.2-.5-4.5-5-.2-.2-.3-.1zm-96.8.8l-.5.3v.5c0 .2.1.3.3.4l5.7 3.6.5.1.5-.3v-.5c0-.2-.1-.3-.3-.4l-5.7-3.6-.5-.1zm257.3.8L464 44.5l.1.5c.1.1.2.3.4.3l.5-.1c.1-.1.3-.2.3-.4l2.4-9.5zM221 36c-.1 0-.3 0-.4.2v.5c0 .2.1.3.3.4l13.9 8.7c.3.2.8.2.9-.1.1-.1.1-.2 0-.2v-.3l-.1-.3-.2-.2-13.8-8.6c-.2-.1-.4-.2-.6-.1zm95.1 2l-.5.1c-.3.2-.2.7 0 1l11 12.1c.3.3.7.4.9.2l.2-.2V51l.1-.1-.1-.3-.2-.2-10.9-12.2a.8.8 0 00-.5-.2zm30.2 1.2l-.3.1-.2.2-.1.3v.3l.1.2 15.8 23.4.2.2.3.1h.5l.1-.1.1-.2.1-.3-.1-.5L347 39.4l-.1-.2-.2-.1zM281.6 41l-.3.1-.2.2-.1.5.3.5 5.2 4.3.5.2h.2l.2-.2c.1 0 0-.1 0-.2l.1-.3-.2-.5-5.2-4.3v-.1l-.2-.1-.3-.1zm147.5 2.9l-.4.1-.3.2-.2.3v.4l.4 12.8c0 .3.1.5.3.7s.4.3.7.3h.3l.7-.4c.2-.2.3-.4.3-.7l-.5-12.7c0-.3-.1-.5-.3-.7s-.4-.3-.7-.3zm17.5.5c-.6 0-1.1.3-1.1.9L444.2 58c-.1.1 0 .3 0 .4l.2.3.3.2.4.1h.3l.7-.2c.2-.1.4-.4.4-.6l1.3-12.9v-.4l-.2-.3-.3-.2-.4-.1zm-34.8 1.3l-.7.4-.2.7 2.3 12.7.1.4.3.3.4.2h.6l.3-.2.3-.3.1-.2.1-.5-2.2-12.6-.1-.4-.3-.3a.8.8 0 00-.4-.2h-.4zm-173.7.9l-.2.1-.2.2-.1.3v.3l.1.2.2.1 24 15 .2.1h.3l.2-.1.1-.1.1-.1.1-.2V62l-.1-.3-.2-.2-24-14.9-.2-.1zm225.3.5l-.4.2-.3.3-.1.4-3.1 12.5c-.1.2 0 .5.1.7.1.3.4.4.6.5h.2c.3.1.6 0 .8-.1.2-.1.4-.3.5-.6l3.1-12.5V48l-.1-.4-.3-.3a.8.8 0 00-.4-.2h-.2zm-174.3.2l-.3.1-.2.2-.1.2v.3l.1.2.2.2 5.1 4.3.2.2.3.1.3-.1.2-.2v-.2l.1-.3-.3-.4-5.1-4.3v-.1l-.2-.1-.3-.1zm106.2 2.6h-.2l-.2.1h-.3l-.3.2-.2.3-.1.4.1.4 4 12.3.2.3.3.2.4.1.4-.1h.3l.3-.2.2-.3.1-.4-.1-.4-4-12.3-.2-.3-.3-.2a.8.8 0 00-.4-.1zM329 52.6l-.2.1c-.3.2-.2.6 0 .9l19 21.1.2.2.2.1h.3l.2-.1.2-.2v-.2l.1-.1-.1-.3-.2-.2-18.9-21-.2-.2-.3-.1zm-30.1 3l-.3.1-.2.2-.1.5.3.5 12.6 10.5.5.2h.3l.2-.2v-.5l-.2-.5-12.6-10.5v-.1l-.2-.1-.3-.1zm80.4 1h-.5a1 1 0 00-.5.6v.8l5.7 11.5.5.5c.3.1.6.1.8 0h.2c.2-.1.4-.3.5-.6v-.8L380.4 57a1 1 0 00-.6-.5h-.4zm-195.2 1.1l-.2.1-.2.2v.5l.4.4 6.2 2.7.3.1h.3l.2-.1.1-.2-.1-.6-.3-.3-6.2-2.7-.2-.1zM50.6 58.8l-.5.1-.3.3v.3l.1.3.2.2.3.1 116.2 33.3h.5l.2-.2.2-.2-.2-.6c-.1-.1-.2-.3-.4-.3zm379.3 1.6c-.3 0-.6.4-.6.8l.6 16.4.2.5.5.2c.3 0 .6-.4.6-.8l-.7-16.2V61l-.1-.3-.2-.2-.3-.1zm15 .5l-.2.1-.2.2-.1.3-1.7 16.3c-.1.4.2.7.5.8l.4-.1.2-.2.1-.3 1.7-16.3c0-.1 0-.2.2-.2l-.1-.3-.2-.2-.3-.1zm-252 .7l-.2.1-.1.2-.1.3.1.3.2.2.3.1 6.2 2.8h.5l.3-.1.1-.2c0-.2 0-.3-.2-.5 0-.2-.2-.3-.3-.4l-6.2-2.7-.3-.1zm221.9.5c-.2 0-.3.2-.4.3l-.1.5 2.9 16.2.1.3.2.2.2.1h.4l.1-.1h.1l.1-.2.1-.3v-.3l-2.9-16.1-.1-.3-.2-.2-.2-.1zm45 1.3c-.3 0-.5.3-.6.6l-4 15.9c-.1.4.1.8.5.8l.5-.1c.1-.1.3-.2.3-.4l3.9-15.9v-.5a.8.8 0 00-.4-.4h-.3zm-194.4.2l-.4.3c-.2.2-.1.7.3.9l5.7 3.5.2.1h.3l.2-.1.1-.1.1-.1c.1-.1.1-.1 0-.2v-.3l-.1-.2-.2-.1-5.7-3.6-.5-.1zm99 1.4l-.4.1-.2.2-.3.3-.1.3v.4l.2.3 7.2 10.7.2.3.3.2h.4l.3-.1h.2l.2-.1.3-.2.2-.4v-.4l-.2-.4-7.2-10.7-.3-.3a.8.8 0 00-.4-.2zm36 .8h-.2l-.3.4v.6l5 15.5c.2.4.5.7.9.5.3-.1.4-.5.3-.9l-5-15.5-.6-.6zm-195.6 1l-.5.3.1.5.4.4 14.9 6.7c.4.1.8 0 .9-.3.2-.3 0-.7-.4-.9l-14.9-6.6-.5-.1zm109.4 1.5l-.2.1-.2.1c-.3.2-.2.7.1.9l21.7 18.2.2.2.3.1.3-.1.2-.2v-.5l-.3-.4-21.7-18.2h-.1l-.1-.1-.2-.1zm-40.6.4c-.2 0-.3 0-.4.2v.5c0 .2.1.3.3.4l5.7 3.6.5.1.5-.2v-.6l-.3-.4-5.7-3.5c-.2-.1-.4-.2-.6-.1zm112.9 2.8l-.3.1c-.2.1-.3.2-.3.4l.1.5 7.2 14.8.4.3.5.1.3-.5-.1-.5-7.2-14.7a.8.8 0 00-.4-.4h-.2zM222.8 75l-.2.1-.1.2-.1.3.1.3.2.2.3.1 25.9 11.5.2.1h.4l.1-.1.1-.1.1-.1c.2-.3-.1-.7-.5-.9L223.4 75l-.3-.1zm61.9.6l-.3.1-.2.2v.5l.3.4 13.9 8.7.5.1.5-.3c.2-.2 0-.7-.3-1l-13.9-8.6-.2-.1zm66.2.3l-.7.2-.2.2c-.2.2-.3.4-.3.7s.1.5.3.7l8.6 9.6c.2.2.4.3.7.3s.5-.1.7-.3h.2l.1-.2.1-.2.1-.4-.1-.4-.2-.3-8.6-9.6a1 1 0 00-.7-.3zm22.7 3.3l-.3.1-.2.2-.1.3v.3l.1.2 9.1 13.6c.3.3.7.5 1 .3l.3-.5-.1-.5-9.2-13.6-.4-.3h-.2zm94 3.9l-.2.6v.5c0 .2.2.3.3.5zm-166.1 2.8l-.2.1-.2.2-.1.3v.3l.1.3.2.2 24 15 .2.1h.3l.2-.1.1-.1.1-.1.1-.5v-.3l-.1-.2-.2-.1-24-15-.2-.1zM252.4 88l-.2.1-.2.2c-.1.4 0 .8.4.9l6.2 2.8h.5l.3-.1.1-.2v-.5a.8.8 0 00-.4-.4l-6.2-2.7-.2-.1zm86.4.4a1 1 0 00-.7.3v.2l-.2.7c0 .3.1.5.3.7l9.9 8.3.7.2c.3 0 .5-.1.7-.3v-.2c.2-.2.2-.4.2-.7s-.1-.5-.3-.7l-9.9-8.3-.7-.2zm23 0l-.5.1-.1.5.2.5 10.9 12.2.2.2.3.1h.3l.2-.1.1-.6-.2-.5-10.9-12.1c-.2-.2-.3-.3-.5-.3zM261.6 92c-.3 0-.5 0-.7.3-.2.3.1.7.4.9l6.2 2.7.2.1h.4l.1-.1.2-.2v-.5a.8.8 0 00-.4-.4l-6.2-2.8h-.2zm-90.2 1.6h-.3l-.1.2-.2.2v.2c0 .3.3.5.6.6l6.4 1.8h.3c.2 0 .4 0 .5-.2l.1-.2-.1-.5-.2-.2-.2-.1-6.5-1.8h-.3zm9.4 2.5l-.2.1-.4.4.1.5.4.4 6.5 1.8h.5l.4-.4c.1-.3-.2-.7-.6-.8l-6.4-1.9h-.3zm92.4 1l-.1.1c-.2 0-.4.2-.5.3l.1.5.4.4L288 105l.3.1h.3l.3-.1h.1l.1-.2-.1-.5c-.1-.1-.2-.3-.4-.3l-15-6.8h-.4zm78.1 2.2l-.2.1-.2.2c-.3.2-.2.7.1.9l12.6 10.6.5.2a.7.7 0 00.5-.2v-.5l-.3-.5-12.6-10.5-.1-.1-.1-.1-.2-.1zm-158.4.4h-.2l-.2.2-.1.3c-.1.3.2.6.6.8l15.7 4.5h.5l.2-.2.2-.2c.1-.4-.2-.7-.6-.8l-15.7-4.5-.3-.1zm135.6 2.8h-.2c-.2 0-.4.2-.6.4v.2l-.1.4v.4l.2.4.3.3 10.9 6.8.4.1h.4l.4-.2.3-.3v-.9l-.2-.4-.3-.3-10.9-6.8c-.2 0-.4-.2-.6-.1zM212.2 105l-.3.1-.2.2-.1.3c-.1.3.2.6.6.8l27.2 7.7.3.1h.3l.2-.1.1-.2c.1-.4-.2-.7-.6-1.1l-27.2-7.8zm79.2.2c-.2 0-.5 0-.6.3-.2.3 0 .7.4.9l25.9 11.5.3.1h.3l.2-.1.1-.2c.2-.3 0-.7-.4-1l-25.9-11.5h-.3zm51.1 6.4l-.3.1-.2.2v.5l.4.4 13.8 8.7.5.1.5-.3c.2-.2 0-.7-.3-1l-13.9-8.6-.2-.1zM39 113.2l-.3.1-.2.2-.1.3v.3l.1.2.2.2.3.1 119.6 16.9h.4l.2-.1.2-.2.1-.3.1-.4-.1-.2-.2-.2-.3-.1-119.7-16.8zm204.2.8l-.2.1-.4.4.1.5c.1.1.2.3.4.3l6.5 1.9h.5l.4-.4c.1-.3-.2-.7-.6-.8l-6.4-1.9h-.3zm9.3 2.6l-.2.1-.4.4c-.1.3.2.7.6.8l6.4 1.8.3.1h.3l.2-.1.1-.2.1-.3-.1-.3-.2-.2-.3-.1-6.5-1.9h-.3zm68.2 1.2l-.4.1-.3.2-.2.3v.2c-.1.3-.1.6 0 .8l.5.5 11.8 5.3c.3.1.6.1.8 0a1.1 1.1 0 00.5-.5v-.3c.1-.2.1-.5 0-.8l-.5-.5-11.8-5.2-.4-.1zm-55.7 2.6c-.3 0-.5.2-.6.4-.1.3.2.7.6.8l15.7 4.5h.5l.4-.4c.1-.4-.2-.7-.6-.8l-15.7-4.5h-.3zm70.4 4.5h-.3l-.2.3.1.5.4.4 14.9 6.6.3.1h.3l.3-.1h.1l.1-.2-.2-.6c-.1-.1-.2-.3-.4-.3l-14.9-6.7h-.5zm-51.4.8l-.2.1-.4.4.1.5c.1.1.2.3.4.3l27.2 7.8h.5l.2-.2.2-.2-.1-.5c-.1-.1-.2-.3-.4-.3l-27.2-7.8h-.3zM163.5 131c-.2 0-.4.3-.5.5-.1.3.2.6.6.7l6.7.9.5-.1c.1-.1.3-.2.3-.4.1-.3-.3-.7-.6-.7l-6.7-.9h-.3zm9.9 1.3l-.5.1-.3.4.2.5c.1.2.3.3.5.3l6.6.9c.4 0 .8-.2.8-.5.1-.4-.2-.7-.6-.8zm141.4 1.8l-.5.1c-.3.1-.4.4-.5.6v.2c-.1.3 0 .6.1.8.1.2.3.4.6.5l12.4 3.5.4.1h.2l.2-.1h.1l.2-.2.2-.3v-.8l-.1-.4-.3-.3-.4-.1L315 134h-.2zM186 134l-.5.1c-.1.1-.3.2-.3.4l.2.5.5.2 16.2 2.3.5-.1.3-.4-.2-.5a.6.6 0 00-.5-.3zm19.5 2.8c-.3 0-.5.3-.5.5 0 .3.2.6.7.7l28 3.9c.4.1.8-.1.8-.5v-.2l-.1-.2-.2-.2-.3-.1-28.1-3.9h-.3zm125 2.1l-.2.1-.4.4c-.1.4.2.7.6.8l15.7 4.5.3.1h.3l.2-.1.1-.2.1-.3-.1-.3-.2-.2-.3-.1-15.8-4.6h-.3zm-92.9 2.4c-.4 0-.7.1-.8.5s.2.7.6.8l6.7.9h.3l.3-.1.2-.2.1-.3c0-.1 0-.2-.1-.1l-.1-.2v-.1l-.2-.1h-.2l-.1-.1zm9.8 1.4l-.5.1-.4.4.2.5.5.2 6.6.9h.3l.3-.1.2-.2.1-.3-.2-.4-.5-.2zm12.5 1.6c-.3 0-.5.2-.5.5v.3l.1.2.2.2.3.1 16.2 2.3.5-.1.4-.4-.2-.6a.8.8 0 00-.5-.2l-16.2-2.3h-.3zm19.8 2.8l-.5.1-.3.4.2.5.5.2 28 4c.4 0 .8-.2.8-.5.1-.4-.2-.7-.6-.8zm31.5 4l-.4.2-.3.3-.1.4v.3c-.1.1 0 .3 0 .4l.2.3.3.2.4.1 12.7 1.8h.4l.2-.1.2-.1.2-.3.1-.4v-.2c0-.2 0-.5-.2-.7-.1-.3-.3-.4-.6-.5l-12.7-1.7zm16.5 2.8c-.4 0-.7.3-.8.6s.2.6.6.7l16.2 2.2h.3l.3-.1.2-.2.1-.3-.2-.4-.5-.2zm-17.5 14.4a1 1 0 00-.7.3 1 1 0 00-.3.7v.3c0 .3.1.5.3.7.2.2.4.3.7.3h12.9c.3 0 .5-.1.7-.3.2-.2.3-.4.3-.7v-.3c0-.2-.1-.5-.3-.7s-.4-.3-.7-.3zm-274.9.5l-.5.2-.2.4.2.5.5.2h120.9c.4 0 .8-.2.8-.6 0-.3-.4-.6-.8-.7zm242.9 0l-.5.2-.2.5.2.4.5.2h28.3c.5 0 .8-.3.8-.6v-.4l-.2-.2-.3-.1h-.3zm-117 .1c-.5 0-.8.2-.8.6s.3.6.8.6h6.7l.5-.2.2-.4-.2-.4-.5-.2zm9.7 0c-.4 0-.8.3-.8.6s.4.6.8.6h6.7c.4 0 .8-.3.8-.6s-.4-.6-.8-.6zm12.7 0l-.4.2-.2.4.2.4.4.2H200l.5-.2.2-.4-.2-.4-.5-.2zm20 0c-.4 0-.8.3-.8.6s.4.6.8.6h28.3l.5-.2.2-.4c0-.4-.3-.6-.7-.6zm32.2 0c-.4 0-.8.3-.8.6s.4.6.8.6h6.7c.4 0 .8-.3.8-.6 0-.4-.4-.6-.8-.6zm9.7 0c-.4 0-.7.2-.7.6l.2.4.5.2h6.7c.5 0 .8-.3.8-.6 0-.4-.3-.6-.8-.6zm13 0c-.4 0-.7.2-.7.6l.2.4.5.2h16.4l.5-.2.2-.4-.2-.4-.5-.2zm68 0l-.3.1-.2.2-.1.3c0 .3.3.6.8.6H343c.5 0 .8-.3.8-.6v-.2l.1-.1-.2-.2-.3-.1h-16.6zm17.4 12.6l-16.2 2.3c-.4.1-.6.3-.6.7s.4.6.8.6l16.2-2.3.5-.3.2-.5-.4-.4-.5-.1zm-19.8 2.3l-12.8 1.8-.4.1-.3.3-.2.4v.6c.1.2.2.5.4.6.2.2.4.2.7.2l12.8-1.7.4-.1.3-.3.2-.4v-.6l-.4-.7-.7-.2zm-16.3 2.8l-28 4c-.4 0-.8.4-.7.7 0 .2.2.3.3.4l.5.1 28.1-3.9c.4-.1.7-.4.6-.8 0-.3-.4-.5-.8-.5zm-31.4 4.4l-16.2 2.3c-.4.1-.6.3-.6.7s.4.6.8.6l16.2-2.3c.4-.1.7-.4.6-.7 0-.4-.4-.6-.8-.6zm70.2 3l-15.8 4.5c-.2 0-.3.2-.4.3l-.1.5c.1.4.5.5.9.4l15.7-4.5c.4-.1.7-.5.6-.8a.8.8 0 00-.4-.4zm-92.3.3h-.3l-6.6.9-.5.3-.2.5c0 .2.1.3.3.4l.5.1 6.7-1 .3-.1.2-.2.1-.2v-.3c0-.2-.2-.4-.5-.4zm-9.6 1.3h-.3l-6.7.9c-.4.1-.6.3-.6.7s.4.6.8.5l6.7-.9c.4-.1.7-.4.6-.7 0-.3-.2-.5-.5-.5zm-10.8 1.3l-28.1 4-.3.1-.2.2-.1.2v.3c0 .4.4.6.8.5l28-3.9c.5-.1.7-.4.7-.7 0-.4-.4-.6-.8-.7zm93.6 2l-.2.1-12.3 3.6h-.2l-.2.1-.3.3-.1.4.1.4v.3c.1.3.3.5.5.6s.4.2.7.1l12.4-3.6c.2-.1.4-.2.6-.5l.1-.7v-.3a1 1 0 00-.5-.6c-.2 0-.4-.2-.6-.1zm-125.2 2.6l-16.2 2.3c-.2 0-.4 0-.5.2l-.2.5c0 .2.2.3.3.4l.5.1 16.2-2.3.5-.2.2-.5-.3-.4-.5-.1zm109.5 2.6h-.3l-27.2 7.8-.4.3c-.2.1-.2.3-.2.5l.4.4h.5l27.2-7.8c.4-.1.7-.4.6-.8 0-.3-.3-.4-.6-.4zm-131.4.6h-.3l-6.6.9-.5.3-.2.5c0 .3.4.5.8.5l6.7-1 .3-.1.2-.2.1-.2v-.3c0-.2-.2-.4-.5-.4zm-9.9 1.3l-6.7.9c-.4.1-.6.3-.6.7s.4.6.8.6l6.6-1c.4 0 .8-.4.7-.7l-.3-.4-.5-.1zm181 0l-.5.1-15 6.6c-.3.1-.5.4-.5.7l.1.2v.1l.1.1.2.1h.4l.2-.1 15-6.7.4-.3v-.5c-.1-.2-.2-.3-.4-.3zm-192.7 1.4L39.1 224.3l-.3.1-.2.2-.1.2v.3l.1.3.2.2.3.1h.3l119.7-16.8.3-.1.2-.2.1-.2v-.3l-.1-.4-.2-.2-.3-.1zm122.3 5.4l-15.8 4.5c-.2 0-.3.2-.4.3l-.1.5c.1.4.5.5.9.4l15.7-4.5c.2 0 .3-.1.4-.3.2-.1.2-.3.2-.5a.8.8 0 00-.4-.4zm51.9.8h-.2l-.2.1-11.8 5.2-.5.5c-.1.3-.1.6 0 .8v.2c.1.3.3.5.6.6.2.1.5.1.8 0l11.7-5.3.3-.2.2-.3.1-.4-.1-.4v-.2l-.2-.3-.3-.2-.4-.1zm24.4 3.5l-.5.1-13.9 8.7-.3.4v.5c.2.2.3.3.5.3l.5-.1 13.9-8.7.3-.1.1-.2v-.3l-.1-.3c-.2-.2-.3-.3-.5-.3zm-97.8 1.9l-.3.1-6.4 1.8c-.4.1-.7.5-.6.8l.4.4h.5l6.5-1.8c.4-.2.6-.5.5-.7l-.1-.3-.2-.2-.3-.1zm58.3 1.8h-.3l-25.9 11.6-.3.3-.1.5.4.3h.6l25.8-11.5c.4-.2.5-.6.4-.9 0-.2-.3-.3-.6-.3zm-67.9.9l-6.5 1.9c-.2 0-.3.2-.4.3l-.1.5c0 .3.5.5.8.4l6.5-1.9c.1 0 0 .2.1.1l.1-.1.1-.1.1-.3v-.3l-.1-.2-.2-.2-.2-.1zm-10 3h-.2l-27.3 7.8c-.2 0-.4.1-.4.3v.5c0 .2.2.3.3.4h.5l27.2-7.8c.2 0 .3-.1.4-.3l.2-.5a.8.8 0 00-.4-.4h-.2zm100.1 2.5l-.4.1-10.9 6.8c-.2.1-.3.3-.4.6s0 .6.1.8v.2l.3.3.4.2h.6l.2-.1 10.9-6.8.2-.2.2-.4v-.4l-.1-.4v-.2l-.3-.3a.8.8 0 00-.4-.2zm24.9.1l-.5.2-12.5 10.6-.1.2-.1.2v.2l.1.2.2.1.2.1h.2l.2-.1 12.5-10.5.4-.5-.1-.5a.8.8 0 00-.5-.2zm-155.6 6.2h-.3l-15.7 4.5c-.4.1-.7.5-.6.8l.4.4h.5l15.7-4.5c.4-.1.7-.4.6-.8 0-.3-.3-.4-.6-.4zm79.6.2h-.3l-15 6.7-.4.4v.5c.1.2.2.3.4.3l.5-.1 15-6.6c.2 0 .3-.2.4-.4v-.5c0-.2-.4-.3-.6-.3zm37.4 2.8l-.5.1-24 15-.2.1-.1.2v.3l.1.3c.2.2.3.3.5.3l.5-.1 24-15.1.2-.4v-.5a.8.8 0 00-.5-.2zm47.4 0a1 1 0 00-.5.3l-11 12.2-.1.2-.1.2.1.2.1.2c.2.3.7.2 1-.1l10.9-12.2.1-.2.1-.2-.1-.2-.1-.2a.4.4 0 00-.4-.2zm-185.9 3.1l-.3.1-6.5 1.8c-.2 0-.3.2-.4.3l-.1.5c.1.4.5.5.9.4l6.4-1.8c.4-.2.7-.5.6-1l-.1-.2-.2-.1zm161.4 0l-.5.3-9.8 8.3-.3.3-.1.4v.4l.2.4.2.2c.2.2.4.3.7.3l.7-.2 9.9-8.3c.2-.2.3-.4.3-.8l-.2-.7-.2-.2a1 1 0 00-.7-.3h-.2zm-171.1 2.7l-6.4 1.9c-.4.1-.7.5-.6.8l.4.4h.5l6.4-1.9c.5-.1.7-.4.6-.8a.8.8 0 00-.4-.4zm90.2.4l-.3.1-6.1 2.8-.3.1-.2.2-.1.3.1.3c.1.4.5.5.9.3l6.1-2.7c.2 0 .3-.2.5-.5l.1-.5-.5-.3h-.2zm115.3 1.4l-.5.3-9.1 13.6-.1.2v.3l.1.3.2.2.3.1h.3l.2-.1.1-.2 9.2-13.6v-.6l-.2-.4-.5-.1zm-216.4 1.4l-.3.1-116.2 33.3c-.2 0-.3.2-.4.3l-.1.5.4.4h.5l116.2-33.3c.3-.2.6-.5.5-.7l-.1-.3-.2-.2-.3-.1zm92.1 1.3l-.3.1-6.1 2.7c-.4.2-.5.6-.4.9s.5.4.9.3l6.1-2.8c.2 0 .3-.1.5-.4l.1-.5-.2-.2-.3-.1zm135.5 3.6l-.2.1-.2.2-.1.2-7.2 14.7-.1.5.3.5.5-.1.2-.1.2-.2 7.2-14.7c.1-.1.1-.2-.1-.3v-.4l-.1-.2-.2-.2zm-57.9.3l-.3.1-.2.2-21.7 18.2c-.2.2-.3.3-.3.5l.1.5.2.1.3.1a.7.7 0 00.5-.2l21.7-18.2.3-.5-.1-.5v-.1l-.2-.1-.3-.1zm23.2.2a1 1 0 00-.7.3l-8.6 9.6-.2.7c0 .3.1.5.3.7l.2.2.7.2c.3 0 .5-.1.7-.3l8.6-9.6c.2-.2.3-.4.3-.7s-.1-.5-.3-.7l-.2-.2a3 3 0 00-.8-.2zm-110.5.2l-.3.1-25.8 11.5-.4.4-.1.5.5.3h.5l25.8-11.6c.2 0 .3-.1.4-.3l.1-.5-.4-.3h-.3zm49.9 2l-.6.2-13.8 8.6-.2.2-.1.3v.3l.1.3c.1.3.6.3.9.1l13.9-8.7c.2-.1.3-.2.2-.5v-.5a.5.5 0 00-.4-.2zm107.2 2c-.3 0-.5.3-.6.6l-5.1 15.5v.6l.4.4c.3.1.7-.2.8-.6l5.1-15.5v-.5a.8.8 0 00-.4-.4h-.2zm50.1 1.4l-.4.4v.5l4 15.9c.1.4.4.7.8.6l.4-.4v-.5l-4-15.9-.3-.4a.8.8 0 00-.5-.2zm-37.7 1.6l-.5.2c-.2.1-.3.3-.3.5l-2.8 16.1c-.1.4.1.8.5.8h.4l.1-.1.2-.2.1-.3 2.9-16.1-.2-.5a.8.8 0 00-.4-.4zm25.2.8c-.2 0-.3.2-.4.3l-.1.5 1.7 16.3v.3l.2.2.5.2.3-.1.2-.2.1-.3v-.3l-1.8-16.2-.2-.5-.5-.2zm-12.6.5c-.4-.1-.7.3-.7.7l-.5 16.4v.3l.1.2.2.2h.3l.5-.2.2-.5.6-16.4-.3-.5-.4-.2zm-59.3 1l-.2.1c-.2 0-.4.2-.6.4l-7.2 10.7c-.1.3-.2.5-.1.8 0 .2.2.4.4.6h.2c.2.2.4.2.7.2l.7-.4 7.2-10.7c.1-.2.2-.4.1-.7-.1-.2-.2-.5-.4-.6l-.2-.2c-.2 0-.4-.2-.6-.1zm-23.2 3.2l-.2.1-.2.2-19 21.1c-.2.2-.2.5-.2.7l.2.2.2.1h.3l.3-.1.2-.2 18.9-21 .2-.2.1-.3-.1-.3-.2-.2-.2-.1zm-128.8.6l-.2.1-15 6.7-.3.3-.1.5.1.2.2.1h.4l.2-.1 15-6.7.3-.3.1-.2v-.2l-.4-.3h-.3zm59.7 1.1l-.2.1-5.7 3.5c-.4.2-.5.7-.3.9l.2.2.2.1h.4l.1-.1 5.7-3.6h.3l.1-.2v-.3l-.1-.3-.2-.2-.2-.1zm105.5 2.9l-.3.2-.2.3-5.7 11.6c-.1.3-.1.5 0 .8s.3.5.5.6h.2c.3.1.6.1.8 0a1.1 1.1 0 00.5-.5l5.7-11.6c.1-.2.1-.5 0-.8l-.5-.5h-.2l-.4-.1zm-113.5 2.2l-.5.1-5.7 3.6-.3.4v.5c.2.2.3.3.5.3l.5-.1 5.7-3.6.3-.4v-.5c-.2-.2-.3-.3-.5-.3zm40.4.8l-.4.2-12.5 10.5c-.3.3-.4.7-.2.9l.2.2.3.1.3-.1.2-.2 12.5-10.5.2-.5-.2-.4-.4-.2zm-112.5 2.1l-.3.1-6.1 2.7c-.4.2-.6.6-.4.9l.1.2.2.1h.4l.2-.1 6.1-2.7c.2 0 .3-.2.4-.3l.1-.5-.5-.3h-.2zm200.4.5l-.4.1-.3.2-.2.3-3.9 12.3-.1.4.1.4.2.3.3.2h.2l.4.1.4-.1.3-.2.2-.3 4-12.3.2-.5-.1-.4-.3-.3-.4-.1h-.2l-.4-.1zm-36.8.6c-.3 0-.6.2-.8.4l-15.8 23.5c-.2.3-.2.8.1.9l.5.1.4-.3 15.9-23.5.1-.5-.2-.5h-.2zm97.9 1.3h-.2l-.2.1-.3.3-.1.4.1.4 3.1 12.5.1.4.3.3.4.1.4-.1h.2l.3-.1c.2 0 .2-.1.3-.2l.1-.2.1-.5-3.2-12.5-.1-.4-.3-.3a.8.8 0 00-.4-.2h-.4zm-198.8.4l-.2.1-24 15-.2.1-.1.2v.3l.1.3c.2.3.6.3 1 .1l24-15 .2-.3v-.5l-.2-.2-.3-.1zm-71.4 1.1l-.5.1-6.1 2.7c-.4.2-.5.6-.4.9s.5.4.9.3l6.2-2.8.4-.4v-.5c-.2-.2-.3-.3-.5-.3zm224.2.4l-.7.2c-.2.1-.4.4-.4.6l-2.2 12.7v.4l.2.4.3.3.4.1h.6l.4-.2.3-.3.1-.4 2.2-12.7v-.3l-.2-.4-.3-.3-.4-.1zm30.8.9l-.6.3a1 1 0 00-.3.7l1.4 12.9c0 .2.2.4.3.5l.1.1.4.2h.7l.2-.1.3-.2.2-.4v-.4l-1.3-12.7-.4-.6a1 1 0 00-.7-.3zm-15.5.6h-.3l-.3.2-.2.3-.1.4-.4 12.9c-.1.2 0 .3 0 .4l.2.3.3.2.4.1h.3c.2.1.3.1.4 0l.3-.2.2-.3.1-.4.5-12.9c0-.1 0-.3-.2-.5v-.2l-.2-.1-.2-.1-.1-.1h-.6zm-250.3 2.8l-.3.1-110.4 49.2-.2.2a.7.7 0 00-.2.5v.2c.1.3.5.4.9.3l110.4-49.2.3-.2v-.1l.1-.1v-.6l-.1-.2-.2-.1zm198.5 1.3l-.3.1-.4.4-12.4 25.5-.1.2v.3l.1.2.2.2c.3.2.7 0 .9-.4l12.4-25.4.1-.5-.3-.5h-.2zm-83.6 2.5l-.5.2-5.2 4.3-.2.5.1.5.2.1.2.1.2-.1h.1l.1-.1 5.2-4.3.4-.5-.1-.5a.8.8 0 00-.5-.2zm32.7 1.4a1 1 0 00-.5.3l-11 12.1-.1.2-.1.3.2.5.5.1.5-.2 10.9-12.2.2-.2.1-.3-.1-.3-.2-.2h-.2l-.2-.1zm67.6 2.8l-.5.1c-.1.1-.3.2-.3.4l-8.7 26.9-.1.3v.3l.1.2.2.1.5-.1.4-.4 8.7-26.9c.1-.4 0-.8-.3-.9zm70 2.1c-.4 0-.6.4-.5.8l2.4 9.4v-5l-1.2-4.6v-.3l-.2-.2-.2-.1zm-178.2.1h-.1l-.1.1-5.1 4.3c-.2.2-.3.3-.3.5l.1.5.5.2h.3l.2-.2 5.1-4.4c.1 0 .1-.1 0-.2l.1-.2v-.2l-.1-.2-.2-.1-.2-.1zm-51.5.9l-.6.1-13.8 8.7-.2.1-.1.2v.3l.1.3c.1.3.6.3.9.1l13.9-8.7c.2-.1.3-.2.2-.4v-.5a.5.5 0 00-.4-.2zm176.4 1c-.2 0-.4.3-.5.6l-4.9 27.9v.3l.1.3.2.2.3.1h.3l.2-.1.2-.2.1-.3 5-27.9a1 1 0 00-.7-.9h-.3zm35.8 1.3l-.2.1-.2.1-.1.2v.2l2.9 28.2.3.5.5.2c.2 0 .3-.2.4-.3l.1-.5-3.1-28.2v-.1l-.1-.1-.1-.2-.2-.1zm-17.7.5c-.3 0-.6.4-.6.8l-1 28.2c0 .5.2.8.6.8l.4-.2.2-.5 1-28.3c0-.4-.3-.8-.6-.8zm-150.7 2.9l-.3.1-.2.2-21.7 18.2-.2.2-.1.3v.3l.1.2.5.2h.2l.2-.2 21.7-18.2.4-.5-.1-.5v-.1l-.2-.1-.3-.1zm65.7 2l-.3.1-.2.2-9.1 13.5-.1.2v.3l.1.3.2.2.3.1h.4l.1-.1.1-.2 9.1-13.5.2-.2.1-.3-.1-.3-.2-.2-.3-.1zm-32.5 3.2a1 1 0 00-.6.3l-4.4 5-.2.5.1.5.5.1.5-.3 4.5-5 .2-.5-.2-.5-.2-.1h-.2zm-96 .9l-.5.1-5.7 3.6-.2.1-.1.2v.3l.1.3.2.2.2.1h.3l.2-.1 5.7-3.6.2-.1.1-.2v-.3l-.1-.3c-.1-.2-.2-.3-.4-.3zM209 310l-.6.1-5.7 3.6-.3.4v.5c.2.3.6.3 1 .1l5.7-3.5.3-.5v-.5a.5.5 0 00-.4-.2zm97.4 1.2l-.5.2-4.5 5c-.2.3-.3.8 0 1l.3.1h.4l.2-.1h.1l.1-.2 4.5-4.9c.2-.3.3-.8-.1-1l-.5-.1zm58.8.5c-.3 0-.6.2-.7.5l-7.2 14.7c-.1.4 0 .7.3.9s.7 0 .9-.4l7.1-14.7.1-.5-.3-.4h-.2zM199 316.2l-.6.1L151 346h2.4l45.8-28.7c.2-.1.3-.2.3-.4v-.5a.5.5 0 00-.4-.2zm100.3 3l-.5.2-18.9 21.1-.1.2-.1.2.1.2.1.2c.2.3.7.2.9-.1l19-21c.2-.4.3-.8 0-.9l-.5-.1zm-43.8.1l-.5.2-12.6 10.5-.2.2-.1.3v.3l.1.2.2.1.2.1.2-.1h.1l.1-.1 12.6-10.5.4-.5-.1-.5-.4-.2zm77.4.2l-.4.3-3.8 5.6-.1.5.2.5c.3.2.7 0 1-.3l3.7-5.6.2-.2v-.3l-.1-.2-.2-.2-.5-.1zm53 .5l-.5.1-.4.4-5 15.6c-.1.4.1.8.4.9.3.1.6-.1.8-.5l5-15.6v-.6l-.1-.2-.2-.1zm21.2 5.3c-.2 0-.4.3-.5.6l-2.8 16.1c-.1.4.2.7.5.8s.6-.2.7-.6l2.9-16.1c0-.4-.1-.7-.5-.8h-.3zm44.4 1.3c-.2 0-.3.2-.4.3l-.1.5 1.7 16.3.2.5.5.2.4-.3c.2-.1.2-.3.2-.5l-1.8-16.3-.2-.5a.8.8 0 00-.5-.2zm-22.1.9l-.4.2-.2.5-.6 16.4c0 .4.2.7.6.7l.4-.2.2-.5.6-16.3c0-.5-.2-.8-.6-.8zm-101.7 0c-.3 0-.6.2-.8.4l-3.7 5.6-.1.2v.3l.1.2.2.2.5.1.4-.3 3.8-5.6v-.5l-.2-.5h-.2zm27.7 4.6l-.5.1c-.2 0-.3.2-.4.3l-3 6.1c-.1.3 0 .7.3.9s.7 0 .9-.4l2.9-6 .1-.5-.3-.5zm-117.3 1.6l-.5.2-5.1 4.3c-.2.2-.3.3-.3.5l.1.5.2.2.3.1.3-.1.2-.2 5.1-4.3.3-.5-.1-.5a.8.8 0 00-.5-.2zm83.5 2.7h-.1c-.2 0-.3.1-.4.3l-6.3 9.3h1.5l5.8-8.6.2-.2v-.3l-.1-.3-.2-.2h-.4zm-90.9 3.6l-.2.1-.2.1-5.2 4.3-.2.2-.1.3v.3l.1.2.5.2h.2l.2-.2 5.2-4.4c.3-.2.4-.7.1-.9h-.1l-.1-.1-.2-.1zm120.2.8c-.3 0-.5.2-.7.5L348 346h1.4l2-4.2.1-.2v-.3l-.1-.2-.2-.2h-.2zm28 .7h-.3l-.2.1c-.1.1-.3.2-.3.4l-1.3 4h1.3l1.1-3.6v-.6l-.1-.2-.2-.1zm-101 1.2l-.2.1-.2.2-2.7 3h1.7l1.9-2.1.2-.3.1-.3-.1-.3-.2-.2-.2-.1z" fill="url(#b)"/><path d="M62.2 312.6l-4.5-7.8c-.3-.6-.9-.9-1.6-.9h-8.9c-.6 0-1.2.3-1.5.9l-4.5 7.8a2 2 0 000 1.8l4.5 7.8c.3.6.9.9 1.5.9h8.9c.6 0 1.2-.3 1.5-.9l4.5-7.8c.5-.5.5-1.2.1-1.8z" fill="url(#c)"/><path fill="#fff" d="M78.1 307.9H80v11.3h-1.5l-6.1-7.9v7.9h-1.9v-11.3H72l6.1 7.9v-7.9zm5.8 11.3v-11.3H86v11.3h-2.1zm15.4-11.3h1.6v11.3h-1.8v-7l-3.1 7h-1.3l-3.1-7v7h-1.8v-11.3h1.6l3.9 8.9 4-8.9zm5.5 11.3v-11.3h2.1v11.3h-2.1zm16.1-2.6a5.2 5.2 0 01-2.4 2.3l.9 1.2 1.2 1.1-1.4 1.1-1.4-1.3c-.5-.5-.9-1.1-1.2-1.7h-.5c-1.2 0-2.1-.2-3-.7a4.6 4.6 0 01-1.9-2c-.4-.8-.7-1.9-.7-3.1s.2-2.2.7-3.1c.4-.9 1.1-1.6 1.9-2 .8-.5 1.8-.7 2.9-.7s2.1.2 2.9.7 1.5 1.1 1.9 2 .7 1.9.7 3.1-.2 2.3-.6 3.1zm-7.4 0c.6.7 1.4 1.1 2.5 1.1s1.9-.4 2.5-1.1.9-1.7.9-3.1c0-1.3-.3-2.4-.9-3.1s-1.4-1.1-2.5-1.1-1.9.4-2.5 1.1-.9 1.8-.9 3.1c0 1.4.3 2.4.9 3.1z"/><path d="M461 192.9s5.7.9 4.4 5.6c-2.6 8.9 3.6 13.7 7 13.6 8.2.6 21.7-16.7 12-31.6-9.8-15-11.1-15.6-5.8-30.1 5.3-14.4 14.9-13.2 14.9-13.2 2.8 1.3.7 2 .7 2a15 15 0 00-13.6 10.4c-4.7 13.1-3.2 17.2-1.2 19.9 2.1 2.7 11.8 14.3 9.9 25.2-1.9 11-9.4 19.3-17.6 18.7s-9.5-10.2-8.4-14.3c.3-1.2 1.2-2.5-2.5-4.6l-.3-.1c-2.6-1.3.5-1.5.5-1.5z" fill="#F3C755"/><path d="M461 192.9s5.7.9 4.4 5.6c-2.6 8.9 3.6 13.7 7 13.6 8.2.6 21.7-16.7 12-31.6-9.8-15-11.1-15.6-5.8-30.1 5.3-14.4 14.9-13.2 14.9-13.2 2.8 1.3.7 2 .7 2a15 15 0 00-13.6 10.4c-4.7 13.1-3.2 17.2-1.2 19.9 2.1 2.7 11.8 14.3 9.9 25.2-1.9 11-9.4 19.3-17.6 18.7s-9.5-10.2-8.4-14.3c.3-1.2 1.2-2.5-2.5-4.6l-.3-.1c-2.6-1.3.5-1.5.5-1.5z" fill="#010202" opacity=".1"/><path d="M465 187.2c2.1 2.7-5.4 7.6-5.4 7.6s-3.4 6.9-5.4 4.2c-1-1.2-1-7.1-1-7.1l4-6.2c.1-.1 6.6 0 7.8 1.5z" fill="#E9B214"/><path d="M460.4 194.3s5.7.9 4.4 5.6c-2.6 8.9 3.6 13.7 7 13.6 8.2.6 21.7-16.7 12-31.6-9.7-15-11.1-15.6-5.8-30.1 5.3-14.4 14.9-13.2 14.9-13.2 2.8 1.3.7 2 .7 2A15 15 0 00480 151c-4.7 13.1-3.2 17.2-1.2 19.9 2.1 2.7 11.8 14.3 9.9 25.2-1.9 11-9.4 19.3-17.6 18.7s-9.5-10.2-8.4-14.3c.3-1.2 1.2-2.5-2.5-4.6l-.3-.1c-2.7-1.4.5-1.5.5-1.5z" fill="#F3C755"/><path d="M465 187.2c2.1 2.7-4 4.8-5.4 7.6-1.3 2.8-3.4 6.9-5.4 4.2 1.7-1.8 8.5-8.7 10.8-11.8z" fill="#E9B214" opacity=".1"/><path d="M409.2 144a14.5 14.5 0 110-29 14.5 14.5 0 010 29z" fill="url(#d)"/><path d="M406.5 139.9c-5.6 0-10.1-4.5-10.1-10.1s4.5-10.1 10.1-10.1 10.1 4.5 10.1 10.1-4.5 10.1-10.1 10.1z" fill="#D94532"/><path d="M427.8 207.1a38.4 38.4 0 110-76.8 38.4 38.4 0 010 76.8z" fill="url(#e)"/><g opacity=".1"><path d="M391.5 158.1a38.4 38.4 0 0055.8 43.7c-10.3-.5-34.6-6.5-43.1-26.3-6.5-14.4.8-33.4 7.3-41.7a39.3 39.3 0 00-20 24.3z" fill="#010202" opacity=".5"/></g><path d="M463.2 154.3a14.5 14.5 0 01-3.7-28.7 14.5 14.5 0 013.7 28.7z" fill="#E9B213"/><path d="M448.9 138.6c4.4 3.2 8 7.3 10.7 12.1a10 10 0 008.6-6.3 10.2 10.2 0 00-1.8-10.5 10.3 10.3 0 00-10.2-3.1c-1.8.5-3.5 1.5-4.7 2.8s-2.2 3.2-2.6 5z" fill="#d94532"/><path d="M464.4 192.9s-2.9 7.1-5.2 4.5c-1-1.1-1.4-7-1.4-7l1.8-3.2c1.5 4.5 3.1 6.1 4.8 5.7z" fill="#E9B214" opacity=".1"/><path d="M412.6 170.4s-3-2.3-5.8-1.6c-.6.1-.7.6-.4 1.4 0 0 1.6 3.5 2.1 3.6s4.2-1.9 4.2-1.9c.7-.5.6-1.1-.1-1.5z" fill="#3B3A3A"/><path d="M409.1 168.8c-.7-.1-1.5-.1-2.3.1s-.7.6-.4 1.4a13 13 0 002.1 3.6c-.7-2.7-.6-5 .6-5.1z" fill="#E7B114" opacity=".2"/><path d="M411 170.7s-2.6-1.5-4.2-1.2l4.2 1.2z" fill="#fff" opacity=".3"/><path d="M409.7 184.2l-1.8-.2c-3.5-.7-6.4-3.2-8.8-7.6-.2-.4-.1-1 .4-1.2.4-.2 1-.1 1.2.4 1.7 3.1 3.7 5.2 5.9 6.2a27 27 0 011.2-8.2c.1-.4.5-.7 1-.6.4.1.8.5.7.9l-.4 8.5c3.9.3 7.2-2.4 7.2-2.4.4-.3.9-.3 1.2.1s.3.9-.1 1.2c-.1.2-3.4 2.9-7.7 2.9z" fill="#010101"/><path d="M428.8 170.3s3.1-11.3-2.5-12.8c-5.6-1.6-8.6 9.4-8.6 9.4s7.6-9.7 11.1 3.4zm-21.6-5.9s3.1-11.3-2.5-12.8c-5.6-1.6-8.6 9.4-8.6 9.4s7.6-9.7 11.1 3.4z" fill="#010202" opacity=".6"/><path d="M437.8 189.6h-.2L413 177.8c-.2-.1-.3-.3-.2-.5s.3-.3.5-.3a72.6 72.6 0 0124.8 11.9c.2.1.2.4.1.6l-.4.1zm-20.3-10.7l14.9 7.1a76.7 76.7 0 00-14.9-7.1zm22.4 3.1l-26.4-6c-.2-.1-.4-.3-.3-.5s.2-.4.5-.4c11.9.5 26.3 6 26.5 6.1s.3.3.3.5l-.6.3zm-18.4-5.1l8.4 1.9c-2.5-.7-5.4-1.4-8.4-1.9zm-16.7-1.4h-.2c-9.6-3.6-23.5-1.5-23.6-1.5-.2 0-.5-.1-.5-.4 0-.2.1-.5.4-.5.1 0 14.3-2.2 24.1 1.5.2.1.3.3.3.6-.1.2-.3.3-.5.3zm.6-1.8h-.1l-22.3-7.3a.5.5 0 01-.3-.5c.1-.2.3-.4.5-.3.1 0 13.4 2.1 22.5 7.4.2.1.3.4.2.6l-.5.1zm-13.6-5.3l7 2.3a57 57 0 00-7-2.3z" fill="#010101"/><path d="M392.6 214.3c4.5-5.4 9-2.3 10.8-.6 1.1-.9 2.1-1.9 2.9-3.1l5.2-7.4a31 31 0 0011.1 3.7l-3.3 10s4.5.6 4.5 3.1-2 5.6-7.8 3.1-11.7-.6-16.9.6c-5.2 1.3-11.1-.6-11.1-4.4.1-2.9 1.3-5.1 4.6-5z" fill="url(#f)"/><path d="M423.8 220c0 2.4-2 5.6-7.8 3.1s-11.7-.6-16.9.6c-5.2 1.3-11.1-.6-11.1-4.4 8 4.7 8.9 1.1 22.5 1.6 7.3.1 11 4 13.3-.9z" fill="#010202" opacity=".1"/><path d="M431 213.1l.7-6.5s9.1-1.3 14.9-5.2c0 0 3.1 11.7 6.3 13.5 1.6-1 3.9-.5 4.9 1.2.4.6.6 1.2.5 1.9 0 .5-.1.9-.3 1.4-.2.4-.4.8-.8 1.2l-1.1.8a3 3 0 01-3-.2 4.8 4.8 0 01-3 2.2 5 5 0 01-3.6-.5c-.6-.4-1.1-.9-1.5-1.5-.5 1.2-1.5 2.1-2.7 2.5s-2.5.4-3.7-.1c-1-.5-1.8-1.3-2.3-2.3-.4.6-.9 1.2-1.4 1.6-.6.4-1.2.7-1.9.9s-1.4.2-2.1.1-1.4-.3-2-.7-1.2-.9-1.6-1.4c-.4-.6-.7-1.2-.9-1.9s-.2-1.4-.1-2.1.3-1.4.7-2c.4-.8 1-1.4 1.7-1.9.6-.7 1.4-1 2.3-1z" fill="url(#g)"/><path d="M388.8 218.5c2.4-2.4 7.2-2.7 7.2-2.7a8.6 8.6 0 00-3.6-.8c-2-.1-3.6 1.5-3.6 3.5z" fill="#fff" opacity=".2"/><path d="M434.6 222.3c-4.7-.4-7.1-1.6-6.6-7.6-2.2 1.7-2.4 5-.7 7.1s5 2.4 7.1.7l.2-.2zm8.1.4c-3.8-.3-5.6-1.4-5.3-6.1a4 4 0 00-1 1.2 4.2 4.2 0 00-.2 3.1c.2.5.4 1 .8 1.4 1.4 1.6 4 1.8 5.7.4 0 0-.1.1 0 0zm8.3-.6c-3.3-.2-5-1.2-4.7-5.4-1.5 1.3-1.8 3.4-.5 5s3.5 1.8 5 .5l.2-.1zm5.6-1.7c-2.7-.2-4.1-.9-3.8-4.4-.3.2-.5.5-.7.9a2 2 0 00-.3 1.1l.1 1.1.5 1c.2.3.5.5.9.7.3.2.7.3 1.1.3l1.1-.1 1-.5.1-.1zm-19.7-15l-.7 6.6c4.6-.4 9.2.5 13.3 2.5-4.7-1-9.3-1.4-13.5-.7 0 0-2.5-1.6-5.1-.8l.8-6.7c1.8 0 3.5-.3 5.2-.9z" fill="#010202" opacity=".1"/><path d="M421.4 206.9s-3.5 8.1-2.6 10.8c0 0-1.7-7.2-.9-9.3.8-2 3.5-1.5 3.5-1.5z" fill="#fff" opacity=".2"/><path d="M403.4 213.7c-1.8-1.6-6.3-4.7-10.8.6 0 .1 8 2.5 10.8-.6z" fill="#010202" opacity=".1"/><path d="M446.1 202.2s3 10.2 5.7 11.8c0 0-6.5-5.1-7.4-7.6-.8-2.6 1.7-4.2 1.7-4.2zm-18.3 15.4c2.4-2.4 4.2-3 7.2 0 0-.5-.1-.9-.3-1.4-.2-.4-.4-.8-.8-1.1-.3-.3-.7-.6-1.2-.8-.4-.2-.9-.3-1.4-.3-1.7.1-3.5 1.6-3.5 3.6zm10.4 1.9c1.7-1.7 3-2.2 5.2 0l-.1-1.1-.5-.9c-.2-.3-.5-.5-.8-.6-.3-.2-.7-.2-1-.3-.4 0-.7 0-1 .2l-.9.6c-.3.2-.5.5-.6.9l-.2 1v.2h-.1zm8.4-1.3c1.3-1.3 2.3-1.6 3.9 0l-.2-.7-.5-.6-.7-.4-.8-.1c-.9 0-1.6.8-1.7 1.8zm5.6 0c1.2-2.2 2.4-2.9 5-1.5-.4-1.4-1.7-2.3-3.1-1.9s-2.3 1.7-1.9 3.1v.3z" fill="#fff" opacity=".2"/><path d="M417.3 181c.1-.3.1-.5-.1-.6l-.1-.1-.2-.1h-.2l-.2.1c-.1.1-3.9 3.2-8.3 2.4-3-.6-5.7-2.9-7.8-6.9l-.3-.2h-.4c-.2.1-.3.3-.3.6 0 2.2.9 11.3 8 13 7.1 1.6 9.7-7.9 9.9-8.2z" fill="#010101"/><path d="M403.1 183.8l-.5-4.7a9.5 9.5 0 009.4 3.8l.2 3.5c.1.5-.1.6-.6.7l-3.6-.7-.6-2.9v2.7l-3.5-1.4c-.6-.3-.8-.6-.8-1z" fill="#fff"/><path d="M647.6 67.3v8.4l.1.4.3.6.1.2.1.1.4.2 7.2 4.1c.7.4 1.1 1.1 1.1 1.8V100l-.2.7v.1l-.1.1-.1.1-.1.1-.1.1-.1.1-.2.2-.2.1h-.1l-7.3 4.2-.1.1-.1.1-.2.1-.1.1-.1.1-.1.1-.1.2-.1.2-.1.2v9.2l.1.1.1.1v.1l.1.1.2.2.1.1v.2l.1.1.2.1 7.3 4.2c.7.4 1.1 1.1 1.1 1.8V140c0 .8-.5 1.4-1.1 1.8l-4.5 2.7-3 1.7c-.5.3-.8.9-.8 1.4v8.4c0 .6.3 1.1.8 1.4l7.4 4.2c.7.4 1.1 1.1 1.1 1.8V180c0 .8-.5 1.4-1.1 1.8l-5.9 3.6-1.4.8c-.5.3-.8.9-.8 1.4v9l.1.2.1.2.2.2.4.2 7.2 4.1c.7.4 1.1 1.1 1.1 1.8v14.1l-.1.8-.2.7a3 3 0 01-.4.8l-.2.3-.2.3-.1.1-.1.1-.3.3-.2.1-.3.3-.3.2h-.1l-.2.1-.2.1-.5.2-.6.2-.3.1h-.1l-.4.1h-14.1a2 2 0 01-1.7-1l-.1-.1-4.2-7.4-.2-.3-.2-.2-.2-.2h-.1l-.4-.2-.4-.1h-8.6l-.4.1-.2.1-.1.1-.2.3-.2.4-4.1 7.2c-.4.7-1.1 1.1-1.8 1.1H598c-.7 0-1.4-.4-1.8-1.1v-.1l-4.2-7.4-.1-.1-.1-.1-.1-.2-.1-.1-.1-.1-.1-.1-.1-.1-.4-.2-.4-.1h-8.4c-.5 0-1 .2-1.3.6h-.2l-.1.1-.1.2-4.2 7.3c-.4.7-1.1 1.1-1.8 1.1h-17.1l-.2-.1-.3-.1h-.2l-.2-.1-.1-.1-.4-.3-.2-.3a.8.8 0 01-.2-.4l-2.6-4.2-1.7-3c-.3-.5-.9-.8-1.4-.8h-8.4c-.6 0-1.1.3-1.4.8l-4.2 7.4c-.4.7-1.1 1.1-1.8 1.1h-16.9l-.4-.1h-.1l-.3-.1-.3-.2-.2-.3-.2-.3-3.7-6-.5-.8-.2-.3-.1-.1-.1-.1-.1-.1h-.2l-.1-.1h-.1l-.1-.1-.1-.1-.3-.1h-8c-.6 0-1.1.3-1.4.9l-.8 1.4-3.3 5.4-.4.6c-.4.3-.8.5-1.4.5h-13.6a4 4 0 01-1.5-.3l-.4-.2-.4-.2-.4-.3-.4-.3-.4-.3-.3-.4-.3-.4-.2-.4-.2-.5-.2-.4-.1-.8v-14c0-.5.2-.9.5-1.3l.5-.5.1-.1 7.4-4.2.3-.2.2-.2.2-.2v-.1l.2-.4.1-.4V187l-.1-.4-.3-.6-.1-.2-.1-.1a.8.8 0 00-.4-.2l-7.2-4.1a2.1 2.1 0 01-1.1-1.8V163c0-.5.2-.9.5-1.3l.6-.5h.2l7.4-4.2.3-.2.2-.2.2-.2v-.1l.2-.4.1-.4v-8.4c0-.5-.2-1-.6-1.3v-.2l-.1-.1-.2-.1-7.3-4.2a2.1 2.1 0 01-1.1-1.8v-16.7l.1-.2.1-.1v-.1l.1-.2v-.1l.1-.1.1-.1.2-.2.1-.1.3-.2.4-.2 4.2-2.6h.2l.8-.5 1.3-.7.4-.2.2-.2.1-.2.1-.3v-.2l.1-.1v-9.2l-.1-.1-.1-.1v-.1l-.1-.1-.1-.1-.2-.2-.2-.1h-.1l-.1-.1-6.7-4.3a2.2 2.2 0 01-1.2-1.9V82.5l.1-.2.1-.1.1-.2v-.1l.7-.7h.1l5.9-3.6.8-.5.3-.2.2-.2.1-.1v-.4l.1-.1.1-.1.1-.4V67c0-.6-.3-1.1-.9-1.4l-1.4-.8-5.4-3.3-.6-.4a2 2 0 01-.6-1.4V46l.1-.8.2-.8.2-.4.1-.2.1-.3v-.1l.1-.1h.1l.1-.2.2-.3.1-.2.1-.1v-.1l.4-.4.1-.1.1-.1.2-.1.1-.1.1-.1.1-.1h.1l.2-.1.3-.2h.2l.7-.2.3-.1h15.4l.2.1.1.1h.1l.1.1.2.2.1.1.2.3v.1l.1.1 4.2 7.3.2.3.2.2.2.2h.1l.4.2.4.1h8.6l.4-.1.2-.1.1-.1.3-.4.1-.2 3.1-5.5c.7-1.3 1.5-3 3-3h17.3l.5.1.2.1.1.1.1.1h.1l.2.2.2.3v.1l4.2 7.4.2.3.2.2.2.2h.1l.4.2.4.1h8.9l.3-.1h.1l.1-.1h.1l.1-.1.2-.2.3-.5 4.1-7.1c.4-.7 1.1-1.1 1.8-1.1h17.4l.3.1.1.1.3.1.1.1.1.1.2.2v.1l.1.1v.1l.1.1.1.1 2.5 4.4 1.7 3c.3.5.9.9 1.4.9h8.4c.6 0 1.1-.3 1.4-.9l4.2-7.4c.4-.7 1.1-1.1 1.8-1.1H617l.3.1.1.1.3.1.1.1.1.1.2.2.1.1.1.1v.1l.1.1.1.1 3.3 5.9.8 1.4c.3.5.9.9 1.4.9h9l.2-.1.3-.2.1-.1.3-.5 4.1-7.1c.4-.7 1.1-1.1 1.8-1.1h12.6l.8.1.4.1.2.1.5.2.4.2h.1l.1.1.2.1.3.2.1.1.4.4.1.1.1.1c.1.1.3.3.3.5l.1.1.1.1.1.1.1.1.1.2v.1l.1.4.1.3.1.3v.3l.1.4v14.5l-.1.4v.1l-.1.1v.1c-.2.2-.4.5-.7.6l-.1.1-7.4 4.2-.3.2-.2.2-.2.2-.1.3c-.5-.1-.5.1-.5.2z" clip-rule="evenodd" fill="#fff" fill-rule="evenodd"/><path d="M18 108.5h367" opacity=".5" stroke="#fff"/><g opacity=".9"><path fill="#fff" d="M371.2 103.7l1 .6h.3l.9-.4.2-.1-.2.9c-.1.3 0 .4.2.6l.7.7-.7.1-.6.1-.3.5-.3.6-.2-.4-.3-.7-.2-.1-1-.1h-.2v-.1l.7-.7c.2-.2.2-.3.2-.6l-.2-.9zm18.5 11.8l1.7-.5c2.3-.6 4.7-.9 7-1.2h.3c.1 0 .2.1.1.2l-.2.2-.1.1c-.3.3-.6.4-1 .4-1.7 0-3.3 0-5 .3l-2.8.5zm-2.4-4.5l.1-.5 2-7.2.5-1.8.2-.3.2.3.2.4v.2l-2.1 5.6-1.1 3zm-10.6 13.7l.2-1.1.1-.1c1.1-1 2.2-2.1 3.4-3l2.4-1.7.7-.4c-2.5 1.8-4.6 4-6.8 6.3z" opacity=".5"/><g opacity=".7"><path d="M386.4 116.8l4.2 3.1.7.6 23.4 20.9 15.3 13.9 4.1 3.8c-15.9-14.5-31.7-28.3-47.5-42.1z" fill="#fff" fill-opacity=".2" opacity=".7"/><path d="M386.4 116.8l4.2 3.1.7.6 23.4 20.9 15.3 13.9 4.1 3.8c-15.9-14.5-31.7-28.3-47.5-42.1z" fill="url(#h)" opacity=".7"/></g><g fill="#fff"><path d="M388.2 112.5l.6-.9c1-1.6 2.2-3.1 3.3-4.7l.5-.8.1-.1h.4c.3.1.4.3.2.5l-.5.6-4.4 5.1zm-2.7-14.3l.4.8c.2.3.2.6.2 1l-.4 4.8-.1 1.6c-.3-2.6-.3-5.4-.1-8.2zm-1.2 21.1c-.7 1.5-1.2 3-1.7 4.5l-.8 2.5-.2.2-.6.3h-.1v-.1l.9-2.3c.7-1.7 1.5-3.3 2.5-5.1-.1.1-.1.1 0 0zm-4.8-8.4l-1.3-.9-4.8-3.3-.3-.2c-.1-.1-.1-.2 0-.2.4-.1.8-.2 1.1.1a1137.6 1137.6 0 015.3 4.5zm3-4l-.4-.7a47 47 0 01-2.1-5.2c-.1-.3 0-.6.2-.8l.2-.1.1.1 1.2 3.9.9 2.5zm.2 4.8l-1.2-1.6-2.7-3.4v-.3c.1-.2.5-.3.6-.1l1.2 1.9 1.8 2.8.3.7zm5.2 5.2l.5.2 5.2 1.9.6.3.1.1.1.6zm-2.3 2.1l.3 1.7.8 3.9.1.3c0 .1 0 .2-.2.2l-.5-.2v-.1l-.5-5.8zm-4.5-1.5l-1.4.5-3.3 1.4-.4.2c-.1.1-.2 0-.2-.1-.1-.3.1-.5.3-.7 1.1-.5 2.3-.8 3.5-1.1l1.4-.4.1.2zm-4.3-1.8h-.2l-4.9.9-.4.1-.2-.1c-.1-.3 0-.4.3-.5 1.7-.4 3.5-.4 5.4-.4 0-.1-.1-.1 0 0zm10.9 3.4l3.7 4.3-.6-.3.1.7a77.6 77.6 0 01-3.2-4.7zm-15.7-7.4l.5-.1-.5-.5c.3 0 4.8 1.8 5.3 2.2l-5.3-1.6zm26.6-2.4a44 44 0 00-5 2.1l.5-.3.5-.3 2.4-1.4c.3-.2.6-.2.9-.1h.7zm-11.2 6.3l.6-.5 2-1.7.3-.1.5.1.1.1-.1.1-2.2 1.3-.9.6-.3.1zm-1.4-.3l-1.2-3.5c-.2-.5 0-.8.2-1.2h.1zm-1.4.8l-3.1-.8.6-.1-.3-.3c1 .3 1.9.8 2.8 1.2zm-15.5-6.8l.8.5h.2l.9-.4h.2v.2l-.2.9v.2l.7.7v.3h-.1l-.9.1h-.1v.1l-.4.9-.1.1h-.2l-.1-.1-.4-.9v-.1h-.1l-.9-.1h-.1v-.3l.7-.7v-.2l-.2-.9v-.1l.1-.1.2-.1z" opacity=".5"/><path d="M368.8 115.4l.8.4h.2l.9-.4h.2l.1.1v.1l-.2.9v.2l.7.7v.3h-.1l-1 .1h-.1v.1l-.4.9-.1.1h-.2l-.1-.1-.4-.9v-.1h-.1l-.9-.1h-.1v-.3l.7-.7v-.2l-.2-.9v-.1l.1-.1h.2zm5.8 8.1l.8.5h.2l.9-.4h.2l.1.1v.1l-.2.9v.2l.7.7v.3h-.1l-1 .1h-.1v.1l-.4.9-.1.1h-.2l-.1-.1-.4-.9v-.1h-.1l-.9-.1h-.1v-.3l.7-.7v-.2l-.2-.9v-.1l.1-.1.2-.1c-.1 0-.1 0 0 0zm5.4 3.3l.8.5h.2l.9-.4h.2l.1.1v.1l-.2.9v.2l.7.7v.3h-.1l-.9.1h-.1v.1l-.6.6-.1.1h-.2l-.1-.1-.4-.9v-.1h-.1l-.9-.1h-.1v-.3l.7-.7v-.2l-.2-.9v-.1l.1-.1.3.2zm5.8-1.9l.8.5h.2l.9-.4h.2v.2l-.2.9v.2l.7.7v.3h-.1l-1 .1h-.1v.1l-.4.9-.1.1h-.2l-.1-.1-.4-.9v-.1h-.1l-.9-.1h-.1v-.3l.7-.7v-.2l-.2-.9v-.1l.1-.1.3-.1c-.1 0-.1 0 0 0zm5.6-1.3l.8.5h.2l.9-.4h.2l.1.1v.1l-.2.9v.2l.7.7v.3h-.1l-1 .1h-.1v.1l-.4.9-.1.1h-.2l-.1-.1-.4-.9v-.1h-.1l-.9-.1h-.1v-.3l.7-.7v-.2l-.2-.9v-.1l.1-.1.2-.1c-.1 0-.1 0 0 0zm3.5-4.7l.8.5h.2l.9-.4h.2l.1.1v.1l-.2.9v.2l.7.7v.3h-.1l-1 .1h-.1v.1l-.4.9-.1.1h-.2l-.1-.1-.4-.9v-.1h-.1l-.9-.1h-.1v-.3l.7-.7v-.2l-.2-.9v-.1l.1-.1.2-.1s-.1 0 0 0zm4.3-5.8l.8.5h.2l.9-.4h.2l.1.1v.1l-.2.9v.2l.7.7v.3h-.1l-1 .1h-.1v.1l-.4.9-.1.1h-.2l-.1-.1-.4-.9v-.1h-.1l-.9-.1h-.1v-.3l.7-.7v-.2l-.2-.9v-.1l.1-.1c.1-.1.1-.2.2-.1zm-.4-6.4l.8.4h.2l.9-.4h.2l.1.1v.1l-.2.9v.2l.7.7v.3h-.1l-1 .1h-.1v.1l-.4.9-.1.1h-.2l-.1-.1-.4-.9v-.1c0-.1 0 0-.1 0l-.9-.1h-.1v-.3l.7-.7v-.2l-.2-.9v-.1l.1-.1h.2s-.1 0 0 0zm-8.1 4.1l.8.5h.2l.9-.4h.2l.1.1v.1l-.2.9v.2l.7.7v.3h-.1l-1 .1h-.1v.1l-.4.9-.1.1h-.2l-.1-.1-.4-.9v-.1h-.1l-.9-.3h-.1v-.3l.7-.7v-.2l-.2-.9v-.1l.1-.1.2.1s-.1 0 0 0zm2.4-7.2l.8.5h.2l.9-.4h.2l.1.1v.1l-.2.9v.2l.7.7v.3h-.1l-1 .1h-.1v.1l-.4.9-.1.1h-.2l-.1-.1-.4-.9v-.1h-.1l-.9-.1h-.1v-.3l.7-.7v-.2l-.2-.9v-.1l.1-.1.2-.1zm-3-5l.8.5h.2l.9-.4h.2l.1.1v.1l-.2.9v.2l.7.7v.3h-.1l-.9.1h-.1v.1l-.4.9-.1.1h-.2l-.1-.1-.4-.9v-.1h-.1l-.9-.1h-.1v-.3l.7-.7v-.2l-.2-.9v-.1l.1-.1.1-.1zm-4.9-3.1l.8.5h.2l.9-.4h.2l.1.1v.1l-.2.9v.2l.7.7v.3h-.1l-.9.1h-.1v.1l-.4.9-.1.1h-.2l-.1-.1-.4-.9V98h-.1l-.9-.1h-.1v-.3l.7-.7v-.2l-.2-.9v-.1l.1-.1.1-.1zm-6.7 2l.8.5h.2l.9-.4h.2l.1.1v.1l-.2.9v.2l.7.7v.3h-.1l-1 .1h-.1v.1l-.4.9-.1.1h-.2l-.1-.1-.4-.9v-.1h-.1l-.9-.1h-.1v-.3l.7-.7v-.2l-.2-.9v-.1l.1-.1.2-.1c-.1 0-.1 0 0 0zm-1.3 6.2l.8.5h.2l.8-.4h.2l.1.1v.1l-.2.9v.2l.7.7v.3h-.1l-.9.1h-.1v.1l-.4.9-.1.1h-.2l-.1-.1-.4-.9v-.1h-.1l-.9-.1h-.1v-.3l.7-.7v-.2l-.2-.9v-.1l.1-.1.2-.1c-.1 0-.1 0 0 0zm6.1 4.4l.8.5h.2l.9-.4h.2l.1.1v.1l-.2.9v.2l.7.7v.3h-.1l-1 .1h-.1v.1l-.4.9-.1.1h-.2l-.1-.1-.4-.9v-.1h-.1l-.9-.1h-.1v-.3l.7-.7v-.2l-.2-.9v-.1l.1-.1.2-.1zm-4.5 4.7l.8.5h.2l.9-.4h.2l.1.1v.1l-.2.9v.2l.7.7v.3h-.1l-1 .1h-.1v.1l-.4.9-.1.1h-.2l-.1-.1-.4-.9v-.1h-.1l-.9-.1h-.1v-.3l.7-.7v-.2l-.2-.9v-.1l.1-.1.2-.1s-.1 0 0 0z" opacity=".5"/></g></g><path fill="#fff" d="M420.7 54.2l.8 1.7c.1.2.2.3.4.3l1.7.2.3.1-1.1 1.1c-.4.3-.4.6-.3 1l.3 1.6-1.1-.5c-.3-.1-.6-.4-.9-.4s-.6.3-.9.4l-1 .6.1-.8.2-1.2-.1-.3-1.3-1.2-.2-.1.1-.1 1.6-.3c.4-.1.6-.2.8-.6l.6-1.5zm14.2 33.5l2.8 1a105 105 0 0110.8 4.9l.4.2c.2.1.2.3 0 .4l-.4.2-.3.1c-.7.2-1.2 0-1.8-.4a51.6 51.6 0 00-7.1-4.3l-4.1-1.9zm1-8.3l.7-.6c3.1-2.8 6.3-5.4 9.5-7.9l2.3-1.9.5-.3.1.6-.1.8-.2.3-8.1 5.8-4.3 3.1zm-27.3 8.7l1.2-1.3.2-.1 7.5-1c1.6-.2 3.3 0 4.9 0l1.3.1a89 89 0 00-15.1 2.3z" opacity=".6"/><g opacity=".7"><path d="M429.2 86.4l2.8 8.2.4 1.4 12.5 50.5 7.9 33.3 2 9c-8.2-34.7-16.9-68.4-25.6-102z" fill="#fff" fill-opacity=".2" opacity=".7"/><path d="M429.2 86.4l2.8 8.2.4 1.4 12.5 50.5 7.9 33.3 2 9c-8.2-34.7-16.9-68.4-25.6-102z" fill="url(#i)" opacity=".7"/></g><g fill="#fff"><path d="M435.7 82.2l1.7-.7c2.9-1.2 5.9-2.2 8.9-3.3l1.4-.6h.1l.1.1.4.4c.3.4.3.7-.2.8l-1.2.3-10.7 2.9zm9.6-22.1l-.2 1.5c0 .6-.3 1.1-.7 1.5l-5 6.1-1.7 2.1c2.2-3.8 4.8-7.5 7.6-11.2zM424 87.9l-.2.1a57.9 57.9 0 00-6.5 4.5l-3.4 2.7c-.1.1-.3.2-.5.1l-1.1-.2-.2-.1.1-.2 3.5-2.3c2.5-1.8 5.3-3.2 8-4.6h.3zm1.3-16l-1-2.4-3.5-8.9-.2-.6c-.1-.2 0-.3.2-.2.6.2 1.2.5 1.4 1.2l3.1 10.7v.2zm7.8-2.8l.2-1.3a70 70 0 011.9-9.1c.2-.5.5-.8 1-.9h.3v.3l-2.1 6.5-1.1 4.2zm-4.3 6.9l-.2-3.3-.5-7.1c0-.3.1-.4.3-.4.4-.1.9.1.9.4l-.1 3.8-.3 5.5-.1 1.1zm2.4 12l.6.8 5.3 7.5.6 1 .1.2-.4 1zm-5.1.7l-1.1 2.6-2.5 6-.2.6c-.1.2-.2.3-.4.1l-.5-.8V97c1.4-2.8 2.9-5.5 4.5-8.2zm-4.7-6.3l-2.4-.6-5.9-1.2-.8-.1c-.2 0-.3-.1-.2-.4.2-.5.6-.7 1.1-.6 2 .4 3.9 1 5.8 1.7l2.3.9.1.3zm-4.3-6.6l-.3-.2-7.6-3.4-.6-.3c-.2-.1-.2-.2-.1-.3.2-.4.4-.5.9-.4 2.7 1.2 5.2 2.8 7.7 4.4v.2zm11.8 15l1.1 9.3h-.1l-.5-1-.6 1.1v-9.4zm-14.7-24.9l.8.4-.2-1.2c.4.3 4.8 6.9 5.2 8l-5.8-7.2zm38.7 21.6c-2.9-.9-5.8-1.4-8.7-1.8h2l4.5.3c.5 0 1 .3 1.4.6l.8.9zm-21.2-1.8l1.3-.2c1.4-.3 2.9-.3 4.3-.4.2 0 .4 0 .5.2l.6.6.1.3h-.3l-4.2-.4-1.8-.1h-.5zm-1.6-1.7c.5-2 1.1-3.9 1.5-5.9.2-.8.8-1 1.4-1.4l.1.1-2.9 7.2zm-2.7-.2l-3.5-3.9v-.1l.9.5-.1-.7h.1c1 1.3 1.8 2.7 2.6 4.2zM412.6 60l.7 1.4.1.1h.1l1.6.2.1.1.1.1v.1l-.1.1-1.1 1.1-.1.1v.1l.3 1.6v.1l-.1.1h-.2l-1.4-.7h-.2l-1.4.8h-.2l-.1-.1v-.1l.2-1.6v-.1l-.1-.1-1.2-1.1-.1-.1V62l.1-.1.1-.1 1.6-.3h.1l.1-.1.7-1.4.1-.1h.1l.2.1z" opacity=".6"/><path d="M406.4 68.1l.7 1.4.1.1h.1l1.6.2.1.1.1.1v.1l-.1.1-1.1 1.1-.1.1v.1l.3 1.6v.1l-.1.1h-.2l-1.4-.7h-.2l-1.4.8h-.2l-.1-.1v-.1l.2-1.6v-.1l-.1-.1-1.2-1.1-.1-.1v-.1l.1-.1.1-.1 1.6-.3h.1l.1-.1.7-1.4.1-.1h.1l.2.1zm.4 16.4l.7 1.4.1.1h.1l1.6.2.1.1.1.1v.1l-.1.1-1.1 1.1-.1.1v.1l.3 1.6v.1l-.1.1h-.2l-1.4-.7h-.2l-1.4.8h-.2l-.1-.1v-.1l.2-1.6v-.1l-.1-.1-1.2-1.1-.1-.1v-.1l.1-.1.1-.1 1.6-.3h.1l.1-.1.7-1.4.1-.1h.1l.2.1c-.1 0-.1-.1 0 0zm4.4 9.5l.7 1.4.1.1h.1l1.6.2.1.1.1.1v.1l-.1.1-1.1 1.1-.1.1v.1l.3 1.6v.1l-.1.1h-.2l-1.4-.7h-.2l-1.4.8h-.2l-.1-.1v-.1l.2-1.6v-.1l-.1-.1-1.2-1.1-.1-.1V96l.1-.1.1-.1 1.6-.3h.1l.1-.1.7-1.4.1-.1h.1l.2.1c-.1 0-.1 0 0 0zm9.6 2.9l.7 1.4.1.1h.1l1.6.2.1.1.1.1v.1l-.1.1-1.1 1.1-.1.1v.1l.3 1.6v.1l-.1.1h-.2l-1.4-.7h-.2l-1.4.8h-.2l-.1-.1v-.1l.2-1.6v-.1l-.1-.1-1.2-1.1-.1-.1v-.1l.1-.1.1-.1 1.6-.3h.1l.1-.1.7-1.4.1-.1h.1l.2.1c-.1-.1-.1-.1 0 0zm8.8 3.5l.7 1.4.1.1h.1l1.6.2.1.1.1.1v.1l-.1.1-1.1 1.1-.1.1v.1l.3 1.6v.1l-.1.1-.1.1h-.1l-1.4-.7h-.2l-1.4.8h-.2l-.1-.1v-.1l.2-1.6v-.1l-.1-.1-1.2-1.1-.1-.1v-.1l.1-.1.1-.1 1.6-.3.1-.1.1-.1.7-1.4.1-.1h.1l.2.1s-.1-.1 0 0zm9.2-3.2l.7 1.4.1.1h.1l1.6.2.1.1.1.1v.1l-.1.1-1.1 1.1-.1.1v.1l.3 1.6v.1l-.1.1-.1.1h-.1l-1.4-.7h-.2l-1.4.8h-.2l-.1-.1v-.1l.2-1.6v-.1l-.1-.1-1.2-1.1-.1-.1v-.1l.1-.1.1-.1 1.6-.3h.1l.1-.1.7-1.4.1-.1h.1c.1-.1.1-.1.2 0zm11.5-3.9l.7 1.4.1.1h.1l1.6.2.1.1.1.1v.1l-.1.1-1.1 1.1-.1.1v.1l.3 1.6v.1l-.1.1h-.2l-1.4-.7h-.2l-1.4.8h-.2l-.1-.1v-.1l.2-1.6v-.1l-.1-.1-1.2-1.1-.1-.1v-.1l.1-.1.1-.1 1.6-.3h.1l.1-.1.7-1.4.1-.1h.1l.2.1c-.1-.1-.1-.1 0 0zm5.3-9.1l.7 1.4.1.1h.1l1.6.2.1.1.1.1v.1l-.1.1-1.1 1.1-.1.1v.1l.3 1.6v.1l-.1.1h-.2l-1.4-.7h-.2l-1.4.8h-.2l-.1-.1v-.1l.2-1.6v-.1l-.1-.1-1.2-1.1-.1-.1v-.1l.1-.1.1-.1 1.6-.3h.1l.1-.1.7-1.4.1-.1h.1l.2.1c-.1-.1-.1-.1 0 0zm-14.9-2l.7 1.4.1.1h.1l1.6.2.1.1.1.1v.1l-.1.1-1.1 1.1-.1.1c-.1 0 0 .1 0 .1l.3 1.6v.1l-.1.1h-.2l-1.4-.7h-.2l-1.4.8h-.2l-.1-.1v-.1l.2-1.6v-.1l-.1-.1-1.2-1.1-.1-.1v-.1l.1-.1.1-.1 1.6-.3h.1l.1-.1.7-1.4.1-.1h.1l.2.1s-.1-.1 0 0zm10-7.6l.7 1.4.1.1h.1l1.6.2.1.1.1.1v.1l-.1.1-1.1 1.1-.1.1v.1l.3 1.6v.1l-.1.1h-.2l-1.4-.7h-.2l-1.4.8h-.2l-.1-.1v-.1l.2-1.6V78l-.1-.1-1.2-1.1-.1-.1v-.1l.1-.1.1-.1 1.6-.3h.1l.1-.1.7-1.4.1-.1h.1c.1-.1.1 0 .2.1zm.6-9.6l.7 1.4.1.1h.1l1.6.2.1.1.1.1v.1l-.1.1-1.1 1.1-.1.1v.1l.3 1.6v.1l-.1.1h-.2l-1.4-.7h-.2l-1.4.8h-.2l-.1-.1v-.1l.2-1.6v-.1l-.1-.1-1.2-1.1-.1-.1V67l.1-.1.1-.1 1.6-.3h.1l.1-.1.7-1.4.1-.1h.1l.2.1s-.1 0 0 0zm-3.8-8.8l.7 1.4.1.1h.1l1.6.2.1.1.1.1v.1l-.1.1-1.1 1.1-.1.1c-.1 0 0 .1 0 .1l.3 1.6v.1l-.1.1h-.2l-1.4-.7h-.2l-1.4.8h-.2l-.1-.1v-.1l.2-1.6v-.1l-.1-.1-1.2-1.1-.1-.1v-.1l.1-.1.1-.1 1.6-.3h.1l.1-.1.7-1.4.1-.1h.1l.2.1c0-.1-.1-.1 0 0zm-11.1-3.6l.7 1.4.1.1h.1l1.6.2.1.1.1.1v.1l-.1.1-1.1 1.1-.1.1v.1l.3 1.6v.1l-.1.1h-.2l-1.4-.7h-.2l-1.4.8h-.2l-.1-.1v-.1l.2-1.6V56l-.1-.1-1.2-1.1-.1-.1v-.1l.1-.1.1-.1 1.6-.3h.1l.1-.1.7-1.4.1-.1h.1c0-.1.1-.1.2.1 0-.1-.1-.1 0 0zm-7.6 7.3l.7 1.4.1.1h.1l1.6.2.1.1.1.1v.1l-.1.1-1.1 1.1-.1.1v.1l.3 1.6v.1l-.1.1h-.2l-1.4-.7h-.2l-1.4.8h-.2l-.1-.1V65l.2-1.6v-.1l-.1-.1-1.2-1.1-.1-.1v-.1l.1-.1.1-.1 1.6-.3h.1l.1-.1.7-1.4.1-.1h.1c0-.1.1-.1.2.1zm4.4 11.7l.7 1.4.1.1h.1l1.6.2.1.1.1.1v.1l-.1.1-1.1 1.1-.1.1v.1l.3 1.6v.1l-.1.1h-.2l-1.4-.7h-.2l-1.4.8h-.2l-.1-.1v-.1l.2-1.6V75l-.1-.1-1.2-1.1-.1-.1v-.1l.1-.1.1-.1 1.6-.3h.1l.1-.1.7-1.4.1-.1h.1l.2.1c-.1-.1-.1-.1 0 0zm-10.7 2.2l.7 1.4.1.1h.1l1.6.2.1.1.1.1v.1l-.1.1L424 77l-.1.1v.1l.3 1.6v.1l-.1.1h-.2l-1.4-.7h-.2l-1.4.8h-.2l-.1-.1v-.1l.2-1.6v-.1l-.1-.1-1.2-1.1-.1-.1v-.1l.1-.1.1-.1 1.6-.3h.1l.1-.1.7-1.4.1-.1h.1l.2.1z" opacity=".6"/></g><g opacity=".6"><path fill="#fff" d="M383.6 35.3l.8 1.1.4.2h1.4l-.6.9c-.2.3-.2.5-.1.7l.4 1.1-.8-.2-.7-.2c-.2 0-.4.3-.6.4l-.7.5-.1-.6v-.9l-.1-.2-1-.6-.2-.1v-.1l1.1-.4c.3-.1.4-.3.5-.5l.3-1.1zM398 57.1l2.1.3a58 58 0 018.2 2.1l.3.1c.2.1.2.2 0 .3l-.3.2-.2.1c-.4.2-.8.2-1.3 0-1.8-.8-3.6-1.6-5.5-2.1l-3.1-.8zm-.4-6l.4-.5c1.8-2.3 3.7-4.6 5.7-6.8l1.4-1.7.3-.3.1.4v.6l-.1.2-5 5.1-2.6 2.8zm-18.1 9.7l.7-1.1.1-.1 5.1-1.7 3.5-.7.9-.1c-3.5.9-6.9 2.3-10.3 3.7z" opacity=".2"/><g opacity=".7"><path d="M393.8 56.9l3 5.4.4.9 15.4 33.9 9.9 22.5 2.6 6c-10.3-23.4-20.8-46-31.3-68.5z" fill="#fff" fill-opacity=".2" opacity=".7"/><path d="M393.8 56.9l3 5.4.4.9 15.4 33.9 9.9 22.5 2.6 6c-10.3-23.4-20.8-46-31.3-68.5z" fill="url(#j)" opacity=".7"/></g><g fill="#fff"><path d="M397.8 53.1l1.1-.7c1.9-1.3 3.9-2.3 5.9-3.5l.9-.6h.2l.3.2c.3.2.3.5-.1.6l-.8.4-7.2 3.4zm3.9-16.8v1.1l-.3 1.2-2.7 5-.9 1.7a79 79 0 013.9-9zm-11.4 22.4l-.1.1c-1.4 1.2-2.7 2.6-4 4l-2.1 2.4-.3.2h-.8l-.1-.1.1-.1 2.1-2.1c1.6-1.6 3.3-3 5-4.3l.2-.1zm-1.2-11.5l-1-1.5-3.6-5.8-.2-.4c-.1-.1 0-.2.1-.2.5.1.9.2 1.1.7l3.6 7.1v.1zm5.2-3l-.1-.9c-.1-2.2 0-4.4.2-6.6 0-.4.3-.6.6-.8h.2v.2l-.6 4.8-.2 3.1zm-2.1 5.4l-.6-2.3-1.3-4.9c-.1-.2 0-.3.2-.4.3-.2.6-.1.7.2l.4 2.7.5 3.9.1.8zm3.2 8.2l.5.5 4.7 4.6.6.6.1.2-.2.8zm-3.5 1.1l-.4 2-1 4.6-.1.4c0 .1-.1.2-.3.1l-.5-.5v-.1l2.3-6.5zm-4.1-3.8L386 55l-4.3-.1-.6.1c-.2 0-.2-.1-.2-.2.1-.4.3-.5.7-.5a57 57 0 016 .8h.2zm-3.9-4l-.3-.1-5.8-1.4-.5-.1c-.2 0-.1-.1-.1-.2.1-.3.2-.4.6-.4 2.1.5 4.1 1.3 6.1 2.2zm10.2 8.9l2 6.4h-.1l-.5-.7-.2.9c-.4-2.1-.9-4.3-1.2-6.6zm-13.5-15.5l.6.2-.3-.8c.3.1 4.3 4.2 4.7 4.9l-5-4.3zm30 10.1c-2.1-.2-4.3-.2-6.4-.1l.7-.1.7-.1 3.2-.3c.4 0 .7.1 1 .3.3 0 .6.1.8.3zm-15.1 1.5l.9-.3c1-.4 2-.6 3-.8l.4.1.5.4.1.2-.2.1-3 .3-1.3.2-.4-.2zm-1.4-1c.1-1.4.3-2.9.3-4.4 0-.6.4-.8.8-1.1h.1zm-1.9.2l-3-2.3.7.2-.2-.5c1 .8 1.7 1.7 2.5 2.6zm-13.5-14.8l.7.9.1.1h.1l1.1-.1h.1l.1.1v.2l-.6.9v.2l.4 1.1v.2l-.1.1h-.1l-1.1-.3h-.2l-.9.7h-.2l-.1-.1v-1.3l-.1-.1-1-.6-.1-.1v-.2l.1-.1 1.1-.4h.1v-.1l.3-1.1.1-.1h.1l.1.1s-.1-.1 0 0z" opacity=".2"/><path d="M375.4 47l.7.9.1.1h.1l1.1-.1h.1l.1.1v.2l-.6.9v.2l.4 1.1v.2l-.1.1h-.1l-1.1-.3h-.2l-.9.7h-.2l-.1-.1v-1.3l-.1-.1-1-.6-.1-.1v-.2l.1-.1 1.1-.4h.1v-.1l.3-1.1v-.1h.1l.2.1c-.1 0-.1-.1 0 0zm2.3 11.5l.7.9.1.1c.1.1.1 0 .1 0l1.1-.1h.1l.1.1v.2l-.6.9v.2l.4 1.1v.2l-.1.1h-.1l-1.1-.3h-.2l-.9.7h-.2l-.1-.1v-1.3l-.1-.1-1-.6-.1-.1v-.2l.1-.1 1.1-.4h.1v-.1l.3-1.1.1-.1h.1l.1.1zm4.4 6.2l.7.9.1.1h.1l1.1-.1h.1l.1.1v.2l-.6.9v.2l.3 1v.2l-.1.1h-.1l-1.1-.3h-.2l-.9.7h-.2l-.1-.1v-1.3l-.1-.1-1-.6-.1-.1c-.1-.1 0-.1 0-.1v-.1l.1-.1 1.1-.4h.1v-.1l.3-1.1.1-.1h.1l.2.2c0-.1-.1-.1 0 0zm7.1.7l.7.9.1.1h.1l1.1-.1h.1l.1.1v.2l-.6.9v.2l.4 1.1v.2l-.1.1h-.1l-1.1-.3h-.2l-.9.7h-.2l-.1-.1v-1.3l-.1-.1-1-.6-.1-.1v-.2l.1-.1 1.1-.4h.1v-.1l.3-1.1.1-.1h.1l.1.1zm6.7 1.3l.7.9.1.1h.1l1.1-.1h.1l.1.1v.2l-.6.9v.2l.4 1.1v.2l-.1.1h-.1l-1.1-.3h-.2l-.9.7h-.2l-.1-.1v-1.3l-.1-.1-1-.6-.1-.1v-.2l.1-.1 1.1-.4h.1v-.1l.3-1.1.1-.1h.1l.1.1s-.1 0 0 0zm6.1-3.4l.7.9.1.1c.1.1.1 0 .1 0l1.1-.1h.1l.1.1v.2l-.6.9v.2l.4 1.1v.2l-.1.1h-.1l-1.1-.3h-.2l-.9.7h-.2l-.1-.1V66l-.1-.1-1-.6-.1-.1V65l.1-.1 1.1-.4h.1v-.1l.3-1.1.1-.1h.1l.1.1s-.1-.1 0 0zm7.5-4.3l.7.9.1.1h.1l1.1-.1h.1l.1.1v.2l-.6.9v.2l.4 1.1v.2l-.1.1h-.1l-1.1-.3h-.2l-.9.7h-.2l-.1-.1v-1.3l-.1-.1-1-.6-.1-.1v-.2l.1-.1 1.1-.4h.1v-.1l.3-1.1.1-.1h.1l.1.1zm2.6-7.1l.7.9.1.1h.1l1.1-.1h.1l.1.1v.2l-.6.9v.2l.4 1.1v.2l-.1.1h-.1l-1.1-.3h-.2l-.9.7h-.2l-.1-.1v-1.3l-.1-.1-1-.6-.1-.1v-.2l.1-.1 1.1-.4h.1V53l.3-1.1v-.1h.1l.2.1c-.1 0-.1 0 0 0zm-10.8.6l.7.9.1.1h.1l1.1-.1h.1l.1.1v.2l-.6.9v.2l.4 1.1v.2l-.1.1h-.1l-1.1-.3h-.2l-.9.7h-.2l-.1-.1v-1.3l-.1-.1-1-.6-.1-.1v-.2l.1-.1 1.1-.4h.1v-.1l.3-1.1.1-.1h.1l.1.1zm6.1-6.7l.7.9.1.1h.1l1.1-.1h.1l.1.1v.2l-.6.9v.2l.4 1.1v.2l-.1.1h-.1l-1.1-.3h-.2l-.9.7h-.2l-.1-.1v-1.3l-.1-.1-1-.6-.1-.1v-.2l.1-.1 1.1-.4h.1v-.1l.3-1.1.1-.1h.1l.1.1zm-.8-6.8l.7.9.1.1h.1l1.1-.1h.1l.1.1v.2l-.6.9v.2l.4 1.1v.2l-.1.1c0 .1-.1 0-.1 0l-1.1-.3h-.2l-.9.7h-.2l-.1-.1v-1.3l-.1-.1-1-.6-.1-.1v-.2l.1-.1 1.1-.4h.1v-.1l.3-1.1.1-.1h.1l.1.1c-.1 0-.1 0 0 0zm-3.9-5.8l.7.9.1.1h.1l1.1-.1h.1l.1.1v.2l-.6.9v.2l.4 1.1v.2l-.1.1c0 .1-.1 0-.1 0l-1.1-.3h-.2l-.9.7h-.2l-.1-.1v-1.3l-.1-.1-1-.6-.1-.1v-.2l.1-.1 1.1-.4h.1v-.1l.3-1.1.1-.1h.1l.1.1zm-8.3-1l.7.9.1.1h.1l1.1-.1h.1l.1.1v.2l-.6.9v.2l.4 1.1v.2l-.1.1h-.1l-1.1-.3h-.2l-.9.7h-.2l-.1-.1v-1.3l-.1-.1-1-.6-.1-.1v-.2l.1-.1 1.1-.4h.1v-.1l.3-1.1v-.1h.1l.2.1zm-4.3 6.1l.7.9.1.1h.1l1.1-.1h.1l.1.1v.2l-.6.9v.2l.4 1.1v.2l-.1.1c0 .1-.1 0-.1 0l-1.1-.3h-.2l-.9.7h-.2l-.1-.1V41l-.1-.1-1-.6-.1-.1V40l.1-.1 1.1-.4h.1v-.1l.3-1.1.1-.1h.1l.1.1c-.1 0-.1-.1 0 0zm4.5 7.7l.7.9.1.1c.1.1.1 0 .1 0l1.1-.1h.1l.1.1v.2l-.6.9v.2l.4 1.1v.2l-.1.1h-.1l-1.1-.3h-.2l-.9.7h-.2l-.1-.1v-1.3l-.1-.1-1-.6-.1-.1v-.2l.1-.1 1.1-.4h.1v-.1l.3-1.1.1-.1h.1l.1.1zm-7.1 2.9l.7.9.1.1c.1.1.1 0 .1 0l1.1-.1h.1l.1.1v.2l-.6.9v.2l.4 1.1v.2l-.1.1c0 .1-.1 0-.1 0l-1.1-.3h-.2l-1 .7h-.2l-.1-.1v-1.3l-.1-.1-1-.6-.1-.1v-.2l.1-.1 1.1-.4h.1V50l.3-1.1.1-.1h.1l.2.1c-.1 0-.1 0 0 0z" opacity=".2"/></g></g><path fill="#fff" d="M440.3 28.5l.4 1.3c0 .2.1.2.3.3l1.2.3.2.1-.9.7c-.3.2-.4.4-.3.7v1.2l-.7-.5-.6-.4-.7.2-.8.3.1-.5.3-.8v-.2l-.8-.9-.2-.1.1-.1h1.2c.3 0 .5-.1.6-.3.1-.6.3-.9.6-1.3zm6.7 25.3l1.9 1c2.5 1.3 4.8 2.9 7.1 4.6l.2.2v.3l-.3.1h-.2c-.5.1-.9-.1-1.2-.4l-4.6-3.8-2.7-1.8zm1.5-5.9l.5-.4c2.5-1.7 5-3.2 7.6-4.7l1.8-1.1.4-.2v.4l-.2.6-.2.2-6.3 3.3-3.3 1.8zm-20.2 3.5l1-.8h.2l5.4.1 3.5.5.9.2c-3.7-.5-7.3-.3-11 0z" opacity=".1"/><g opacity=".7"><path d="M443 52.2l1.2 6.1.1 1 3.8 37 2.2 24.4.5 6.6c-2.4-25.4-5.1-50.2-7.9-74.9z" fill="#fff" fill-opacity=".2" opacity=".7"/><path d="M443 52.2l1.2 6.1.1 1 3.8 37 2.2 24.4.5 6.6c-2.4-25.4-5.1-50.2-7.9-74.9z" fill="url(#k)" opacity=".7"/></g><g fill="#fff"><path d="M448.1 49.9l1.3-.3c2.2-.6 4.4-1 6.7-1.4l1.1-.3h.1l.1.1.3.3c.2.3.1.5-.3.6l-.9.1-7.9 1zm9-14.6l-.3 1.1a144.2 144.2 0 01-4.9 4.8l-1.4 1.3c2-2.6 4.3-4.9 6.6-7.2zm-17.9 17.5l-.2.1c-1.8.7-3.4 1.6-5 2.5l-2.7 1.6h-.3l-.7-.2-.1-.1.1-.1 2.7-1.3c2-1 4-1.8 6.1-2.5h.1zm2.5-11.3l-.4-1.8-1.6-6.7-.1-.4c0-.1 0-.2.2-.1.4.2.8.5.9 1l1.1 7.9-.1.1zm5.9-1.1l.2-.9c.6-2.1 1.4-4.2 2.3-6.2.2-.4.4-.5.8-.6h.2v.2l-2.1 4.4-1.2 2.9zm-3.7 4.4l.2-2.3.3-5.1c0-.2.1-.2.3-.3.3-.1.6.1.6.4l-.4 2.7-.7 3.9a1 1 0 00-.3.7zm.4 8.8l.3.6 3 5.9.3.8v.2l-.4.7zm-3.6-.1l-1 1.7-2.4 4-.2.4c-.1.1-.2.2-.3 0l-.3-.6.1-.1c1.2-1.8 2.6-3.6 4.1-5.4zm-2.8-4.8l-1.7-.6-4.1-1.4-.6-.1c-.2 0-.2-.1-.1-.3.2-.3.5-.4.8-.3 1.4.5 2.7 1.1 3.9 1.8l1.5.8.3.1zm-2.3-5.2l-.2-.1-5-3.1-.4-.3c-.1-.1-.1-.1 0-.2.2-.3.4-.3.7-.2 1.6 1.1 3.2 2.5 4.9 3.9 0 0-.1 0 0 0zm6.8 11.8l-.2 6.7h-.1l-.3-.8-.5.7 1.1-6.6zm-7.9-19.1l.5.4v-.9c.3.2 2.7 5.4 2.9 6.2l-3.4-5.7zm25.3 19.2c-2-.9-4-1.5-6-2.2l.7.1.7.1 3.2.7c.4.1.7.3.9.6l.5.7zM444.9 52h.9c1-.1 2.1.1 3.1.2l.3.2.3.5v.2h-.2l-3-.7-1.3-.2c.1-.1 0-.1-.1-.2zm-.9-1.4l1.7-4c.2-.6.7-.7 1.1-.8h.1zm-1.9-.4l-2.1-3.1.6.4V47h.1l1.4 3.2zM434 31.9l.4 1.1v.1h.1l1.1.3.1.1v.2l-.1.1-.9.7-.1.1v.1l.1 1.1v.1l-.1.1h-.2l-.9-.6h-.2l-1.1.4h-.2v-.2l.3-1.1v-.2l-.7-.9v-.2l.1-.1h1.3l.1-.1.6-1 .1-.1h.1c0-.2 0-.1.1 0 0-.1-.1-.1 0 0z" opacity=".1"/><path d="M428.8 37l.4 1.1v.1h.1l1.1.3h.1v.2l-.1.1-.9.7-.1.1v.1l.1 1.1v.1l-.1.1h-.2l-.9-.6h-.2l-1.1.4h-.2l-.1-.1v-.1l.3-1.1v-.2l-.7-.9v-.2l.1-.1h1.3l.1-.1.6-.9.1-.1h.1c.1-.1.1-.1.2 0 0-.1-.1-.1 0 0zm-1.5 11.7l.4 1.1v.1h.1l1.1.3h.1v.2l-.1.1-.9.7-.1.1v.1l.1 1.1v.1l-.1.1h-.2l-.9-.6h-.2l-1.1.4h-.2l-.1-.1v-.1l.3-1.1V51l-.5-1v-.2l.1-.1h1.3l.1-.1.6-1 .1-.1h.1c-.1 0 0 .1 0 .2zm2.2 7.2l.4 1.1v.1h.1l1.1.3.1.1v.2l-.1.1-.9.7-.1.1v.1l.1 1.1v.1l-.1.1h-.2l-.9-.6h-.2l-1.1.4h-.2l-.1-.1v-.1l.3-1.1v-.2l-.7-.9v-.2l.1-.1h1.3l.1-.1.6-1 .1-.1h.1c.1-.2.1-.1.2 0zm6.5 2.9l.4 1.1v.1h.1l1.1.3.1.1v.2l-.1.1-.9.7-.1.1v.1l.1 1.1v.1l-.1.1h-.2l-.9-.6h-.2l-1.1.4h-.2v-.2l.3-1.1v-.2l-.7-.9v-.2l.1-.1h1.3l.1-.1.6-1 .1-.1h.1c0-.1 0-.1.1 0zm5.9 3.4l.4 1.1v.1h.1l1.1.3.1.1v.2l-.1.1-.9.7-.1.1v.1l.1 1.1v.1l-.1.1h-.2l-.9-.6h-.2l-1.1.4h-.2l-.1-.1v-.1l.3-1.1v-.2l-.7-.9v-.2l.1-.1h1.3l.1-.1.6-1 .1-.1h.1c.1-.1.2-.1.2 0zm6.9-1.3l.4 1.1v.1h.1l1.1.3h.1v.2l-.1.1-.9.7-.1.1v.1l.1 1.1v.1l-.1.1h-.2l-.9-.6h-.2l-1.1.4h-.2l-.1-.1v-.1l.3-1.1v-.2l-.7-.9v-.2l.1-.1h1.3l.1-.1.6-1 .1-.1h.1l.2.1zm8.5-1.7l.4 1.1v.1h.1l1.1.3.1.1v.2l-.1.1-.9.7-.1.1v.1l.1 1v.1l-.1.1h-.2l-.9-.6h-.2l-1.1.4h-.2l-.1-.1v-.1l.3-1.1v-.2l-.7-.9v-.2l.1-.1h1.3l.1-.1.6-1 .1-.1h.1l.2.1zm4.7-5.9l.4 1.1v.1h.1l1.1.3h.1v.2l-.1.1-.9.7-.1.1v.1l.1 1.1v.1l-.1.1h-.2l-.9-.6h-.2l-1.1.4h-.2l-.1-.1v-.1l.3-1.1v-.2l-.7-.9v-.2l.1-.1h1.3l.1-.1.6-.9.1-.1h.1c.1-.1.1-.1.2 0zm-10.4-2.9l.4 1.1v.1h.1l1.1.3h.1v.2l-.1.1-.9.7-.1.1v.1l.1 1.1v.1l-.1.1h-.2l-.9-.6h-.2l-1.1.4h-.2l-.1-.1V54l.3-1.1v-.2l-.7-.9v-.2l.1-.1h1.3l.1-.1.6-1 .1-.1h.1l.2.1zm7.9-4.4l.4 1.1v.1h.1l1.1.3h.1v.2l-.1.1-.9.7-.1.1v.1l.1 1.1v.1l-.1.1h-.2l-.9-.6h-.2l-1.1.4h-.2l-.1-.1v-.1l.3-1.1v-.2l-.7-.9v-.2l.1-.1h1.3l.1-.1.6-1 .1-.1h.1l.2.1zm1.4-6.7l.4 1.1v.1h.1l1.1.3.1.1v.2l-.1.1-.9.7-.1.1v.1l.1 1.1v.1l-.1.1h-.2l-.9-.6h-.2l-1.1.4h-.2l-.1-.1c-.1 0 0-.1 0-.1l.3-1.1v-.2l-.7-.9v-.2l.1-.1h1.3l.1-.1.6-1 .1-.1h.1c.1-.1.1-.1.2 0 0 0-.1 0 0 0zm-1.8-6.6l.4 1.1v.1h.1l1.1.3.1.1v.2l-.1.1-.9.7-.1.1v.1l.1 1.1v.1l-.1.1h-.2l-.9-.6h-.2l-1.1.4h-.2l-.1-.1c-.1 0 0-.1 0-.1l.3-1.1v-.2l-.7-.9V34l.1-.1h1.3l.1-.1.6-1 .1-.1h.1c.1-.2.1-.1.2 0 0-.1-.1-.1 0 0zm-7.5-3.7l.4 1.1v.1h.1l1.1.3.1.1v.2l-.1.1-.9.7-.1.1v.1l.1 1.1v.1l-.1.1h-.2l-.9-.6h-.2l-1.1.4h-.2l-.1-.1c-.1 0 0-.1 0-.1l.3-1.1v-.2l-.7-.9v-.2l.1-.1h1.3l.1-.1.6-1 .1-.1h.1c.1-.1.1-.1.2 0 0 0-.1-.1 0 0zm-6.1 4.4l.4 1.1v.1h.1l1.1.3h.1v.2l-.1.1-.9.7-.1.1v.1l.1 1.1v.1l-.1.1h-.2l-.9-.6h-.2l-1.1.4h-.2l-.1-.1V37l.3-1.1v-.2l-.7-.9v-.2l.1-.1h1.3l.1-.1.6-1 .1-.1h.1l.2.1s-.1-.1 0 0zm1.9 8.7l.4 1.1v.1h.1l1.1.3.1.1v.2l-.1.1-.9.7-.1.1v.1l.1 1.1v.1l-.1.1h-.2l-.9-.6h-.2l-1.1.4h-.2l-.1-.1v-.1l.3-1.1v-.2l-.7-.9v-.2l.1-.1h1.3l.1-.1.6-1 .1-.1h.1c.1-.1.1-.1.2 0 0 0-.1 0 0 0zm-7.8.6l.4 1.1v.1h.1l1.1.3.1.1v.2l-.1.1-.9.7-.1.1v.1l.1 1.1v.1l-.1.1h-.2l-.9-.6h-.2l-1.1.4h-.2l-.1-.1c-.1 0 0-.1 0-.1l.5-1.4v-.2l-.7-.9v-.2l.1-.1h1.3l.1-.1.6-1 .1-.1h.1v.3z" opacity=".1"/></g><defs><radialGradient id="a" cx="0" cy="0" r="1" gradientTransform="matrix(-230.136 0 0 -116.072 460 232.7)" gradientUnits="userSpaceOnUse"><stop stop-color="#260133" offset="0"/><stop stop-color="#1F2348" offset="1"/></radialGradient><radialGradient id="c" cx="0" cy="0" r="1" gradientTransform="matrix(-21.4734 0 0 -19.0891 62.5 323)" gradientUnits="userSpaceOnUse"><stop stop-color="#EC991C" offset="0"/><stop stop-color="#E9B213" offset="1"/></radialGradient><radialGradient id="d" cx="0" cy="0" r="1" gradientTransform="translate(394.7 144) scale(28.9891)" gradientUnits="userSpaceOnUse"><stop stop-color="#EC991C" offset="0"/><stop stop-color="#E9B213" offset="1"/></radialGradient><radialGradient id="e" cx="0" cy="0" r="1" gradientTransform="translate(389.4 207) scale(76.8629)" gradientUnits="userSpaceOnUse"><stop stop-color="#EC991C" offset="0"/><stop stop-color="#E9B213" offset="1"/></radialGradient><radialGradient id="f" cx="0" cy="0" r="1" gradientTransform="matrix(35.766 0 0 20.8991 388 224)" gradientUnits="userSpaceOnUse"><stop stop-color="#EC991C" offset="0"/><stop stop-color="#E9B213" offset="1"/></radialGradient><radialGradient id="g" cx="0" cy="0" r="1" gradientTransform="matrix(32.2576 0 0 22.6654 426 224)" gradientUnits="userSpaceOnUse"><stop stop-color="#EC991C" offset="0"/><stop stop-color="#E9B213" offset="1"/></radialGradient><radialGradient id="b" cx="283.2" cy="173.5" r="248.6" gradientTransform="matrix(1 0 0 .6942 0 53)" gradientUnits="userSpaceOnUse"><stop stop-color="#1f2348" stop-opacity=".3" offset="0"/><stop stop-color="#1f2348" stop-opacity="0" offset="1"/></radialGradient><radialGradient gradientTransform="matrix(-230.546 0 0 -78.5565 619.6 321.3)" gradientUnits="userSpaceOnUse" r="1" cy="0" cx="0" id="l"><stop stop-color="#EC991C"/><stop stop-color="#E9B213" offset="1"/></radialGradient><linearGradient id="h" x1="414.1" x2="389.2" y1="141" y2="120" gradientUnits="userSpaceOnUse"><stop stop-color="#fff" stop-opacity="0" offset="0"/><stop stop-color="#fff" offset="1"/></linearGradient><linearGradient id="i" x1="444.4" x2="430" y1="145.4" y2="93.4" gradientUnits="userSpaceOnUse"><stop stop-color="#fff" stop-opacity="0" offset="0"/><stop stop-color="#fff" offset="1"/></linearGradient><linearGradient id="j" x1="412.2" x2="395.3" y1="96.5" y2="61.8" gradientUnits="userSpaceOnUse"><stop stop-color="#fff" stop-opacity="0" offset="0"/><stop stop-color="#fff" offset="1"/></linearGradient><linearGradient id="k" x1="447.9" x2="442.9" y1="95.6" y2="57.3" gradientUnits="userSpaceOnUse"><stop stop-color="#fff" stop-opacity="0" offset="0"/><stop stop-color="#fff" offset="1"/></linearGradient></defs><path d="M459 242.8l-4.3 9h3.5l6.5-9zm-4.3 9v.1zm91.4-9l6.5 9h3.6l-4.5-9zm-126.3 1.6v32.5h5.4v-12.5c0-1.8.6-3.2 1.6-4.3 1-1 2.4-1.6 4-1.6 1.4 0 2.5.4 3.2 1.3.6.8 1 2 1 3.8V277h5.5v-13.7c0-6.1-2.7-9.1-7.9-9.1a9 9 0 00-4.4 1 7.7 7.7 0 00-3 2.7v-13.5zm-15.6.8c-3 0-5.8.7-8 2a13 13 0 00-5.4 5.6 18.6 18.6 0 00-1.8 8.4 18.7 18.7 0 001.8 8.6c1.3 2.4 3 4.3 5.4 5.6 2.2 1.3 5 2 8 2a18 18 0 006-1 13 13 0 004.7-2.8l-1.9-4.1a13 13 0 01-8.7 3.3c-3 0-5.4-1-7-3-1.7-2-2.5-4.8-2.5-8.6 0-3.6.8-6.4 2.5-8.4 1.6-2 4-3 7-3a13.3 13.3 0 018.7 3.2l2-4a13.7 13.7 0 00-4.8-2.8c-1.9-.7-3.9-1-6-1zm103.1.4V277h5v-19.3l8.3 19.3h4l8.2-19.5V277h5v-31.4h-4.6l-10.7 24.6-10.8-24.6zm57.7 3.3v.7c0 1.9-.4 3.1-1 3.9-.7.7-1.8 1.1-3.4 1.1H559V267a6 6 0 01-1.4 4.2 5 5 0 01-4 1.6 4 4 0 01-3-1.1 6 6 0 01-1-3.6v-13.5h-5.4v13.5c0 6.1 2.7 9.2 8.2 9.2 1.4 0 2.8-.4 4-1a7.2 7.2 0 002.8-2.9v3.5h5.4v-19.6a6 6 0 003.8-2.3 7.5 7.5 0 001.4-4.5v-1.6zm19.1 5.2a9 9 0 00-4.3 1.1 8 8 0 00-3 3.1l-.4-3.7h-5.2c.2 1.9.4 4 .4 6.3v16h5.2v-12.5c0-1.8.6-3.2 1.6-4.3 1-1 2.3-1.6 4-1.6 1.4 0 2.5.4 3.2 1.3.6.8 1 2 1 3.8V277h5.6v-13.7c0-6.1-2.7-9.1-8-9.1l.1-.1a9 9 0 00-.2 0zm22.2.1a9.4 9.4 0 00-8.3 5.3c-.8 1.7-1.2 3.6-1.2 5.8 0 2.1.4 4.1 1.2 5.7a9.7 9.7 0 003.5 4 10 10 0 009.6.3 8 8 0 003-3v4.4c0 3.9-2 5.9-6 5.9-2.7 0-5.4-.7-8-2.1l-.9 4.2c2.6 1.4 5.6 2.2 9 2.2 3.7 0 6.6-.9 8.4-2.7 2-1.9 3-4.5 3-7.9v-21.6H614v3.4a7 7 0 00-3-2.9 9 9 0 00-4.4-1 9.4 9.4 0 00-.4 0zm-123.4 0c-2.3 0-4.3.5-6 1.5-1.8.9-3 2.3-4 4.1a12 12 0 00-1.5 6.1c0 2.3.4 4.3 1.3 6 1 1.8 2.2 3 4 4 1.6 1 3.7 1.4 6 1.4 1.7 0 3.2-.2 4.7-.7 1.5-.5 2.7-1.2 3.7-2l-1.6-4c-1 .8-2 1.4-3 1.8a9 9 0 01-3 .6 6 6 0 01-4.8-1.8 8.1 8.1 0 01-1.7-5.4c0-2.3.6-4.2 1.7-5.3a6 6 0 014.7-2 10.3 10.3 0 016.1 2.4l1.6-4a9 9 0 00-3.6-2c-1.5-.5-3-.7-4.6-.7zm-36.7.5v13.5c0 6.1 2.7 9.2 8.2 9.2 1.5 0 2.8-.4 4-1a7.2 7.2 0 002.8-2.9v3.5h5.4v-22.3h-5.5v12.4a6 6 0 01-1.5 4.2 5 5 0 01-3.9 1.6c-1.4 0-2.4-.4-3-1.1-.7-.8-1-2-1-3.6v-13.5zm162.5 3.8a5.4 5.4 0 013.8 1.7 8 8 0 011.6 5c0 2.2-.6 3.8-1.6 5a5.5 5.5 0 01-4.3 1.8c-1.8 0-3.3-.6-4.3-1.7a7.5 7.5 0 01-1.6-5 7.4 7.4 0 011.6-5c1-1.2 2.5-1.8 4.3-1.8a5.4 5.4 0 01.5 0zM552 286.8l-4.3 9h3.5l6.5-9zm-4.3 9v.1zm-119.4-8.4l-2.8 1.2a8 8 0 003 4.6 8.9 8.9 0 0010 0 8 8 0 003-4.6l-2.9-1.2c-1.3 2.5-3 3.7-5 3.7-2.3 0-4-1.2-5.3-3.7zm5.2 7.3zm131.6-6.1v5.5h6.1v-5.5zm-175 1V321h5.1v-22l17 22h4.2v-31.4h-5.2v22l-17-22zm112.3 0V321h5v-19.3l8.4 19.3h3.7l8.4-19.5V321h5v-31.4h-4.5l-10.7 24.6-10.8-24.6zm54.3 3.4v.7c0 1.8-.4 3.1-1 3.8-.7.7-1.6 1-2.8 1a27.8 27.8 0 00-3.5-.3c-2.3 0-4.3.5-6 1.5a8.9 8.9 0 00-3.9 4 14.4 14.4 0 00-.1 12.2c1 1.7 2.3 3 4 4a12 12 0 006 1.4 12 12 0 006-1.4c1.7-1 3-2.2 4-4 .8-1.7 1.3-3.8 1.3-6.2 0-1.8-.3-3.5-.9-5-.6-1.5-1.6-2.7-2.6-3.7a5.7 5.7 0 003-2.5 6.8 6.8 0 001.2-4V293zm-80.5 5.1a8.7 8.7 0 00-4.2 1.1 7.6 7.6 0 00-3 3.1c-1-2.8-3.2-4.2-6.6-4.2-1.6 0-3 .3-4.3 1.1a7 7 0 00-2.7 3l-.4-3.6h-5.2c.2 1.9.4 4 .4 6.3v16h5.4v-12.4c0-1.9.5-3.4 1.3-4.5 1-1 2.1-1.6 3.7-1.6 1.3 0 2.2.4 2.7 1.2.7.8 1 2.1 1 3.8v13.5h5.5v-12.4c0-1.9.4-3.4 1.3-4.5 1-1 2.1-1.6 3.6-1.6 1.3 0 2.3.4 2.8 1.2.6.8 1 2 1 3.8v13.5h5.4v-13.5c0-3.2-.6-5.5-1.8-7-1.3-1.5-3-2.2-5.7-2.2v-.1a8.7 8.7 0 00-.2 0zm-44.8.1a9 9 0 00-5 1.5 8.9 8.9 0 00-3.6 4.1c-.9 1.8-1.3 3.8-1.3 6.1a14 14 0 001.3 6 9.3 9.3 0 003.5 4c1.5 1 3.1 1.5 5.1 1.5a9 9 0 004.3-1 7.3 7.3 0 003-3v3.6h5.5v-22.3h-5.5v3.4a7 7 0 00-3-2.9c-1.3-.7-2.7-1-4.3-1zm134 .5V321h5.5v-22.3zm-15.6 3.7a5 5 0 014 1.9c1 1.3 1.4 3.1 1.4 5.4 0 2.5-.5 4.3-1.5 5.5-1 1.2-2.4 1.8-4.3 1.8s-3.3-.6-4.3-1.8a9 9 0 01-1.4-5.5c0-2.3.5-4.1 1.5-5.3a5 5 0 014.2-2 5 5 0 01.4 0zm-116.8 0a5.1 5.1 0 014.2 2c1 1.2 1.5 3 1.5 5.4 0 2.3-.5 4.1-1.5 5.3a5 5 0 01-4.2 1.9c-1.8 0-3.3-.6-4.3-1.8-1-1.3-1.5-3-1.5-5.3a8.7 8.7 0 011.5-5.5c1-1.3 2.4-2 4.3-2z" fill="url(#l)"/></svg>