<svg id="Layer_1" data-name="Layer 1" xmlns="http://www.w3.org/2000/svg" xmlns:xlink="http://www.w3.org/1999/xlink" viewBox="0 0 688 347"><defs><linearGradient id="linear-gradient" x1="704.12" y1="272.59" x2="544.83" y2="-77.05" gradientUnits="userSpaceOnUse"><stop offset="0" stop-color="#fff" stop-opacity=".63"/><stop offset=".13" stop-color="#fff"/><stop offset=".19" stop-color="#fff" stop-opacity=".63"/><stop offset=".29" stop-color="#fff" stop-opacity=".92"/><stop offset=".31" stop-color="#fff"/><stop offset=".42" stop-color="#fff" stop-opacity=".63"/><stop offset=".58" stop-color="#fff"/><stop offset=".7" stop-color="#fff" stop-opacity=".63"/><stop offset=".84" stop-color="#fff"/><stop offset=".95" stop-color="#fff" stop-opacity=".63"/><stop offset="1" stop-color="#fff"/></linearGradient><linearGradient id="linear-gradient-2" x1="121.34" y1="464.65" x2="-78.78" y2="138.15" xlink:href="#linear-gradient"/><linearGradient id="linear-gradient-3" x1="421.08" y1="183.35" x2="397.55" y2="-7.45" xlink:href="#linear-gradient"/><linearGradient id="linear-gradient-4" x1="460.48" y1="138.4" x2="444.59" y2="-53.57" gradientUnits="userSpaceOnUse"><stop offset="0" stop-color="#fff"/><stop offset=".3" stop-color="#fff" stop-opacity=".63"/><stop offset=".71" stop-color="#fff"/><stop offset=".89" stop-color="#fff" stop-opacity=".63"/><stop offset="1" stop-color="#fff"/></linearGradient><linearGradient id="linear-gradient-5" x1="396.73" y1="150.29" x2="362.53" y2="230.85" gradientTransform="matrix(1 0 0 -1 0 347.57)" gradientUnits="userSpaceOnUse"><stop offset="0" stop-color="#fff"/><stop offset=".11" stop-color="#fff" stop-opacity=".63"/><stop offset=".29" stop-color="#fff"/><stop offset=".7" stop-color="#fff" stop-opacity=".63"/><stop offset="1" stop-color="#fff"/></linearGradient><linearGradient id="linear-gradient-6" x1="366.99" y1="46.02" x2="253.17" y2="-89.53" gradientUnits="userSpaceOnUse"><stop offset="0" stop-color="#fff"/><stop offset=".05" stop-color="#fff" stop-opacity=".63"/><stop offset=".16" stop-color="#fff"/><stop offset=".3" stop-color="#fff" stop-opacity=".63"/><stop offset=".42" stop-color="#fff"/><stop offset=".58" stop-color="#fff" stop-opacity=".63"/><stop offset=".69" stop-color="#fff"/><stop offset=".71" stop-color="#fff" stop-opacity=".92"/><stop offset=".81" stop-color="#fff" stop-opacity=".63"/><stop offset=".87" stop-color="#fff"/><stop offset="1" stop-color="#fff" stop-opacity=".63"/></linearGradient><linearGradient id="linear-gradient-7" x1="506.41" y1="244.81" x2="475.2" y2="260.82" gradientUnits="userSpaceOnUse"><stop offset="0" stop-color="#fff" stop-opacity="0"/><stop offset=".54" stop-color="#fff" stop-opacity=".62"/><stop offset="1" stop-color="#fff" stop-opacity="0"/></linearGradient><linearGradient id="linear-gradient-8" x1="528.24" y1="251.77" x2="506.6" y2="262.87" xlink:href="#linear-gradient-7"/><linearGradient id="linear-gradient-9" x1="549.43" y1="252.04" x2="524.3" y2="264.93" xlink:href="#linear-gradient-7"/><linearGradient id="linear-gradient-10" x1="572.35" y1="252.04" x2="547.22" y2="264.93" xlink:href="#linear-gradient-7"/><linearGradient id="linear-gradient-11" x1="596.26" y1="250.16" x2="568.82" y2="264.23" xlink:href="#linear-gradient-7"/><linearGradient id="linear-gradient-12" x1="501.06" y1="293.58" x2="474.35" y2="307.28" xlink:href="#linear-gradient-7"/><linearGradient id="linear-gradient-13" x1="511.97" y1="302" x2="499.84" y2="308.23" xlink:href="#linear-gradient-7"/><linearGradient id="linear-gradient-14" x1="508.81" y1="288.09" x2="502.41" y2="291.37" xlink:href="#linear-gradient-7"/><linearGradient id="linear-gradient-15" x1="527.98" y1="298.66" x2="509.51" y2="308.13" xlink:href="#linear-gradient-7"/><linearGradient id="linear-gradient-16" x1="542.75" y1="299" x2="528.25" y2="306.44" xlink:href="#linear-gradient-7"/><linearGradient id="linear-gradient-17" x1="560.52" y1="296.53" x2="539.34" y2="307.4" xlink:href="#linear-gradient-7"/><linearGradient id="linear-gradient-18" x1="590.19" y1="296.25" x2="564.84" y2="309.25" xlink:href="#linear-gradient-7"/><linearGradient id="linear-gradient-19" x1="610.1" y1="299.77" x2="588.46" y2="310.87" xlink:href="#linear-gradient-7"/><linearGradient id="linear-gradient-20" x1="624.03" y1="35.62" x2="605.31" y2="45.22" gradientTransform="matrix(1 0 0 -1 0 347.57)" xlink:href="#linear-gradient-7"/><linearGradient id="linear-gradient-21" x1="551.64" y1="-76.83" x2="551.64" y2="-76.83" xlink:href="#linear-gradient-6"/><radialGradient id="radial-gradient" cx="-2493.62" cy="1878.98" r="1" gradientTransform="matrix(-688 0 0 347 -1714922 -651657.46)" gradientUnits="userSpaceOnUse"><stop offset="0" stop-color="#260133"/><stop offset="1" stop-color="#1f2348"/></radialGradient><radialGradient id="radial-gradient-2" cx="-2609.98" cy="1948.15" r="1" gradientTransform="matrix(-20.75 0 0 20.75 -53716.71 -40399.42)" gradientUnits="userSpaceOnUse"><stop offset="0" stop-color="#ec991c"/><stop offset="1" stop-color="#e9b213"/></radialGradient><radialGradient id="radial-gradient-3" cx="-2801.25" cy="2065.45" r="1" gradientTransform="matrix(-8 0 0 8 -21958 -16447.6)" gradientUnits="userSpaceOnUse"><stop offset="0" stop-color="#cc3047"/><stop offset="1" stop-color="#d94432"/></radialGradient><radialGradient id="radial-gradient-4" cx="-2603.18" cy="1943.98" r="1" gradientTransform="matrix(-22 0 0 22 -57242 -42474.65)" xlink:href="#radial-gradient-2"/><radialGradient id="radial-gradient-5" cx="-2609.98" cy="1948.15" r="1" gradientTransform="matrix(-20.75 0 0 20.75 -53724.71 -40312.42)" gradientUnits="userSpaceOnUse"><stop offset="0" stop-color="#41a38e"/><stop offset="1" stop-color="#21bca5"/></radialGradient><radialGradient id="radial-gradient-6" cx="-2766.67" cy="2044.24" r="1" gradientTransform="matrix(-9 0 0 9 -24452 -18219.17)" xlink:href="#radial-gradient-2"/><radialGradient id="radial-gradient-7" cx="-2766.67" cy="2044.24" gradientTransform="matrix(-9 0 0 9 -24495 -18259.17)" xlink:href="#radial-gradient-3"/><radialGradient id="radial-gradient-8" cx="369" cy="23" r="32" xlink:href="#radial-gradient-2"/><radialGradient id="radial-gradient-9" cx="-2845.71" cy="2092.72" r="1" gradientTransform="matrix(-7 0 0 7 -19903 -14396.02)" xlink:href="#radial-gradient-2"/><radialGradient id="radial-gradient-10" cx="-2520.79" cy="1899.15" r="1" gradientTransform="matrix(-57.58 19.43 29.18 86.47 -200079.29 -114943.31)" xlink:href="#radial-gradient-2"/><radialGradient id="radial-gradient-11" cx="-2517.52" cy="2017.12" r="1" gradientTransform="matrix(-64.43 21.74 5.03 14.91 -171887.05 24876.15)" gradientUnits="userSpaceOnUse"><stop offset="0" stop-color="#265dd7"/><stop offset="1" stop-color="#0582ca"/></radialGradient><radialGradient id="radial-gradient-12" cx="-2845.71" cy="2092.72" r="1" gradientTransform="matrix(-7 0 0 7 -19497 -14447.02)" xlink:href="#radial-gradient-2"/><radialGradient id="radial-gradient-13" cx="-2845.71" cy="2092.72" r="1" gradientTransform="matrix(-7 0 0 7 -19540 -14594.02)" xlink:href="#radial-gradient-2"/><radialGradient id="radial-gradient-14" cx="669" cy="183" r="19" xlink:href="#radial-gradient-3"/><radialGradient id="radial-gradient-15" cx="-2506.17" cy="1890.74" r="1" gradientTransform="matrix(-154 0 0 94.45 -385321 -178263.58)" xlink:href="#radial-gradient-2"/><style>.cls-20,.cls-21,.cls-7{isolation:isolate}.cls-17,.cls-20,.cls-21,.cls-7{fill:#fff}.cls-21,.cls-7{opacity:.3}.cls-20,.cls-21{fill-rule:evenodd}.cls-20{opacity:.2}</style></defs><path d="M0 8a8 8 0 018-8h672a8 8 0 018 8v331a8 8 0 01-8 8H8a8 8 0 01-8-8z" fill="url(#radial-gradient)"/><path d="M688 193.72v23.48a26.32 26.32 0 01-14.32-16.92l-7.5-27.07a49.57 49.57 0 00-28.38-32.51 19.73 19.73 0 01-11.59-14.17L618 87.25a54.26 54.26 0 00-34.59-40 21.57 21.57 0 01-14.13-18.75L567.07 0h11.4l1 13.4a21.58 21.58 0 0014.14 18.76 54.23 54.23 0 0134.58 40.05l8.24 39.27a19.74 19.74 0 0011.6 14.18 49.56 49.56 0 0128.38 32.5l7.5 27.08a26.62 26.62 0 004.09 8.48z" fill="url(#linear-gradient)"/><path d="M69.29 347H40.16a48 48 0 00-5.83-1.95 19.76 19.76 0 01-13.48-12.41L7.16 294.92A55.07 55.07 0 000 281.41V256.2a54.68 54.68 0 0115.19 22.38l13.69 37.73a19.75 19.75 0 0013.48 12.4A49.25 49.25 0 0169.29 347z" fill="url(#linear-gradient-2)"/><path d="M433.68 163.17l-.52 20.53-7.06 5.6.52-20.53a15 15 0 00-6.88-13.07 13 13 0 01-5.95-11.39l.44-13.91a24.51 24.51 0 00-8.62-19.54 9.76 9.76 0 01-3.39-8.41l1.9-19.78a26.87 26.87 0 00-10.45-24 10.69 10.69 0 01-3.91-11l4.54-19.76a11.62 11.62 0 00-2.18-9.85l-5.36-6.75a12.1 12.1 0 01-2.62-7.78 9.41 9.41 0 01.77-3.53h6.43a12 12 0 002.48 5.73l5.36 6.76a11.63 11.63 0 012.19 9.84l-4.55 19.76A10.68 10.68 0 00400.74 53a26.89 26.89 0 0110.44 24l-1.9 19.78a9.76 9.76 0 003.39 8.41 24.5 24.5 0 018.62 19.54l-.44 13.91a13 13 0 005.95 11.39 15 15 0 016.88 13.14z" fill="url(#linear-gradient-3)"/><path style="isolation:isolate" fill="none" stroke="#fff" opacity=".5" d="M17 107.5h367"/><circle cx="439.38" cy="21.38" r="10.38" fill="url(#radial-gradient-2)"/><path class="cls-7" d="M439.33 11a10.38 10.38 0 000 20.75z"/><circle cx="448" cy="72" r="4" fill="url(#radial-gradient-3)"/><path class="cls-7" d="M448 68a4 4 0 000 8z"/><circle cx="17" cy="282" r="11" fill="url(#radial-gradient-4)"/><path class="cls-7" d="M17 271a11 11 0 000 22z"/><circle cx="431.38" cy="108.38" r="10.38" fill="url(#radial-gradient-5)"/><path class="cls-7" d="M431.33 98a10.38 10.38 0 000 20.75z"/><circle cx="443.5" cy="174.5" r="4.5" fill="url(#radial-gradient-6)"/><path class="cls-7" d="M443.48 170a4.5 4.5 0 000 9z"/><circle cx="400.5" cy="134.5" r="4.5" fill="url(#radial-gradient-7)"/><path class="cls-7" d="M400.48 130a4.5 4.5 0 000 9z"/><path d="M401 7a16 16 0 11-30.39-7h28.78A15.93 15.93 0 01401 7z" fill="url(#radial-gradient-8)"/><path class="cls-7" d="M384.92 0v23a16 16 0 01-14.31-23z"/><circle cx="13.5" cy="249.5" r="3.5" fill="url(#radial-gradient-9)"/><path class="cls-7" d="M13.48 246a3.5 3.5 0 000 7z"/><path d="M441.43 63.28a18.58 18.58 0 001.8 24.12l17 17.07a11.15 11.15 0 01-.71 16.39l-13.71 11.58a3.71 3.71 0 00.85 6.21l4.95 2.27a3.72 3.72 0 01.68 6.35l-6.6 4.95-2.61 2a3.71 3.71 0 00-.68-6.34l-4.95-2.27a3.72 3.72 0 01-.85-6.22l13.71-11.58a11.13 11.13 0 00.71-16.38L434 94.32a18.59 18.59 0 01-1.8-24.13l30.22-41.06A26 26 0 00463.58 0h12.22a25.94 25.94 0 01-4.15 22.22z" fill="url(#linear-gradient-4)"/><path d="M366.33 138.72l9.09-24.37-5.62 2.34-8.64 21.31a11.81 11.81 0 006.08 14.83l21 9.75a8.43 8.43 0 014.54 10l-3.05 10.51a5 5 0 003.85 6.36l8 1.62a1.68 1.68 0 011 2.66l-1.47 2a1.69 1.69 0 001.11 2.68l3.7.53 1.47.21a1.68 1.68 0 01-1.11-2.67l1.47-2a1.68 1.68 0 00-1-2.66l-8-1.62a5.07 5.07 0 01-3.85-6.37l3.05-10.5a8.42 8.42 0 00-4.54-10l-21-9.76a11.8 11.8 0 01-6.08-14.85z" fill="url(#linear-gradient-5)"/><path class="cls-17" d="M61.23 311.65l-4.47-7.75a1.78 1.78 0 00-1.55-.9h-9a1.78 1.78 0 00-1.55.9l-4.47 7.75a1.79 1.79 0 000 1.79l4.47 7.75a1.78 1.78 0 001.55.9h9a1.78 1.78 0 001.55-.9l4.47-7.75a1.79 1.79 0 000-1.79zM77.13 306.88h2v11.33h-1.5l-6.11-7.9v7.9h-1.99v-11.33H71l6.11 7.9zM83 318.21v-11.33h2v11.33zM98.31 306.88H100v11.33h-1.84v-7l-3.06 7h-1.34l-3.06-7v7h-1.79v-11.33h1.64l3.88 8.87zM103.83 318.21v-11.33h2.09v11.33zM119.86 315.63a6.89 6.89 0 00.67-3.09 6.7 6.7 0 00-.66-3.08 4.63 4.63 0 00-1.91-2 5.91 5.91 0 00-2.95-.7 5.83 5.83 0 00-2.93.7 4.77 4.77 0 00-1.92 2 6.7 6.7 0 00-.66 3.08 6.89 6.89 0 00.66 3.09 4.72 4.72 0 001.9 2 6 6 0 003 .7h.48a9.68 9.68 0 001.22 1.7 8.34 8.34 0 001.44 1.3l1.41-1.12a11.61 11.61 0 01-1.18-1.11 6.22 6.22 0 01-.91-1.22 4.67 4.67 0 002.34-2.25zm-2.32 0a3.49 3.49 0 01-5.05 0 5.74 5.74 0 010-6.2 3.09 3.09 0 012.52-1.07 3.13 3.13 0 012.53 1.07 5.79 5.79 0 010 6.2z"/><path d="M405.44 237.5l55.61 75.65c1.49 2 3.35 1.41 3.31-1.1l-1.34-94z" fill="url(#radial-gradient-10)" fill-rule="evenodd"/><path d="M398.9 223.1c-1.45.49-1.44 3.55 0 5.54l6.51 8.86L463 218.07l-.15-11c0-2.47-1.89-4.93-3.34-4.44z" fill="url(#radial-gradient-11)" fill-rule="evenodd"/><path class="cls-20" d="M433.85 276.16l-23.74-32.31a14.41 14.41 0 015.09-3c8.89-3 19 3.24 22.64 14 2.74 8.08.94 16.44-3.99 21.31zM463.67 263.18l.56 39.95c-7.46-.12-14.83-5.9-17.8-14.69-3.61-10.71.67-21.82 9.57-24.82a14.62 14.62 0 017.67-.44zM446.69 223.58a23.5 23.5 0 001 11.29c2.7 8 9 13.51 15.79 14.53l-.48-31.33z"/><path class="cls-21" d="M463.28 314.3l.13-.05-29.17-86.47-28.81 9.72 55.61 75.65c.76 1.02 1.59 1.37 2.24 1.15zM429.21 212.87L398.9 223.1c-1.45.49-1.44 3.55 0 5.54l6.51 8.86 28.81-9.72z"/><circle cx="419.5" cy="198.5" r="3.5" fill="url(#radial-gradient-12)"/><path class="cls-7" d="M419.48 195a3.5 3.5 0 000 7z"/><circle cx="376.5" cy="51.5" r="3.5" fill="url(#radial-gradient-13)"/><path class="cls-7" d="M376.48 48a3.5 3.5 0 000 7z"/><path d="M371.49 46.19l-.46.07c-5.18.79-11.08 1.56-14.79-2.14a11.24 11.24 0 01-3.21-6.3l-1.21-7.9a10.78 10.78 0 00-5.3-7.71l-16.29-9.39a9.93 9.93 0 01-5-9.58 23.45 23.45 0 00.14-3.24h8.26c0 .66-.05 1.32-.11 2a9.93 9.93 0 005 9.58L354.78 21a10.78 10.78 0 015.3 7.71l1.21 7.9a11.5 11.5 0 0010.2 9.58z" fill="url(#linear-gradient-6)"/><path d="M688 155.93v26.14a13.84 13.84 0 01-5 .93 14 14 0 010-28 13.84 13.84 0 015 .93z" fill="url(#radial-gradient-14)"/><path class="cls-7" d="M682.93 155a14 14 0 000 28z"/><path d="M500.76 240.43v26.32H496v-11.42h-13.46v11.42h-4.69v-26.32h4.69v11H496v-11zm23.24 7.65v18.67h-4.55v-3a6 6 0 01-2.44 2.44 7.53 7.53 0 01-3.62.85 8 8 0 01-4.33-1.18 7.86 7.86 0 01-2.91-3.36 11.71 11.71 0 01-1-5.07 11.94 11.94 0 011-5.1 8.21 8.21 0 012.95-3.47 7.56 7.56 0 014.29-1.26 7.33 7.33 0 013.62.89 5.88 5.88 0 012.44 2.4v-2.81zm-9.35 15.34a4.25 4.25 0 003.54-1.59 7 7 0 001.26-4.47 7.19 7.19 0 00-1.26-4.55 4.76 4.76 0 00-7.17.08 7.32 7.32 0 00-1.25 4.54 7 7 0 001.25 4.44 4.48 4.48 0 003.62 1.55zm25-15.82a7.34 7.34 0 014.25 1.26 8 8 0 012.92 3.47 11.52 11.52 0 011.08 5.1 11.71 11.71 0 01-1 5.07 7.69 7.69 0 01-7.21 4.54 7.53 7.53 0 01-3.62-.85 6.1 6.1 0 01-2.44-2.44v11H529v-21.38a41.78 41.78 0 00-.3-5.29h4.33l.37 3.22a5.53 5.53 0 012.4-2.7 7.28 7.28 0 013.86-1zm-1.25 15.82a4.36 4.36 0 003.58-1.55 6.89 6.89 0 001.26-4.44 7.25 7.25 0 00-1.26-4.54 4.19 4.19 0 00-3.55-1.67 4.35 4.35 0 00-3.62 1.59 7.19 7.19 0 00-1.25 4.55 7.1 7.1 0 001.25 4.51 4.36 4.36 0 003.6 1.55zm24.17-15.82a7.36 7.36 0 014.25 1.26 8 8 0 012.92 3.47 11.52 11.52 0 011.08 5.1 11.71 11.71 0 01-1 5.07 7.69 7.69 0 01-7.21 4.54 7.53 7.53 0 01-3.62-.85 6.1 6.1 0 01-2.44-2.44v11h-4.58v-21.38a41.78 41.78 0 00-.3-5.29H556l.37 3.22a5.53 5.53 0 012.4-2.7 7.28 7.28 0 013.81-1zm-1.25 15.82a4.36 4.36 0 003.58-1.55 6.89 6.89 0 001.26-4.44 7.25 7.25 0 00-1.26-4.54 4.19 4.19 0 00-3.55-1.67 4.35 4.35 0 00-3.62 1.59 7.19 7.19 0 00-1.26 4.55 7.1 7.1 0 001.26 4.51 4.36 4.36 0 003.6 1.55zm30.87-15.34L583.52 268a11.39 11.39 0 01-3.78 5.07 13.22 13.22 0 01-5.65 2.1l-1-3.54a11.09 11.09 0 003.92-1.52 6.24 6.24 0 002.15-2.66l.59-1.37-7.76-18h4.84l5.36 13.42 5.47-13.42zM494 301.15a6.46 6.46 0 013.52 2.32 6.67 6.67 0 011.25 4.11 6.39 6.39 0 01-2.4 5.28 10.35 10.35 0 01-6.62 1.89h-11.9v-26.32h11.56a10 10 0 016.4 1.85 6.54 6.54 0 011.22 8.65 6.15 6.15 0 01-3.03 2.22zm-11.53-1.63h6.14q5 0 4.95-3.7a3.27 3.27 0 00-1.22-2.77 6.21 6.21 0 00-3.73-.92h-6.11zm6.77 11.53a6.2 6.2 0 003.77-.92 3.44 3.44 0 001.22-2.92 3.59 3.59 0 00-1.22-3 6 6 0 00-3.77-1h-6.74v7.8zm13.76-15h4.58v18.67H503zm4.84-8.46v4.54h-5.13v-4.54zm14.85 8a5.36 5.36 0 011.85.29v4.22a6.43 6.43 0 00-2.44-.48 4.68 4.68 0 00-3.62 1.36 5.28 5.28 0 00-1.22 3.63v10.09h-4.58v-13.33a41.78 41.78 0 00-.3-5.29h4.33l.37 3.29a5.47 5.47 0 012.21-2.77 6.3 6.3 0 013.43-.96zm12 3.92v8.35q0 3.29 3.06 3.29a6.42 6.42 0 001.85-.3v3.66a8.57 8.57 0 01-3 .45 6.47 6.47 0 01-4.88-1.78 7.09 7.09 0 01-1.7-5.1v-8.57h-3.58v-3.48h3.58v-4.54l4.63-1.56v6.1h4.95v3.48zm18.8-4q6.69 0 6.69 7.69v11.46h-4.62v-11.15a4.88 4.88 0 00-.85-3.21 3.19 3.19 0 00-2.62-1 4.47 4.47 0 00-3.4 1.37 4.89 4.89 0 00-1.29 3.55v10.57h-4.59v-27.25h4.59v11.24a6.43 6.43 0 012.55-2.33 7.47 7.47 0 013.57-.85zm29.51-7.97v27.21h-4.54v-3a6.1 6.1 0 01-2.44 2.44 7.53 7.53 0 01-3.62.85 7.68 7.68 0 01-4.29-1.22 8.3 8.3 0 01-3-3.43 12.22 12.22 0 01-1-5.14 11.74 11.74 0 011-5.07 7.82 7.82 0 017.25-4.58 7.36 7.36 0 013.55.85 5.64 5.64 0 012.43 2.33v-11.24zm-9.38 23.88a4.25 4.25 0 003.54-1.59 6.93 6.93 0 001.3-4.51 7.12 7.12 0 00-1.26-4.51 4.27 4.27 0 00-3.55-1.59 4.4 4.4 0 00-3.62 1.59 6.91 6.91 0 00-1.26 4.44 7.25 7.25 0 001.26 4.54 4.32 4.32 0 003.55 1.63zm32.27-15.34v18.67h-4.59v-3a6.1 6.1 0 01-2.44 2.44 7.5 7.5 0 01-3.62.85 7.91 7.91 0 01-4.32-1.18 7.81 7.81 0 01-2.92-3.36 11.71 11.71 0 01-1-5.07 11.94 11.94 0 011-5.1 8.21 8.21 0 013-3.47 7.56 7.56 0 014.29-1.26 7.3 7.3 0 013.62.89 5.94 5.94 0 012.44 2.4v-2.81zm-9.35 15.34a4.23 4.23 0 003.54-1.59 7 7 0 001.26-4.47 7.19 7.19 0 00-1.26-4.55 4.75 4.75 0 00-7.16.08 7.25 7.25 0 00-1.26 4.54 6.89 6.89 0 001.26 4.44 4.46 4.46 0 003.58 1.55zm32-15.34L619.86 316a11.3 11.3 0 01-3.77 5.07 13.27 13.27 0 01-5.65 2.1l-1-3.54a11.09 11.09 0 003.92-1.52 6.15 6.15 0 002.14-2.66l.59-1.37-7.76-18h4.84l5.36 13.42 5.47-13.42z" fill="url(#radial-gradient-15)"/><path fill="url(#linear-gradient-7)" d="M500.76 240.43v26.32h-4.73v-11.42h-13.49v11.42h-4.69v-26.32h4.69v11.01h13.49v-11.01h4.73z"/><path d="M519.44 248.08v2.81a5.85 5.85 0 00-2.44-2.41 7.32 7.32 0 00-3.62-.88 7.63 7.63 0 00-4.29 1.25 8.24 8.24 0 00-2.95 3.48 11.94 11.94 0 00-1 5.1 11.66 11.66 0 001 5.06 7.83 7.83 0 002.91 3.37 8.05 8.05 0 004.33 1.18 7.65 7.65 0 003.62-.85 6.1 6.1 0 002.44-2.44v3H524v-18.67zm-1.26 13.75a4.25 4.25 0 01-3.54 1.59 4.46 4.46 0 01-3.63-1.56 6.91 6.91 0 01-1.25-4.43 7.35 7.35 0 011.25-4.55 4.77 4.77 0 017.17-.07 7.15 7.15 0 011.26 4.54 7 7 0 01-1.26 4.48z" fill="url(#linear-gradient-8)"/><path d="M546.83 252.33a8 8 0 00-2.92-3.48 7.89 7.89 0 00-8.09-.26 5.57 5.57 0 00-2.4 2.7l-.37-3.21h-4.33a41.61 41.61 0 01.3 5.28v21.37h4.58v-11a6.16 6.16 0 002.44 2.44 7.65 7.65 0 003.62.85 7.68 7.68 0 007.21-4.55 11.66 11.66 0 001-5.06 11.52 11.52 0 00-1.04-5.08zm-4.83 9.53a4.9 4.9 0 01-7.17 0 8.82 8.82 0 010-9.05 4.35 4.35 0 013.62-1.59 4.18 4.18 0 013.55 1.66 7.28 7.28 0 011.26 4.55 6.86 6.86 0 01-1.26 4.43z" fill="url(#linear-gradient-9)"/><path d="M569.75 252.33a8 8 0 00-2.92-3.48 7.89 7.89 0 00-8.09-.26 5.57 5.57 0 00-2.4 2.7l-.37-3.21h-4.33a41.61 41.61 0 01.3 5.28v21.37h4.58v-11a6.16 6.16 0 002.44 2.44 7.65 7.65 0 003.62.85 7.68 7.68 0 007.21-4.55 11.66 11.66 0 001-5.06 11.52 11.52 0 00-1.04-5.08zm-4.84 9.53a4.9 4.9 0 01-7.17 0 8.76 8.76 0 010-9.05 4.35 4.35 0 013.62-1.59 4.18 4.18 0 013.55 1.66 7.28 7.28 0 011.26 4.55 6.86 6.86 0 01-1.26 4.43z" fill="url(#linear-gradient-10)"/><path d="M592.2 248.08L583.52 268a11.39 11.39 0 01-3.78 5.07 13.22 13.22 0 01-5.65 2.1l-1-3.54a11.09 11.09 0 003.92-1.52 6.24 6.24 0 002.15-2.66l.59-1.37-7.76-18h4.84l5.36 13.42 5.47-13.42z" fill="url(#linear-gradient-11)"/><path d="M497.55 303.47a6.42 6.42 0 00-3.52-2.33 6.15 6.15 0 003-2.22 6.54 6.54 0 00-1.22-8.65 10 10 0 00-6.4-1.84h-11.56v26.31h11.93a10.41 10.41 0 006.62-1.88 6.41 6.41 0 002.4-5.29 6.66 6.66 0 00-1.25-4.1zm-15.05-11.35h6.14a6.13 6.13 0 013.73.93 3.26 3.26 0 011.22 2.77q0 3.69-4.95 3.69h-6.14zm10.54 18a6.13 6.13 0 01-3.77.93h-6.77v-7.8h6.77a6 6 0 013.77 1 3.58 3.58 0 011.22 3 3.43 3.43 0 01-1.26 2.87z" fill="url(#linear-gradient-12)"/><path fill="url(#linear-gradient-13)" d="M503.03 296.08h4.58v18.67h-4.58z"/><path fill="url(#linear-gradient-14)" d="M502.74 287.62h5.14v4.55h-5.14z"/><path d="M522.72 295.64a5.36 5.36 0 011.85.29v4.22a6.43 6.43 0 00-2.44-.48 4.68 4.68 0 00-3.62 1.36 5.28 5.28 0 00-1.22 3.63v10.09h-4.58v-13.38a41.78 41.78 0 00-.3-5.29h4.33l.37 3.29a5.47 5.47 0 012.21-2.77 6.3 6.3 0 013.4-.96z" fill="url(#linear-gradient-15)"/><path d="M534.72 299.56v8.35q0 3.29 3.06 3.29a6.42 6.42 0 001.85-.3v3.66a8.57 8.57 0 01-3 .45 6.47 6.47 0 01-4.88-1.78 7.09 7.09 0 01-1.7-5.1v-8.57h-3.58v-3.48h3.58v-4.54l4.63-1.56v6.1h4.95v3.48z" fill="url(#linear-gradient-16)"/><path d="M553.52 295.6q6.69 0 6.69 7.69v11.46h-4.62v-11.24a4.88 4.88 0 00-.85-3.21 3.19 3.19 0 00-2.62-1 4.47 4.47 0 00-3.4 1.37 4.89 4.89 0 00-1.29 3.55v10.57h-4.59v-27.25h4.59v11.24a6.43 6.43 0 012.55-2.33 7.47 7.47 0 013.54-.85z" fill="url(#linear-gradient-17)"/><path d="M578.34 287.54v11.24a5.64 5.64 0 00-2.43-2.33 7.25 7.25 0 00-3.55-.85 7.82 7.82 0 00-7.25 4.58 11.66 11.66 0 00-1 5.06 12.16 12.16 0 001 5.14 8.33 8.33 0 003 3.44 7.76 7.76 0 004.29 1.22 7.65 7.65 0 003.62-.85 6.16 6.16 0 002.44-2.44v3H583v-27.2zm-1.22 22.29a4.25 4.25 0 01-3.54 1.59 4.34 4.34 0 01-3.59-1.63 7.26 7.26 0 01-1.26-4.55 6.86 6.86 0 011.26-4.43 4.4 4.4 0 013.62-1.59 4.27 4.27 0 013.55 1.59 7.1 7.1 0 011.26 4.51 6.94 6.94 0 01-1.3 4.51z" fill="url(#linear-gradient-18)"/><path d="M601.3 296.08v2.81a5.9 5.9 0 00-2.44-2.41 7.3 7.3 0 00-3.62-.88 7.63 7.63 0 00-4.29 1.25 8.24 8.24 0 00-3 3.48 11.94 11.94 0 00-1 5.1 11.66 11.66 0 001 5.06 7.78 7.78 0 002.92 3.37 8 8 0 004.32 1.18 7.62 7.62 0 003.62-.85 6.16 6.16 0 002.44-2.44v3h4.55v-18.67zm-1.3 13.75a4.23 4.23 0 01-3.54 1.59 4.44 4.44 0 01-3.62-1.56 6.86 6.86 0 01-1.26-4.43 7.28 7.28 0 011.26-4.55 4.76 4.76 0 017.16-.07 7.15 7.15 0 011.26 4.54 7 7 0 01-1.26 4.48z" fill="url(#linear-gradient-19)"/><path d="M628.55 296.08L619.86 316a11.3 11.3 0 01-3.77 5.07 13.27 13.27 0 01-5.65 2.1l-1-3.54a11.09 11.09 0 003.92-1.52 6.15 6.15 0 002.14-2.66l.59-1.37-7.76-18h4.84l5.36 13.42 5.47-13.42z" fill="url(#linear-gradient-20)"/><path d="M646.57 66.25v8.37a1.44 1.44 0 00.69 1.4c2 1.27 4.64 3 7.6 4.77.86.53 1 1 1 1.37v17a2.12 2.12 0 01-1.15 1.78c-.63.36-7.06 4-7.56 4.36s-.54.67-.54 1.48v7.68c0 1.31.53 2 2.12 2.88s4.09 2.19 6.09 3.3a1.69 1.69 0 011.05 1.89v15.35c0 1.9-.4 2.3-1.67 3.2-1.47 1.05-2.2 1.51-6.68 4.74a1.81 1.81 0 00-.9 1.61v7.53a1.69 1.69 0 001.11 1.83c1.67.93 3.79 2.13 7.06 3.9.72.38 1.08.65 1.08 1.63v17.35a1.72 1.72 0 01-.91 1.39c-3.15 1.83-4.21 2.35-6.87 3.86a2.59 2.59 0 00-1.47 2.29v8c0 .77.39 1.32 1.41 1.9 1.61.9 4 2.28 6.94 4.05a1.48 1.48 0 01.9 1.65v14.41a4 4 0 01-4.27 4h-14a2.67 2.67 0 01-2.24-1.22c-.21-.22-2.23-4.13-3.5-6.31a1.64 1.64 0 00-1.68-1h-9.35a2.46 2.46 0 00-2 1.35c-1.59 2.55-1.29 2.39-3.22 5.46-.69 1.1-1.26 1.75-2.28 1.75H596.9c-1.1 0-1.52-1-1.74-1.38-.36-.66-3.17-5.65-3.46-6.22-.4-.76-.67-1-1.35-1h-10.06a1.6 1.6 0 00-1.47 1.13c-1 2-1.46 2.86-3.27 6a2.18 2.18 0 01-2.18 1.44h-16.22a2.29 2.29 0 01-1.89-1.15c0-.05-3.27-5.56-3.74-6.38a2.27 2.27 0 00-2.22-1h-9.6a2.06 2.06 0 00-1.78 1.32c-.64 1.3-1.46 3.16-2.65 6a2.08 2.08 0 01-2 1.27h-16.44a2.09 2.09 0 01-1.55-1c-.71-1-2.91-4.82-4.2-6.78a2.07 2.07 0 00-1.93-.82h-8.71c-1.35 0-1.82.82-2.38 2-.79 1.63-.91 1.94-2.39 5.19-.23.51-1 1.4-1.54 1.4H481c-4 0-5.77-2-5.77-5v-13.92a3 3 0 011.14-2.31c.33-.21 7-4.3 7.2-4.47a.82.82 0 00.34-.66v-9a1 1 0 00-.56-1c-1.42-.84-5-3.07-7.17-4.5a1.85 1.85 0 01-.95-1.67v-16.88a1.74 1.74 0 011-1.74c.29-.19 6.56-4 7.12-4.37a1.18 1.18 0 00.6-1.06V146a1.24 1.24 0 00-.62-1.22 107.75 107.75 0 01-6.87-4.13 2 2 0 01-1.19-2V122a2.21 2.21 0 011-1.76c1.86-1.18 5.39-3.29 7.17-4.27a1.09 1.09 0 00.51-1v-8.85a1.48 1.48 0 00-.61-1.11c-.08-.07-7.19-4.87-7.65-5.27a2.11 2.11 0 01-.42-1.47V81.86a1.7 1.7 0 01.74-1.47c.8-.55 6.86-4.31 7.12-4.48a2 2 0 00.83-1.76v-8.16c0-.93-.44-1.23-1-1.56-2.05-1.24-4.37-2.54-6.38-3.77a2.88 2.88 0 01-1.31-2.4V43.41a3.18 3.18 0 013.06-3.22h15.91a1.79 1.79 0 011.47.78c.87 1.37 3.93 6.82 4.32 7.48s.78 1.22 1.39 1.22h8.52c.54 0 1-.51 1.6-1.58 1.51-2.69 2.15-4 3.15-5.84s1.53-2.06 2.86-2.06h17.22c.75 0 1.14.68 1.36 1.1s3.79 6.88 4.1 7.42a1.54 1.54 0 001.32 1h8.7c.48 0 1.3-.8 1.66-1.45 1.22-2.22 2.39-4.84 3.9-7.06a2.1 2.1 0 011.82-1h17.33c.68 0 1 .45 1.32 1 .77 1.35 2.93 5.42 4.26 7.41a2 2 0 001.35 1h8.09c1.43 0 2.14-1.33 2.57-2.09.93-1.61 1.71-3.23 3.38-6.32a1.61 1.61 0 011.66-1.07h17.24c1.18 0 1.76 1.27 1.84 1.43 2.63 4.75 2.42 4.42 3.83 6.84a2.59 2.59 0 002.32 1.21h7a2.54 2.54 0 002.56-1.6c1.22-2.31 1.22-2.31 3.32-6.13.77-1.41 1.38-1.77 2.14-1.75h16.3a2 2 0 011.68 1.87v17.43a1.36 1.36 0 01-.86 1.39c-2.23 1.3-5.65 3.24-7.89 4.57a.93.93 0 00-.5.86z" fill-rule="evenodd" fill="#fff"/></svg>