<?xml version="1.0" encoding="UTF-8" standalone="no"?>
<!-- Generator: Adobe Illustrator 23.1.1, SVG Export Plug-In . SVG Version: 6.00 Build 0)  -->

<svg
   xmlns:dc="http://purl.org/dc/elements/1.1/"
   xmlns:cc="http://creativecommons.org/ns#"
   xmlns:rdf="http://www.w3.org/1999/02/22-rdf-syntax-ns#"
   xmlns:svg="http://www.w3.org/2000/svg"
   xmlns="http://www.w3.org/2000/svg"
   xmlns:sodipodi="http://sodipodi.sourceforge.net/DTD/sodipodi-0.dtd"
   xmlns:inkscape="http://www.inkscape.org/namespaces/inkscape"
   version="1.1"
   id="GIft_Card"
   x="0px"
   y="0px"
   viewBox="0 0 688 347"
   style="enable-background:new 0 0 688 347;"
   xml:space="preserve"
   sodipodi:docname="cny-card.svg"
   inkscape:version="0.92.4 (unknown)"><metadata
   id="metadata1056"><rdf:RDF><cc:Work
       rdf:about=""><dc:format>image/svg+xml</dc:format><dc:type
         rdf:resource="http://purl.org/dc/dcmitype/StillImage" /></cc:Work></rdf:RDF></metadata><defs
   id="defs1054" /><sodipodi:namedview
   pagecolor="#ffffff"
   bordercolor="#666666"
   borderopacity="1"
   objecttolerance="10"
   gridtolerance="10"
   guidetolerance="10"
   inkscape:pageopacity="0"
   inkscape:pageshadow="2"
   inkscape:window-width="3840"
   inkscape:window-height="2075"
   id="namedview1052"
   showgrid="false"
   inkscape:zoom="5.318314"
   inkscape:cx="359.23039"
   inkscape:cy="128.37292"
   inkscape:window-x="0"
   inkscape:window-y="0"
   inkscape:window-maximized="1"
   inkscape:current-layer="Gift_Card" />
<style
   type="text/css"
   id="style941">
	.st0{fill:url(#SVGID_1_);}
	.st1{fill:#FFFFFF;}
	.st2{opacity:0.5;fill:none;stroke:#FFFFFF;enable-background:new    ;}
	.st3{opacity:0.4;}
	.st4{opacity:0.2;fill-rule:evenodd;clip-rule:evenodd;fill:#FFFFFF;enable-background:new    ;}
	.st5{fill:none;stroke:#E9B213;stroke-width:1.428;}
	.st6{fill:none;stroke:#E9B213;stroke-width:1.428;stroke-linecap:round;stroke-linejoin:round;}
	.st7{fill:none;stroke:#E9B213;stroke-width:1.0727;stroke-linecap:round;stroke-linejoin:round;stroke-dasharray:0.54,12.87;}
	.st8{fill:#E9B213;}
	.st9{fill:none;stroke:#E9B213;stroke-width:2.6625;stroke-linecap:round;stroke-linejoin:round;}
	.st10{fill:none;stroke:#E9B213;stroke-width:1.6465;}
	.st11{fill:none;stroke:#E9B213;stroke-width:2.1527;}
	.st12{fill:none;stroke:#E9B213;stroke-width:2.6625;}
	.st13{opacity:0.2;}
	.st14{opacity:0.3;}
	.st15{opacity:0.6;}
</style>
<g
   id="g966">
	
		<radialGradient
   id="SVGID_1_"
   cx="-2493.6189"
   cy="1887.9493"
   r="1"
   gradientTransform="matrix(-688 0 0 347 -1714922 -654771.4375)"
   gradientUnits="userSpaceOnUse">
		<stop
   offset="0"
   style="stop-color:#260133"
   id="stop943" />
		<stop
   offset="1"
   style="stop-color:#1F2348"
   id="stop945" />
	</radialGradient>
	<rect
   x="-0.2"
   class="st0"
   width="688"
   height="347"
   id="rect948" />
	<g
   id="g964">
		<g
   id="g962">
			<path
   class="st1"
   d="M61.2,311.7l-4.5-7.8c-0.3-0.6-0.9-0.9-1.6-0.9h-8.9c-0.6,0-1.2,0.3-1.5,0.9l-4.5,7.8     c-0.3,0.6-0.3,1.2,0,1.8l4.5,7.8c0.3,0.6,0.9,0.9,1.5,0.9h8.9c0.6,0,1.2-0.3,1.5-0.9l4.5-7.8C61.6,312.9,61.6,312.2,61.2,311.7z"
   id="path950" />
			<path
   class="st1"
   d="M77.1,306.9h1.9v11.3h-1.5l-6.1-7.9v7.9h-1.9v-11.3H71l6.1,7.9V306.9z"
   id="path952" />
			<path
   class="st1"
   d="M82.9,318.2v-11.3H85v11.3H82.9z"
   id="path954" />
			<path
   class="st1"
   d="M98.3,306.9h1.6v11.3h-1.8v-7l-3.1,7h-1.3l-3.1-7v7h-1.8v-11.3h1.6l3.9,8.9L98.3,306.9z"
   id="path956" />
			<path
   class="st1"
   d="M103.8,318.2v-11.3h2.1v11.3H103.8z"
   id="path958" />
			<path
   class="st1"
   d="M119.9,315.6c-0.6,1.2-1.6,1.9-2.4,2.3c0.1,0.2,0.6,0.9,0.9,1.2c0.3,0.4,0.7,0.7,1.2,1.1l-1.4,1.1     c-0.5-0.4-1-0.8-1.4-1.3c-0.5-0.5-0.9-1.1-1.2-1.7c-0.1,0-0.3,0-0.5,0c-1.2,0-2.1-0.2-2.9-0.7c-0.8-0.5-1.5-1.1-1.9-2     c-0.4-0.8-0.7-1.9-0.7-3.1s0.2-2.2,0.7-3.1c0.4-0.9,1.1-1.6,1.9-2c0.8-0.5,1.8-0.7,2.9-0.7s2.1,0.2,2.9,0.7     c0.8,0.5,1.5,1.1,1.9,2c0.4,0.9,0.7,1.9,0.7,3.1S120.3,314.8,119.9,315.6z M112.5,315.6c0.6,0.7,1.4,1.1,2.5,1.1s1.9-0.4,2.5-1.1     c0.6-0.7,0.9-1.7,0.9-3.1c0-1.3-0.3-2.4-0.9-3.1c-0.6-0.7-1.4-1.1-2.5-1.1s-1.9,0.4-2.5,1.1c-0.6,0.7-0.9,1.8-0.9,3.1     S111.9,314.9,112.5,315.6z"
   id="path960" />
		</g>
	</g>
</g>
<line
   class="st2"
   x1="17"
   y1="107.5"
   x2="373"
   y2="107.5"
   id="line968" />
<g
   id="Gift_Card">
	<g
   class="st3"
   id="g972">
		<path
   class="st1"
   d="M439.4,97.8c-0.1,0-0.2,0-0.3,0c-1.1,0-2.2,0-3.4,0c-0.2,0-0.3-0.1-0.4-0.2c-1.2-2-2.3-4-3.5-6    c0-0.1-0.1-0.1-0.2-0.2c-1.3,2.2-2.6,4.5-3.9,6.7c-1-0.6-2-1.1-2.9-1.7c1.3-2.2,2.5-4.4,3.8-6.6c-0.4,0-0.7,0-1,0    c-0.3,0-0.7,0-1,0c-0.3,0-0.7,0-1,0c-0.3,0-0.7,0-1,0c-0.3,0-0.7,0-1,0c-0.3,0-0.7,0-1,0c-0.3,0-0.7,0-1,0c-0.3,0-0.7,0-1,0    c-0.3,0-0.7,0-1,0c0-0.2,1.7-3.1,1.9-3.4c0.5,0,1,0,1.5,0c2.4,0,4.9,0,7.3,0c0.2,0,0.3,0,0.3-0.2c0.8-1.5,1.7-2.9,2.5-4.4    c0-0.1,0.1-0.1,0.1-0.2c-3.2,0-6.3,0-9.5,0c1.5-2.7,3.1-5.4,4.6-8.1c-0.2-0.1-4.7-0.1-5.2,0c-1.9,3.3-3.8,6.6-5.7,9.9    c-0.7-1.1-1.3-2.3-2-3.4c1.2-2.2,2.5-4.3,3.7-6.5c-2.6,0-5.2,0-7.7,0c0-1.1,0-2.3,0-3.4c2.5,0,5,0,7.6,0c-1.5-2.6-3-5.2-4.5-7.8    c0.1,0,0.1,0,0.2,0c1.2,0,2.3,0,3.5,0c0.2,0,0.3,0.1,0.3,0.2c1.4,2.5,2.9,4.9,4.3,7.4c0.1,0.2,0.2,0.2,0.4,0.2c1.5,0,3.1,0,4.6,0    c0.1,0,0.2,0,0.3,0c-1.5-2.7-3-5.3-4.5-7.9c3.2,0,6.4,0,9.6,0c-0.9-1.7-1.9-3.3-2.8-4.9c-0.3,0-0.7,0-1,0c-2.6,0-5.2,0-7.9,0    c-0.2,0-0.3-0.1-0.4-0.2c-0.6-1-1.1-1.9-1.7-2.9c0-0.1-0.1-0.2-0.1-0.3c3,0,6,0,9.1,0c-1.3-2.2-2.5-4.4-3.8-6.6    c1-0.6,2-1.1,2.9-1.7c1.3,2.2,2.6,4.5,3.9,6.7c1.3-2.2,2.5-4.3,3.8-6.5c1.3,0,2.6,0,3.9,0c0,0.1-0.1,0.2-0.1,0.2    c-1.8,3.1-3.6,6.3-5.4,9.4c0,0,0,0.1-0.1,0.1c-0.1,0.1-0.1,0.2,0,0.3c0.1,0.2,0.2,0.4,0.3,0.5c0.7,1.2,1.4,2.4,2,3.5    c0,0.1,0.1,0.2,0.2,0.3c0.8-1.4,1.7-2.8,2.5-4.2c0.8-1.4,1.6-2.8,2.5-4.2c1.6,2.7,3.2,5.4,4.8,8.1c0.1-0.1,0.1-0.1,0.1-0.2    c0.8-1.3,1.5-2.7,2.3-4c0.1-0.2,0.1-0.3,0-0.4c-1.4-2.5-2.9-5-4.3-7.5c0-0.1-0.1-0.2-0.1-0.2c0.6-1.1,1.3-2.2,1.9-3.3c0,0,0,0,0,0    c0,0,0,0,0,0c0,0,0,0,0,0c0,0,0,0.1,0.1,0.1c1.5,2.5,2.9,5.1,4.4,7.6c0,0,0,0,0,0c0,0,0,0,0,0c1.3-2.2,2.5-4.3,3.8-6.5    c1,0.6,2,1.1,2.9,1.7c-1.3,2.2-2.6,4.5-3.9,6.7c0.1,0,0.2,0,0.3,0c2.3,0,4.7,0,7,0c0.2,0,0.3,0.1,0.4,0.2c0.6,1,1.1,1.9,1.7,2.9    c0,0.1,0.1,0.1,0.1,0.2c-0.7,0-1.3,0-1.9,0c-0.6,0-1.3,0-1.9,0c-0.6,0-1.3,0-1.9,0c-0.6,0-1.3,0-1.9,0c-0.6,0-1.3,0-1.9,0    c-0.6,0-1.3,0-1.9,0c-0.9,1.6-1.8,3.2-2.8,4.8c3.3,0,6.6,0,9.9,0c-1.6,2.6-3.1,5.2-4.6,7.9c0.1,0,0.1,0,0.2,0c1.5,0,3.1,0,4.6,0    c0.2,0,0.2-0.1,0.3-0.2c1.4-2.4,2.8-4.8,4.2-7.2c0.1-0.1,0.1-0.2,0.2-0.4c0.1-0.1,0.1-0.1,0.2-0.1c1.2,0,2.4,0,3.6,0    c0,0,0.1,0,0.1,0c-1.5,2.6-3,5.2-4.5,7.8c2.5,0,5.1,0,7.5,0c0.1,0.2,0.1,3.1,0,3.4c-2.6,0-5.1,0-7.7,0c0.1,0.1,0.1,0.2,0.1,0.3    c0.9,1.6,1.8,3.2,2.8,4.8c0.3,0.4,0.5,0.9,0.8,1.3c0.1,0.1,0.1,0.2,0,0.3c-0.6,1.1-1.2,2.1-1.8,3.2c0,0,0,0-0.1,0.1    c-0.1-0.1-0.1-0.2-0.1-0.2c-1.6-2.8-3.2-5.6-4.9-8.4c-0.2-0.3-0.4-0.7-0.6-1c-0.1-0.1-0.1-0.2-0.3-0.2c-1.5,0-3,0-4.5,0    c-0.1,0-0.1,0-0.2,0c1.6,2.7,3.2,5.4,4.8,8.1c-3.4,0-6.7,0-10,0c0,0.1,0.1,0.1,0.1,0.2c0.8,1.5,1.7,2.9,2.5,4.4    c0.1,0.2,0.2,0.2,0.3,0.2c3.2,0,6.5,0,9.7,0c0.4,0,0.8,0,1.2,0c0.1,0,0.2,0,0.3,0c-0.1,0.1-0.1,0.2-0.1,0.3    c-0.6,1-1.1,1.9-1.7,2.9c-0.1,0.2-0.2,0.2-0.4,0.2c-2.3,0-4.7,0-7,0c-0.1,0-0.1,0-0.3,0c1.3,2.2,2.6,4.5,3.9,6.7    c-1,0.6-1.9,1.1-2.9,1.7c-1.3-2.2-2.5-4.4-3.8-6.6c-0.4,0.7-0.8,1.3-1.1,2c-0.4,0.7-0.8,1.3-1.1,2c-0.4,0.7-0.7,1.3-1.1,2    c-0.4,0.6-0.7,1.3-1.1,2c-0.7-1.1-1.3-2.3-2-3.4c0-0.1,0.1-0.2,0.1-0.2c1.4-2.5,2.8-4.9,4.3-7.4c0.1-0.2,0.1-0.3,0-0.5    c-0.8-1.3-1.5-2.6-2.2-3.9c0-0.1-0.1-0.1-0.1-0.2c-1.6,2.8-3.2,5.5-4.8,8.3c-1.6-2.8-3.2-5.6-4.9-8.4c-0.8,1.5-1.7,2.9-2.5,4.3    C435.5,91.2,437.4,94.5,439.4,97.8z M440.9,68.4c0.1-0.1,0.1-0.1,0.1-0.2c0.9-1.6,1.8-3.2,2.8-4.8c0.1-0.1,0-0.2,0-0.3    c-0.9-1.4-1.7-2.9-2.6-4.3c0-0.1-0.1-0.1-0.1-0.2c-1,1.7-2,3.3-3,5C439.1,65.2,440,66.8,440.9,68.4z M441,85    c0-0.1,0.1-0.1,0.1-0.2c0.9-1.5,1.7-3,2.6-4.5c0.1-0.1,0.1-0.2,0-0.4c-0.9-1.5-1.8-3.1-2.7-4.6c0-0.1-0.1-0.1-0.1-0.2    c-0.1,0.1-0.1,0.2-0.1,0.2c-0.8,1.4-1.7,2.9-2.5,4.3c-0.1,0.2-0.1,0.3,0,0.5c0.9,1.5,1.7,3,2.6,4.5C440.9,84.9,441,84.9,441,85z     M443.8,73.4c0,0.1,0,0.1,0.1,0.2c0.8,1.5,1.7,2.9,2.5,4.4c0.1,0.1,0.1,0.1,0.3,0.1c1.9,0,3.7,0,5.6,0c0.1,0,0.1,0,0.2,0    c-0.1-0.1-0.1-0.2-0.1-0.2c-0.8-1.4-1.6-2.8-2.5-4.2c-0.1-0.2-0.2-0.2-0.4-0.2c-1.8,0-3.6,0-5.4,0C444,73.4,443.9,73.4,443.8,73.4    z M438.1,73.4c-0.1,0-0.1,0-0.2,0c-1.7,0-3.5,0-5.2,0c-0.1,0-0.2,0-0.3,0.2c-0.8,1.4-1.6,2.9-2.5,4.3c0,0,0,0.1-0.1,0.1    c0.1,0,0.1,0,0.2,0c1.7,0,3.4,0,5.2,0c0.2,0,0.2-0.1,0.3-0.2c0.8-1.4,1.6-2.8,2.4-4.2C438,73.5,438,73.5,438.1,73.4z M444,70    c2,0,3.9,0,5.8,0c0.3-0.5,0.6-1,0.9-1.5c0.3-0.5,0.6-1,0.9-1.5c0.3-0.5,0.6-1,0.8-1.5c-0.1,0-0.1,0-0.2,0c-1.8,0-3.7,0-5.5,0    c-0.2,0-0.2,0.1-0.3,0.2c-0.8,1.3-1.5,2.7-2.3,4C444.1,69.8,444.1,69.9,444,70z M437.9,70c0-0.1-0.1-0.1-0.1-0.2    c-0.8-1.4-1.6-2.7-2.4-4.1c-0.1-0.1-0.2-0.2-0.3-0.2c-1.7,0-3.4,0-5.1,0c-0.1,0-0.1,0-0.2,0c0,0.1,0.1,0.1,0.1,0.2    c0.8,1.4,1.6,2.7,2.3,4.1c0.1,0.1,0.2,0.2,0.3,0.2c1.7,0,3.4,0,5.1,0C437.7,70,437.8,70,437.9,70z"
   id="path970" />
	</g>
	<path
   id="STAMP"
   class="st4"
   d="M646.6,66.6V75c0,0.1,0,0.3,0.1,0.4l0,0c0.1,0.2,0.2,0.4,0.3,0.6c0,0.1,0.1,0.1,0.1,0.2   c0.1,0.1,0.1,0.1,0.1,0.1l0,0c0.1,0.1,0.3,0.2,0.4,0.2l7.2,4.1c0.7,0.4,1.1,1.1,1.1,1.8v16.9c0,0.2-0.1,0.5-0.2,0.7   c0,0,0,0.1,0,0.1c0,0,0,0,0,0c0,0,0,0.1-0.1,0.1l0,0c0,0,0,0.1-0.1,0.1c0,0-0.1,0-0.1,0.1l-0.1,0.1c-0.1,0.1-0.1,0.1-0.1,0.1   c0,0,0,0,0,0c-0.1,0.1-0.2,0.1-0.2,0.2c0,0-0.1,0.1-0.2,0.1c0,0,0,0,0,0l0,0c0,0-0.1,0-0.1,0l-7.3,4.2c0,0-0.1,0-0.1,0.1   c0,0,0,0-0.1,0.1c0,0-0.1,0.1-0.2,0.1l0,0c0,0-0.1,0.1-0.1,0.1c0,0,0,0-0.1,0.1c0,0-0.1,0.1-0.1,0.1c0,0.1-0.1,0.2-0.1,0.2   c0,0-0.1,0.1-0.1,0.2l0,0c0,0.1,0,0.1-0.1,0.2c0,0.1,0,0.2,0,0.3v8.4c0,0.1,0,0.1,0,0.2c0,0.1,0,0.1,0,0.2c0,0,0,0.1,0,0.1   c0,0,0.1,0.1,0.1,0.1l0,0c0,0,0,0.1,0.1,0.1c0,0,0,0.1,0,0.1c0,0.1,0.1,0.1,0.1,0.1l0,0c0,0.1,0.1,0.2,0.2,0.2c0,0,0,0,0,0   c0.1,0.1,0.1,0.1,0.1,0.1c0,0,0,0,0,0.1l0,0c0,0,0,0,0,0.1c0,0,0.1,0.1,0.1,0.1c0,0,0.1,0,0.2,0.1l7.3,4.2c0.7,0.4,1.1,1.1,1.1,1.8   v16.6c0,0.8-0.5,1.4-1.1,1.8l-4.5,2.7l-3,1.7c-0.5,0.3-0.8,0.9-0.8,1.4v8.4c0,0.6,0.3,1.1,0.8,1.4l7.4,4.2c0.7,0.4,1.1,1.1,1.1,1.8   v16.6c0,0.8-0.5,1.4-1.1,1.8l-5.9,3.6l-1.4,0.8c-0.5,0.3-0.8,0.9-0.8,1.4v8.5v0c0,0.1,0,0.1,0,0.2l0,0c0,0,0,0.1,0,0.1l0,0v0.1l0,0   c0,0,0,0,0,0.1c0,0.1,0.1,0.1,0.1,0.2c0.1,0.1,0.1,0.1,0.1,0.2l0,0c0.1,0.1,0.2,0.2,0.2,0.2c0,0,0,0,0,0l0,0   c0.1,0.1,0.3,0.2,0.4,0.2l7.2,4.1c0.7,0.4,1.1,1.1,1.1,1.8v13.5c0,0.1,0,0.3,0,0.4c0,0.3-0.1,0.5-0.1,0.8l0,0l0,0   c0,0.3-0.1,0.5-0.2,0.7c-0.1,0.3-0.2,0.5-0.4,0.8c-0.1,0.1-0.1,0.2-0.2,0.3c-0.1,0.1-0.1,0.2-0.2,0.3l0,0c0,0-0.1,0.1-0.1,0.1   c0,0-0.1,0.1-0.1,0.1c-0.1,0.1-0.2,0.2-0.3,0.3c-0.1,0-0.1,0.1-0.2,0.1c-0.1,0.1-0.2,0.2-0.3,0.3c-0.1,0.1-0.2,0.1-0.3,0.2   c0,0-0.1,0-0.1,0l0,0c0,0-0.1,0.1-0.2,0.1c0,0-0.1,0-0.2,0.1c-0.2,0.1-0.3,0.2-0.5,0.2c-0.2,0.1-0.4,0.2-0.6,0.2l0,0   c-0.1,0-0.2,0.1-0.3,0.1c-0.1,0-0.1,0-0.1,0c-0.1,0-0.2,0.1-0.4,0.1l0,0c-0.1,0-0.2,0-0.3,0h-13.8c-0.7,0-1.4-0.4-1.7-1   c0,0,0,0,0,0l0,0c0,0-0.1-0.1-0.1-0.1l-4.2-7.4c0-0.1-0.1-0.2-0.2-0.3c-0.1-0.1-0.1-0.1-0.2-0.2l0,0c-0.1-0.1-0.1-0.1-0.2-0.2   c0,0-0.1,0-0.1,0c-0.1-0.1-0.2-0.2-0.4-0.2l0,0c-0.1,0-0.3-0.1-0.4-0.1h-8.4c-0.1,0-0.2,0-0.2,0c-0.1,0-0.3,0-0.4,0.1l0,0   c-0.1,0-0.1,0.1-0.2,0.1c0,0-0.1,0.1-0.1,0.1c-0.1,0.1-0.2,0.2-0.2,0.3l0,0l0,0c-0.1,0.1-0.2,0.3-0.2,0.4l-4.1,7.2   c-0.4,0.7-1.1,1.1-1.8,1.1H597c-0.7,0-1.4-0.4-1.8-1.1c0,0,0-0.1,0-0.1l0,0c0,0,0,0,0,0l-4.2-7.4c0,0,0-0.1-0.1-0.1   c0,0,0,0-0.1-0.1c0,0-0.1-0.1-0.1-0.2l0,0c0,0-0.1-0.1-0.1-0.1c0,0,0,0-0.1-0.1c0,0-0.1-0.1-0.1-0.1c0,0-0.1,0-0.1-0.1   c-0.1-0.1-0.2-0.2-0.4-0.2l0,0c-0.1,0-0.3-0.1-0.4-0.1h-8.4c-0.5,0-1,0.2-1.3,0.6c0,0,0,0-0.1,0l0,0c0,0,0,0-0.1,0   c0,0-0.1,0.1-0.1,0.1c0,0,0,0.1-0.1,0.2l-4.2,7.3c-0.4,0.7-1.1,1.1-1.8,1.1h-16.6c-0.1,0-0.2,0-0.3,0h-0.1h-0.1   c-0.1,0-0.1,0-0.2-0.1l0,0c-0.1,0-0.1-0.1-0.3-0.1h-0.1l0,0l0,0c0,0,0,0-0.1,0s-0.1-0.1-0.2-0.1c0,0,0,0-0.1-0.1   c-0.1-0.1-0.2-0.2-0.4-0.3c0,0,0,0,0,0c-0.1-0.1-0.2-0.2-0.2-0.3l0,0l0,0c-0.1-0.1-0.2-0.3-0.2-0.4l-2.6-4.2l-1.7-3   c-0.3-0.5-0.9-0.8-1.4-0.8h-8.4c-0.6,0-1.1,0.3-1.4,0.8l-4.2,7.4c-0.4,0.7-1.1,1.1-1.8,1.1h-16.5c-0.1,0-0.1,0-0.2,0   c-0.1,0-0.1,0-0.1,0l0,0c0,0,0,0-0.1,0l0,0c-0.1,0-0.3-0.1-0.4-0.1c0,0,0,0-0.1,0c-0.1-0.1-0.2-0.1-0.3-0.1   c-0.1-0.1-0.2-0.1-0.3-0.2c-0.1-0.1-0.2-0.2-0.2-0.3l0,0l0,0c-0.1-0.1-0.1-0.2-0.2-0.3l-3.7-6l-0.5-0.8c-0.1-0.1-0.2-0.2-0.2-0.3   c0,0,0-0.1-0.1-0.1c0,0,0,0,0,0c0,0-0.1-0.1-0.1-0.1l0,0c0,0-0.1-0.1-0.1-0.1c0,0-0.1,0-0.1,0c0,0-0.1,0-0.1,0l0,0   c-0.1,0-0.1-0.1-0.1-0.1c0,0-0.1,0-0.1,0c0,0-0.1,0-0.1-0.1l0,0c0,0-0.1-0.1-0.1-0.1c-0.1,0-0.2-0.1-0.3-0.1H501   c-0.6,0-1.1,0.3-1.4,0.9l-0.8,1.4l-3.3,5.4l0,0c-0.1,0.2-0.3,0.4-0.4,0.6c-0.4,0.3-0.8,0.5-1.4,0.5h-13.6c-0.5,0-1-0.1-1.5-0.3   c-0.1-0.1-0.3-0.1-0.4-0.2c-0.1-0.1-0.3-0.1-0.4-0.2c-0.1-0.1-0.3-0.2-0.4-0.3c-0.1-0.1-0.3-0.2-0.4-0.3c-0.1-0.1-0.3-0.2-0.4-0.3   c-0.1-0.1-0.2-0.2-0.3-0.4c-0.1-0.1-0.2-0.3-0.3-0.4c-0.1-0.1-0.2-0.2-0.2-0.4c-0.1-0.2-0.2-0.3-0.2-0.5l0,0   c-0.1-0.1-0.1-0.3-0.2-0.4l0,0c-0.1-0.2-0.1-0.5-0.1-0.8l0,0c0-0.1,0-0.1,0-0.2c0-0.1,0-0.2,0-0.2l0,0l0,0c0-0.1,0-0.2,0-0.3v-13.8   c0-0.5,0.2-0.9,0.5-1.3c0.2-0.2,0.4-0.4,0.5-0.5c0,0,0,0,0,0l0,0c0,0,0.1-0.1,0.1-0.1l7.4-4.2c0.1,0,0.2-0.1,0.3-0.2   c0.1-0.1,0.1-0.1,0.2-0.2l0,0c0.1-0.1,0.1-0.1,0.2-0.2c0,0,0-0.1,0-0.1c0.1-0.1,0.2-0.2,0.2-0.4l0,0c0-0.1,0.1-0.3,0.1-0.4v-8.4   c0-0.1,0-0.3-0.1-0.4l0,0c-0.1-0.2-0.2-0.4-0.3-0.6c0-0.1-0.1-0.1-0.1-0.2c-0.1-0.1-0.1-0.1-0.1-0.1l0,0c-0.1-0.1-0.3-0.2-0.4-0.2   l-7.2-4.1c-0.7-0.4-1.1-1.1-1.1-1.8v-16.7c0-0.5,0.2-0.9,0.5-1.3c0.2-0.2,0.4-0.4,0.6-0.5c0,0,0,0,0.1,0l0,0c0,0,0,0,0.1,0l7.4-4.2   c0.1,0,0.2-0.1,0.3-0.2c0.1-0.1,0.1-0.1,0.2-0.2l0,0c0.1-0.1,0.1-0.1,0.2-0.2c0,0,0,0,0-0.1c0.1-0.1,0.2-0.2,0.2-0.4l0,0   c0-0.1,0.1-0.3,0.1-0.4v-8.4c0-0.5-0.2-1-0.6-1.3c0,0,0,0,0-0.1l0,0c0,0,0,0,0-0.1c0,0-0.1-0.1-0.1-0.1c0,0-0.1,0-0.2-0.1l-7.3-4.2   c-0.7-0.4-1.1-1.1-1.1-1.8v-16.6c0-0.1,0-0.2,0-0.3c0,0,0,0,0,0c0-0.1,0-0.2,0.1-0.2l0,0c0,0,0-0.1,0.1-0.1c0,0,0,0,0-0.1   c0-0.1,0.1-0.2,0.1-0.2c0,0,0,0,0-0.1c0,0,0.1-0.1,0.1-0.1c0,0,0,0,0.1-0.1c0.1-0.1,0.1-0.2,0.2-0.2c0,0,0.1-0.1,0.1-0.1   c0.1-0.1,0.2-0.1,0.3-0.2l0,0l0,0c0.1-0.1,0.3-0.2,0.4-0.2l4.2-2.6c0,0,0,0,0.1,0l0,0c0,0,0,0,0.1,0l0.8-0.5l1.3-0.7   c0.1-0.1,0.3-0.1,0.4-0.2l0,0c0.1-0.1,0.1-0.1,0.2-0.2c0.1-0.1,0.1-0.1,0.1-0.2l0,0c0-0.1,0.1-0.2,0.1-0.3c0,0,0,0,0-0.1   c0,0,0,0,0-0.1c0,0,0-0.1,0.1-0.1l0,0c0,0,0-0.1,0-0.1c0,0,0,0,0-0.1c0-0.1,0-0.1,0-0.2v-8.4c0-0.1,0-0.2,0-0.3c0,0,0-0.1,0-0.1   c0,0,0,0,0,0c0,0,0-0.1-0.1-0.1c0,0,0,0,0,0c0,0,0,0,0,0l0,0c0,0-0.1-0.1-0.1-0.1c0,0,0,0,0,0c0,0,0-0.1,0-0.1c0,0-0.1,0-0.1-0.1   c0-0.1-0.1-0.1-0.1-0.1c0,0,0,0,0,0c0-0.1-0.1-0.1-0.2-0.2l0,0c-0.1,0-0.1-0.1-0.2-0.1c0,0,0,0-0.1,0c0,0,0,0-0.1-0.1l-6.7-4.3   c-0.7-0.4-1.2-1.1-1.2-1.9V82.2c0-0.1,0-0.2,0-0.3c0,0,0-0.1,0-0.1l0,0c0-0.1,0.1-0.2,0.1-0.2c0,0,0.1-0.1,0.1-0.1   c0.1-0.1,0.1-0.2,0.1-0.2c0,0,0,0,0-0.1c0.2-0.3,0.5-0.5,0.7-0.7c0,0,0.1,0,0.1,0l0,0c0,0,0,0,0,0l5.9-3.6l0.8-0.5   c0.1,0,0.2-0.1,0.3-0.2c0.1-0.1,0.2-0.1,0.2-0.2l0,0c0-0.1,0.1-0.1,0.1-0.1c0,0,0-0.1,0-0.1c0,0,0-0.1,0-0.1l0,0c0,0,0,0,0-0.1   c0,0,0,0,0-0.1c0-0.1,0.1-0.1,0.1-0.1s0.1-0.1,0.1-0.1c0-0.1,0.1-0.3,0.1-0.4v-8.5c0-0.6-0.3-1.1-0.9-1.4l-1.4-0.8l-5.4-3.3l0,0   c-0.2-0.1-0.4-0.3-0.6-0.4c-0.4-0.4-0.6-0.9-0.6-1.4V45.4c0-0.3,0-0.5,0.1-0.8c0.1-0.3,0.1-0.5,0.2-0.8c0.1-0.1,0.1-0.3,0.2-0.4   c0-0.1,0.1-0.1,0.1-0.2c0-0.1,0.1-0.2,0.1-0.3l0,0c0,0,0-0.1,0-0.1c0,0,0-0.1,0.1-0.1l0,0c0,0,0,0,0.1,0c0-0.1,0.1-0.1,0.1-0.2l0,0   c0.1-0.1,0.1-0.2,0.2-0.3c0-0.1,0.1-0.1,0.1-0.2c0,0,0-0.1,0.1-0.1c0,0,0,0,0-0.1c0.1-0.1,0.2-0.3,0.4-0.4c0,0,0.1-0.1,0.1-0.1   c0,0,0.1,0,0.1-0.1c0,0,0,0,0,0c0-0.1,0.1-0.1,0.2-0.1l0,0c0,0,0.1-0.1,0.1-0.1c0,0,0.1,0,0.1-0.1c0,0,0.1-0.1,0.1-0.1l0,0   c0,0,0.1,0,0.1,0c0.1,0,0.1-0.1,0.2-0.1c0.1-0.1,0.2-0.1,0.3-0.2c0,0,0.1,0,0.1,0c0,0,0.1,0,0.1,0c0.2-0.1,0.5-0.2,0.7-0.2l0,0   c0.1,0,0.2-0.1,0.3-0.1s0.1,0,0.1,0l0,0c0.1,0,0.2,0,0.3,0l0,0c0.1,0,0.2,0,0.2,0c0.1,0,0.2,0,0.3,0h13.8c0.1,0,0.2,0,0.3,0   c0,0,0.1,0,0.2,0c0,0,0.1,0,0.1,0l0,0c0.1,0,0.1,0,0.1,0l0,0l0,0c0,0,0.1,0.1,0.2,0.1c0,0,0,0,0,0c0,0,0.1,0,0.1,0.1   c0,0,0.1,0,0.1,0c0,0,0.1,0,0.1,0.1c0.1,0,0.1,0.1,0.2,0.2c0,0,0.1,0.1,0.1,0.1l0,0l0,0c0.1,0.1,0.2,0.2,0.2,0.3c0,0,0,0.1,0,0.1   l0,0l0,0c0,0.1,0.1,0.1,0.1,0.1l4.2,7.3c0,0.1,0.1,0.2,0.2,0.3c0.1,0.1,0.1,0.1,0.2,0.2l0,0c0.1,0.1,0.1,0.1,0.2,0.2   c0,0,0.1,0,0.1,0c0.1,0.1,0.2,0.2,0.4,0.2l0,0c0.1,0,0.3,0.1,0.4,0.1h8.4c0.1,0,0.2,0,0.2,0c0.1,0,0.3,0,0.4-0.1l0,0   c0.1,0,0.1-0.1,0.2-0.1c0,0,0.1,0,0.1-0.1c0.1-0.1,0.2-0.2,0.3-0.4c0-0.1,0.1-0.1,0.1-0.2l3.1-5.5c0.7-1.3,1.5-3,3-3l0,0h16.9   c0.1,0,0.2,0,0.3,0h0.1l0,0l0,0c0.2,0,0.3,0.1,0.5,0.1l0,0l0,0c0.1,0,0.2,0.1,0.2,0.1c0,0,0,0,0,0c0.1,0,0.1,0.1,0.1,0.1l0.1,0.1   l0,0c0,0,0,0,0,0l0,0c0,0,0.1,0,0.1,0c0.1,0.1,0.1,0.1,0.2,0.2c0.1,0.1,0.2,0.2,0.2,0.3c0,0,0,0.1,0,0.1l0,0c0,0,0,0,0,0l4.2,7.4   c0,0.1,0.1,0.2,0.2,0.3c0.1,0.1,0.1,0.1,0.2,0.2l0,0c0.1,0.1,0.1,0.1,0.2,0.2c0,0,0.1,0,0.1,0c0.1,0.1,0.2,0.2,0.4,0.2l0,0   c0.1,0,0.3,0.1,0.4,0.1h8.4c0.1,0,0.1,0,0.2,0c0.1,0,0.1,0,0.2,0s0.1,0,0.1,0l0,0c0.1,0,0.2-0.1,0.3-0.1c0,0,0,0,0.1,0   c0.1,0,0.1-0.1,0.1-0.1c0,0,0.1,0,0.1,0c0,0,0.1,0,0.1-0.1l0,0c0.1,0,0.1-0.1,0.2-0.2c0,0,0,0,0,0l0,0c0.1-0.1,0.2-0.3,0.3-0.5   l4.1-7.1c0.4-0.7,1.1-1.1,1.8-1.1h16.9c0.1,0,0.2,0,0.3,0h0.1c0.1,0,0.1,0,0.1,0l0,0c0.1,0,0.2,0.1,0.3,0.1c0,0,0.1,0.1,0.1,0.1   c0.1,0.1,0.2,0.1,0.3,0.1c0,0,0.1,0.1,0.1,0.1c0.1,0,0.1,0.1,0.1,0.1l0,0c0.1,0.1,0.1,0.1,0.2,0.2c0,0,0,0,0,0.1   c0,0,0.1,0.1,0.1,0.1l0,0c0,0,0,0.1,0,0.1c0,0,0,0.1,0.1,0.1c0,0,0,0.1,0.1,0.1l2.5,4.4l1.7,3c0.3,0.5,0.9,0.9,1.4,0.9h8.4   c0.6,0,1.1-0.3,1.4-0.9l4.2-7.4c0.4-0.7,1.1-1.1,1.8-1.1h16.9c0.1,0,0.2,0,0.3,0h0.1c0.1,0,0.1,0,0.1,0l0,0c0.1,0,0.2,0.1,0.3,0.1   c0,0,0.1,0.1,0.1,0.1c0.1,0.1,0.2,0.1,0.3,0.1c0,0,0.1,0.1,0.1,0.1c0,0,0.1,0.1,0.1,0.1l0,0c0.1,0.1,0.1,0.1,0.2,0.2   c0,0,0,0,0.1,0.1c0,0,0.1,0.1,0.1,0.1l0,0c0,0,0,0.1,0,0.1c0,0,0,0.1,0.1,0.1c0,0,0,0.1,0.1,0.1l3.3,5.9l0.8,1.4   c0.3,0.5,0.9,0.9,1.4,0.9h8.5h0c0.1,0,0.1,0,0.2,0l0,0c0,0,0.1,0,0.1,0l0,0h0.1h0.1c0.1,0,0.1-0.1,0.2-0.1c0,0,0,0,0,0   c0.1-0.1,0.2-0.1,0.3-0.2l0,0c0.1-0.1,0.1-0.1,0.1-0.1l0,0c0.1-0.1,0.2-0.3,0.3-0.5l4.1-7.1c0.4-0.7,1.1-1.1,1.8-1.1H651   c0.1,0,0.2,0,0.4,0c0.3,0,0.5,0.1,0.8,0.1l0,0c0.1,0,0.3,0.1,0.4,0.1c0.1,0,0.1,0.1,0.2,0.1c0.1,0.1,0.3,0.1,0.5,0.2   c0.1,0.1,0.3,0.1,0.4,0.2c0,0,0,0,0.1,0l0,0c0,0,0.1,0.1,0.1,0.1c0.1,0,0.2,0.1,0.2,0.1c0.1,0.1,0.2,0.1,0.3,0.2l0,0   c0,0,0.1,0.1,0.1,0.1c0,0,0,0,0,0c0.1,0.1,0.3,0.3,0.4,0.4c0,0,0.1,0.1,0.1,0.1c0,0,0,0.1,0.1,0.1c0.1,0.1,0.3,0.3,0.3,0.5l0,0   c0,0.1,0.1,0.1,0.1,0.1l0,0c0,0,0.1,0.1,0.1,0.1c0,0,0,0.1,0.1,0.1l0,0c0,0,0.1,0.1,0.1,0.1c0,0,0,0,0,0c0,0.1,0,0.1,0.1,0.2   c0,0,0,0,0,0c0,0,0,0.1,0,0.1c0.1,0.1,0.1,0.3,0.1,0.4c0,0.1,0.1,0.2,0.1,0.3c0,0.1,0.1,0.2,0.1,0.3c0,0.1,0,0.1,0,0.2   c0,0,0,0,0,0.1c0,0.1,0.1,0.2,0.1,0.4l0,0c0,0.1,0,0.2,0,0.3v13.8c0,0.1,0,0.2,0,0.3c0,0,0,0,0,0.1c0,0.1-0.1,0.2-0.1,0.4l0,0   c0,0,0,0.1,0,0.1c0,0,0,0,0,0l0,0c0,0-0.1,0.1-0.1,0.1c0,0,0,0,0,0c0,0,0,0,0,0.1c-0.2,0.2-0.4,0.5-0.7,0.6c0,0,0,0,0,0l0,0   c0,0-0.1,0.1-0.1,0.1l-7.4,4.2c-0.1,0-0.2,0.1-0.3,0.2c-0.1,0.1-0.1,0.1-0.2,0.2l0,0c-0.1,0.1-0.1,0.1-0.2,0.2   c0,0.1-0.1,0.2-0.1,0.3c0,0,0,0,0,0l0,0C646.6,66.3,646.6,66.5,646.6,66.6C646.6,66.6,646.6,66.6,646.6,66.6z"
   style="opacity:0.83977901" />
	<g
   id="BAUBLE_S">
		<g
   id="g989">
			<path
   class="st5"
   d="M400.1,154.1L400.1,154.1c0.5-0.9,1.4-1.4,2.5-1.4h17.8c1,0,2,0.5,2.5,1.4c0,0,0,0,0,0l8.9,15.4l0,0     c0.5,0.9,0.5,2,0,2.8l0,0l-8.9,15.4l0,0c-0.5,0.9-1.4,1.4-2.5,1.4h-17.8c-1,0-2-0.5-2.5-1.4h0l-8.9-15.4c0,0,0,0,0,0     c-0.5-0.9-0.5-2,0-2.8l0,0L400.1,154.1z"
   id="path975" />
			<path
   class="st5"
   d="M396.5,148.7L396.5,148.7c0.7-1.2,2-2,3.4-2H423c1.4,0,2.7,0.7,3.4,2l0,0l11.6,20l0,0c0.7,1.2,0.7,2.7,0,3.9     l0,0l-11.6,20v0c-0.7,1.2-2,2-3.4,2h-23.1c-1.4,0-2.7-0.7-3.4-2l0,0l-11.6-20l0,0c-0.7-1.2-0.7-2.7,0-3.9l0,0L396.5,148.7z"
   id="path977" />
			<path
   class="st5"
   d="M392.9,143.3L392.9,143.3c0.9-1.5,2.5-2.5,4.3-2.5h28.5c1.8,0,3.4,0.9,4.3,2.5l0,0l14.2,24.7c0,0,0,0,0,0     c0.9,1.5,0.9,3.4,0,5l0,0L430,197.6v0c-0.9,1.5-2.5,2.5-4.3,2.5h-28.5c-1.8,0-3.4-0.9-4.3-2.5l0,0L378.7,173     c-0.9-1.5-0.9-3.4,0-5l0,0L392.9,143.3z"
   id="path979" />
			<path
   class="st6"
   d="M411.6,178.8v-16.6"
   id="path981" />
			<path
   class="st6"
   d="M405.6,170.7h12"
   id="path983" />
			<circle
   class="st5"
   cx="411.4"
   cy="170.5"
   r="33.4"
   id="circle985" />
			<circle
   class="st7"
   cx="411.6"
   cy="170.7"
   r="38.6"
   id="circle987" />
		</g>
		<path
   class="st8"
   d="M412.4,0.3v128.5c0,0.5-0.4,0.8-0.8,0.8c-0.5,0-0.8-0.4-0.8-0.8V0.3H412.4z"
   id="path991" />
	</g>
	<g
   id="BAUBLE_L">
		<path
   class="st8"
   d="M460.5,0.6v244.7c0,0.8-0.7,1.5-1.5,1.5s-1.5-0.7-1.5-1.5V0.6H460.5z"
   id="path994" />
		<g
   id="g1010">
			<path
   class="st9"
   d="M459,340.5v-31"
   id="path996" />
			<path
   class="st9"
   d="M447.9,325h22.3"
   id="path998" />
			<path
   class="st10"
   d="M485,348.3l11.8-20.4c1-1.8,1-4,0-5.7l-16.4-28.4h0c-1-1.8-2.9-2.9-5-2.9h-32.8c-2.1,0-3.9,1.1-5,2.9     l-16.4,28.4c-1,1.8-1,4,0,5.7l11.8,20.4"
   id="path1000" />
			<path
   class="st11"
   d="M497.1,348.3l11.2-19.5c1.4-2.3,1.4-5.2,0-7.5l-21.4-37.2c-1.4-2.3-3.8-3.8-6.5-3.8h-42.9     c-2.7,0-5.1,1.4-6.5,3.8h0l-21.4,37.2c-1.3,2.3-1.3,5.2,0,7.5l11.2,19.5"
   id="path1002" />
			<path
   class="st12"
   d="M509.4,348.3l10.7-18.6c0.8-1.4,1.2-3,1.2-4.6c0,0,0-0.1,0-0.1c0-1.6-0.4-3.1-1.2-4.5l-26.5-46     c-1.7-2.9-4.7-4.6-8-4.6h-53.1c-3.3,0-6.4,1.8-8,4.6l-26.5,46c-0.7,1.3-1.1,2.6-1.2,4c0,0.1,0,0.1,0,0.2c0,0,0,0.1,0,0.1     c0,0.3,0,0.6,0,0.8v0c0,0,0,0,0,0c0.1,1.4,0.5,2.8,1.2,4l10.7,18.6"
   id="path1004" />
			<path
   class="st12"
   d="M516.8,348.3c2.9-7.2,4.5-15,4.5-23.2c0,0,0-0.1,0-0.1c0-34.4-27.9-62.3-62.3-62.3     c-34.3,0-62.1,27.6-62.3,61.8c0,0.1,0,0.1,0,0.2c0,0,0,0.1,0,0.1c0,0.1,0,0.1,0,0.2c0,0.2,0,0.4,0,0.6v0c0,0,0,0,0,0     c0.1,8,1.7,15.6,4.5,22.6"
   id="path1006" />
			<path
   class="st8"
   d="M387,321.9L387,321.9c-0.6,0-1,0.4-1,1v1c0,0.5,0.5,1,1,1h0c0.5,0,1-0.5,1-1v-1     C388,322.3,387.6,321.9,387,321.9z M532,321.5c0-0.5-0.5-1-1-1c-0.6,0-1,0.5-1,1c0,0.3,0,0.7,0,1c0,0.6,0.5,1,1,1c0,0,0,0,0,0     c0.5,0,1-0.5,1-1C532,322.2,532,321.8,532,321.5z M391.8,297.4c-0.5-0.2-1.1,0.1-1.3,0.6c-0.1,0.3-0.2,0.6-0.3,1     c-0.2,0.5,0.1,1.1,0.6,1.3c0.1,0,0.2,0,0.3,0c0.4,0,0.8-0.2,0.9-0.7c0.1-0.3,0.2-0.6,0.3-0.9     C392.6,298.2,392.3,297.6,391.8,297.4z M527.4,297.7c-0.1-0.3-0.2-0.6-0.4-0.9c-0.2-0.5-0.8-0.8-1.3-0.6     c-0.5,0.2-0.8,0.8-0.6,1.3c0.1,0.3,0.2,0.6,0.4,0.9c0.1,0.4,0.5,0.6,0.9,0.6c0.1,0,0.2,0,0.3-0.1     C527.3,298.8,527.6,298.2,527.4,297.7z M404.6,276.1c-0.4-0.4-1-0.3-1.4,0.1c-0.2,0.2-0.4,0.5-0.6,0.8c-0.3,0.4-0.3,1.1,0.1,1.4     c0.2,0.2,0.4,0.2,0.6,0.2c0.3,0,0.6-0.1,0.8-0.4c0.2-0.2,0.4-0.5,0.6-0.8C405.1,277.1,405,276.5,404.6,276.1z M514.6,276     c-0.2-0.3-0.4-0.5-0.7-0.8c-0.4-0.4-1-0.5-1.4-0.1c-0.4,0.4-0.5,1-0.1,1.4c0.2,0.2,0.4,0.5,0.6,0.7c0.2,0.2,0.5,0.4,0.8,0.4     c0.2,0,0.5-0.1,0.6-0.2C514.9,277.1,515,276.4,514.6,276z M423.9,260.4c-0.3-0.5-0.9-0.6-1.4-0.4c-0.3,0.2-0.6,0.3-0.9,0.5     c-0.5,0.3-0.6,0.9-0.3,1.4c0.2,0.3,0.5,0.5,0.9,0.5c0.2,0,0.4,0,0.5-0.1c0.3-0.2,0.6-0.3,0.8-0.5     C424,261.5,424.2,260.9,423.9,260.4z M495.2,259.9c-0.3-0.2-0.6-0.3-0.9-0.5c-0.5-0.3-1.1-0.1-1.4,0.4c-0.3,0.5-0.1,1.1,0.4,1.4     c0.3,0.2,0.6,0.3,0.9,0.5c0.2,0.1,0.3,0.1,0.5,0.1c0.4,0,0.7-0.2,0.9-0.5C495.8,260.8,495.7,260.2,495.2,259.9z M446.2,251.4     c-0.3,0.1-0.7,0.1-1,0.2c-0.5,0.1-0.9,0.6-0.8,1.2c0.1,0.5,0.5,0.8,1,0.8c0.1,0,0.1,0,0.2,0c0.3-0.1,0.6-0.1,1-0.2     c0.5-0.1,0.9-0.6,0.8-1.1C447.3,251.7,446.8,251.3,446.2,251.4z M471.4,251.4c-0.3-0.1-0.7-0.1-1-0.2c-0.6-0.1-1.1,0.3-1.1,0.8     c-0.1,0.5,0.3,1.1,0.8,1.2c0.3,0,0.7,0.1,1,0.2c0.1,0,0.1,0,0.2,0c0.5,0,0.9-0.3,1-0.8C472.3,252,472,251.5,471.4,251.4z"
   id="path1008" />
		</g>
	</g>
	<g
   id="SNOWFLAKES">
		<g
   class="st13"
   id="g1015">
			<path
   class="st1"
   d="M114.5,284.1c-0.1,0-0.2,0-0.2,0c-0.9,0-1.9,0-2.8,0c-0.2,0-0.3-0.1-0.3-0.2c-1-1.7-1.9-3.3-2.9-5     c0-0.1-0.1-0.1-0.1-0.2c-1.1,1.9-2.1,3.7-3.2,5.6c-0.8-0.5-1.6-0.9-2.4-1.4c1-1.8,2.1-3.6,3.1-5.4c-0.3,0-0.6,0-0.8,0     c-0.3,0-0.6,0-0.8,0c-0.3,0-0.6,0-0.8,0c-0.3,0-0.6,0-0.8,0c-0.3,0-0.5,0-0.8,0c-0.3,0-0.6,0-0.8,0c-0.3,0-0.6,0-0.8,0     c-0.3,0-0.6,0-0.8,0c-0.3,0-0.5,0-0.8,0c0-0.2,1.4-2.5,1.6-2.8c0.4,0,0.8,0,1.3,0c2,0,4,0,6.1,0c0.1,0,0.2,0,0.3-0.2     c0.7-1.2,1.4-2.4,2.1-3.6c0-0.1,0.1-0.1,0.1-0.2c-2.6,0-5.2,0-7.9,0c1.3-2.3,2.5-4.5,3.8-6.7c-0.2,0-3.9-0.1-4.3,0     c-1.6,2.7-3.1,5.4-4.7,8.2c-0.5-0.9-1.1-1.9-1.6-2.8c1-1.8,2-3.6,3.1-5.4c-2.2,0-4.3,0-6.4,0c0-0.9,0-1.9,0-2.8     c2.1,0,4.1,0,6.3,0c-1.3-2.2-2.5-4.3-3.8-6.5c0.1,0,0.1,0,0.2,0c1,0,1.9,0,2.9,0c0.2,0,0.2,0.1,0.3,0.2c1.2,2,2.4,4.1,3.6,6.1     c0.1,0.1,0.2,0.2,0.3,0.2c1.3,0,2.5,0,3.8,0c0.1,0,0.1,0,0.3,0c-1.3-2.2-2.5-4.4-3.8-6.6c2.6,0,5.3,0,7.9,0     c-0.8-1.4-1.6-2.7-2.3-4c-0.3,0-0.6,0-0.8,0c-2.2,0-4.3,0-6.5,0c-0.1,0-0.2,0-0.3-0.2c-0.5-0.8-0.9-1.6-1.4-2.4     c0-0.1-0.1-0.1-0.1-0.2c2.5,0,5,0,7.5,0c-1.1-1.8-2.1-3.6-3.1-5.4c0.8-0.5,1.6-0.9,2.4-1.4c1.1,1.9,2.1,3.7,3.2,5.6     c1-1.8,2.1-3.6,3.1-5.4c1.1,0,2.1,0,3.2,0c0,0.1-0.1,0.1-0.1,0.2c-1.5,2.6-3,5.2-4.5,7.8c0,0,0,0.1-0.1,0.1     c-0.1,0.1-0.1,0.2,0,0.3c0.1,0.1,0.2,0.3,0.3,0.5c0.6,1,1.1,2,1.7,2.9c0,0.1,0.1,0.1,0.1,0.2c0.7-1.2,1.4-2.3,2.1-3.5     c0.7-1.1,1.4-2.3,2.1-3.5c1.3,2.2,2.6,4.4,3.9,6.7c0-0.1,0.1-0.1,0.1-0.2c0.6-1.1,1.3-2.2,1.9-3.3c0.1-0.1,0.1-0.2,0-0.3     c-1.2-2.1-2.4-4.1-3.5-6.2c0-0.1-0.1-0.1-0.1-0.2c0.5-0.9,1.1-1.8,1.6-2.7c0,0,0,0,0,0c0,0,0,0,0,0c0,0,0,0,0,0c0,0,0,0,0,0.1     c1.2,2.1,2.4,4.2,3.6,6.3c0,0,0,0,0,0c0,0,0,0,0,0c1-1.8,2.1-3.6,3.1-5.4c0.8,0.5,1.6,0.9,2.4,1.4c-1.1,1.9-2.1,3.7-3.2,5.6     c0.1,0,0.2,0,0.2,0c1.9,0,3.8,0,5.8,0c0.2,0,0.2,0.1,0.3,0.2c0.5,0.8,0.9,1.6,1.4,2.4c0,0.1,0.1,0.1,0.1,0.2c-0.5,0-1.1,0-1.6,0     c-0.5,0-1,0-1.6,0c-0.5,0-1.1,0-1.6,0c-0.5,0-1,0-1.6,0c-0.5,0-1.1,0-1.6,0c-0.5,0-1,0-1.6,0c-0.8,1.3-1.5,2.6-2.3,4     c2.7,0,5.5,0,8.2,0c-1.3,2.2-2.5,4.3-3.8,6.5c0.1,0,0.1,0,0.2,0c1.3,0,2.5,0,3.8,0c0.1,0,0.2-0.1,0.3-0.2c1.1-2,2.3-4,3.4-5.9     c0.1-0.1,0.1-0.2,0.2-0.3c0-0.1,0.1-0.1,0.2-0.1c1,0,2,0,3,0c0,0,0.1,0,0.1,0c-1.3,2.2-2.5,4.3-3.8,6.5c2.1,0,4.2,0,6.2,0     c0.1,0.2,0.1,2.5,0,2.8c-2.1,0-4.2,0-6.4,0c0,0.1,0.1,0.2,0.1,0.2c0.8,1.3,1.5,2.6,2.3,4c0.2,0.4,0.4,0.7,0.6,1.1     c0,0.1,0.1,0.1,0,0.2c-0.5,0.9-1,1.8-1.5,2.6c0,0,0,0,0,0c0-0.1-0.1-0.1-0.1-0.2c-1.3-2.3-2.7-4.7-4-7c-0.2-0.3-0.3-0.6-0.5-0.8     c-0.1-0.1-0.1-0.1-0.2-0.1c-1.2,0-2.5,0-3.7,0c0,0-0.1,0-0.2,0c1.3,2.2,2.6,4.5,4,6.7c-2.8,0-5.5,0-8.3,0c0,0.1,0,0.1,0.1,0.2     c0.7,1.2,1.4,2.4,2.1,3.6c0.1,0.1,0.2,0.1,0.3,0.1c2.7,0,5.4,0,8,0c0.3,0,0.6,0,1,0c0.1,0,0.1,0,0.2,0c0,0.1-0.1,0.2-0.1,0.2     c-0.5,0.8-0.9,1.6-1.4,2.4c-0.1,0.1-0.2,0.2-0.3,0.2c-1.9,0-3.9,0-5.8,0c-0.1,0-0.1,0-0.2,0c1.1,1.9,2.1,3.7,3.2,5.5     c-0.8,0.5-1.6,0.9-2.4,1.4c-1-1.8-2.1-3.6-3.1-5.4c-0.3,0.6-0.6,1.1-0.9,1.6c-0.3,0.5-0.6,1.1-0.9,1.6c-0.3,0.5-0.6,1.1-0.9,1.6     c-0.3,0.5-0.6,1.1-0.9,1.6c-0.5-0.9-1.1-1.9-1.6-2.8c0-0.1,0.1-0.1,0.1-0.2c1.2-2,2.3-4.1,3.5-6.1c0.1-0.2,0.1-0.3,0-0.4     c-0.6-1.1-1.2-2.1-1.9-3.2c0-0.1-0.1-0.1-0.1-0.2c-1.3,2.3-2.6,4.5-4,6.9c-1.4-2.3-2.7-4.6-4-7c-0.7,1.2-1.4,2.4-2.1,3.6     C111.3,278.6,112.9,281.3,114.5,284.1z M115.8,259.8c0-0.1,0.1-0.1,0.1-0.1c0.8-1.3,1.5-2.7,2.3-4c0.1-0.1,0-0.2,0-0.3     c-0.7-1.2-1.4-2.4-2.1-3.6c0,0-0.1-0.1-0.1-0.2c-0.8,1.4-1.6,2.8-2.4,4.1C114.3,257.1,115,258.5,115.8,259.8z M115.9,273.5     c0-0.1,0.1-0.1,0.1-0.1c0.7-1.2,1.4-2.5,2.1-3.7c0.1-0.1,0.1-0.2,0-0.3c-0.7-1.3-1.5-2.5-2.2-3.8c0,0-0.1-0.1-0.1-0.1     c0,0.1-0.1,0.1-0.1,0.2c-0.7,1.2-1.4,2.4-2.1,3.6c-0.1,0.1-0.1,0.3,0,0.4c0.7,1.2,1.4,2.5,2.2,3.7     C115.8,273.4,115.8,273.4,115.9,273.5z M118.2,263.9c0,0.1,0,0.1,0.1,0.1c0.7,1.2,1.4,2.4,2.1,3.6c0.1,0.1,0.1,0.1,0.2,0.1     c1.5,0,3.1,0,4.6,0c0,0,0.1,0,0.1,0c0-0.1-0.1-0.1-0.1-0.2c-0.7-1.2-1.4-2.3-2-3.5c-0.1-0.1-0.2-0.2-0.3-0.2c-1.5,0-3,0-4.4,0     C118.3,263.9,118.3,263.9,118.2,263.9z M113.4,263.9c-0.1,0-0.1,0-0.1,0c-1.4,0-2.9,0-4.3,0c-0.1,0-0.2,0-0.2,0.1     c-0.7,1.2-1.4,2.4-2,3.6c0,0,0,0.1,0,0.1c0.1,0,0.1,0,0.2,0c1.4,0,2.8,0,4.3,0c0.1,0,0.2-0.1,0.2-0.2c0.7-1.2,1.3-2.3,2-3.5     C113.4,264,113.4,264,113.4,263.9z M118.3,261.1c1.6,0,3.2,0,4.8,0c0.2-0.4,0.5-0.8,0.7-1.2c0.2-0.4,0.5-0.8,0.7-1.2     c0.2-0.4,0.5-0.8,0.7-1.2c-0.1,0-0.1,0-0.1,0c-1.5,0-3,0-4.5,0c-0.1,0-0.2,0.1-0.2,0.2c-0.6,1.1-1.3,2.2-1.9,3.3     C118.4,260.9,118.4,261,118.3,261.1z M113.3,261.1c0-0.1,0-0.1-0.1-0.1c-0.7-1.1-1.3-2.3-2-3.4c-0.1-0.1-0.1-0.1-0.2-0.1     c-1.4,0-2.8,0-4.2,0c-0.1,0-0.1,0-0.2,0c0,0.1,0.1,0.1,0.1,0.1c0.6,1.1,1.3,2.2,1.9,3.4c0.1,0.1,0.1,0.1,0.3,0.1     c1.4,0,2.8,0,4.2,0C113.1,261.1,113.2,261.1,113.3,261.1z"
   id="path1013" />
		</g>
		<g
   class="st13"
   id="g1019">
			<path
   class="st1"
   d="M29.8,346c-0.1,0-0.1,0-0.1,0c-0.5,0-1,0-1.4,0c-0.1,0-0.1,0-0.2-0.1c-0.5-0.9-1-1.7-1.5-2.6     c0,0,0-0.1-0.1-0.1c-0.6,1-1.1,1.9-1.7,2.9c-0.4-0.2-0.8-0.5-1.3-0.7c0.5-0.9,1.1-1.9,1.6-2.8c-0.2,0-0.3,0-0.4,0     c-0.1,0-0.3,0-0.4,0c-0.1,0-0.3,0-0.4,0c-0.1,0-0.3,0-0.4,0c-0.1,0-0.3,0-0.4,0c-0.1,0-0.3,0-0.4,0c-0.1,0-0.3,0-0.4,0     c-0.1,0-0.3,0-0.4,0c-0.1,0-0.3,0-0.4,0c0-0.1,0.7-1.3,0.8-1.5c0.2,0,0.4,0,0.7,0c1.1,0,2.1,0,3.2,0c0.1,0,0.1,0,0.1-0.1     c0.4-0.6,0.7-1.3,1.1-1.9c0,0,0-0.1,0-0.1c-1.4,0-2.7,0-4.1,0c0.7-1.2,1.3-2.3,2-3.5c-0.1,0-2,0-2.2,0c-0.8,1.4-1.6,2.8-2.5,4.3     c-0.3-0.5-0.6-1-0.8-1.5c0.5-0.9,1.1-1.9,1.6-2.8c-1.1,0-2.2,0-3.3,0c0-0.5,0-1,0-1.5c1.1,0,2.2,0,3.3,0c-0.7-1.1-1.3-2.3-2-3.4     c0,0,0.1,0,0.1,0c0.5,0,1,0,1.5,0c0.1,0,0.1,0,0.1,0.1c0.6,1.1,1.2,2.1,1.9,3.2c0,0.1,0.1,0.1,0.2,0.1c0.7,0,1.3,0,2,0     c0,0,0.1,0,0.1,0c-0.7-1.1-1.3-2.3-2-3.4c1.4,0,2.7,0,4.1,0c-0.4-0.7-0.8-1.4-1.2-2.1c-0.1,0-0.3,0-0.4,0c-1.1,0-2.3,0-3.4,0     c-0.1,0-0.1,0-0.2-0.1c-0.2-0.4-0.5-0.8-0.7-1.3c0,0,0-0.1-0.1-0.1c1.3,0,2.6,0,3.9,0c-0.5-0.9-1.1-1.9-1.6-2.8     c0.4-0.2,0.8-0.5,1.3-0.7c0.6,1,1.1,1.9,1.7,2.9c0.5-0.9,1.1-1.9,1.6-2.8c0.6,0,1.1,0,1.7,0c0,0,0,0.1-0.1,0.1     c-0.8,1.3-1.6,2.7-2.3,4c0,0,0,0,0,0c0,0,0,0.1,0,0.1c0,0.1,0.1,0.2,0.1,0.2c0.3,0.5,0.6,1,0.9,1.5c0,0,0,0.1,0.1,0.1     c0.4-0.6,0.7-1.2,1.1-1.8c0.4-0.6,0.7-1.2,1.1-1.8c0.7,1.2,1.4,2.3,2.1,3.5c0,0,0-0.1,0.1-0.1c0.3-0.6,0.7-1.2,1-1.7     c0-0.1,0-0.1,0-0.2c-0.6-1.1-1.2-2.1-1.8-3.2c0,0,0-0.1-0.1-0.1c0.3-0.5,0.6-1,0.8-1.4c0,0,0,0,0,0c0,0,0,0,0,0c0,0,0,0,0,0     c0,0,0,0,0,0c0.6,1.1,1.3,2.2,1.9,3.3c0,0,0,0,0,0c0,0,0,0,0,0c0.5-0.9,1.1-1.9,1.6-2.8c0.4,0.2,0.8,0.5,1.3,0.7     c-0.6,1-1.1,1.9-1.7,2.9c0.1,0,0.1,0,0.1,0c1,0,2,0,3,0c0.1,0,0.1,0,0.2,0.1c0.2,0.4,0.5,0.8,0.7,1.3c0,0,0,0.1,0.1,0.1     c-0.3,0-0.6,0-0.8,0c-0.3,0-0.5,0-0.8,0c-0.3,0-0.5,0-0.8,0c-0.3,0-0.5,0-0.8,0c-0.3,0-0.5,0-0.8,0c-0.3,0-0.5,0-0.8,0     c-0.4,0.7-0.8,1.4-1.2,2.1c1.4,0,2.8,0,4.3,0c-0.7,1.1-1.3,2.3-2,3.4c0,0,0.1,0,0.1,0c0.7,0,1.3,0,2,0c0.1,0,0.1,0,0.1-0.1     c0.6-1,1.2-2.1,1.8-3.1c0-0.1,0.1-0.1,0.1-0.2c0,0,0.1-0.1,0.1-0.1c0.5,0,1,0,1.5,0c0,0,0,0,0.1,0c-0.7,1.1-1.3,2.2-2,3.4     c1.1,0,2.2,0,3.2,0c0,0.1,0,1.3,0,1.5c-1.1,0-2.2,0-3.3,0c0,0,0,0.1,0.1,0.1c0.4,0.7,0.8,1.4,1.2,2.1c0.1,0.2,0.2,0.4,0.3,0.6     c0,0,0,0.1,0,0.1c-0.3,0.5-0.5,0.9-0.8,1.4c0,0,0,0,0,0c0,0,0-0.1-0.1-0.1c-0.7-1.2-1.4-2.4-2.1-3.6c-0.1-0.1-0.2-0.3-0.3-0.4     c0-0.1-0.1-0.1-0.1-0.1c-0.7,0-1.3,0-2,0c0,0,0,0-0.1,0c0.7,1.2,1.4,2.3,2.1,3.5c-1.4,0-2.9,0-4.3,0c0,0,0,0.1,0,0.1     c0.4,0.6,0.7,1.3,1.1,1.9c0,0.1,0.1,0.1,0.1,0.1c1.4,0,2.8,0,4.2,0c0.2,0,0.3,0,0.5,0c0,0,0.1,0,0.1,0c0,0,0,0.1-0.1,0.1     c-0.2,0.4-0.5,0.8-0.7,1.3c0,0.1-0.1,0.1-0.2,0.1c-1,0-2,0-3,0c0,0-0.1,0-0.1,0c0.6,1,1.1,1.9,1.7,2.9c-0.4,0.2-0.8,0.5-1.3,0.7     c-0.5-0.9-1.1-1.9-1.6-2.8c-0.2,0.3-0.3,0.6-0.5,0.8c-0.2,0.3-0.3,0.6-0.5,0.8c-0.2,0.3-0.3,0.6-0.5,0.8     c-0.2,0.3-0.3,0.6-0.5,0.9c-0.3-0.5-0.6-1-0.8-1.5c0,0,0-0.1,0.1-0.1c0.6-1.1,1.2-2.1,1.8-3.2c0-0.1,0-0.1,0-0.2     c-0.3-0.6-0.6-1.1-1-1.7c0,0,0-0.1-0.1-0.1c-0.7,1.2-1.4,2.4-2.1,3.6c-0.7-1.2-1.4-2.4-2.1-3.6c-0.4,0.6-0.7,1.2-1.1,1.9     C28.2,343.2,29,344.6,29.8,346z M30.5,333.4C30.5,333.4,30.5,333.3,30.5,333.4c0.4-0.8,0.8-1.4,1.2-2.1c0-0.1,0-0.1,0-0.1     c-0.4-0.6-0.7-1.2-1.1-1.9c0,0,0,0-0.1-0.1c-0.4,0.7-0.9,1.4-1.3,2.2C29.7,332,30.1,332.7,30.5,333.4z M30.5,340.5     C30.5,340.5,30.5,340.5,30.5,340.5c0.4-0.7,0.8-1.3,1.2-2c0-0.1,0-0.1,0-0.2c-0.4-0.7-0.8-1.3-1.1-2c0,0,0,0-0.1-0.1     c0,0,0,0.1-0.1,0.1c-0.4,0.6-0.7,1.2-1.1,1.9c0,0.1,0,0.1,0,0.2C29.7,339.1,30.1,339.8,30.5,340.5     C30.5,340.5,30.5,340.5,30.5,340.5z M31.7,335.5C31.7,335.6,31.7,335.6,31.7,335.5c0.4,0.7,0.8,1.3,1.1,1.9c0,0,0.1,0.1,0.1,0.1     c0.8,0,1.6,0,2.4,0c0,0,0,0,0.1,0c0,0,0-0.1-0.1-0.1c-0.4-0.6-0.7-1.2-1.1-1.8c0-0.1-0.1-0.1-0.2-0.1c-0.8,0-1.5,0-2.3,0     C31.8,335.5,31.8,335.5,31.7,335.5z M29.2,335.5C29.2,335.5,29.2,335.5,29.2,335.5c-0.8,0-1.6,0-2.3,0c-0.1,0-0.1,0-0.1,0.1     c-0.4,0.6-0.7,1.2-1.1,1.9c0,0,0,0,0,0.1c0,0,0.1,0,0.1,0c0.7,0,1.5,0,2.2,0c0.1,0,0.1,0,0.1-0.1     C28.5,336.8,28.8,336.2,29.2,335.5C29.2,335.6,29.2,335.6,29.2,335.5z M31.8,334c0.8,0,1.7,0,2.5,0c0.1-0.2,0.2-0.4,0.4-0.6     c0.1-0.2,0.2-0.4,0.4-0.6c0.1-0.2,0.2-0.4,0.4-0.6c0,0-0.1,0-0.1,0c-0.8,0-1.6,0-2.4,0c-0.1,0-0.1,0-0.1,0.1     C32.5,332.8,32.2,333.4,31.8,334C31.8,334,31.8,334,31.8,334z M29.2,334C29.1,334,29.1,334,29.2,334c-0.4-0.7-0.7-1.3-1.1-1.8     c0-0.1-0.1-0.1-0.1-0.1c-0.7,0-1.5,0-2.2,0c0,0-0.1,0-0.1,0c0,0,0,0.1,0,0.1c0.3,0.6,0.7,1.2,1,1.8c0,0.1,0.1,0.1,0.1,0.1     c0.7,0,1.5,0,2.2,0C29.1,334,29.1,334,29.2,334z"
   id="path1017" />
		</g>
		<g
   class="st14"
   id="g1023">
			<path
   class="st1"
   d="M30.9,28.4c-0.1,0-0.1,0-0.1,0c-0.5,0-1,0-1.4,0c-0.1,0-0.1,0-0.2-0.1c-0.5-0.9-1-1.7-1.5-2.6     c0,0,0-0.1-0.1-0.1c-0.6,1-1.1,1.9-1.7,2.9c-0.4-0.2-0.8-0.5-1.3-0.7c0.5-0.9,1.1-1.9,1.6-2.8c-0.2,0-0.3,0-0.4,0     c-0.1,0-0.3,0-0.4,0c-0.1,0-0.3,0-0.4,0c-0.1,0-0.3,0-0.4,0c-0.1,0-0.3,0-0.4,0c-0.1,0-0.3,0-0.4,0c-0.1,0-0.3,0-0.4,0     c-0.1,0-0.3,0-0.4,0c-0.1,0-0.3,0-0.4,0c0-0.1,0.7-1.3,0.8-1.5c0.2,0,0.4,0,0.7,0c1.1,0,2.1,0,3.2,0c0.1,0,0.1,0,0.1-0.1     c0.4-0.6,0.7-1.3,1.1-1.9c0,0,0-0.1,0-0.1c-1.4,0-2.7,0-4.1,0c0.7-1.2,1.3-2.3,2-3.5c-0.1,0-2,0-2.2,0c-0.8,1.4-1.6,2.8-2.5,4.3     c-0.3-0.5-0.6-1-0.8-1.5c0.5-0.9,1.1-1.9,1.6-2.8c-1.1,0-2.2,0-3.3,0c0-0.5,0-1,0-1.5c1.1,0,2.2,0,3.3,0c-0.7-1.1-1.3-2.3-2-3.4     c0,0,0.1,0,0.1,0c0.5,0,1,0,1.5,0c0.1,0,0.1,0,0.1,0.1c0.6,1.1,1.2,2.1,1.9,3.2c0,0.1,0.1,0.1,0.2,0.1c0.7,0,1.3,0,2,0     c0,0,0.1,0,0.1,0c-0.7-1.1-1.3-2.3-2-3.4c1.4,0,2.7,0,4.1,0c-0.4-0.7-0.8-1.4-1.2-2.1c-0.1,0-0.3,0-0.4,0c-1.1,0-2.3,0-3.4,0     c-0.1,0-0.1,0-0.2-0.1c-0.2-0.4-0.5-0.8-0.7-1.3c0,0,0-0.1-0.1-0.1c1.3,0,2.6,0,3.9,0c-0.5-0.9-1.1-1.9-1.6-2.8     c0.4-0.2,0.8-0.5,1.3-0.7c0.6,1,1.1,1.9,1.7,2.9c0.5-0.9,1.1-1.9,1.6-2.8c0.6,0,1.1,0,1.7,0c0,0,0,0.1-0.1,0.1     c-0.8,1.3-1.6,2.7-2.3,4c0,0,0,0,0,0c0,0,0,0.1,0,0.1c0,0.1,0.1,0.2,0.1,0.2c0.3,0.5,0.6,1,0.9,1.5c0,0,0,0.1,0.1,0.1     c0.4-0.6,0.7-1.2,1.1-1.8c0.4-0.6,0.7-1.2,1.1-1.8c0.7,1.2,1.4,2.3,2.1,3.5c0,0,0-0.1,0.1-0.1c0.3-0.6,0.7-1.2,1-1.7     c0-0.1,0-0.1,0-0.2C34.2,9,33.6,7.9,33,6.9c0,0,0-0.1-0.1-0.1c0.3-0.5,0.6-1,0.8-1.4c0,0,0,0,0,0c0,0,0,0,0,0c0,0,0,0,0,0     c0,0,0,0,0,0c0.6,1.1,1.3,2.2,1.9,3.3c0,0,0,0,0,0c0,0,0,0,0,0c0.5-0.9,1.1-1.9,1.6-2.8c0.4,0.2,0.8,0.5,1.3,0.7     c-0.6,1-1.1,1.9-1.7,2.9c0.1,0,0.1,0,0.1,0c1,0,2,0,3,0c0.1,0,0.1,0,0.2,0.1c0.2,0.4,0.5,0.8,0.7,1.3c0,0,0,0.1,0.1,0.1     c-0.3,0-0.6,0-0.8,0c-0.3,0-0.5,0-0.8,0c-0.3,0-0.5,0-0.8,0c-0.3,0-0.5,0-0.8,0c-0.3,0-0.5,0-0.8,0c-0.3,0-0.5,0-0.8,0     c-0.4,0.7-0.8,1.4-1.2,2.1c1.4,0,2.8,0,4.3,0c-0.7,1.1-1.3,2.3-2,3.4c0,0,0.1,0,0.1,0c0.7,0,1.3,0,2,0c0.1,0,0.1,0,0.1-0.1     c0.6-1,1.2-2.1,1.8-3.1c0-0.1,0.1-0.1,0.1-0.2c0,0,0.1-0.1,0.1-0.1c0.5,0,1,0,1.5,0c0,0,0,0,0.1,0c-0.7,1.1-1.3,2.2-2,3.4     c1.1,0,2.2,0,3.2,0c0,0.1,0,1.3,0,1.5c-1.1,0-2.2,0-3.3,0c0,0,0,0.1,0.1,0.1c0.4,0.7,0.8,1.4,1.2,2.1c0.1,0.2,0.2,0.4,0.3,0.6     c0,0,0,0.1,0,0.1c-0.3,0.5-0.5,0.9-0.8,1.4c0,0,0,0,0,0c0,0,0-0.1-0.1-0.1c-0.7-1.2-1.4-2.4-2.1-3.6c-0.1-0.1-0.2-0.3-0.3-0.4     c0-0.1-0.1-0.1-0.1-0.1c-0.7,0-1.3,0-2,0c0,0,0,0-0.1,0c0.7,1.2,1.4,2.3,2.1,3.5c-1.4,0-2.9,0-4.3,0c0,0,0,0.1,0,0.1     c0.4,0.6,0.7,1.3,1.1,1.9c0,0.1,0.1,0.1,0.1,0.1c1.4,0,2.8,0,4.2,0c0.2,0,0.3,0,0.5,0c0,0,0.1,0,0.1,0c0,0,0,0.1-0.1,0.1     c-0.2,0.4-0.5,0.8-0.7,1.3c0,0.1-0.1,0.1-0.2,0.1c-1,0-2,0-3,0c0,0-0.1,0-0.1,0c0.6,1,1.1,1.9,1.7,2.9c-0.4,0.2-0.8,0.5-1.3,0.7     c-0.5-0.9-1.1-1.9-1.6-2.8c-0.2,0.3-0.3,0.6-0.5,0.8c-0.2,0.3-0.3,0.6-0.5,0.8c-0.2,0.3-0.3,0.6-0.5,0.8     c-0.2,0.3-0.3,0.6-0.5,0.9c-0.3-0.5-0.6-1-0.8-1.5c0,0,0-0.1,0.1-0.1c0.6-1.1,1.2-2.1,1.8-3.2c0-0.1,0-0.1,0-0.2     c-0.3-0.6-0.6-1.1-1-1.7c0,0,0-0.1-0.1-0.1c-0.7,1.2-1.4,2.4-2.1,3.6c-0.7-1.2-1.4-2.4-2.1-3.6c-0.4,0.6-0.7,1.2-1.1,1.9     C29.3,25.6,30.1,27,30.9,28.4z M31.6,15.8C31.6,15.7,31.7,15.7,31.6,15.8c0.4-0.8,0.8-1.4,1.2-2.1c0-0.1,0-0.1,0-0.1     c-0.4-0.6-0.7-1.2-1.1-1.9c0,0,0,0-0.1-0.1c-0.4,0.7-0.9,1.4-1.3,2.2C30.8,14.4,31.2,15.1,31.6,15.8z M31.7,22.9     C31.7,22.9,31.7,22.9,31.7,22.9c0.4-0.7,0.8-1.3,1.2-2c0-0.1,0-0.1,0-0.2c-0.4-0.7-0.8-1.3-1.1-2c0,0,0,0-0.1-0.1     c0,0,0,0.1-0.1,0.1c-0.4,0.6-0.7,1.2-1.1,1.9c0,0.1,0,0.1,0,0.2C30.9,21.5,31.2,22.2,31.7,22.9C31.6,22.8,31.6,22.9,31.7,22.9z      M32.9,17.9C32.9,17.9,32.9,17.9,32.9,17.9c0.4,0.7,0.8,1.3,1.1,1.9c0,0,0.1,0.1,0.1,0.1c0.8,0,1.6,0,2.4,0c0,0,0,0,0.1,0     c0,0,0-0.1-0.1-0.1c-0.4-0.6-0.7-1.2-1.1-1.8c0-0.1-0.1-0.1-0.2-0.1c-0.8,0-1.5,0-2.3,0C32.9,17.9,32.9,17.9,32.9,17.9z      M30.4,17.9C30.4,17.9,30.3,17.9,30.4,17.9c-0.8,0-1.6,0-2.3,0c-0.1,0-0.1,0-0.1,0.1c-0.4,0.6-0.7,1.2-1.1,1.9c0,0,0,0,0,0.1     c0,0,0.1,0,0.1,0c0.7,0,1.5,0,2.2,0c0.1,0,0.1,0,0.1-0.1C29.6,19.2,30,18.6,30.4,17.9C30.4,18,30.4,17.9,30.4,17.9z M32.9,16.4     c0.8,0,1.7,0,2.5,0c0.1-0.2,0.2-0.4,0.4-0.6c0.1-0.2,0.2-0.4,0.4-0.6c0.1-0.2,0.2-0.4,0.4-0.6c0,0-0.1,0-0.1,0     c-0.8,0-1.6,0-2.4,0c-0.1,0-0.1,0-0.1,0.1C33.7,15.2,33.3,15.8,32.9,16.4C33,16.4,33,16.4,32.9,16.4z M30.3,16.4     C30.3,16.4,30.3,16.4,30.3,16.4c-0.4-0.7-0.7-1.3-1.1-1.8c0-0.1-0.1-0.1-0.1-0.1c-0.7,0-1.5,0-2.2,0c0,0-0.1,0-0.1,0     c0,0,0,0.1,0,0.1c0.3,0.6,0.7,1.2,1,1.8c0,0.1,0.1,0.1,0.1,0.1c0.7,0,1.5,0,2.2,0C30.2,16.4,30.3,16.4,30.3,16.4z"
   id="path1021" />
		</g>
		<g
   class="st13"
   id="g1027">
			<path
   class="st1"
   d="M285.8,260.1c-0.1,0-0.1,0-0.2,0c-0.7,0-1.4,0-2,0c-0.1,0-0.2,0-0.2-0.1c-0.7-1.2-1.4-2.4-2.1-3.7     c0,0-0.1-0.1-0.1-0.1c-0.8,1.4-1.6,2.7-2.4,4.1c-0.6-0.3-1.2-0.7-1.8-1c0.8-1.3,1.5-2.7,2.3-4c-0.2,0-0.4,0-0.6,0     c-0.2,0-0.4,0-0.6,0c-0.2,0-0.4,0-0.6,0c-0.2,0-0.4,0-0.6,0c-0.2,0-0.4,0-0.6,0c-0.2,0-0.4,0-0.6,0s-0.4,0-0.6,0     c-0.2,0-0.4,0-0.6,0c-0.2,0-0.4,0-0.6,0c0-0.1,1-1.9,1.2-2.1c0.3,0,0.6,0,0.9,0c1.5,0,3,0,4.5,0c0.1,0,0.2,0,0.2-0.1     c0.5-0.9,1-1.8,1.5-2.7c0,0,0-0.1,0.1-0.1c-1.9,0-3.9,0-5.8,0c0.9-1.7,1.9-3.3,2.8-4.9c-0.1,0-2.9,0-3.2,0c-1.2,2-2.3,4-3.5,6     c-0.4-0.7-0.8-1.4-1.2-2.1c0.8-1.3,1.5-2.6,2.3-4c-1.6,0-3.2,0-4.7,0c0-0.7,0-1.4,0-2.1c1.5,0,3.1,0,4.6,0     c-0.9-1.6-1.8-3.2-2.8-4.8c0.1,0,0.1,0,0.1,0c0.7,0,1.4,0,2.1,0c0.1,0,0.2,0.1,0.2,0.1c0.9,1.5,1.8,3,2.6,4.5     c0.1,0.1,0.1,0.1,0.3,0.1c0.9,0,1.9,0,2.8,0c0.1,0,0.1,0,0.2,0c-0.9-1.6-1.8-3.2-2.8-4.8c2,0,3.9,0,5.8,0c-0.6-1-1.1-2-1.7-3     c-0.2,0-0.4,0-0.6,0c-1.6,0-3.2,0-4.8,0c-0.1,0-0.2,0-0.2-0.1c-0.3-0.6-0.7-1.2-1-1.8c0,0,0-0.1-0.1-0.2c1.9,0,3.7,0,5.5,0     c-0.8-1.3-1.5-2.7-2.3-4c0.6-0.3,1.2-0.7,1.8-1c0.8,1.4,1.6,2.7,2.4,4.1c0.8-1.3,1.5-2.6,2.3-4c0.8,0,1.6,0,2.4,0     c0,0.1,0,0.1-0.1,0.1c-1.1,1.9-2.2,3.8-3.3,5.7c0,0,0,0,0,0.1c-0.1,0.1,0,0.1,0,0.2c0.1,0.1,0.1,0.2,0.2,0.3     c0.4,0.7,0.8,1.4,1.2,2.2c0,0.1,0.1,0.1,0.1,0.2c0.5-0.9,1-1.7,1.5-2.6c0.5-0.8,1-1.7,1.5-2.6c1,1.6,1.9,3.3,2.9,4.9     c0-0.1,0.1-0.1,0.1-0.1c0.5-0.8,0.9-1.6,1.4-2.5c0.1-0.1,0-0.2,0-0.2c-0.9-1.5-1.7-3-2.6-4.6c0,0-0.1-0.1-0.1-0.1     c0.4-0.7,0.8-1.4,1.2-2c0,0,0,0,0,0c0,0,0,0,0,0c0,0,0,0,0,0c0,0,0,0,0,0.1c0.9,1.5,1.8,3.1,2.7,4.6c0,0,0,0,0,0c0,0,0,0,0,0     c0.8-1.3,1.5-2.7,2.3-4c0.6,0.3,1.2,0.7,1.8,1c-0.8,1.4-1.6,2.7-2.4,4.1c0.1,0,0.1,0,0.2,0c1.4,0,2.8,0,4.3,0     c0.1,0,0.2,0,0.2,0.1c0.3,0.6,0.7,1.2,1,1.8c0,0,0,0.1,0.1,0.2c-0.4,0-0.8,0-1.2,0c-0.4,0-0.8,0-1.2,0c-0.4,0-0.8,0-1.2,0     c-0.4,0-0.8,0-1.2,0c-0.4,0-0.8,0-1.2,0c-0.4,0-0.8,0-1.2,0c-0.6,1-1.1,1.9-1.7,2.9c2,0,4,0,6.1,0c-0.9,1.6-1.9,3.2-2.8,4.8     c0.1,0,0.1,0,0.1,0c0.9,0,1.9,0,2.8,0c0.1,0,0.1,0,0.2-0.1c0.8-1.5,1.7-2.9,2.5-4.4c0-0.1,0.1-0.1,0.1-0.2c0-0.1,0.1-0.1,0.1-0.1     c0.7,0,1.5,0,2.2,0c0,0,0,0,0.1,0c-0.9,1.6-1.8,3.2-2.8,4.8c1.6,0,3.1,0,4.6,0c0,0.1,0,1.9,0,2.1c-1.6,0-3.1,0-4.7,0     c0,0.1,0.1,0.1,0.1,0.2c0.6,1,1.1,2,1.7,2.9c0.2,0.3,0.3,0.5,0.5,0.8c0,0.1,0,0.1,0,0.2c-0.4,0.6-0.7,1.3-1.1,1.9c0,0,0,0,0,0     c0,0-0.1-0.1-0.1-0.1c-1-1.7-2-3.4-3-5.2c-0.1-0.2-0.2-0.4-0.4-0.6c0-0.1-0.1-0.1-0.2-0.1c-0.9,0-1.8,0-2.8,0c0,0-0.1,0-0.1,0     c1,1.7,1.9,3.3,2.9,5c-2.1,0-4.1,0-6.1,0c0,0.1,0,0.1,0,0.1c0.5,0.9,1,1.8,1.5,2.7c0.1,0.1,0.1,0.1,0.2,0.1c2,0,4,0,5.9,0     c0.2,0,0.5,0,0.7,0c0,0,0.1,0,0.2,0c0,0.1-0.1,0.1-0.1,0.2c-0.3,0.6-0.7,1.2-1,1.8c-0.1,0.1-0.1,0.1-0.2,0.1c-1.4,0-2.9,0-4.3,0     c0,0-0.1,0-0.2,0c0.8,1.4,1.6,2.7,2.4,4.1c-0.6,0.3-1.2,0.7-1.8,1c-0.8-1.3-1.5-2.7-2.3-4c-0.2,0.4-0.5,0.8-0.7,1.2     c-0.2,0.4-0.5,0.8-0.7,1.2c-0.2,0.4-0.5,0.8-0.7,1.2c-0.2,0.4-0.5,0.8-0.7,1.2c-0.4-0.7-0.8-1.4-1.2-2.1c0,0,0.1-0.1,0.1-0.1     c0.9-1.5,1.7-3,2.6-4.5c0.1-0.1,0.1-0.2,0-0.3c-0.5-0.8-0.9-1.6-1.4-2.4c0,0-0.1-0.1-0.1-0.1c-1,1.7-1.9,3.4-2.9,5.1     c-1-1.7-2-3.4-3-5.2c-0.5,0.9-1,1.8-1.5,2.7C283.5,256.1,284.6,258.1,285.8,260.1z M286.8,242.2     C286.8,242.1,286.8,242.1,286.8,242.2c0.6-1.1,1.2-2.1,1.8-3c0-0.1,0-0.1,0-0.2c-0.5-0.9-1-1.8-1.6-2.6c0,0,0-0.1-0.1-0.1     c-0.6,1-1.2,2-1.8,3.1C285.6,240.2,286.2,241.2,286.8,242.2z M286.8,252.3C286.8,252.3,286.9,252.2,286.8,252.3     c0.6-1,1.1-1.9,1.6-2.8c0-0.1,0-0.1,0-0.2c-0.5-0.9-1.1-1.9-1.6-2.8c0,0,0-0.1-0.1-0.1c0,0.1-0.1,0.1-0.1,0.1     c-0.5,0.9-1,1.8-1.5,2.6c-0.1,0.1-0.1,0.2,0,0.3c0.5,0.9,1.1,1.8,1.6,2.8C286.8,252.2,286.8,252.3,286.8,252.3z M288.5,245.2     C288.5,245.2,288.5,245.3,288.5,245.2c0.6,1,1.1,1.9,1.6,2.8c0,0.1,0.1,0.1,0.2,0.1c1.1,0,2.3,0,3.4,0c0,0,0.1,0,0.1,0     c0-0.1-0.1-0.1-0.1-0.1c-0.5-0.8-1-1.7-1.5-2.6c-0.1-0.1-0.1-0.1-0.2-0.1c-1.1,0-2.2,0-3.3,0     C288.6,245.2,288.6,245.2,288.5,245.2z M285,245.2c-0.1,0-0.1,0-0.1,0c-1.1,0-2.1,0-3.2,0c-0.1,0-0.1,0-0.2,0.1     c-0.5,0.9-1,1.8-1.5,2.7c0,0,0,0.1,0,0.1c0,0,0.1,0,0.1,0c1.1,0,2.1,0,3.2,0c0.1,0,0.1,0,0.2-0.1c0.5-0.9,1-1.7,1.5-2.6     C285,245.3,285,245.3,285,245.2z M288.6,243.1c1.2,0,2.4,0,3.5,0c0.2-0.3,0.3-0.6,0.5-0.9c0.2-0.3,0.4-0.6,0.5-0.9     c0.2-0.3,0.4-0.6,0.5-0.9c0,0-0.1,0-0.1,0c-1.1,0-2.2,0-3.3,0c-0.1,0-0.1,0-0.2,0.1c-0.5,0.8-0.9,1.6-1.4,2.4     C288.7,243,288.7,243,288.6,243.1z M284.9,243.1c0,0,0-0.1,0-0.1c-0.5-0.8-1-1.7-1.4-2.5c0-0.1-0.1-0.1-0.2-0.1c-1,0-2.1,0-3.1,0     c0,0-0.1,0-0.1,0c0,0,0,0.1,0.1,0.1c0.5,0.8,1,1.7,1.4,2.5c0,0.1,0.1,0.1,0.2,0.1c1,0,2.1,0,3.1,0     C284.8,243.1,284.8,243.1,284.9,243.1z"
   id="path1025" />
		</g>
		<g
   class="st14"
   id="g1031">
			<path
   class="st1"
   d="M374.8,312.6c-0.1,0-0.1,0-0.1,0c-0.4,0-0.9,0-1.3,0c-0.1,0-0.1,0-0.2-0.1c-0.5-0.8-0.9-1.6-1.4-2.4     c0,0,0-0.1-0.1-0.1c-0.5,0.9-1,1.8-1.5,2.7c-0.4-0.2-0.8-0.4-1.2-0.7c0.5-0.9,1-1.7,1.5-2.6c-0.1,0-0.3,0-0.4,0     c-0.1,0-0.3,0-0.4,0s-0.3,0-0.4,0c-0.1,0-0.3,0-0.4,0c-0.1,0-0.3,0-0.4,0c-0.1,0-0.3,0-0.4,0c-0.1,0-0.3,0-0.4,0     c-0.1,0-0.3,0-0.4,0c-0.1,0-0.3,0-0.4,0c0-0.1,0.7-1.2,0.8-1.3c0.2,0,0.4,0,0.6,0c1,0,1.9,0,2.9,0c0.1,0,0.1,0,0.1-0.1     c0.3-0.6,0.7-1.2,1-1.7c0,0,0-0.1,0-0.1c-1.3,0-2.5,0-3.8,0c0.6-1.1,1.2-2.1,1.8-3.2c-0.1,0-1.9,0-2,0c-0.7,1.3-1.5,2.6-2.3,3.9     c-0.3-0.5-0.5-0.9-0.8-1.3c0.5-0.9,1-1.7,1.5-2.6c-1,0-2,0-3.1,0c0-0.5,0-0.9,0-1.4c1,0,2,0,3,0c-0.6-1-1.2-2.1-1.8-3.1     c0,0,0.1,0,0.1,0c0.5,0,0.9,0,1.4,0c0.1,0,0.1,0,0.1,0.1c0.6,1,1.1,2,1.7,2.9c0,0.1,0.1,0.1,0.2,0.1c0.6,0,1.2,0,1.8,0     c0,0,0.1,0,0.1,0c-0.6-1.1-1.2-2.1-1.8-3.1c1.3,0,2.5,0,3.8,0c-0.4-0.7-0.7-1.3-1.1-1.9c-0.1,0-0.3,0-0.4,0c-1,0-2.1,0-3.1,0     c-0.1,0-0.1,0-0.1-0.1c-0.2-0.4-0.4-0.8-0.7-1.2c0,0,0-0.1-0.1-0.1c1.2,0,2.4,0,3.6,0c-0.5-0.9-1-1.7-1.5-2.6     c0.4-0.2,0.8-0.4,1.2-0.7c0.5,0.9,1,1.8,1.5,2.7c0.5-0.9,1-1.7,1.5-2.6c0.5,0,1,0,1.5,0c0,0,0,0.1,0,0.1     c-0.7,1.2-1.4,2.5-2.2,3.7c0,0,0,0,0,0c0,0,0,0.1,0,0.1c0,0.1,0.1,0.1,0.1,0.2c0.3,0.5,0.5,0.9,0.8,1.4c0,0,0,0.1,0.1,0.1     c0.3-0.6,0.7-1.1,1-1.7c0.3-0.6,0.7-1.1,1-1.7c0.6,1.1,1.3,2.1,1.9,3.2c0,0,0-0.1,0.1-0.1c0.3-0.5,0.6-1.1,0.9-1.6     c0-0.1,0-0.1,0-0.2c-0.6-1-1.1-2-1.7-3c0,0,0-0.1-0.1-0.1c0.3-0.4,0.5-0.9,0.8-1.3c0,0,0,0,0,0c0,0,0,0,0,0c0,0,0,0,0,0     c0,0,0,0,0,0c0.6,1,1.2,2,1.7,3c0,0,0,0,0,0c0,0,0,0,0,0c0.5-0.9,1-1.7,1.5-2.6c0.4,0.2,0.8,0.4,1.2,0.7c-0.5,0.9-1,1.8-1.5,2.7     c0,0,0.1,0,0.1,0c0.9,0,1.8,0,2.8,0c0.1,0,0.1,0,0.2,0.1c0.2,0.4,0.4,0.8,0.7,1.2c0,0,0,0.1,0.1,0.1c-0.3,0-0.5,0-0.8,0     c-0.2,0-0.5,0-0.7,0c-0.3,0-0.5,0-0.8,0c-0.2,0-0.5,0-0.7,0c-0.3,0-0.5,0-0.8,0c-0.2,0-0.5,0-0.8,0c-0.4,0.6-0.7,1.3-1.1,1.9     c1.3,0,2.6,0,3.9,0c-0.6,1-1.2,2.1-1.8,3.1c0,0,0.1,0,0.1,0c0.6,0,1.2,0,1.8,0c0.1,0,0.1,0,0.1-0.1c0.6-0.9,1.1-1.9,1.7-2.8     c0,0,0.1-0.1,0.1-0.1c0,0,0-0.1,0.1-0.1c0.5,0,1,0,1.4,0c0,0,0,0,0.1,0c-0.6,1-1.2,2.1-1.8,3.1c1,0,2,0,3,0c0,0.1,0,1.2,0,1.4     c-1,0-2,0-3.1,0c0,0,0,0.1,0.1,0.1c0.4,0.6,0.7,1.3,1.1,1.9c0.1,0.2,0.2,0.3,0.3,0.5c0,0,0,0.1,0,0.1c-0.2,0.4-0.5,0.8-0.7,1.3     c0,0,0,0,0,0c0,0,0-0.1-0.1-0.1c-0.6-1.1-1.3-2.2-1.9-3.3c-0.1-0.1-0.2-0.3-0.2-0.4c0,0-0.1-0.1-0.1-0.1c-0.6,0-1.2,0-1.8,0     c0,0,0,0-0.1,0c0.6,1.1,1.3,2.1,1.9,3.2c-1.3,0-2.7,0-4,0c0,0,0,0.1,0,0.1c0.3,0.6,0.7,1.2,1,1.7c0,0.1,0.1,0.1,0.1,0.1     c1.3,0,2.6,0,3.9,0c0.2,0,0.3,0,0.5,0c0,0,0.1,0,0.1,0c0,0,0,0.1-0.1,0.1c-0.2,0.4-0.4,0.8-0.7,1.2c0,0.1-0.1,0.1-0.2,0.1     c-0.9,0-1.9,0-2.8,0c0,0-0.1,0-0.1,0c0.5,0.9,1,1.8,1.5,2.7c-0.4,0.2-0.8,0.4-1.2,0.7c-0.5-0.9-1-1.7-1.5-2.6     c-0.2,0.3-0.3,0.5-0.5,0.8c-0.2,0.3-0.3,0.5-0.5,0.8c-0.1,0.3-0.3,0.5-0.4,0.8c-0.1,0.3-0.3,0.5-0.5,0.8     c-0.3-0.5-0.5-0.9-0.8-1.3c0,0,0-0.1,0.1-0.1c0.6-1,1.1-2,1.7-2.9c0-0.1,0-0.1,0-0.2c-0.3-0.5-0.6-1-0.9-1.5c0,0,0-0.1-0.1-0.1     c-0.6,1.1-1.3,2.2-1.9,3.3c-0.6-1.1-1.3-2.2-1.9-3.3c-0.3,0.6-0.7,1.1-1,1.7C373.3,309.9,374,311.3,374.8,312.6z M375.4,300.9     C375.4,300.9,375.5,300.9,375.4,300.9c0.4-0.7,0.8-1.3,1.1-2c0-0.1,0-0.1,0-0.1c-0.3-0.6-0.7-1.1-1-1.7c0,0,0,0-0.1-0.1     c-0.4,0.7-0.8,1.3-1.2,2C374.7,299.7,375.1,300.3,375.4,300.9z M375.5,307.5C375.5,307.5,375.5,307.5,375.5,307.5     c0.4-0.7,0.7-1.2,1.1-1.8c0-0.1,0-0.1,0-0.1c-0.4-0.6-0.7-1.2-1.1-1.8c0,0,0,0,0-0.1c0,0,0,0.1-0.1,0.1c-0.3,0.6-0.7,1.1-1,1.7     c0,0.1,0,0.1,0,0.2C374.7,306.2,375.1,306.8,375.5,307.5C375.4,307.5,375.4,307.5,375.5,307.5z M376.6,302.9     C376.6,302.9,376.6,302.9,376.6,302.9c0.4,0.6,0.7,1.2,1,1.8c0,0,0.1,0.1,0.1,0.1c0.7,0,1.5,0,2.2,0c0,0,0,0,0.1,0     c0,0,0-0.1-0.1-0.1c-0.3-0.6-0.7-1.1-1-1.7c0-0.1-0.1-0.1-0.2-0.1c-0.7,0-1.4,0-2.1,0C376.6,302.9,376.6,302.9,376.6,302.9z      M374.3,302.9C374.3,302.9,374.2,302.9,374.3,302.9c-0.8,0-1.5,0-2.1,0c-0.1,0-0.1,0-0.1,0.1c-0.3,0.6-0.7,1.1-1,1.7     c0,0,0,0,0,0.1c0,0,0.1,0,0.1,0c0.7,0,1.4,0,2,0c0.1,0,0.1,0,0.1-0.1C373.6,304.1,373.9,303.5,374.3,302.9     C374.3,303,374.3,302.9,374.3,302.9z M376.6,301.5c0.8,0,1.5,0,2.3,0c0.1-0.2,0.2-0.4,0.3-0.6c0.1-0.2,0.2-0.4,0.3-0.6     c0.1-0.2,0.2-0.4,0.3-0.6c0,0,0,0-0.1,0c-0.7,0-1.4,0-2.2,0c-0.1,0-0.1,0-0.1,0.1C377.3,300.4,377,300.9,376.6,301.5     C376.7,301.5,376.7,301.5,376.6,301.5z M374.2,301.5C374.2,301.5,374.2,301.5,374.2,301.5c-0.3-0.6-0.7-1.2-1-1.7     c0-0.1-0.1-0.1-0.1-0.1c-0.7,0-1.4,0-2,0c0,0-0.1,0-0.1,0c0,0,0,0.1,0,0.1c0.3,0.5,0.6,1.1,0.9,1.6c0,0.1,0.1,0.1,0.1,0.1     c0.7,0,1.3,0,2,0C374.1,301.5,374.2,301.5,374.2,301.5z"
   id="path1029" />
		</g>
		<g
   class="st15"
   id="g1035">
			<path
   class="st1"
   d="M644.6,286c0,0-0.1,0-0.1,0c-0.4,0-0.8,0-1.2,0c-0.1,0-0.1,0-0.1-0.1c-0.4-0.7-0.9-1.5-1.3-2.2     c0,0,0-0.1-0.1-0.1c-0.5,0.8-0.9,1.6-1.4,2.5c-0.4-0.2-0.7-0.4-1.1-0.6c0.5-0.8,0.9-1.6,1.4-2.4c-0.1,0-0.3,0-0.4,0     c-0.1,0-0.2,0-0.4,0c-0.1,0-0.2,0-0.4,0s-0.2,0-0.4,0c-0.1,0-0.2,0-0.4,0c-0.1,0-0.2,0-0.4,0c-0.1,0-0.2,0-0.4,0     c-0.1,0-0.2,0-0.4,0c-0.1,0-0.2,0-0.4,0c0-0.1,0.6-1.1,0.7-1.2c0.2,0,0.4,0,0.6,0c0.9,0,1.8,0,2.7,0c0.1,0,0.1,0,0.1-0.1     c0.3-0.5,0.6-1.1,0.9-1.6c0,0,0,0,0-0.1c-1.2,0-2.3,0-3.5,0c0.6-1,1.1-2,1.7-3c-0.1,0-1.7,0-1.9,0c-0.7,1.2-1.4,2.4-2.1,3.6     c-0.2-0.4-0.5-0.8-0.7-1.2c0.5-0.8,0.9-1.6,1.4-2.4c-1,0-1.9,0-2.8,0c0-0.4,0-0.8,0-1.2c0.9,0,1.8,0,2.8,0     c-0.6-1-1.1-1.9-1.7-2.9c0,0,0.1,0,0.1,0c0.4,0,0.9,0,1.3,0c0.1,0,0.1,0,0.1,0.1c0.5,0.9,1.1,1.8,1.6,2.7c0,0.1,0.1,0.1,0.2,0.1     c0.6,0,1.1,0,1.7,0c0,0,0.1,0,0.1,0c-0.6-1-1.1-1.9-1.7-2.9c1.2,0,2.3,0,3.5,0c-0.3-0.6-0.7-1.2-1-1.8c-0.1,0-0.2,0-0.4,0     c-1,0-1.9,0-2.9,0c-0.1,0-0.1,0-0.1-0.1c-0.2-0.4-0.4-0.7-0.6-1.1c0,0,0-0.1-0.1-0.1c1.1,0,2.2,0,3.3,0c-0.5-0.8-0.9-1.6-1.4-2.4     c0.4-0.2,0.7-0.4,1.1-0.6c0.5,0.8,0.9,1.6,1.4,2.5c0.5-0.8,0.9-1.6,1.4-2.4c0.5,0,0.9,0,1.4,0c0,0,0,0.1,0,0.1     c-0.7,1.1-1.3,2.3-2,3.4c0,0,0,0,0,0c0,0,0,0.1,0,0.1c0,0.1,0.1,0.1,0.1,0.2c0.2,0.4,0.5,0.9,0.7,1.3c0,0,0,0.1,0.1,0.1     c0.3-0.5,0.6-1,0.9-1.5c0.3-0.5,0.6-1,0.9-1.5c0.6,1,1.2,2,1.7,3c0,0,0-0.1,0-0.1c0.3-0.5,0.6-1,0.9-1.5c0-0.1,0-0.1,0-0.1     c-0.5-0.9-1-1.8-1.6-2.7c0,0,0-0.1,0-0.1c0.2-0.4,0.5-0.8,0.7-1.2c0,0,0,0,0,0c0,0,0,0,0,0c0,0,0,0,0,0c0,0,0,0,0,0     c0.5,0.9,1.1,1.9,1.6,2.8c0,0,0,0,0,0c0,0,0,0,0,0c0.5-0.8,0.9-1.6,1.4-2.4c0.4,0.2,0.7,0.4,1.1,0.6c-0.5,0.8-0.9,1.6-1.4,2.5     c0,0,0.1,0,0.1,0c0.9,0,1.7,0,2.6,0c0.1,0,0.1,0,0.1,0.1c0.2,0.4,0.4,0.7,0.6,1.1c0,0,0,0.1,0,0.1c-0.2,0-0.5,0-0.7,0     c-0.2,0-0.5,0-0.7,0c-0.2,0-0.5,0-0.7,0c-0.2,0-0.5,0-0.7,0c-0.2,0-0.5,0-0.7,0c-0.2,0-0.5,0-0.7,0c-0.3,0.6-0.7,1.2-1,1.8     c1.2,0,2.4,0,3.6,0c-0.6,1-1.1,1.9-1.7,2.9c0,0,0.1,0,0.1,0c0.6,0,1.1,0,1.7,0c0.1,0,0.1,0,0.1-0.1c0.5-0.9,1-1.8,1.5-2.6     c0,0,0.1-0.1,0.1-0.1c0,0,0-0.1,0.1-0.1c0.4,0,0.9,0,1.3,0c0,0,0,0,0.1,0c-0.6,1-1.1,1.9-1.7,2.9c0.9,0,1.8,0,2.8,0     c0,0.1,0,1.1,0,1.2c-0.9,0-1.9,0-2.8,0c0,0,0,0.1,0,0.1c0.3,0.6,0.7,1.2,1,1.8c0.1,0.2,0.2,0.3,0.3,0.5c0,0,0,0.1,0,0.1     c-0.2,0.4-0.4,0.8-0.7,1.2c0,0,0,0,0,0c0,0,0-0.1-0.1-0.1c-0.6-1-1.2-2.1-1.8-3.1c-0.1-0.1-0.1-0.2-0.2-0.4c0,0-0.1-0.1-0.1-0.1     c-0.6,0-1.1,0-1.7,0c0,0,0,0-0.1,0c0.6,1,1.2,2,1.8,3c-1.2,0-2.4,0-3.7,0c0,0,0,0.1,0,0.1c0.3,0.5,0.6,1.1,0.9,1.6     c0,0.1,0.1,0.1,0.1,0.1c1.2,0,2.4,0,3.6,0c0.1,0,0.3,0,0.4,0c0,0,0.1,0,0.1,0c0,0,0,0.1-0.1,0.1c-0.2,0.4-0.4,0.7-0.6,1.1     c0,0.1-0.1,0.1-0.1,0.1c-0.9,0-1.7,0-2.6,0c0,0-0.1,0-0.1,0c0.5,0.8,0.9,1.6,1.4,2.5c-0.4,0.2-0.7,0.4-1.1,0.6     c-0.5-0.8-0.9-1.6-1.4-2.4c-0.1,0.2-0.3,0.5-0.4,0.7c-0.1,0.2-0.3,0.5-0.4,0.7c-0.1,0.2-0.3,0.5-0.4,0.7     c-0.1,0.2-0.3,0.5-0.4,0.7c-0.2-0.4-0.5-0.8-0.7-1.2c0,0,0-0.1,0-0.1c0.5-0.9,1-1.8,1.6-2.7c0-0.1,0-0.1,0-0.2     c-0.3-0.5-0.5-0.9-0.8-1.4c0,0,0-0.1-0.1-0.1c-0.6,1-1.2,2-1.8,3c-0.6-1-1.2-2.1-1.8-3.1c-0.3,0.5-0.6,1.1-0.9,1.6     C643.2,283.6,643.9,284.8,644.6,286z M645.2,275.2C645.2,275.2,645.3,275.2,645.2,275.2c0.4-0.6,0.7-1.2,1.1-1.8c0,0,0-0.1,0-0.1     c-0.3-0.5-0.6-1.1-0.9-1.6c0,0,0,0,0-0.1c-0.4,0.6-0.7,1.2-1.1,1.8C644.5,274.1,644.9,274.6,645.2,275.2z M645.3,281.3     C645.3,281.3,645.3,281.3,645.3,281.3c0.4-0.6,0.7-1.1,1-1.7c0,0,0-0.1,0-0.1c-0.3-0.6-0.6-1.1-1-1.7c0,0,0,0,0-0.1     c0,0,0,0.1-0.1,0.1c-0.3,0.5-0.6,1.1-0.9,1.6c0,0.1,0,0.1,0,0.2C644.6,280.1,644.9,280.7,645.3,281.3     C645.2,281.3,645.2,281.3,645.3,281.3z M646.3,277C646.3,277.1,646.3,277.1,646.3,277c0.3,0.6,0.6,1.1,0.9,1.7     c0,0,0.1,0.1,0.1,0.1c0.7,0,1.4,0,2.1,0c0,0,0,0,0.1,0c0,0,0-0.1,0-0.1c-0.3-0.5-0.6-1-0.9-1.5c0-0.1-0.1-0.1-0.1-0.1     c-0.7,0-1.3,0-2,0C646.4,277,646.3,277,646.3,277z M644.2,277.1C644.1,277,644.1,277,644.2,277.1c-0.7,0-1.3,0-2,0     c0,0-0.1,0-0.1,0.1c-0.3,0.5-0.6,1.1-0.9,1.6c0,0,0,0,0,0.1c0,0,0,0,0.1,0c0.6,0,1.3,0,1.9,0c0.1,0,0.1,0,0.1-0.1     C643.5,278.2,643.8,277.6,644.2,277.1C644.1,277.1,644.2,277.1,644.2,277.1z M646.3,275.8c0.7,0,1.4,0,2.1,0     c0.1-0.2,0.2-0.4,0.3-0.5c0.1-0.2,0.2-0.4,0.3-0.5c0.1-0.2,0.2-0.3,0.3-0.5c0,0,0,0-0.1,0c-0.7,0-1.3,0-2,0c-0.1,0-0.1,0-0.1,0.1     C647,274.7,646.7,275.2,646.3,275.8C646.4,275.7,646.4,275.8,646.3,275.8z M644.1,275.8C644.1,275.8,644.1,275.8,644.1,275.8     c-0.3-0.6-0.6-1.1-0.9-1.6c0,0-0.1-0.1-0.1-0.1c-0.6,0-1.2,0-1.9,0c0,0-0.1,0-0.1,0c0,0,0,0,0,0.1c0.3,0.5,0.6,1,0.9,1.5     c0,0,0.1,0.1,0.1,0.1C642.8,275.8,643.4,275.8,644.1,275.8C644,275.8,644.1,275.8,644.1,275.8z"
   id="path1033" />
		</g>
		<g
   class="st14"
   id="g1039">
			<path
   class="st1"
   d="M381.8,75.9c0,0-0.1,0-0.1,0c-0.4,0-0.8,0-1.2,0c-0.1,0-0.1,0-0.1-0.1c-0.4-0.7-0.9-1.5-1.3-2.2     c0,0,0-0.1-0.1-0.1c-0.5,0.8-0.9,1.6-1.4,2.5c-0.4-0.2-0.7-0.4-1.1-0.6c0.5-0.8,0.9-1.6,1.4-2.4c-0.1,0-0.3,0-0.4,0     c-0.1,0-0.2,0-0.4,0c-0.1,0-0.2,0-0.4,0c-0.1,0-0.2,0-0.4,0c-0.1,0-0.2,0-0.4,0c-0.1,0-0.2,0-0.4,0c-0.1,0-0.2,0-0.4,0     c-0.1,0-0.2,0-0.4,0c-0.1,0-0.2,0-0.4,0c0-0.1,0.6-1.1,0.7-1.2c0.2,0,0.4,0,0.6,0c0.9,0,1.8,0,2.7,0c0.1,0,0.1,0,0.1-0.1     c0.3-0.5,0.6-1.1,0.9-1.6c0,0,0,0,0-0.1c-1.2,0-2.3,0-3.5,0c0.6-1,1.1-2,1.7-3c-0.1,0-1.7,0-1.9,0c-0.7,1.2-1.4,2.4-2.1,3.6     c-0.2-0.4-0.5-0.8-0.7-1.2c0.5-0.8,0.9-1.6,1.4-2.4c-1,0-1.9,0-2.8,0c0-0.4,0-0.8,0-1.2c0.9,0,1.8,0,2.8,0     c-0.6-1-1.1-1.9-1.7-2.9c0,0,0.1,0,0.1,0c0.4,0,0.9,0,1.3,0c0.1,0,0.1,0,0.1,0.1c0.5,0.9,1.1,1.8,1.6,2.7c0,0.1,0.1,0.1,0.2,0.1     c0.6,0,1.1,0,1.7,0c0,0,0.1,0,0.1,0c-0.6-1-1.1-1.9-1.7-2.9c1.2,0,2.3,0,3.5,0c-0.3-0.6-0.7-1.2-1-1.8c-0.1,0-0.2,0-0.4,0     c-1,0-1.9,0-2.9,0c-0.1,0-0.1,0-0.1-0.1c-0.2-0.4-0.4-0.7-0.6-1.1c0,0,0-0.1-0.1-0.1c1.1,0,2.2,0,3.3,0c-0.5-0.8-0.9-1.6-1.4-2.4     c0.4-0.2,0.7-0.4,1.1-0.6c0.5,0.8,0.9,1.6,1.4,2.5c0.5-0.8,0.9-1.6,1.4-2.4c0.5,0,0.9,0,1.4,0c0,0,0,0.1,0,0.1     c-0.7,1.1-1.3,2.3-2,3.4c0,0,0,0,0,0c0,0,0,0.1,0,0.1c0,0.1,0.1,0.1,0.1,0.2c0.2,0.4,0.5,0.9,0.7,1.3c0,0,0,0.1,0.1,0.1     c0.3-0.5,0.6-1,0.9-1.5c0.3-0.5,0.6-1,0.9-1.5c0.6,1,1.2,2,1.7,3c0,0,0-0.1,0-0.1c0.3-0.5,0.6-1,0.9-1.5c0-0.1,0-0.1,0-0.1     c-0.5-0.9-1-1.8-1.6-2.7c0,0,0-0.1,0-0.1c0.2-0.4,0.5-0.8,0.7-1.2c0,0,0,0,0,0c0,0,0,0,0,0c0,0,0,0,0,0c0,0,0,0,0,0     c0.5,0.9,1.1,1.9,1.6,2.8c0,0,0,0,0,0c0,0,0,0,0,0c0.5-0.8,0.9-1.6,1.4-2.4c0.4,0.2,0.7,0.4,1.1,0.6c-0.5,0.8-0.9,1.6-1.4,2.5     c0,0,0.1,0,0.1,0c0.9,0,1.7,0,2.6,0c0.1,0,0.1,0,0.1,0.1c0.2,0.4,0.4,0.7,0.6,1.1c0,0,0,0.1,0,0.1c-0.2,0-0.5,0-0.7,0     c-0.2,0-0.5,0-0.7,0c-0.2,0-0.5,0-0.7,0c-0.2,0-0.5,0-0.7,0c-0.2,0-0.5,0-0.7,0c-0.2,0-0.5,0-0.7,0c-0.3,0.6-0.7,1.2-1,1.8     c1.2,0,2.4,0,3.6,0c-0.6,1-1.1,1.9-1.7,2.9c0,0,0.1,0,0.1,0c0.6,0,1.1,0,1.7,0c0.1,0,0.1,0,0.1-0.1c0.5-0.9,1-1.8,1.5-2.6     c0,0,0.1-0.1,0.1-0.1c0,0,0-0.1,0.1-0.1c0.4,0,0.9,0,1.3,0c0,0,0,0,0.1,0c-0.6,1-1.1,1.9-1.7,2.9c0.9,0,1.8,0,2.8,0     c0,0.1,0,1.1,0,1.2c-0.9,0-1.9,0-2.8,0c0,0,0,0.1,0,0.1c0.3,0.6,0.7,1.2,1,1.8c0.1,0.2,0.2,0.3,0.3,0.5c0,0,0,0.1,0,0.1     c-0.2,0.4-0.4,0.8-0.7,1.2c0,0,0,0,0,0c0,0,0-0.1-0.1-0.1c-0.6-1-1.2-2.1-1.8-3.1c-0.1-0.1-0.1-0.2-0.2-0.4c0,0-0.1-0.1-0.1-0.1     c-0.6,0-1.1,0-1.7,0c0,0,0,0-0.1,0c0.6,1,1.2,2,1.8,3c-1.2,0-2.4,0-3.7,0c0,0,0,0.1,0,0.1c0.3,0.5,0.6,1.1,0.9,1.6     c0,0.1,0.1,0.1,0.1,0.1c1.2,0,2.4,0,3.6,0c0.1,0,0.3,0,0.4,0c0,0,0.1,0,0.1,0c0,0,0,0.1-0.1,0.1c-0.2,0.4-0.4,0.7-0.6,1.1     c0,0.1-0.1,0.1-0.1,0.1c-0.9,0-1.7,0-2.6,0c0,0-0.1,0-0.1,0c0.5,0.8,0.9,1.6,1.4,2.5c-0.4,0.2-0.7,0.4-1.1,0.6     c-0.5-0.8-0.9-1.6-1.4-2.4c-0.1,0.2-0.3,0.5-0.4,0.7c-0.1,0.2-0.3,0.5-0.4,0.7c-0.1,0.2-0.3,0.5-0.4,0.7     c-0.1,0.2-0.3,0.5-0.4,0.7c-0.2-0.4-0.5-0.8-0.7-1.2c0,0,0-0.1,0-0.1c0.5-0.9,1-1.8,1.6-2.7c0-0.1,0-0.1,0-0.2     c-0.3-0.5-0.5-0.9-0.8-1.4c0,0,0-0.1-0.1-0.1c-0.6,1-1.2,2-1.8,3c-0.6-1-1.2-2.1-1.8-3.1c-0.3,0.5-0.6,1.1-0.9,1.6     C380.4,73.4,381.1,74.6,381.8,75.9z M382.4,65.1C382.4,65.1,382.4,65.1,382.4,65.1c0.4-0.6,0.7-1.2,1.1-1.8c0,0,0-0.1,0-0.1     c-0.3-0.5-0.6-1.1-0.9-1.6c0,0,0,0,0-0.1c-0.4,0.6-0.7,1.2-1.1,1.8C381.7,63.9,382.1,64.5,382.4,65.1z M382.5,71.2     C382.5,71.2,382.5,71.1,382.5,71.2c0.4-0.6,0.7-1.1,1-1.7c0,0,0-0.1,0-0.1c-0.3-0.6-0.6-1.1-1-1.7c0,0,0,0,0-0.1     c0,0,0,0.1-0.1,0.1c-0.3,0.5-0.6,1.1-0.9,1.6c0,0.1,0,0.1,0,0.2C381.8,70,382.1,70.6,382.5,71.2     C382.4,71.1,382.4,71.2,382.5,71.2z M383.5,66.9C383.5,67,383.5,67,383.5,66.9c0.3,0.6,0.6,1.1,0.9,1.7c0,0,0.1,0.1,0.1,0.1     c0.7,0,1.4,0,2.1,0c0,0,0,0,0.1,0c0,0,0-0.1,0-0.1c-0.3-0.5-0.6-1-0.9-1.5c0-0.1-0.1-0.1-0.1-0.1c-0.7,0-1.3,0-2,0     C383.5,66.9,383.5,66.9,383.5,66.9z M381.4,66.9C381.3,66.9,381.3,66.9,381.4,66.9c-0.7,0-1.3,0-2,0c0,0-0.1,0-0.1,0.1     c-0.3,0.5-0.6,1.1-0.9,1.6c0,0,0,0,0,0.1c0,0,0,0,0.1,0c0.6,0,1.3,0,1.9,0c0.1,0,0.1,0,0.1-0.1C380.7,68,381,67.5,381.4,66.9     C381.3,67,381.4,67,381.4,66.9z M383.5,65.7c0.7,0,1.4,0,2.1,0c0.1-0.2,0.2-0.4,0.3-0.5c0.1-0.2,0.2-0.4,0.3-0.5     c0.1-0.2,0.2-0.3,0.3-0.5c0,0,0,0-0.1,0c-0.7,0-1.3,0-2,0c-0.1,0-0.1,0-0.1,0.1C384.1,64.6,383.9,65.1,383.5,65.7     C383.6,65.6,383.6,65.6,383.5,65.7z M381.3,65.7C381.3,65.6,381.3,65.6,381.3,65.7c-0.3-0.6-0.6-1.1-0.9-1.6c0,0-0.1-0.1-0.1-0.1     c-0.6,0-1.2,0-1.9,0c0,0-0.1,0-0.1,0c0,0,0,0,0,0.1c0.3,0.5,0.6,1,0.9,1.5c0,0,0.1,0.1,0.1,0.1C380,65.7,380.6,65.7,381.3,65.7     C381.2,65.7,381.3,65.7,381.3,65.7z"
   id="path1037" />
		</g>
		<g
   class="st13"
   id="g1043">
			<path
   class="st1"
   d="M343.7,2.8h-3.6c0.5-0.8,1-1.6,1.4-2.4h-1.9c-0.5,0.8-0.9,1.6-1.4,2.3c0,0.1-0.1,0.1-0.2,0.1     c-0.7,0-1.5,0-2.2,0c0,0-0.1,0-0.1,0c0.5-0.8,1-1.6,1.4-2.4h-6.6c-0.3,0.5-0.6,1.1-1,1.6c0,0,0,0,0,0.1c-0.3-0.6-0.7-1.1-1-1.7     h-6.4c0.5,0.8,0.9,1.6,1.4,2.4h-0.1c-0.7,0-1.5,0-2.2,0c-0.1,0-0.2,0-0.2-0.1c-0.5-0.8-0.9-1.5-1.4-2.3h-1.9     c0.5,0.8,0.9,1.6,1.4,2.4h-3.6v1.6h3.7c-0.6,1-1.2,2.1-1.8,3.1c0.3,0.5,0.6,1.1,0.9,1.6c0.9-1.6,1.8-3.2,2.7-4.7     c0.2,0,2.4,0,2.5,0c-0.7,1.3-1.5,2.6-2.2,3.9h4.5c0,0,0,0.1,0,0.1c-0.4,0.7-0.8,1.4-1.2,2.1c0,0.1-0.1,0.1-0.2,0.1     c-1.2,0-2.3,0-3.5,0h-0.7c-0.1,0.2-0.9,1.5-0.9,1.6h3.8c0.2,0,0.3,0,0.5,0c-0.6,1.1-1.2,2.1-1.8,3.1c0.5,0.3,0.9,0.5,1.4,0.8     c0.6-1.1,1.2-2.1,1.8-3.2c0,0,0.1,0.1,0.1,0.1c0.6,1,1.1,1.9,1.7,2.9c0,0.1,0.1,0.1,0.2,0.1h1.7c-0.9-1.6-1.8-3.2-2.7-4.7     c0.4-0.7,0.8-1.4,1.2-2.1c0.8,1.3,1.6,2.7,2.3,4c0.8-1.3,1.5-2.6,2.3-3.9c0,0,0.1,0.1,0.1,0.1c0.4,0.6,0.7,1.2,1.1,1.8     c0.1,0.1,0.1,0.2,0,0.2c-0.7,1.2-1.4,2.4-2,3.5c0,0,0,0.1-0.1,0.1c0.3,0.5,0.6,1.1,0.9,1.6c0.2-0.3,0.4-0.6,0.5-1l0.5-0.9     c0.2-0.3,0.4-0.6,0.5-0.9c0.2-0.3,0.3-0.6,0.5-0.9c0.6,1.1,1.2,2.1,1.8,3.1c0.5-0.3,0.9-0.5,1.4-0.8c-0.6-1.1-1.2-2.1-1.8-3.2     h0.1c1.1,0,2.2,0,3.4,0c0.1,0,0.1,0,0.2-0.1c0.3-0.5,0.5-0.9,0.8-1.4c0,0,0-0.1,0.1-0.1h-0.7c-1.5,0-3.1,0-4.6,0     c-0.1,0-0.1,0-0.2-0.1c-0.4-0.7-0.8-1.4-1.2-2.1c0,0,0-0.1,0-0.1h4.8c-0.8-1.3-1.5-2.6-2.3-3.9c0,0,0.1,0,0.1,0h2.2     c0.1,0,0.1,0,0.1,0.1c0.1,0.2,0.2,0.3,0.3,0.5c0.8,1.3,1.5,2.7,2.3,4c0,0,0,0.1,0.1,0.1c0,0,0,0,0,0c0.3-0.5,0.6-1,0.9-1.5     c0,0,0-0.1,0-0.1c-0.1-0.2-0.2-0.4-0.4-0.6c-0.4-0.8-0.9-1.5-1.3-2.3c0,0,0-0.1-0.1-0.1h3.7C343.8,4.2,343.8,2.9,343.7,2.8z      M331.2,2.7c0.4-0.6,0.7-1.3,1.1-1.9c0-0.1,0.1-0.1,0.1-0.1h2.7c-0.1,0.2-0.3,0.5-0.4,0.7c-0.1,0.2-0.3,0.5-0.4,0.7     c-0.1,0.2-0.3,0.5-0.4,0.7h-2.8C331.2,2.7,331.2,2.7,331.2,2.7z M324.5,0.6h2.4c0.1,0,0.1,0,0.1,0.1c0.4,0.7,0.8,1.3,1.1,2     c0,0,0,0,0,0.1h-0.1c-0.8,0-1.6,0-2.4,0c-0.1,0-0.1,0-0.2-0.1C325.2,2,324.8,1.4,324.5,0.6c-0.1,0.1-0.1,0-0.1,0     C324.4,0.7,324.5,0.6,324.5,0.6z M328.3,4.5c-0.4,0.7-0.8,1.3-1.2,2c0,0.1-0.1,0.1-0.2,0.1h-2.5c0,0,0-0.1,0-0.1     c0.4-0.7,0.8-1.4,1.2-2.1c0,0,0.1-0.1,0.1-0.1L328.3,4.5C328.3,4.4,328.3,4.4,328.3,4.5C328.3,4.4,328.3,4.5,328.3,4.5z M331,7.7     c-0.4,0.7-0.8,1.4-1.2,2.1c0,0,0,0,0,0.1c0,0,0-0.1-0.1-0.1c-0.4-0.7-0.8-1.4-1.2-2.1c0-0.1,0-0.2,0-0.2c0.4-0.7,0.8-1.4,1.2-2.1     c0,0,0-0.1,0.1-0.1c0,0,0,0.1,0.1,0.1c0.4,0.7,0.8,1.5,1.3,2.2C331.1,7.6,331.1,7.7,331,7.7z M335.1,6.6h-2.7     c-0.1,0-0.1,0-0.1-0.1c-0.4-0.7-0.8-1.4-1.2-2.1c0,0,0,0,0-0.1h2.7c0.1,0,0.1,0,0.2,0.1c0.4,0.7,0.8,1.3,1.2,2     C335.2,6.5,335.2,6.6,335.1,6.6C335.2,6.6,335.1,6.6,335.1,6.6z"
   id="path1041" />
		</g>
		<g
   class="st15"
   id="g1047">
			<path
   class="st1"
   d="M686.8,9.4c0.1,0,0.1,0,0.2,0.1c0.1,0.2,0.2,0.4,0.4,0.6c0.2,0.4,0.5,0.8,0.7,1.2V5.5     c-0.3,0.5-0.6,1.1-0.9,1.6c0,0.1-0.1,0.1-0.2,0.1H684c0,0-0.1,0-0.1,0c1-1.6,1.9-3.2,2.9-4.9h-6.1c0.4-0.7,0.8-1.4,1.2-2h-2.4     c-0.1,0.2-0.2,0.4-0.3,0.5c0,0,0,0.1-0.1,0.1c-0.1-0.2-0.3-0.5-0.4-0.7h-2.5c0,0,0,0,0,0c0.5,0.9,1,1.8,1.6,2.7     c0,0.1,0.1,0.1,0,0.2c-0.6,1-1.2,2-1.7,3c0,0,0,0.1-0.1,0.1c-0.6-1-1.1-2-1.7-3c0.6-1,1.2-2,1.8-3h-2.5c-0.2,0.3-0.3,0.6-0.5,0.9     c0-0.1-0.1-0.1-0.1-0.2c-0.1-0.2-0.3-0.5-0.4-0.7H670c0.4,0.7,0.8,1.3,1.2,2h-5.9c0.9,1.6,1.9,3.3,2.8,4.9h-3     c-0.1,0-0.2,0-0.3-0.2c-0.9-1.5-1.8-3-2.7-4.6c0-0.1-0.1-0.1-0.2-0.1c-0.7,0-1.5,0-2.2,0c0,0-0.1,0-0.1,0     c0.9,1.6,1.9,3.2,2.8,4.9h-4.7v2.1h4.8c-0.8,1.4-1.5,2.7-2.3,4c0.4,0.7,0.8,1.4,1.2,2.1c1.2-2.1,2.4-4.1,3.5-6.1     c0.3,0,3.1,0,3.2,0c-0.9,1.7-1.9,3.3-2.8,5h5.9c0,0.1,0,0.1-0.1,0.1c-0.5,0.9-1,1.8-1.6,2.7c-0.1,0.1-0.1,0.1-0.2,0.1     c-1.5,0-3,0-4.5,0h-1c-0.1,0.2-1.2,2-1.2,2.1h5c0.2,0,0.4,0,0.6,0c-0.8,1.4-1.6,2.7-2.3,4c0.6,0.4,1.2,0.7,1.8,1     c0.8-1.4,1.6-2.8,2.4-4.1c0,0,0.1,0.1,0.1,0.1c0.7,1.2,1.4,2.5,2.2,3.7c0.1,0.1,0.1,0.1,0.2,0.1c0.7,0,1.4,0,2.1,0h0.2     c-1.2-2.1-2.4-4.1-3.5-6.1c0.5-0.9,1-1.8,1.6-2.7c1,1.8,2,3.5,3,5.2c1-1.7,2-3.4,3-5.1c0,0.1,0.1,0.1,0.1,0.1     c0.5,0.8,0.9,1.6,1.4,2.4c0.1,0.1,0.1,0.2,0,0.3c-0.9,1.5-1.8,3.1-2.6,4.6c0,0-0.1,0.1-0.1,0.1c0.4,0.7,0.8,1.4,1.2,2.1     c0.2-0.4,0.5-0.8,0.7-1.2c0.2-0.4,0.5-0.8,0.7-1.2c0.2-0.4,0.5-0.8,0.7-1.2c0.2-0.4,0.4-0.8,0.7-1.2c0.8,1.4,1.6,2.7,2.4,4.1     c0.6-0.4,1.2-0.7,1.8-1c-0.8-1.4-1.6-2.8-2.4-4.2c0.1,0,0.1,0,0.2,0c1.4,0,2.9,0,4.3,0c0,0,0,0,0,0v-2.1c-1.8,0-3.7,0-5.6,0     c-0.1,0-0.1,0-0.2-0.1c-0.5-0.9-1-1.8-1.6-2.7c0,0,0-0.1,0-0.1h6.2c-1-1.7-2-3.3-3-5c0.1,0,0.1,0,0.1,0H686.8z M669.2,4.5h3.2     c0.1,0,0.1,0,0.2,0.1c0.5,0.8,1,1.7,1.5,2.5c0,0,0,0.1,0.1,0.1h-3.3c-0.1,0-0.1,0-0.2-0.1c-0.5-0.8-1-1.7-1.4-2.5     c0,0,0-0.1-0.1-0.1C669.1,4.5,669.1,4.5,669.2,4.5z M674.1,9.5c-0.5,0.9-1,1.8-1.5,2.6c0,0.1-0.1,0.1-0.2,0.1h-3.3     c0,0,0-0.1,0-0.1c0.5-0.9,1-1.8,1.5-2.7c0-0.1,0.1-0.1,0.2-0.1c1.1,0,2.2,0,3.2,0c0,0,0.1,0,0.1,0C674.1,9.4,674.1,9.5,674.1,9.5     z M677.9,7.1c0.5-0.8,1-1.6,1.4-2.5c0-0.1,0.1-0.1,0.2-0.1h3.4c0,0,0,0,0.1,0c-0.2,0.3-0.3,0.6-0.5,0.9c-0.2,0.3-0.4,0.6-0.5,0.9     c-0.2,0.3-0.3,0.6-0.5,0.9h-3.6C677.8,7.2,677.9,7.2,677.9,7.1z M677.6,13.7c-0.5,0.9-1.1,1.8-1.6,2.8c0,0,0,0.1-0.1,0.1     c0,0-0.1-0.1-0.1-0.1c-0.5-0.9-1.1-1.9-1.6-2.8c-0.1-0.1-0.1-0.2,0-0.3c0.5-0.9,1-1.8,1.5-2.7c0,0,0-0.1,0.1-0.1     c0,0,0,0.1,0.1,0.1c0.5,0.9,1.1,1.9,1.6,2.8C677.7,13.6,677.7,13.6,677.6,13.7z M682.9,12.2c-1.2,0-2.3,0-3.5,0     c-0.1,0-0.1,0-0.2-0.1c-0.5-0.9-1-1.8-1.5-2.7c0,0,0,0,0-0.1h0.2c1.1,0,2.2,0,3.3,0c0.1,0,0.2,0,0.2,0.1c0.5,0.9,1,1.7,1.5,2.6     c0,0,0,0.1,0.1,0.1C683,12.2,683,12.2,682.9,12.2z"
   id="path1045" />
		</g>
	</g>
<flowRoot
   xml:space="preserve"
   id="flowRoot2076"
   style="fill:#ff0000;fill-opacity:1;stroke:none;font-family:sans-serif;font-style:normal;font-weight:normal;font-size:40px;line-height:1.25;letter-spacing:0px;word-spacing:0px;"><flowRegion
     id="flowRegion2078"
     style="fill:#ff0000;fill-opacity:1;"><rect
       id="rect2080"
       width="87.621758"
       height="40.614376"
       x="541.71301"
       y="290.21509"
       style="fill:#ff0000;fill-opacity:1;" /></flowRegion><flowPara
     id="flowPara2082"></flowPara></flowRoot><text
   xml:space="preserve"
   style="font-style:normal;font-weight:normal;font-size:40px;line-height:1.25;font-family:sans-serif;letter-spacing:0px;word-spacing:0px;fill:#000000;fill-opacity:1;stroke:none"
   x="560.6701"
   y="332.86389"
   id="text2086"><tspan
     sodipodi:role="line"
     id="tspan2084"
     x="560.6701"
     y="332.86389"
     style="fill:#c50000;fill-opacity:1">CNY</tspan></text>
</g>
</svg>