<svg width="1679" height="1080" viewBox="0 0 1679 1080" xmlns="http://www.w3.org/2000/svg">
  <defs>
    <!-- Background Gradient -->
    <radialGradient id="background_gradient" cx="0" cy="0" r="1" gradientUnits="userSpaceOnUse" gradientTransform="translate(1679 1080) rotate(-180) scale(1679 1080)">
      <stop stop-color="#CC3047"/>
      <stop offset="1" stop-color="#D94432"/>
    </radialGradient>

    <!-- Background Pattern -->
    <pattern id="background_pattern" width="64" height="64" patternUnits="userSpaceOnUse">
      <path d="M50.7415 36.4384C50.5246 36.4345 50.312 36.3829 50.1223 36.2882C49.9326 36.1934 49.7716 36.0583 49.6533 35.8947C47.9603 33.003 45.4212 30.5821 42.3101 28.8932C39.199 27.2044 35.634 26.3118 32 26.3118C28.366 26.3118 24.801 27.2044 21.6899 28.8932C18.5788 30.5821 16.0397 33.003 14.3467 35.8947C14.172 36.1403 13.9035 36.32 13.5918 36.4001C13.2801 36.4802 12.9465 36.4552 12.6539 36.3297C12.5074 36.2616 12.378 36.1673 12.2735 36.0526C12.1691 35.9378 12.0918 35.805 12.0465 35.6625C12.0012 35.5199 11.9888 35.3705 12.0101 35.2234C12.0314 35.0764 12.0859 34.9348 12.1703 34.8074C14.0619 31.5485 16.9105 28.818 20.4065 26.9127C23.9024 25.0073 27.9121 24 32 24C36.0879 24 40.0976 25.0073 43.5935 26.9127C47.0895 28.818 49.9381 31.5485 51.8297 34.8074C51.9141 34.9348 51.9686 35.0764 51.9899 35.2234C52.0112 35.3705 51.9988 35.5199 51.9535 35.6625C51.9082 35.805 51.8309 35.9378 51.7265 36.0526C51.622 36.1673 51.4926 36.2616 51.3461 36.3297L50.7415 36.4384Z" fill="#1F2348"/>
      <path d="M45.3003 37.4979C45.1018 37.4858 44.9096 37.4299 44.7409 37.3351C44.5721 37.2402 44.432 37.1094 44.333 36.9542C42.9472 35.1697 41.1015 33.7135 38.9538 32.7099C36.8061 31.7063 34.4202 31.1852 31.9999 31.1911C29.585 31.212 27.2097 31.7447 25.0668 32.7461C22.9238 33.7474 21.0738 35.1891 19.6667 36.9542C19.5808 37.077 19.4684 37.1831 19.3362 37.2662C19.2039 37.3493 19.0545 37.4078 18.8968 37.4382C18.739 37.4686 18.5761 37.4703 18.4176 37.4432C18.2591 37.4161 18.1083 37.3608 17.9739 37.2804C17.8374 37.2032 17.7195 37.102 17.627 36.9831C17.5346 36.8642 17.4696 36.7299 17.4358 36.588C17.402 36.4462 17.4001 36.2996 17.4302 36.1571C17.4603 36.0146 17.5219 35.8789 17.6112 35.7581C19.2262 33.672 21.3781 31.968 23.8834 30.7913C26.3888 29.6145 29.1734 29 31.9999 29C34.8263 29 37.6109 29.6145 40.1163 30.7913C42.6217 31.968 44.7735 33.672 46.3885 35.7581C46.4778 35.8789 46.5394 36.0146 46.5695 36.1571C46.5996 36.2996 46.5978 36.4462 46.5639 36.588C46.5301 36.7299 46.4651 36.8642 46.3727 36.9831C46.2803 37.102 46.1623 37.2032 46.0258 37.2804L45.3003 37.4979Z" fill="#1F2348"/>
      <path d="M23.5359 39.7339C23.3768 39.7384 23.2186 39.7116 23.0724 39.6552C22.9262 39.5989 22.7954 39.5144 22.6895 39.4077C22.4511 39.219 22.3048 38.9536 22.2821 38.6688C22.2595 38.384 22.3624 38.1025 22.5685 37.8853C23.7377 36.6662 25.1854 35.688 26.8129 35.0175C28.4404 34.3471 30.2096 34 31.9998 34C33.79 34 35.5591 34.3471 37.1866 35.0175C38.8142 35.688 40.2618 36.6662 41.431 37.8853C41.5504 37.985 41.6434 38.1074 41.7032 38.2437C41.763 38.3799 41.788 38.5265 41.7764 38.6726C41.7648 38.8187 41.7169 38.9606 41.6362 39.0878C41.5555 39.215 41.444 39.3243 41.3101 39.4077C41.0686 39.5931 40.7556 39.6856 40.4389 39.6653C40.1222 39.6449 39.8271 39.5133 39.6173 39.2989C38.6751 38.3111 37.5066 37.5182 36.1917 36.9747C34.8769 36.4311 33.4469 36.1496 31.9998 36.1496C30.5526 36.1496 29.1226 36.4311 27.8078 36.9747C26.493 37.5182 25.3244 38.3111 24.3822 39.2989C24.1585 39.5209 23.8621 39.6732 23.5359 39.7339Z" fill="#1F2348"/>
      <path d="M50.7415 4.43843C50.5246 4.43451 50.312 4.38294 50.1223 4.28817C49.9326 4.19341 49.7716 4.05832 49.6533 3.89475C47.9603 1.00303 45.4212 -1.41793 42.3101 -3.10678C39.199 -4.79563 35.634 -5.68821 32 -5.68821C28.366 -5.68821 24.801 -4.79563 21.6899 -3.10678C18.5788 -1.41793 16.0397 1.00303 14.3467 3.89475C14.172 4.14032 13.9035 4.32004 13.5918 4.40014C13.2801 4.48023 12.9465 4.45521 12.6539 4.32972C12.5074 4.26163 12.378 4.16731 12.2735 4.05257C12.1691 3.93782 12.0918 3.80504 12.0465 3.66246C12.0012 3.51987 11.9888 3.37049 12.0101 3.22344C12.0314 3.07639 12.0859 2.93479 12.1703 2.80738C14.0619 -0.451532 16.9105 -3.18199 20.4065 -5.08732C23.9024 -6.99266 27.9121 -8 32 -8C36.0879 -8 40.0976 -6.99266 43.5935 -5.08732C47.0895 -3.18199 49.9381 -0.451532 51.8297 2.80738C51.9141 2.93479 51.9686 3.07639 51.9899 3.22344C52.0112 3.37049 51.9988 3.51987 51.9535 3.66246C51.9082 3.80504 51.8309 3.93782 51.7265 4.05257C51.622 4.16731 51.4926 4.26163 51.3461 4.32972L50.7415 4.43843Z" fill="#1F2348"/>
      <path d="M45.3003 5.49786C45.1018 5.48582 44.9096 5.4299 44.7409 5.33506C44.5721 5.24022 44.432 5.10938 44.333 4.95418C42.9472 3.16969 41.1015 1.71348 38.9538 0.709893C36.8061 -0.293693 34.4202 -0.814809 31.9999 -0.808868C29.585 -0.788047 27.2097 -0.255288 25.0668 0.746063C22.9238 1.74741 21.0738 3.18911 19.6667 4.95418C19.5808 5.07696 19.4684 5.18306 19.3362 5.26617C19.2039 5.34929 19.0545 5.4078 18.8968 5.4382C18.739 5.4686 18.5761 5.47027 18.4176 5.44318C18.2591 5.41608 18.1083 5.36078 17.9739 5.28044C17.8374 5.20316 17.7195 5.10203 17.627 4.98312C17.5346 4.8642 17.4696 4.72989 17.4358 4.58803C17.402 4.44617 17.4001 4.29963 17.4302 4.1571C17.4603 4.01457 17.5219 3.87891 17.6112 3.7581C19.2262 1.67203 21.3781 -0.0320089 23.8834 -1.20873C26.3888 -2.38546 29.1734 -3 31.9999 -3C34.8263 -3 37.6109 -2.38546 40.1163 -1.20873C42.6217 -0.0320089 44.7735 1.67203 46.3885 3.7581C46.4778 3.87891 46.5394 4.01457 46.5695 4.1571C46.5996 4.29963 46.5978 4.44617 46.5639 4.58803C46.5301 4.72989 46.4651 4.8642 46.3727 4.98312C46.2803 5.10203 46.1623 5.20316 46.0258 5.28044L45.3003 5.49786Z" fill="#1F2348"/>
      <path d="M23.5359 7.73388C23.3768 7.73845 23.2186 7.71159 23.0724 7.65523C22.9262 7.59887 22.7954 7.51439 22.6895 7.40768C22.4511 7.21904 22.3048 6.95365 22.2821 6.66881C22.2595 6.38398 22.3624 6.10254 22.5685 5.88534C23.7377 4.6662 25.1854 3.68804 26.8129 3.01754C28.4404 2.34705 30.2096 2 31.9998 2C33.79 2 35.5591 2.34705 37.1866 3.01754C38.8142 3.68804 40.2618 4.6662 41.431 5.88534C41.5504 5.98495 41.6434 6.10741 41.7032 6.24366C41.763 6.37991 41.788 6.52649 41.7764 6.67259C41.7648 6.81869 41.7169 6.96057 41.6362 7.08779C41.5555 7.21501 41.444 7.32435 41.3101 7.40768C41.0686 7.59308 40.7556 7.6856 40.4389 7.66525C40.1222 7.64491 39.8271 7.51329 39.6173 7.2989C38.6751 6.3111 37.5066 5.51825 36.1917 4.97465C34.8769 4.43106 33.4469 4.14957 31.9998 4.14957C30.5526 4.14957 29.1226 4.43106 27.8078 4.97465C26.493 5.51825 25.3244 6.3111 24.3822 7.2989C24.1585 7.52088 23.8621 7.67322 23.5359 7.73388Z" fill="#1F2348"/>
      <path d="M82.7415 20.4384C82.5246 20.4345 82.312 20.3829 82.1223 20.2882C81.9326 20.1934 81.7716 20.0583 81.6533 19.8947C79.9603 17.003 77.4212 14.5821 74.3101 12.8932C71.199 11.2044 67.634 10.3118 64 10.3118C60.366 10.3118 56.801 11.2044 53.6899 12.8932C50.5788 14.5821 48.0397 17.003 46.3467 19.8947C46.172 20.1403 45.9035 20.32 45.5918 20.4001C45.2801 20.4802 44.9465 20.4552 44.6539 20.3297C44.5074 20.2616 44.378 20.1673 44.2735 20.0526C44.1691 19.9378 44.0918 19.805 44.0465 19.6625C44.0012 19.5199 43.9888 19.3705 44.0101 19.2234C44.0314 19.0764 44.0859 18.9348 44.1703 18.8074C46.0619 15.5485 48.9105 12.818 52.4065 10.9127C55.9024 9.00734 59.9121 8 64 8C68.0879 8 72.0976 9.00734 75.5935 10.9127C79.0895 12.818 81.9381 15.5485 83.8297 18.8074C83.9141 18.9348 83.9686 19.0764 83.9899 19.2234C84.0112 19.3705 83.9988 19.5199 83.9535 19.6625C83.9082 19.805 83.8309 19.9378 83.7265 20.0526C83.622 20.1673 83.4926 20.2616 83.3461 20.3297L82.7415 20.4384Z" fill="#1F2348"/>
      <path d="M77.3003 21.4979C77.1018 21.4858 76.9096 21.4299 76.7409 21.3351C76.5721 21.2402 76.432 21.1094 76.333 20.9542C74.9472 19.1697 73.1015 17.7135 70.9538 16.7099C68.8061 15.7063 66.4202 15.1852 63.9999 15.1911C61.585 15.212 59.2097 15.7447 57.0668 16.7461C54.9238 17.7474 53.0738 19.1891 51.6667 20.9542C51.5808 21.077 51.4684 21.1831 51.3362 21.2662C51.2039 21.3493 51.0545 21.4078 50.8968 21.4382C50.739 21.4686 50.5761 21.4703 50.4176 21.4432C50.2591 21.4161 50.1083 21.3608 49.9739 21.2804C49.8374 21.2032 49.7195 21.102 49.627 20.9831C49.5346 20.8642 49.4696 20.7299 49.4358 20.588C49.402 20.4462 49.4001 20.2996 49.4302 20.1571C49.4603 20.0146 49.5219 19.8789 49.6112 19.7581C51.2262 17.672 53.3781 15.968 55.8834 14.7913C58.3888 13.6145 61.1734 13 63.9999 13C66.8263 13 69.6109 13.6145 72.1163 14.7913C74.6217 15.968 76.7735 17.672 78.3885 19.7581C78.4778 19.8789 78.5394 20.0146 78.5695 20.1571C78.5996 20.2996 78.5978 20.4462 78.5639 20.588C78.5301 20.7299 78.4651 20.8642 78.3727 20.9831C78.2803 21.102 78.1623 21.2032 78.0258 21.2804L77.3003 21.4979Z" fill="#1F2348"/>
      <path d="M55.5359 23.7339C55.3768 23.7384 55.2186 23.7116 55.0724 23.6552C54.9262 23.5989 54.7954 23.5144 54.6895 23.4077C54.4511 23.219 54.3048 22.9536 54.2821 22.6688C54.2595 22.384 54.3624 22.1025 54.5685 21.8853C55.7377 20.6662 57.1854 19.688 58.8129 19.0175C60.4404 18.3471 62.2096 18 63.9998 18C65.79 18 67.5591 18.3471 69.1866 19.0175C70.8142 19.688 72.2618 20.6662 73.431 21.8853C73.5504 21.985 73.6434 22.1074 73.7032 22.2437C73.763 22.3799 73.788 22.5265 73.7764 22.6726C73.7648 22.8187 73.7169 22.9606 73.6362 23.0878C73.5555 23.215 73.444 23.3243 73.3101 23.4077C73.0686 23.5931 72.7556 23.6856 72.4389 23.6653C72.1222 23.6449 71.8271 23.5133 71.6173 23.2989C70.6751 22.3111 69.5066 21.5182 68.1917 20.9747C66.8769 20.4311 65.4469 20.1496 63.9998 20.1496C62.5526 20.1496 61.1226 20.4311 59.8078 20.9747C58.493 21.5182 57.3244 22.3111 56.3822 23.2989C56.1585 23.5209 55.8621 23.6732 55.5359 23.7339Z" fill="#1F2348"/>
      <path d="M82.7415 52.4384C82.5246 52.4345 82.312 52.3829 82.1223 52.2882C81.9326 52.1934 81.7716 52.0583 81.6533 51.8947C79.9603 49.003 77.4212 46.5821 74.3101 44.8932C71.199 43.2044 67.634 42.3118 64 42.3118C60.366 42.3118 56.801 43.2044 53.6899 44.8932C50.5788 46.5821 48.0397 49.003 46.3467 51.8947C46.172 52.1403 45.9035 52.32 45.5918 52.4001C45.2801 52.4802 44.9465 52.4552 44.6539 52.3297C44.5074 52.2616 44.378 52.1673 44.2735 52.0526C44.1691 51.9378 44.0918 51.805 44.0465 51.6625C44.0012 51.5199 43.9888 51.3705 44.0101 51.2234C44.0314 51.0764 44.0859 50.9348 44.1703 50.8074C46.0619 47.5485 48.9105 44.818 52.4065 42.9127C55.9024 41.0073 59.9121 40 64 40C68.0879 40 72.0976 41.0073 75.5935 42.9127C79.0895 44.818 81.9381 47.5485 83.8297 50.8074C83.9141 50.9348 83.9686 51.0764 83.9899 51.2234C84.0112 51.3705 83.9988 51.5199 83.9535 51.6625C83.9082 51.805 83.8309 51.9378 83.7265 52.0526C83.622 52.1673 83.4926 52.2616 83.3461 52.3297L82.7415 52.4384Z" fill="#1F2348"/>
      <path d="M77.3003 53.4979C77.1018 53.4858 76.9096 53.4299 76.7409 53.3351C76.5721 53.2402 76.432 53.1094 76.333 52.9542C74.9472 51.1697 73.1015 49.7135 70.9538 48.7099C68.8061 47.7063 66.4202 47.1852 63.9999 47.1911C61.585 47.212 59.2097 47.7447 57.0668 48.7461C54.9238 49.7474 53.0738 51.1891 51.6667 52.9542C51.5808 53.077 51.4684 53.1831 51.3362 53.2662C51.2039 53.3493 51.0545 53.4078 50.8968 53.4382C50.739 53.4686 50.5761 53.4703 50.4176 53.4432C50.2591 53.4161 50.1083 53.3608 49.9739 53.2804C49.8374 53.2032 49.7195 53.102 49.627 52.9831C49.5346 52.8642 49.4696 52.7299 49.4358 52.588C49.402 52.4462 49.4001 52.2996 49.4302 52.1571C49.4603 52.0146 49.5219 51.8789 49.6112 51.7581C51.2262 49.672 53.3781 47.968 55.8834 46.7913C58.3888 45.6145 61.1734 45 63.9999 45C66.8263 45 69.6109 45.6145 72.1163 46.7913C74.6217 47.968 76.7735 49.672 78.3885 51.7581C78.4778 51.8789 78.5394 52.0146 78.5695 52.1571C78.5996 52.2996 78.5978 52.4462 78.5639 52.588C78.5301 52.7299 78.4651 52.8642 78.3727 52.9831C78.2803 53.102 78.1623 53.2032 78.0258 53.2804L77.3003 53.4979Z" fill="#1F2348"/>
      <path d="M55.5359 55.7339C55.3768 55.7384 55.2186 55.7116 55.0724 55.6552C54.9262 55.5989 54.7954 55.5144 54.6895 55.4077C54.4511 55.219 54.3048 54.9536 54.2821 54.6688C54.2595 54.384 54.3624 54.1025 54.5685 53.8853C55.7377 52.6662 57.1854 51.688 58.8129 51.0175C60.4404 50.3471 62.2096 50 63.9998 50C65.79 50 67.5591 50.3471 69.1866 51.0175C70.8142 51.688 72.2618 52.6662 73.431 53.8853C73.5504 53.985 73.6434 54.1074 73.7032 54.2437C73.763 54.3799 73.788 54.5265 73.7764 54.6726C73.7648 54.8187 73.7169 54.9606 73.6362 55.0878C73.5555 55.215 73.444 55.3243 73.3101 55.4077C73.0686 55.5931 72.7556 55.6856 72.4389 55.6653C72.1222 55.6449 71.8271 55.5133 71.6173 55.2989C70.6751 54.3111 69.5066 53.5182 68.1917 52.9747C66.8769 52.4311 65.4469 52.1496 63.9998 52.1496C62.5526 52.1496 61.1226 52.4311 59.8078 52.9747C58.493 53.5182 57.3244 54.3111 56.3822 55.2989C56.1585 55.5209 55.8621 55.6732 55.5359 55.7339Z" fill="#1F2348"/>
      <path d="M50.7415 68.4384C50.5246 68.4345 50.312 68.3829 50.1223 68.2882C49.9326 68.1934 49.7716 68.0583 49.6533 67.8947C47.9603 65.003 45.4212 62.5821 42.3101 60.8932C39.199 59.2044 35.634 58.3118 32 58.3118C28.366 58.3118 24.801 59.2044 21.6899 60.8932C18.5788 62.5821 16.0397 65.003 14.3467 67.8947C14.172 68.1403 13.9035 68.32 13.5918 68.4001C13.2801 68.4802 12.9465 68.4552 12.6539 68.3297C12.5074 68.2616 12.378 68.1673 12.2735 68.0526C12.1691 67.9378 12.0918 67.805 12.0465 67.6625C12.0012 67.5199 11.9888 67.3705 12.0101 67.2234C12.0314 67.0764 12.0859 66.9348 12.1703 66.8074C14.0619 63.5485 16.9105 60.818 20.4065 58.9127C23.9024 57.0073 27.9121 56 32 56C36.0879 56 40.0976 57.0073 43.5935 58.9127C47.0895 60.818 49.9381 63.5485 51.8297 66.8074C51.9141 66.9348 51.9686 67.0764 51.9899 67.2234C52.0112 67.3705 51.9988 67.5199 51.9535 67.6625C51.9082 67.805 51.8309 67.9378 51.7265 68.0526C51.622 68.1673 51.4926 68.2616 51.3461 68.3297L50.7415 68.4384Z" fill="#1F2348"/>
      <path d="M45.3003 69.4979C45.1018 69.4858 44.9096 69.4299 44.7409 69.3351C44.5721 69.2402 44.432 69.1094 44.333 68.9542C42.9472 67.1697 41.1015 65.7135 38.9538 64.7099C36.8061 63.7063 34.4202 63.1852 31.9999 63.1911C29.585 63.212 27.2097 63.7447 25.0668 64.7461C22.9238 65.7474 21.0738 67.1891 19.6667 68.9542C19.5808 69.077 19.4684 69.1831 19.3362 69.2662C19.2039 69.3493 19.0545 69.4078 18.8968 69.4382C18.739 69.4686 18.5761 69.4703 18.4176 69.4432C18.2591 69.4161 18.1083 69.3608 17.9739 69.2804C17.8374 69.2032 17.7195 69.102 17.627 68.9831C17.5346 68.8642 17.4696 68.7299 17.4358 68.588C17.402 68.4462 17.4001 68.2996 17.4302 68.1571C17.4603 68.0146 17.5219 67.8789 17.6112 67.7581C19.2262 65.672 21.3781 63.968 23.8834 62.7913C26.3888 61.6145 29.1734 61 31.9999 61C34.8263 61 37.6109 61.6145 40.1163 62.7913C42.6217 63.968 44.7735 65.672 46.3885 67.7581C46.4778 67.8789 46.5394 68.0146 46.5695 68.1571C46.5996 68.2996 46.5978 68.4462 46.5639 68.588C46.5301 68.7299 46.4651 68.8642 46.3727 68.9831C46.2803 69.102 46.1623 69.2032 46.0258 69.2804L45.3003 69.4979Z" fill="#1F2348"/>
      <path d="M18.7415 20.4384C18.5246 20.4345 18.312 20.3829 18.1223 20.2882C17.9326 20.1934 17.7716 20.0583 17.6533 19.8947C15.9603 17.003 13.4212 14.5821 10.3101 12.8932C7.19896 11.2044 3.63399 10.3118 2.45569e-06 10.3118C-3.63398 10.3118 -7.19895 11.2044 -10.3101 12.8932C-13.4212 14.5821 -15.9603 17.003 -17.6533 19.8947C-17.828 20.1403 -18.0965 20.32 -18.4082 20.4001C-18.7199 20.4802 -19.0535 20.4552 -19.3461 20.3297C-19.4926 20.2616 -19.622 20.1673 -19.7265 20.0526C-19.8309 19.9378 -19.9082 19.805 -19.9535 19.6625C-19.9988 19.5199 -20.0112 19.3705 -19.9899 19.2234C-19.9686 19.0764 -19.9141 18.9348 -19.8297 18.8074C-17.9381 15.5485 -15.0895 12.818 -11.5935 10.9127C-8.09757 9.00734 -4.08786 8 2.45569e-06 8C4.08787 8 8.09758 9.00734 11.5935 10.9127C15.0895 12.818 17.9381 15.5485 19.8297 18.8074C19.9141 18.9348 19.9686 19.0764 19.9899 19.2234C20.0112 19.3705 19.9988 19.5199 19.9535 19.6625C19.9082 19.805 19.8309 19.9378 19.7265 20.0526C19.622 20.1673 19.4926 20.2616 19.3461 20.3297L18.7415 20.4384Z" fill="#1F2348"/>
      <path d="M13.3003 21.4979C13.1018 21.4858 12.9096 21.4299 12.7409 21.3351C12.5721 21.2402 12.432 21.1094 12.333 20.9542C10.9472 19.1697 9.10155 17.7135 6.95384 16.7099C4.80614 15.7063 2.42019 15.1852 -0.000138842 15.1911C-2.41497 15.212 -4.79031 15.7447 -6.93323 16.7461C-9.07615 17.7474 -10.9262 19.1891 -12.3333 20.9542C-12.4192 21.077 -12.5316 21.1831 -12.6638 21.2662C-12.7961 21.3493 -12.9455 21.4078 -13.1032 21.4382C-13.261 21.4686 -13.4239 21.4703 -13.5824 21.4432C-13.7409 21.4161 -13.8917 21.3608 -14.0261 21.2804C-14.1626 21.2032 -14.2805 21.102 -14.373 20.9831C-14.4654 20.8642 -14.5304 20.7299 -14.5642 20.588C-14.598 20.4462 -14.5999 20.2996 -14.5698 20.1571C-14.5397 20.0146 -14.4781 19.8789 -14.3888 19.7581C-12.7738 17.672 -10.6219 15.968 -8.11658 14.7913C-5.61121 13.6145 -2.82662 13 -0.000138842 13C2.82635 13 5.61093 13.6145 8.11629 14.7913C10.6217 15.968 12.7735 17.672 14.3885 19.7581C14.4778 19.8789 14.5394 20.0146 14.5695 20.1571C14.5996 20.2996 14.5978 20.4462 14.5639 20.588C14.5301 20.7299 14.4651 20.8642 14.3727 20.9831C14.2803 21.102 14.1623 21.2032 14.0258 21.2804L13.3003 21.4979Z" fill="#1F2348"/>
      <path d="M-8.46415 23.7339C-8.62317 23.7384 -8.78137 23.7116 -8.9276 23.6552C-9.07384 23.5989 -9.20455 23.5144 -9.31054 23.4077C-9.54894 23.219 -9.69525 22.9536 -9.71787 22.6688C-9.7405 22.384 -9.63762 22.1025 -9.43146 21.8853C-8.26231 20.6662 -6.81463 19.688 -5.1871 19.0175C-3.55956 18.3471 -1.79042 18 -0.000231676 18C1.78995 18 3.5591 18.3471 5.18663 19.0175C6.81417 19.688 8.26184 20.6662 9.43099 21.8853C9.5504 21.985 9.64343 22.1074 9.70322 22.2437C9.763 22.3799 9.78801 22.5265 9.7764 22.6726C9.7648 22.8187 9.71687 22.9606 9.63616 23.0878C9.55545 23.215 9.44402 23.3243 9.31007 23.4077C9.06856 23.5931 8.75564 23.6856 8.43891 23.6653C8.12217 23.6449 7.82705 23.5133 7.61729 23.2989C6.67514 22.3111 5.50658 21.5182 4.19175 20.9747C2.87691 20.4311 1.4469 20.1496 -0.000231676 20.1496C-1.44736 20.1496 -2.87737 20.4311 -4.19221 20.9747C-5.50705 21.5182 -6.67561 22.3111 -7.61776 23.2989C-7.84151 23.5209 -8.13789 23.6732 -8.46415 23.7339Z" fill="#1F2348"/>
      <path d="M18.7415 52.4384C18.5246 52.4345 18.312 52.3829 18.1223 52.2882C17.9326 52.1934 17.7716 52.0583 17.6533 51.8947C15.9603 49.003 13.4212 46.5821 10.3101 44.8932C7.19896 43.2044 3.63399 42.3118 2.45569e-06 42.3118C-3.63398 42.3118 -7.19895 43.2044 -10.3101 44.8932C-13.4212 46.5821 -15.9603 49.003 -17.6533 51.8947C-17.828 52.1403 -18.0965 52.32 -18.4082 52.4001C-18.7199 52.4802 -19.0535 52.4552 -19.3461 52.3297C-19.4926 52.2616 -19.622 52.1673 -19.7265 52.0526C-19.8309 51.9378 -19.9082 51.805 -19.9535 51.6625C-19.9988 51.5199 -20.0112 51.3705 -19.9899 51.2234C-19.9686 51.0764 -19.9141 50.9348 -19.8297 50.8074C-17.9381 47.5485 -15.0895 44.818 -11.5935 42.9127C-8.09757 41.0073 -4.08786 40 2.45569e-06 40C4.08787 40 8.09758 41.0073 11.5935 42.9127C15.0895 44.818 17.9381 47.5485 19.8297 50.8074C19.9141 50.9348 19.9686 51.0764 19.9899 51.2234C20.0112 51.3705 19.9988 51.5199 19.9535 51.6625C19.9082 51.805 19.8309 51.9378 19.7265 52.0526C19.622 52.1673 19.4926 52.2616 19.3461 52.3297L18.7415 52.4384Z" fill="#1F2348"/>
      <path d="M13.3003 53.4979C13.1018 53.4858 12.9096 53.4299 12.7409 53.3351C12.5721 53.2402 12.432 53.1094 12.333 52.9542C10.9472 51.1697 9.10155 49.7135 6.95384 48.7099C4.80614 47.7063 2.42019 47.1852 -0.000138842 47.1911C-2.41497 47.212 -4.79031 47.7447 -6.93323 48.7461C-9.07615 49.7474 -10.9262 51.1891 -12.3333 52.9542C-12.4192 53.077 -12.5316 53.1831 -12.6638 53.2662C-12.7961 53.3493 -12.9455 53.4078 -13.1032 53.4382C-13.261 53.4686 -13.4239 53.4703 -13.5824 53.4432C-13.7409 53.4161 -13.8917 53.3608 -14.0261 53.2804C-14.1626 53.2032 -14.2805 53.102 -14.373 52.9831C-14.4654 52.8642 -14.5304 52.7299 -14.5642 52.588C-14.598 52.4462 -14.5999 52.2996 -14.5698 52.1571C-14.5397 52.0146 -14.4781 51.8789 -14.3888 51.7581C-12.7738 49.672 -10.6219 47.968 -8.11658 46.7913C-5.61121 45.6145 -2.82662 45 -0.000138842 45C2.82635 45 5.61093 45.6145 8.11629 46.7913C10.6217 47.968 12.7735 49.672 14.3885 51.7581C14.4778 51.8789 14.5394 52.0146 14.5695 52.1571C14.5996 52.2996 14.5978 52.4462 14.5639 52.588C14.5301 52.7299 14.4651 52.8642 14.3727 52.9831C14.2803 53.102 14.1623 53.2032 14.0258 53.2804L13.3003 53.4979Z" fill="#1F2348"/>
      <path d="M-8.46415 55.7339C-8.62317 55.7384 -8.78137 55.7116 -8.9276 55.6552C-9.07384 55.5989 -9.20455 55.5144 -9.31054 55.4077C-9.54894 55.219 -9.69525 54.9536 -9.71787 54.6688C-9.7405 54.384 -9.63762 54.1025 -9.43146 53.8853C-8.26231 52.6662 -6.81463 51.688 -5.1871 51.0175C-3.55956 50.3471 -1.79042 50 -0.000231676 50C1.78995 50 3.5591 50.3471 5.18663 51.0175C6.81417 51.688 8.26184 52.6662 9.43099 53.8853C9.5504 53.985 9.64343 54.1074 9.70322 54.2437C9.763 54.3799 9.78801 54.5265 9.7764 54.6726C9.7648 54.8187 9.71687 54.9606 9.63616 55.0878C9.55545 55.215 9.44402 55.3243 9.31007 55.4077C9.06856 55.5931 8.75564 55.6856 8.43891 55.6653C8.12217 55.6449 7.82705 55.5133 7.61729 55.2989C6.67514 54.3111 5.50658 53.5182 4.19175 52.9747C2.87691 52.4311 1.4469 52.1496 -0.000231676 52.1496C-1.44736 52.1496 -2.87737 52.4311 -4.19221 52.9747C-5.50705 53.5182 -6.67561 54.3111 -7.61776 55.2989C-7.84151 55.5209 -8.13789 55.6732 -8.46415 55.7339Z" fill="#1F2348"/>
    </pattern>

    <!-- Lantern Gradients -->
    <radialGradient id="paint0_radial" cx="0" cy="0" r="1" gradientUnits="userSpaceOnUse" gradientTransform="translate(422.5 317.011) rotate(180) scale(4 317)">
      <stop stop-color="#EC991C"/>
      <stop offset="1" stop-color="#E9B213"/>
    </radialGradient>
    <radialGradient id="paint1_radial" cx="0" cy="0" r="1" gradientUnits="userSpaceOnUse" gradientTransform="translate(407.598 306.722) scale(25.017 12.8635)">
      <stop stop-color="#EC991C"/>
      <stop offset="1" stop-color="#E9B213"/>
    </radialGradient>
    <radialGradient id="paint2_radial" cx="0" cy="0" r="1" gradientUnits="userSpaceOnUse" gradientTransform="translate(407.598 306.722) scale(25.017 12.8635)">
      <stop stop-color="#EC991C"/>
      <stop offset="1" stop-color="#E9B213"/>
    </radialGradient>
    <radialGradient id="paint3_radial" cx="0" cy="0" r="1" gradientUnits="userSpaceOnUse" gradientTransform="translate(407.598 306.722) scale(25.017 12.8635)">
      <stop stop-color="#EC991C"/>
      <stop offset="1" stop-color="#E9B213"/>
    </radialGradient>
    <radialGradient id="paint4_radial" cx="0" cy="0" r="1" gradientUnits="userSpaceOnUse" gradientTransform="translate(396.611 313.839) scale(47.1605 24.1719)">
      <stop stop-color="#EC991C"/>
      <stop offset="1" stop-color="#E9B213"/>
    </radialGradient>
    <radialGradient id="paint5_radial" cx="0" cy="0" r="1" gradientUnits="userSpaceOnUse" gradientTransform="translate(396.611 313.839) scale(47.1605 24.1719)">
      <stop stop-color="#EC991C"/>
      <stop offset="1" stop-color="#E9B213"/>
    </radialGradient>
    <radialGradient id="paint6_radial" cx="0" cy="0" r="1" gradientUnits="userSpaceOnUse" gradientTransform="translate(396.611 500.96) scale(47.1605 24.1719)">
      <stop stop-color="#EC991C"/>
      <stop offset="1" stop-color="#E9B213"/>
    </radialGradient>
    <radialGradient id="paint7_radial" cx="0" cy="0" r="1" gradientUnits="userSpaceOnUse" gradientTransform="translate(396.611 313.839) scale(47.1605 24.1719)">
      <stop stop-color="#EC991C"/>
      <stop offset="1" stop-color="#E9B213"/>
    </radialGradient>
    <radialGradient id="paint8_radial" cx="0" cy="0" r="1" gradientUnits="userSpaceOnUse" gradientTransform="translate(546.711 504.166) rotate(180) scale(253.213 171.908)">
      <stop stop-color="#EC991C"/>
      <stop offset="1" stop-color="#E9B213"/>
    </radialGradient>
    <radialGradient id="paint9_radial" cx="0" cy="0" r="1" gradientUnits="userSpaceOnUse" gradientTransform="translate(396.611 500.96) scale(47.1605 24.1719)">
      <stop stop-color="#EC991C"/>
      <stop offset="1" stop-color="#E9B213"/>
    </radialGradient>
    <radialGradient id="paint10_radial" cx="0" cy="0" r="1" gradientUnits="userSpaceOnUse" gradientTransform="translate(1326.5 167.005) rotate(180) scale(3 167)">
      <stop stop-color="#EC991C"/>
      <stop offset="1" stop-color="#E9B213"/>
    </radialGradient>
    <radialGradient id="paint11_radial" cx="0" cy="0" r="1" gradientUnits="userSpaceOnUse" gradientTransform="translate(1315.47 158.893) scale(19.0681 9.8046)">
      <stop stop-color="#EC991C"/>
      <stop offset="1" stop-color="#E9B213"/>
    </radialGradient>
    <radialGradient id="paint12_radial" cx="0" cy="0" r="1" gradientUnits="userSpaceOnUse" gradientTransform="translate(1315.47 158.893) scale(19.0681 9.8046)">
      <stop stop-color="#EC991C"/>
      <stop offset="1" stop-color="#E9B213"/>
    </radialGradient>
    <radialGradient id="paint13_radial" cx="0" cy="0" r="1" gradientUnits="userSpaceOnUse" gradientTransform="translate(1307.09 164.312) scale(35.946 18.4239)">
      <stop stop-color="#EC991C"/>
      <stop offset="1" stop-color="#E9B213"/>
    </radialGradient>
    <radialGradient id="paint14_radial" cx="0" cy="0" r="1" gradientUnits="userSpaceOnUse" gradientTransform="translate(1421.5 309.372) rotate(180) scale(193 131.029)">
      <stop stop-color="#EC991C"/>
      <stop offset="1" stop-color="#E9B213"/>
    </radialGradient>
    <radialGradient id="paint15_radial" cx="0" cy="0" r="1" gradientUnits="userSpaceOnUse" gradientTransform="translate(1307.09 306.936) scale(35.946 18.4239)">
      <stop stop-color="#EC991C"/>
      <stop offset="1" stop-color="#E9B213"/>
    </radialGradient>
    <radialGradient id="paint16_radial" cx="0" cy="0" r="1" gradientUnits="userSpaceOnUse" gradientTransform="translate(1307.09 306.936) scale(35.946 18.4239)">
      <stop stop-color="#EC991C"/>
      <stop offset="1" stop-color="#E9B213"/>
    </radialGradient>
    <radialGradient id="paint17_radial" cx="0" cy="0" r="1" gradientUnits="userSpaceOnUse" gradientTransform="translate(1204.5 557.009) rotate(180) scale(3 557)">
      <stop stop-color="#EC991C"/>
      <stop offset="1" stop-color="#E9B213"/>
    </radialGradient>
    <radialGradient id="paint18_radial" cx="0" cy="0" r="1" gradientUnits="userSpaceOnUse" gradientTransform="translate(1192.38 547.807) scale(21.2415 10.9222)">
      <stop stop-color="#EC991C"/>
      <stop offset="1" stop-color="#E9B213"/>
    </radialGradient>
    <radialGradient id="paint19_radial" cx="0" cy="0" r="1" gradientUnits="userSpaceOnUse" gradientTransform="translate(1192.38 547.807) scale(21.2415 10.9222)">
      <stop stop-color="#EC991C"/>
      <stop offset="1" stop-color="#E9B213"/>
    </radialGradient>
    <radialGradient id="paint20_radial" cx="0" cy="0" r="1" gradientUnits="userSpaceOnUse" gradientTransform="translate(1183.05 712.731) scale(40.0434 20.524)">
      <stop stop-color="#EC991C"/>
      <stop offset="1" stop-color="#E9B213"/>
    </radialGradient>
    <radialGradient id="paint21_radial" cx="0" cy="0" r="1" gradientUnits="userSpaceOnUse" gradientTransform="translate(1310.49 715.462) rotate(180) scale(215 145.965)">
      <stop stop-color="#EC991C"/>
      <stop offset="1" stop-color="#E9B213"/>
    </radialGradient>
    <radialGradient id="paint22_radial" cx="0" cy="0" r="1" gradientUnits="userSpaceOnUse" gradientTransform="translate(1183.05 553.848) scale(40.0434 20.524)">
      <stop stop-color="#EC991C"/>
      <stop offset="1" stop-color="#E9B213"/>
    </radialGradient>
    <radialGradient id="paint23_radial" cx="0" cy="0" r="1" gradientUnits="userSpaceOnUse" gradientTransform="translate(1183.05 712.731) scale(40.0434 20.524)">
      <stop stop-color="#EC991C"/>
      <stop offset="1" stop-color="#E9B213"/>
    </radialGradient>
    <radialGradient id="paint24_radial" cx="0" cy="0" r="1" gradientUnits="userSpaceOnUse" gradientTransform="translate(1138.3 537.704) rotate(153.46) scale(16.0201)">
      <stop stop-color="#EC991C"/>
      <stop offset="1" stop-color="#E9B213"/>
    </radialGradient>
    <radialGradient id="paint25_radial" cx="0" cy="0" r="1" gradientUnits="userSpaceOnUse" gradientTransform="translate(1156.43 567.549) rotate(153.46) scale(42.4767)">
      <stop stop-color="#EC991C"/>
      <stop offset="1" stop-color="#E9B213"/>
    </radialGradient>
    <radialGradient id="paint26_radial" cx="0" cy="0" r="1" gradientUnits="userSpaceOnUse" gradientTransform="translate(1161.27 575.709) rotate(153.46) scale(19.7653 11.5494)">
      <stop stop-color="#EC991C"/>
      <stop offset="1" stop-color="#E9B213"/>
    </radialGradient>
    <radialGradient id="paint27_radial" cx="0" cy="0" r="1" gradientUnits="userSpaceOnUse" gradientTransform="translate(1142.48 585.052) rotate(153.46) scale(17.8265 12.5256)">
      <stop stop-color="#EC991C"/>
      <stop offset="1" stop-color="#E9B213"/>
    </radialGradient>
  </defs>
  <!-- Background -->
  <rect width="1679" height="1080" fill="url(#background_gradient)"/>
  <rect width="1679" height="1080" fill="url(#background_pattern)" opacity="0.1" />
  
  <!-- Lanterns -->
  <g opacity="0.5">
    <path opacity="0.5" d="M422.5 0H418.5V317H422.5V0Z" fill="url(#paint0_radial)"/>
    <path opacity="0.5" d="M429.4 319.1H410.8C409.3 319.1 408.1 317.9 408.1 316.4V310C408.1 308.5 409.3 307.3 410.8 307.3H429.4C430.9 307.3 432.1 308.5 432.1 310V316.4C432.1 317.9 430.9 319.1 429.4 319.1Z" fill="url(#paint1_radial)" stroke="url(#paint2_radial)"/>
    <path opacity="0.5" d="M441.7 599.7C441.9 599.7 442.1 599.6 442.2 599.5C442.3 599.4 442.4 599.2 442.4 599V518.9C442.4 518.6 442.1 518.4 441.7 518.4C441.6 518.4 441.4 518.5 441.3 518.5C441.2 518.6 441.2 518.7 441.2 518.9V599C441.2 599.3 441.4 599.7 441.7 599.7Z" fill="#DF6F26"/>
    <path opacity="0.5" d="M439.4 608.5C439.5 608.5 439.7 608.4 439.8 608.4C439.9 608.3 439.9 608.2 439.9 608V520.4C439.9 520.1 439.7 519.7 439.4 519.7C439.2 519.7 439 519.8 438.9 519.9C438.8 520 438.7 520.2 438.7 520.4V608C438.7 608.3 439 608.5 439.4 608.5Z" fill="#DF6F26"/>
    <path opacity="0.5" d="M437 604.2C437.2 604.2 437.4 604.1 437.5 604C437.6 603.9 437.7 603.7 437.7 603.5V520.3C437.7 520.1 437.6 519.9 437.5 519.8C437.4 519.7 437.2 519.6 437 519.6C436.7 519.6 436.5 519.9 436.5 520.3V603.5C436.5 603.9 436.7 604.2 437 604.2Z" fill="#DF6F26"/>
    <path opacity="0.5" d="M434.8 601C434.9 601 435.1 600.9 435.2 600.9C435.3 600.8 435.3 600.7 435.3 600.5V520.4C435.3 520.1 435.1 519.7 434.8 519.7C434.6 519.7 434.4 519.8 434.3 519.9C434.2 520 434.1 520.2 434.1 520.4V600.5C434.1 600.9 434.5 601 434.8 601Z" fill="#DF6F26"/>
    <path opacity="0.5" d="M432.6 605.1C432.7 605.1 432.9 605 433 605C433.1 604.9 433.1 604.8 433.1 604.6V520.4C433.1 520.1 432.9 519.7 432.6 519.7C432.4 519.7 432.2 519.8 432.1 519.9C432 520 431.9 520.2 431.9 520.4V604.6C431.9 604.9 432.3 605.1 432.6 605.1Z" fill="#DF6F26"/>
    <path opacity="0.5" d="M430.2 601C430.5 601 430.9 600.8 430.9 600.5V520.4C430.9 520.2 430.8 520 430.7 519.9C430.6 519.8 430.4 519.7 430.2 519.7C429.9 519.7 429.7 520 429.7 520.4V600.5C429.7 600.6 429.8 600.8 429.8 600.9C430 601 430.1 601 430.2 601Z" fill="#DF6F26"/>
    <path opacity="0.5" d="M428.1 610.2C428.4 610.2 428.6 609.9 428.6 609.5V520.4C428.6 520.1 428.4 519.7 428.1 519.7C427.9 519.7 427.7 519.8 427.6 519.9C427.5 520 427.4 520.2 427.4 520.4V609.5C427.4 609.7 427.5 609.9 427.6 610C427.7 610.1 427.9 610.2 428.1 610.2Z" fill="#DF6F26"/>
    <path opacity="0.5" d="M425.7 606.1C425.9 606.1 426.1 606 426.2 605.9C426.3 605.8 426.4 605.6 426.4 605.4V520.4C426.4 520.2 426.3 520 426.2 519.9C426.1 519.8 425.9 519.7 425.7 519.7C425.4 519.7 425.2 520 425.2 520.4V605.4C425.2 605.8 425.3 606.1 425.7 606.1Z" fill="#DF6F26"/>
    <path opacity="0.5" d="M423.5 604.2C423.7 604.2 423.9 604.1 424 604C424.1 603.9 424.2 603.7 424.2 603.5V520.3C424.2 520.1 424.1 519.9 424 519.8C423.9 519.7 423.7 519.6 423.5 519.6C423.3 519.6 423.1 519.7 423 519.8C422.9 519.9 422.8 520.1 422.8 520.3V603.5C422.8 603.7 422.9 603.9 423 604C423.1 604.2 423.3 604.2 423.5 604.2Z" fill="#DF6F26"/>
    <path opacity="0.5" d="M421.3 601C421.4 601 421.6 600.9 421.7 600.9C421.8 600.8 421.8 600.7 421.8 600.5V520.4C421.8 520.1 421.6 519.7 421.3 519.7C421.1 519.7 420.9 519.8 420.8 519.9C420.7 520 420.6 520.2 420.6 520.4V600.5C420.6 600.9 421 601 421.3 601Z" fill="#DF6F26"/>
    <path opacity="0.5" d="M418.9 607.6C419.1 607.6 419.3 607.5 419.4 607.4C419.5 607.3 419.6 607.1 419.6 606.9V520.4C419.6 520.2 419.5 520 419.4 519.9C419.3 519.8 419.1 519.7 418.9 519.7C418.6 519.7 418.4 520 418.4 520.4V606.9C418.4 607.3 418.6 607.6 418.9 607.6Z" fill="#DF6F26"/>
    <path opacity="0.5" d="M416.7 605.1C416.8 605.1 417 605 417.1 605C417.2 604.9 417.2 604.8 417.2 604.6V520.4C417.2 520.1 417 519.7 416.7 519.7C416.5 519.7 416.3 519.8 416.2 519.9C416.1 520 416 520.2 416 520.4V604.6C416 604.9 416.4 605.1 416.7 605.1Z" fill="#DF6F26"/>
    <path opacity="0.5" d="M414.5 601C414.6 601 414.8 600.9 414.9 600.9C415 600.8 415 600.7 415 600.5V520.4C415 520.1 414.8 519.7 414.5 519.7C414.3 519.7 414.1 519.8 414 519.9C413.9 520 413.8 520.2 413.8 520.4V600.5C413.9 600.9 414.2 601 414.5 601Z" fill="#DF6F26"/>
    <path opacity="0.5" d="M412.2 611C412.5 611 412.9 610.8 412.9 610.5V520.4C412.9 520.2 412.8 520 412.7 519.9C412.6 519.8 412.4 519.7 412.2 519.7C411.9 519.7 411.7 520 411.7 520.4V610.5C411.7 610.6 411.8 610.8 411.8 610.9C411.9 610.9 412 611 412.2 611Z" fill="#DF6F26"/>
    <path opacity="0.5" d="M410 606.1C410.3 606.1 410.5 605.8 410.5 605.4V520.4C410.5 520.1 410.3 519.7 410 519.7C409.8 519.7 409.6 519.8 409.5 519.9C409.4 520 409.3 520.2 409.3 520.4V605.4C409.3 605.6 409.4 605.8 409.5 605.9C409.6 606 409.8 606.1 410 606.1Z" fill="#DF6F26"/>
    <path opacity="0.5" d="M407.6 601C407.9 601 408.3 600.8 408.3 600.5V520.4C408.3 520.2 408.2 520 408.1 519.9C408 519.8 407.8 519.7 407.6 519.7C407.3 519.7 407.1 520 407.1 520.4V600.5C407.1 600.6 407.2 600.8 407.2 600.9C407.3 601 407.5 601 407.6 601Z" fill="#DF6F26"/>
    <path opacity="0.5" d="M405.4 607.6C405.6 607.6 405.8 607.5 405.9 607.4C406 607.3 406.1 607.1 406.1 606.9V520.4C406.1 520.2 406 520 405.9 519.9C405.8 519.8 405.6 519.7 405.4 519.7C405.1 519.7 404.9 520 404.9 520.4V606.9C404.9 607.3 405.1 607.6 405.4 607.6Z" fill="#DF6F26"/>
    <g opacity="0.5">
    <path opacity="0.5" d="M429.4 319.1H410.8C409.3 319.1 408.1 317.9 408.1 316.4V310C408.1 308.5 409.3 307.3 410.8 307.3H429.4C430.9 307.3 432.1 308.5 432.1 310V316.4C432.1 317.9 430.9 319.1 429.4 319.1Z" stroke="url(#paint3_radial)"/>
    </g>
    <path opacity="0.5" d="M403.2 604.2C403.5 604.2 403.7 603.9 403.7 603.5V520.3C403.7 520 403.5 519.6 403.2 519.6C403 519.6 402.8 519.7 402.7 519.8C402.6 519.9 402.5 520.1 402.5 520.3V603.5C402.5 603.7 402.6 603.9 402.7 604C402.9 604.2 403 604.2 403.2 604.2Z" fill="#DF6F26"/>
    <path opacity="0.5" d="M400.8 601C401.1 601 401.5 600.8 401.5 600.5V520.4C401.5 520.2 401.4 520 401.3 519.9C401.2 519.8 401 519.7 400.8 519.7C400.5 519.7 400.3 520 400.3 520.4V600.5C400.3 600.6 400.4 600.8 400.4 600.9C400.6 601 400.7 601 400.8 601Z" fill="#DF6F26"/>
    <path opacity="0.5" d="M437.9 337.5H402.6C401.2 337.5 399.8 336.9 398.8 335.9C397.8 334.9 397.2 333.5 397.2 332.1V319.9C397.2 318.4 397.8 317 398.8 316C399.8 315 401.3 314.4 402.7 314.4H437.7C439.2 314.4 440.6 315 441.6 316C442.6 317 443.2 318.5 443.2 319.9V332.1C443.2 333.5 442.6 334.9 441.6 335.9C440.7 336.9 439.3 337.5 437.9 337.5Z" fill="url(#paint4_radial)" stroke="url(#paint5_radial)"/>
    <path opacity="0.5" d="M398.6 599.3C398.8 599.3 399 599.2 399.1 599.1C399.2 599 399.3 598.8 399.3 598.6V518.5C399.3 518.3 399.2 518.1 399.1 518C399 517.9 398.8 517.8 398.6 517.8C398.4 517.8 398.2 517.9 398.1 518C398 518.1 397.9 518.3 397.9 518.5V598.6C397.9 598.8 398 599 398.1 599.1C398.3 599.3 398.5 599.3 398.6 599.3Z" fill="#DF6F26"/>
    <path opacity="0.5" d="M437.9 525.1H402.6C401 525.1 399.5 524.5 398.4 523.4C397.3 522.3 396.7 520.8 396.7 519.2V507C396.7 505.4 397.3 503.8 398.5 502.7C399.6 501.6 401.2 500.9 402.8 500.9H437.8C439.4 500.9 441 501.5 442.1 502.7C443.2 503.8 443.9 505.4 443.9 507V519.2C443.9 520.8 443.3 522.3 442.2 523.4C440.9 524.5 439.4 525.1 437.9 525.1Z" fill="url(#paint6_radial)"/>
    <path opacity="0.5" d="M293.5 418.3C293.5 465.6 350.3 504.2 420.1 504.2C489.9 504.2 546.7 465.7 546.7 418.3C546.7 371 489.9 332.3 420.1 332.3C350.3 332.3 293.5 370.8 293.5 418.3Z" fill="#D94432"/>
    <path opacity="0.5" d="M441.7 599.7C441.9 599.7 442.1 599.6 442.2 599.5C442.3 599.4 442.4 599.2 442.4 599V518.9C442.4 518.6 442.1 518.4 441.7 518.4C441.6 518.4 441.4 518.5 441.3 518.5C441.2 518.6 441.2 518.7 441.2 518.9V599C441.2 599.3 441.4 599.7 441.7 599.7Z" fill="#DF6F26"/>
    <path opacity="0.5" d="M439.4 608.5C439.5 608.5 439.7 608.4 439.8 608.4C439.9 608.3 439.9 608.2 439.9 608V520.4C439.9 520.1 439.7 519.7 439.4 519.7C439.2 519.7 439 519.8 438.9 519.9C438.8 520 438.7 520.2 438.7 520.4V608C438.7 608.3 439 608.5 439.4 608.5Z" fill="#DF6F26"/>
    <path opacity="0.5" d="M437 604.2C437.2 604.2 437.4 604.1 437.5 604C437.6 603.9 437.7 603.7 437.7 603.5V520.3C437.7 520.1 437.6 519.9 437.5 519.8C437.4 519.7 437.2 519.6 437 519.6C436.7 519.6 436.5 519.9 436.5 520.3V603.5C436.5 603.9 436.7 604.2 437 604.2Z" fill="#DF6F26"/>
    <path opacity="0.5" d="M434.8 601C434.9 601 435.1 600.9 435.2 600.9C435.3 600.8 435.3 600.7 435.3 600.5V520.4C435.3 520.1 435.1 519.7 434.8 519.7C434.6 519.7 434.4 519.8 434.3 519.9C434.2 520 434.1 520.2 434.1 520.4V600.5C434.1 600.9 434.5 601 434.8 601Z" fill="#DF6F26"/>
    <path opacity="0.5" d="M432.6 605.1C432.7 605.1 432.9 605 433 605C433.1 604.9 433.1 604.8 433.1 604.6V520.4C433.1 520.1 432.9 519.7 432.6 519.7C432.4 519.7 432.2 519.8 432.1 519.9C432 520 431.9 520.2 431.9 520.4V604.6C431.9 604.9 432.3 605.1 432.6 605.1Z" fill="#DF6F26"/>
    <path opacity="0.5" d="M430.2 601C430.5 601 430.9 600.8 430.9 600.5V520.4C430.9 520.2 430.8 520 430.7 519.9C430.6 519.8 430.4 519.7 430.2 519.7C429.9 519.7 429.7 520 429.7 520.4V600.5C429.7 600.6 429.8 600.8 429.8 600.9C430 601 430.1 601 430.2 601Z" fill="#DF6F26"/>
    <path opacity="0.5" d="M428.1 610.2C428.4 610.2 428.6 609.9 428.6 609.5V520.4C428.6 520.1 428.4 519.7 428.1 519.7C427.9 519.7 427.7 519.8 427.6 519.9C427.5 520 427.4 520.2 427.4 520.4V609.5C427.4 609.7 427.5 609.9 427.6 610C427.7 610.1 427.9 610.2 428.1 610.2Z" fill="#DF6F26"/>
    <path opacity="0.5" d="M425.7 606.1C425.9 606.1 426.1 606 426.2 605.9C426.3 605.8 426.4 605.6 426.4 605.4V520.4C426.4 520.2 426.3 520 426.2 519.9C426.1 519.8 425.9 519.7 425.7 519.7C425.4 519.7 425.2 520 425.2 520.4V605.4C425.2 605.8 425.3 606.1 425.7 606.1Z" fill="#DF6F26"/>
    <path opacity="0.5" d="M423.5 604.2C423.7 604.2 423.9 604.1 424 604C424.1 603.9 424.2 603.7 424.2 603.5V520.3C424.2 520.1 424.1 519.9 424 519.8C423.9 519.7 423.7 519.6 423.5 519.6C423.3 519.6 423.1 519.7 423 519.8C422.9 519.9 422.8 520.1 422.8 520.3V603.5C422.8 603.7 422.9 603.9 423 604C423.1 604.2 423.3 604.2 423.5 604.2Z" fill="#DF6F26"/>
    <path opacity="0.5" d="M421.3 601C421.4 601 421.6 600.9 421.7 600.9C421.8 600.8 421.8 600.7 421.8 600.5V520.4C421.8 520.1 421.6 519.7 421.3 519.7C421.1 519.7 420.9 519.8 420.8 519.9C420.7 520 420.6 520.2 420.6 520.4V600.5C420.6 600.9 421 601 421.3 601Z" fill="#DF6F26"/>
    <path opacity="0.5" d="M418.9 607.6C419.1 607.6 419.3 607.5 419.4 607.4C419.5 607.3 419.6 607.1 419.6 606.9V520.4C419.6 520.2 419.5 520 419.4 519.9C419.3 519.8 419.1 519.7 418.9 519.7C418.6 519.7 418.4 520 418.4 520.4V606.9C418.4 607.3 418.6 607.6 418.9 607.6Z" fill="#DF6F26"/>
    <path opacity="0.5" d="M416.7 605.1C416.8 605.1 417 605 417.1 605C417.2 604.9 417.2 604.8 417.2 604.6V520.4C417.2 520.1 417 519.7 416.7 519.7C416.5 519.7 416.3 519.8 416.2 519.9C416.1 520 416 520.2 416 520.4V604.6C416 604.9 416.4 605.1 416.7 605.1Z" fill="#DF6F26"/>
    <path opacity="0.5" d="M414.5 601C414.6 601 414.8 600.9 414.9 600.9C415 600.8 415 600.7 415 600.5V520.4C415 520.1 414.8 519.7 414.5 519.7C414.3 519.7 414.1 519.8 414 519.9C413.9 520 413.8 520.2 413.8 520.4V600.5C413.9 600.9 414.2 601 414.5 601Z" fill="#DF6F26"/>
    <path opacity="0.5" d="M412.2 611C412.5 611 412.9 610.8 412.9 610.5V520.4C412.9 520.2 412.8 520 412.7 519.9C412.6 519.8 412.4 519.7 412.2 519.7C411.9 519.7 411.7 520 411.7 520.4V610.5C411.7 610.6 411.8 610.8 411.8 610.9C411.9 610.9 412 611 412.2 611Z" fill="#DF6F26"/>
    <path opacity="0.5" d="M410 606.1C410.3 606.1 410.5 605.8 410.5 605.4V520.4C410.5 520.1 410.3 519.7 410 519.7C409.8 519.7 409.6 519.8 409.5 519.9C409.4 520 409.3 520.2 409.3 520.4V605.4C409.3 605.6 409.4 605.8 409.5 605.9C409.6 606 409.8 606.1 410 606.1Z" fill="#DF6F26"/>
    <path opacity="0.5" d="M407.6 601C407.9 601 408.3 600.8 408.3 600.5V520.4C408.3 520.2 408.2 520 408.1 519.9C408 519.8 407.8 519.7 407.6 519.7C407.3 519.7 407.1 520 407.1 520.4V600.5C407.1 600.6 407.2 600.8 407.2 600.9C407.3 601 407.5 601 407.6 601Z" fill="#DF6F26"/>
    <path opacity="0.5" d="M405.4 607.6C405.6 607.6 405.8 607.5 405.9 607.4C406 607.3 406.1 607.1 406.1 606.9V520.4C406.1 520.2 406 520 405.9 519.9C405.8 519.8 405.6 519.7 405.4 519.7C405.1 519.7 404.9 520 404.9 520.4V606.9C404.9 607.3 405.1 607.6 405.4 607.6Z" fill="#DF6F26"/>
    <path opacity="0.5" d="M403.2 604.2C403.5 604.2 403.7 603.9 403.7 603.5V520.3C403.7 520 403.5 519.6 403.2 519.6C403 519.6 402.8 519.7 402.7 519.8C402.6 519.9 402.5 520.1 402.5 520.3V603.5C402.5 603.7 402.6 603.9 402.7 604C402.9 604.2 403 604.2 403.2 604.2Z" fill="#DF6F26"/>
    <g opacity="0.5">
    <path opacity="0.5" d="M437.9 337.5H402.6C401.2 337.5 399.8 336.9 398.8 335.9C397.8 334.9 397.2 333.5 397.2 332.1V319.9C397.2 318.4 397.8 317 398.8 316C399.8 315 401.3 314.4 402.7 314.4H437.7C439.2 314.4 440.6 315 441.6 316C442.6 317 443.2 318.5 443.2 319.9V332.1C443.2 333.5 442.6 334.9 441.6 335.9C440.7 336.9 439.3 337.5 437.9 337.5Z" stroke="url(#paint7_radial)"/>
    </g>
    <path opacity="0.5" d="M400.8 601C401.1 601 401.5 600.8 401.5 600.5V520.4C401.5 520.2 401.4 520 401.3 519.9C401.2 519.8 401 519.7 400.8 519.7C400.5 519.7 400.3 520 400.3 520.4V600.5C400.3 600.6 400.4 600.8 400.4 600.9C400.6 601 400.7 601 400.8 601Z" fill="#DF6F26"/>
    <path opacity="0.5" d="M398.6 599.3C398.8 599.3 399 599.2 399.1 599.1C399.2 599 399.3 598.8 399.3 598.6V518.5C399.3 518.3 399.2 518.1 399.1 518C399 517.9 398.8 517.8 398.6 517.8C398.4 517.8 398.2 517.9 398.1 518C398 518.1 397.9 518.3 397.9 518.5V598.6C397.9 598.8 398 599 398.1 599.1C398.3 599.3 398.5 599.3 398.6 599.3Z" fill="#DF6F26"/>
    <g opacity="0.5">
    <path opacity="0.5" d="M293.5 418.3C293.5 465.6 350.3 504.2 420.1 504.2C489.9 504.2 546.7 465.7 546.7 418.3C546.7 371 489.9 332.3 420.1 332.3C350.3 332.3 293.5 370.8 293.5 418.3ZM459 493.2C483.3 478.5 499.9 450.4 499.9 418.3C499.9 386.2 483.3 358 459 343.2C496 355.4 522.2 384.4 522.2 418.3C522.2 452.2 496 481 459 493.2ZM439.5 496.6C456.1 483.1 467.7 453.2 467.7 418.3C467.7 383.4 456 353.4 439.5 339.9C471.4 349.2 495.1 380.8 495.1 418.3C495.1 455.8 471.5 487.3 439.5 496.6ZM427.5 498.1C435.1 484.7 439 451.3 439 418.3C439 385.3 435.1 351.7 427.5 338.3C447.6 345.1 462.8 378.4 462.8 418.3C462.8 458.2 447.7 491.3 427.5 498.1ZM420.1 499.3C418.4 499.3 414.2 494.7 410.6 476.8C407.1 458.9 405.9 440.5 405.9 418.3C405.9 396.1 407.6 375.2 410.6 359.6C413.6 344 418.4 337.1 420.1 337.1C421.8 337.1 425.8 341.7 429.4 359.6C432.9 377.5 434.3 395.9 434.3 418.3C434.3 440.6 432.6 461.2 429.4 476.8C426.2 492.3 421.8 499.3 420.1 499.3ZM412.5 338.3C405.1 351.7 401 385.1 401 418.3C401 451.5 405.1 484.7 412.5 498.1C392.6 491.3 377.2 458.2 377.2 418.3C377.2 378.4 392.6 345.1 412.5 338.3ZM400.5 496.6C368.6 487.3 345.1 455.7 345.1 418.3C345.1 380.9 368.6 349.2 400.5 339.9C383.9 353.4 372.4 383.5 372.4 418.3C372.4 453.1 383.9 483 400.5 496.6ZM381.2 493.2C344 481 317.8 452.1 317.8 418.3C317.8 384.5 344 355.4 381.2 343.2C356.7 357.9 340.1 386 340.1 418.3C340.2 450.6 356.7 478.5 381.2 493.2ZM482.8 348.7C518.1 362.9 541.8 388.8 541.8 418.3C541.8 447.8 518.1 473.6 482.8 487.8C509.5 472.1 526.9 446.7 526.9 418.3C526.9 389.9 509.5 364.4 482.8 348.7ZM357.4 487.8C321.9 473.6 298.2 447.7 298.2 418.3C298.2 388.9 321.9 362.9 357.4 348.7C330.5 364.4 313.1 389.8 313.1 418.3C313.1 446.9 330.5 472.1 357.4 487.8Z" fill="url(#paint8_radial)"/>
    </g>
    <path opacity="0.5" d="M437.9 524.6H402.6C401.2 524.6 399.8 524 398.8 523C397.8 522 397.2 520.6 397.2 519.2V507C397.2 505.5 397.8 504.1 398.8 503.1C399.8 502.1 401.3 501.5 402.7 501.5H437.7C439.2 501.5 440.6 502.1 441.6 503.1C442.6 504.1 443.2 505.6 443.2 507V519.2C443.2 520.6 442.6 522 441.6 523C440.7 524.1 439.3 524.6 437.9 524.6Z" stroke="url(#paint9_radial)"/>
    </g>
    <g opacity="0.5">
    <path opacity="0.5" d="M1326.5 0H1323.5V167H1326.5V0Z" fill="url(#paint10_radial)"/>
    <path opacity="0.5" d="M1317.9 168.7H1332.1C1333.4 168.7 1334.5 167.6 1334.5 166.3V161.4C1334.5 160 1333.4 159 1332.1 159H1317.9C1316.6 159 1315.5 160.1 1315.5 161.4V166.3C1315.5 167.6 1316.6 168.7 1317.9 168.7Z" fill="#D94432"/>
    <path opacity="0.5" d="M1341.5 382.2C1341.6 382.2 1341.8 382.1 1341.9 382C1342 381.9 1342.1 381.8 1342.1 381.6V320.5C1342.1 320.2 1341.8 320.1 1341.6 320.1C1341.5 320.1 1341.4 320.1 1341.3 320.2C1341.2 320.3 1341.2 320.4 1341.2 320.5V381.6C1341.1 381.9 1341.2 382.2 1341.5 382.2Z" fill="#DF6F26"/>
    <path opacity="0.5" d="M1339.7 388.9C1339.8 388.9 1339.9 388.9 1340 388.8C1340.1 388.7 1340.1 388.6 1340.1 388.5V321.8C1340.1 321.5 1340 321.3 1339.7 321.3C1339.6 321.3 1339.4 321.4 1339.3 321.5C1339.2 321.6 1339.2 321.7 1339.2 321.9V388.6C1339.2 388.7 1339.4 388.9 1339.7 388.9Z" fill="#DF6F26"/>
    <path opacity="0.5" d="M1337.9 385.7C1338 385.7 1338.2 385.6 1338.3 385.5C1338.4 385.4 1338.5 385.3 1338.5 385.1V321.7C1338.5 321.6 1338.4 321.4 1338.3 321.3C1338.2 321.2 1338.1 321.1 1337.9 321.1C1337.6 321.1 1337.5 321.4 1337.5 321.6V385C1337.5 385.4 1337.6 385.7 1337.9 385.7Z" fill="#DF6F26"/>
    <path opacity="0.5" d="M1336.2 383.2C1336.3 383.2 1336.4 383.2 1336.5 383.1C1336.6 383 1336.6 382.9 1336.6 382.8V321.7C1336.6 321.4 1336.5 321.2 1336.2 321.2C1336.1 321.2 1335.9 321.3 1335.8 321.4C1335.7 321.5 1335.6 321.6 1335.6 321.8V382.9C1335.7 383.1 1335.9 383.2 1336.2 383.2Z" fill="#DF6F26"/>
    <path opacity="0.5" d="M1334.5 386.3C1334.6 386.3 1334.7 386.3 1334.8 386.2C1334.9 386.1 1334.9 386 1334.9 385.9V321.7C1334.9 321.4 1334.8 321.2 1334.5 321.2C1334.4 321.2 1334.2 321.3 1334.1 321.4C1334 321.5 1333.9 321.6 1333.9 321.8V386C1334 386.2 1334.3 386.3 1334.5 386.3Z" fill="#DF6F26"/>
    <path opacity="0.5" d="M1332.7 383.2C1333 383.2 1333.2 383.1 1333.2 382.8V321.7C1333.2 321.6 1333.1 321.4 1333 321.3C1332.9 321.2 1332.8 321.1 1332.6 321.1C1332.3 321.1 1332.2 321.4 1332.2 321.6V382.7C1332.2 382.8 1332.2 382.9 1332.3 383C1332.5 383.2 1332.6 383.2 1332.7 383.2Z" fill="#DF6F26"/>
    <path opacity="0.5" d="M1331.1 390.2C1331.3 390.2 1331.5 389.9 1331.5 389.7V321.8C1331.5 321.5 1331.4 321.3 1331.1 321.3C1331 321.3 1330.8 321.4 1330.7 321.5C1330.6 321.6 1330.6 321.7 1330.6 321.9V389.8C1330.6 389.9 1330.7 390.1 1330.7 390.2C1330.8 390.1 1330.9 390.2 1331.1 390.2Z" fill="#DF6F26"/>
    <path opacity="0.5" d="M1329.2 387.1C1329.3 387.1 1329.5 387 1329.6 386.9C1329.7 386.8 1329.8 386.7 1329.8 386.5V321.7C1329.8 321.6 1329.7 321.4 1329.6 321.3C1329.5 321.2 1329.4 321.1 1329.2 321.1C1328.9 321.1 1328.8 321.4 1328.8 321.6V386.4C1328.9 386.8 1329 387.1 1329.2 387.1Z" fill="#DF6F26"/>
    <path opacity="0.5" d="M1327.6 385.7C1327.7 385.7 1327.9 385.6 1328 385.5C1328.1 385.4 1328.2 385.3 1328.2 385.1V321.7C1328.2 321.6 1328.2 321.4 1328 321.3C1327.9 321.2 1327.8 321.1 1327.6 321.1C1327.5 321.1 1327.3 321.2 1327.2 321.3C1327.1 321.4 1327.1 321.5 1327.1 321.7V385.1C1327.1 385.2 1327.1 385.4 1327.2 385.5C1327.3 385.6 1327.4 385.7 1327.6 385.7Z" fill="#DF6F26"/>
    <path opacity="0.5" d="M1325.9 383.2C1326 383.2 1326.1 383.2 1326.2 383.1C1326.3 383 1326.3 382.9 1326.3 382.8V321.7C1326.3 321.4 1326.2 321.2 1325.9 321.2C1325.8 321.2 1325.6 321.3 1325.5 321.4C1325.4 321.5 1325.3 321.6 1325.3 321.8V382.9C1325.4 383.1 1325.6 383.2 1325.9 383.2Z" fill="#DF6F26"/>
    <path opacity="0.5" d="M1324.1 388.2C1324.2 388.2 1324.4 388.1 1324.5 388C1324.6 387.9 1324.7 387.8 1324.7 387.6V321.6C1324.7 321.5 1324.7 321.3 1324.5 321.2C1324.4 321.1 1324.3 321 1324.1 321C1323.8 321 1323.7 321.3 1323.7 321.5V387.5C1323.7 388 1323.8 388.2 1324.1 388.2Z" fill="#DF6F26"/>
    <path opacity="0.5" d="M1322.4 386.3C1322.5 386.3 1322.6 386.3 1322.7 386.2C1322.8 386.1 1322.8 386 1322.8 385.9V321.7C1322.8 321.4 1322.7 321.2 1322.4 321.2C1322.3 321.2 1322.1 321.3 1322 321.4C1321.9 321.5 1321.8 321.6 1321.8 321.8V386C1321.9 386.2 1322.2 386.3 1322.4 386.3Z" fill="#DF6F26"/>
    <path opacity="0.5" d="M1320.8 383.2C1320.9 383.2 1321 383.2 1321.1 383.1C1321.2 383 1321.2 382.9 1321.2 382.8V321.7C1321.2 321.4 1321.1 321.2 1320.8 321.2C1320.7 321.2 1320.5 321.3 1320.4 321.4C1320.3 321.5 1320.2 321.6 1320.2 321.8V382.9C1320.2 383.1 1320.5 383.2 1320.8 383.2Z" fill="#DF6F26"/>
    <path opacity="0.5" d="M1318.9 390.8C1319.2 390.8 1319.4 390.7 1319.4 390.4V321.7C1319.4 321.6 1319.3 321.4 1319.3 321.3C1319.2 321.2 1319.1 321.1 1318.9 321.1C1318.7 321.1 1318.5 321.4 1318.5 321.6V390.3C1318.5 390.4 1318.5 390.5 1318.6 390.6C1318.7 390.8 1318.8 390.8 1318.9 390.8Z" fill="#DF6F26"/>
    <path opacity="0.5" d="M1317.3 387.1C1317.6 387.1 1317.7 386.8 1317.7 386.6V321.8C1317.7 321.5 1317.6 321.3 1317.3 321.3C1317.2 321.3 1317 321.4 1316.9 321.5C1316.8 321.6 1316.7 321.7 1316.7 321.9V386.7C1316.7 386.8 1316.8 387 1316.9 387.1C1317 387 1317.1 387.1 1317.3 387.1Z" fill="#DF6F26"/>
    <path opacity="0.5" d="M1315.5 383.2C1315.7 383.2 1316 383.1 1316 382.8V321.7C1316 321.6 1316 321.4 1315.8 321.3C1315.7 321.2 1315.6 321.1 1315.4 321.1C1315.1 321.1 1315 321.4 1315 321.6V382.7C1315 382.8 1315 382.9 1315.1 383C1315.3 383.2 1315.4 383.2 1315.5 383.2Z" fill="#DF6F26"/>
    <path opacity="0.5" d="M1313.8 388.2C1313.9 388.2 1314.1 388.1 1314.2 388C1314.3 387.9 1314.4 387.8 1314.4 387.6V321.6C1314.4 321.5 1314.3 321.3 1314.2 321.2C1314.1 321.1 1314 321 1313.8 321C1313.5 321 1313.4 321.3 1313.4 321.5V387.5C1313.4 388 1313.5 388.2 1313.8 388.2Z" fill="#DF6F26"/>
    <path opacity="0.5" d="M1312.1 385.7C1312.3 385.7 1312.5 385.4 1312.5 385.2V321.8C1312.5 321.5 1312.4 321.3 1312.1 321.3C1312 321.3 1311.8 321.4 1311.7 321.5C1311.6 321.6 1311.5 321.7 1311.5 321.9V385.3C1311.5 385.4 1311.6 385.6 1311.7 385.7C1311.8 385.6 1312 385.7 1312.1 385.7Z" fill="#DF6F26"/>
    <path opacity="0.5" d="M1310.3 383.2C1310.6 383.2 1310.8 383.1 1310.8 382.8V321.7C1310.8 321.6 1310.7 321.4 1310.7 321.3C1310.6 321.2 1310.5 321.1 1310.3 321.1C1310 321.1 1309.9 321.4 1309.9 321.6V382.7C1309.9 382.8 1309.9 382.9 1310 383C1310.1 383.2 1310.2 383.2 1310.3 383.2Z" fill="#DF6F26"/>
    <path opacity="0.5" d="M1308.6 381.9C1308.7 381.9 1308.9 381.8 1309 381.8C1309.1 381.7 1309.2 381.6 1309.2 381.4V320.3C1309.2 320.2 1309.1 320 1309 319.9C1308.9 319.8 1308.8 319.7 1308.6 319.7C1308.5 319.7 1308.3 319.8 1308.2 319.9C1308.1 320 1308 320.1 1308 320.3V381.4C1308 381.5 1308.1 381.7 1308.2 381.8C1308.4 381.9 1308.5 381.9 1308.6 381.9Z" fill="#DF6F26"/>
    <g opacity="0.5">
    <path opacity="0.5" d="M1317.9 168.7H1332.1C1333.4 168.7 1334.5 167.6 1334.5 166.3V161.4C1334.5 160 1333.4 159 1332.1 159H1317.9C1316.6 159 1315.5 160.1 1315.5 161.4V166.3C1315.5 167.6 1316.6 168.7 1317.9 168.7Z" fill="url(#paint11_radial)"/>
    <path opacity="0.5" d="M1332.1 168.2H1317.9C1316.8 168.2 1316 167.3 1316 166.3V161.4C1316 160.3 1316.9 159.5 1317.9 159.5H1332.1C1333.2 159.5 1334 160.4 1334 161.4V166.3C1334 167.3 1333.2 168.2 1332.1 168.2Z" stroke="url(#paint12_radial)"/>
    </g>
    <path opacity="0.5" d="M1338.5 325.4H1311.6C1310.4 325.4 1309.3 324.9 1308.4 324.1C1307.6 323.3 1307.1 322.1 1307.1 320.9V311.6C1307.1 310.4 1307.6 309.2 1308.5 308.3C1309.4 307.4 1310.6 306.9 1311.8 306.9H1338.5C1339.7 306.9 1340.9 307.4 1341.8 308.3C1342.7 309.2 1343.2 310.3 1343.2 311.6V320.9C1343.2 322.1 1342.7 323.2 1341.9 324.1C1340.9 324.9 1339.7 325.4 1338.5 325.4Z" fill="#D94432"/>
    <path opacity="0.5" d="M1228.5 243.9C1228.5 280 1271.8 309.3 1325 309.3C1378.2 309.3 1421.5 279.9 1421.5 243.9C1421.5 207.8 1378.2 178.3 1325 178.3C1271.8 178.3 1228.5 207.7 1228.5 243.9Z" fill="#D94432"/>
    <path opacity="0.5" d="M1338.5 182.2H1311.6C1310.5 182.2 1309.5 181.8 1308.8 181C1308 180.2 1307.6 179.2 1307.6 178.2V168.9C1307.6 167.8 1308 166.8 1308.8 166C1309.6 165.2 1310.6 164.8 1311.7 164.8H1338.4C1339.5 164.8 1340.6 165.2 1341.3 166C1342.1 166.8 1342.5 167.8 1342.5 168.9V178.2C1342.5 179.3 1342.1 180.3 1341.3 181C1340.6 181.8 1339.6 182.2 1338.5 182.2Z" fill="url(#paint13_radial)" stroke="#8E363A"/>
    <path opacity="0.5" d="M1341.5 382.2C1341.6 382.2 1341.8 382.1 1341.9 382C1342 381.9 1342.1 381.8 1342.1 381.6V320.5C1342.1 320.2 1341.8 320.1 1341.6 320.1C1341.5 320.1 1341.4 320.1 1341.3 320.2C1341.2 320.3 1341.2 320.4 1341.2 320.5V381.6C1341.1 381.9 1341.2 382.2 1341.5 382.2Z" fill="#DF6F26"/>
    <path opacity="0.5" d="M1339.7 388.9C1339.8 388.9 1339.9 388.9 1340 388.8C1340.1 388.7 1340.1 388.6 1340.1 388.5V321.8C1340.1 321.5 1340 321.3 1339.7 321.3C1339.6 321.3 1339.4 321.4 1339.3 321.5C1339.2 321.6 1339.2 321.7 1339.2 321.9V388.6C1339.2 388.7 1339.4 388.9 1339.7 388.9Z" fill="#DF6F26"/>
    <path opacity="0.5" d="M1337.9 385.7C1338 385.7 1338.2 385.6 1338.3 385.5C1338.4 385.4 1338.5 385.3 1338.5 385.1V321.7C1338.5 321.6 1338.4 321.4 1338.3 321.3C1338.2 321.2 1338.1 321.1 1337.9 321.1C1337.6 321.1 1337.5 321.4 1337.5 321.6V385C1337.5 385.4 1337.6 385.7 1337.9 385.7Z" fill="#DF6F26"/>
    <path opacity="0.5" d="M1336.2 383.2C1336.3 383.2 1336.4 383.2 1336.5 383.1C1336.6 383 1336.6 382.9 1336.6 382.8V321.7C1336.6 321.4 1336.5 321.2 1336.2 321.2C1336.1 321.2 1335.9 321.3 1335.8 321.4C1335.7 321.5 1335.6 321.6 1335.6 321.8V382.9C1335.7 383.1 1335.9 383.2 1336.2 383.2Z" fill="#DF6F26"/>
    <path opacity="0.5" d="M1334.5 386.3C1334.6 386.3 1334.7 386.3 1334.8 386.2C1334.9 386.1 1334.9 386 1334.9 385.9V321.7C1334.9 321.4 1334.8 321.2 1334.5 321.2C1334.4 321.2 1334.2 321.3 1334.1 321.4C1334 321.5 1333.9 321.6 1333.9 321.8V386C1334 386.2 1334.3 386.3 1334.5 386.3Z" fill="#DF6F26"/>
    <path opacity="0.5" d="M1332.7 383.2C1333 383.2 1333.2 383.1 1333.2 382.8V321.7C1333.2 321.6 1333.1 321.4 1333 321.3C1332.9 321.2 1332.8 321.1 1332.6 321.1C1332.3 321.1 1332.2 321.4 1332.2 321.6V382.7C1332.2 382.8 1332.2 382.9 1332.3 383C1332.5 383.2 1332.6 383.2 1332.7 383.2Z" fill="#DF6F26"/>
    <path opacity="0.5" d="M1331.1 390.2C1331.3 390.2 1331.5 389.9 1331.5 389.7V321.8C1331.5 321.5 1331.4 321.3 1331.1 321.3C1331 321.3 1330.8 321.4 1330.7 321.5C1330.6 321.6 1330.6 321.7 1330.6 321.9V389.8C1330.6 389.9 1330.7 390.1 1330.7 390.2C1330.8 390.1 1330.9 390.2 1331.1 390.2Z" fill="#DF6F26"/>
    <path opacity="0.5" d="M1329.2 387.1C1329.3 387.1 1329.5 387 1329.6 386.9C1329.7 386.8 1329.8 386.7 1329.8 386.5V321.7C1329.8 321.6 1329.7 321.4 1329.6 321.3C1329.5 321.2 1329.4 321.1 1329.2 321.1C1328.9 321.1 1328.8 321.4 1328.8 321.6V386.4C1328.9 386.8 1329 387.1 1329.2 387.1Z" fill="#DF6F26"/>
    <path opacity="0.5" d="M1327.6 385.7C1327.7 385.7 1327.9 385.6 1328 385.5C1328.1 385.4 1328.2 385.3 1328.2 385.1V321.7C1328.2 321.6 1328.2 321.4 1328 321.3C1327.9 321.2 1327.8 321.1 1327.6 321.1C1327.5 321.1 1327.3 321.2 1327.2 321.3C1327.1 321.4 1327.1 321.5 1327.1 321.7V385.1C1327.1 385.2 1327.1 385.4 1327.2 385.5C1327.3 385.6 1327.4 385.7 1327.6 385.7Z" fill="#DF6F26"/>
    <path opacity="0.5" d="M1325.9 383.2C1326 383.2 1326.1 383.2 1326.2 383.1C1326.3 383 1326.3 382.9 1326.3 382.8V321.7C1326.3 321.4 1326.2 321.2 1325.9 321.2C1325.8 321.2 1325.6 321.3 1325.5 321.4C1325.4 321.5 1325.3 321.6 1325.3 321.8V382.9C1325.4 383.1 1325.6 383.2 1325.9 383.2Z" fill="#DF6F26"/>
    <path opacity="0.5" d="M1324.1 388.2C1324.2 388.2 1324.4 388.1 1324.5 388C1324.6 387.9 1324.7 387.8 1324.7 387.6V321.6C1324.7 321.5 1324.7 321.3 1324.5 321.2C1324.4 321.1 1324.3 321 1324.1 321C1323.8 321 1323.7 321.3 1323.7 321.5V387.5C1323.7 388 1323.8 388.2 1324.1 388.2Z" fill="#DF6F26"/>
    <path opacity="0.5" d="M1322.4 386.3C1322.5 386.3 1322.6 386.3 1322.7 386.2C1322.8 386.1 1322.8 386 1322.8 385.9V321.7C1322.8 321.4 1322.7 321.2 1322.4 321.2C1322.3 321.2 1322.1 321.3 1322 321.4C1321.9 321.5 1321.8 321.6 1321.8 321.8V386C1321.9 386.2 1322.2 386.3 1322.4 386.3Z" fill="#DF6F26"/>
    <path opacity="0.5" d="M1320.8 383.2C1320.9 383.2 1321 383.2 1321.1 383.1C1321.2 383 1321.2 382.9 1321.2 382.8V321.7C1321.2 321.4 1321.1 321.2 1320.8 321.2C1320.7 321.2 1320.5 321.3 1320.4 321.4C1320.3 321.5 1320.2 321.6 1320.2 321.8V382.9C1320.2 383.1 1320.5 383.2 1320.8 383.2Z" fill="#DF6F26"/>
    <path opacity="0.5" d="M1318.9 390.8C1319.2 390.8 1319.4 390.7 1319.4 390.4V321.7C1319.4 321.6 1319.3 321.4 1319.3 321.3C1319.2 321.2 1319.1 321.1 1318.9 321.1C1318.7 321.1 1318.5 321.4 1318.5 321.6V390.3C1318.5 390.4 1318.5 390.5 1318.6 390.6C1318.7 390.8 1318.8 390.8 1318.9 390.8Z" fill="#DF6F26"/>
    <path opacity="0.5" d="M1317.3 387.1C1317.6 387.1 1317.7 386.8 1317.7 386.6V321.8C1317.7 321.5 1317.6 321.3 1317.3 321.3C1317.2 321.3 1317 321.4 1316.9 321.5C1316.8 321.6 1316.7 321.7 1316.7 321.9V386.7C1316.7 386.8 1316.8 387 1316.9 387.1C1317 387 1317.1 387.1 1317.3 387.1Z" fill="#DF6F26"/>
    <path opacity="0.5" d="M1315.5 383.2C1315.7 383.2 1316 383.1 1316 382.8V321.7C1316 321.6 1316 321.4 1315.8 321.3C1315.7 321.2 1315.6 321.1 1315.4 321.1C1315.1 321.1 1315 321.4 1315 321.6V382.7C1315 382.8 1315 382.9 1315.1 383C1315.3 383.2 1315.4 383.2 1315.5 383.2Z" fill="#DF6F26"/>
    <path opacity="0.5" d="M1313.8 388.2C1313.9 388.2 1314.1 388.1 1314.2 388C1314.3 387.9 1314.4 387.8 1314.4 387.6V321.6C1314.4 321.5 1314.3 321.3 1314.2 321.2C1314.1 321.1 1314 321 1313.8 321C1313.5 321 1313.4 321.3 1313.4 321.5V387.5C1313.4 388 1313.5 388.2 1313.8 388.2Z" fill="#DF6F26"/>
    <path opacity="0.5" d="M1312.1 385.7C1312.3 385.7 1312.5 385.4 1312.5 385.2V321.8C1312.5 321.5 1312.4 321.3 1312.1 321.3C1312 321.3 1311.8 321.4 1311.7 321.5C1311.6 321.6 1311.5 321.7 1311.5 321.9V385.3C1311.5 385.4 1311.6 385.6 1311.7 385.7C1311.8 385.6 1312 385.7 1312.1 385.7Z" fill="#DF6F26"/>
    <path opacity="0.5" d="M1310.3 383.2C1310.6 383.2 1310.8 383.1 1310.8 382.8V321.7C1310.8 321.6 1310.7 321.4 1310.7 321.3C1310.6 321.2 1310.5 321.1 1310.3 321.1C1310 321.1 1309.9 321.4 1309.9 321.6V382.7C1309.9 382.8 1309.9 382.9 1310 383C1310.1 383.2 1310.2 383.2 1310.3 383.2Z" fill="#DF6F26"/>
    <path opacity="0.5" d="M1308.6 381.9C1308.7 381.9 1308.9 381.8 1309 381.8C1309.1 381.7 1309.2 381.6 1309.2 381.4V320.3C1309.2 320.2 1309.1 320 1309 319.9C1308.9 319.8 1308.8 319.7 1308.6 319.7C1308.5 319.7 1308.3 319.8 1308.2 319.9C1308.1 320 1308 320.1 1308 320.3V381.4C1308 381.5 1308.1 381.7 1308.2 381.8C1308.4 381.9 1308.5 381.9 1308.6 381.9Z" fill="#DF6F26"/>
    <g opacity="0.5">
    <path opacity="0.5" d="M1228.5 243.9C1228.5 280 1271.8 309.3 1325 309.3C1378.2 309.3 1421.5 279.9 1421.5 243.9C1421.5 207.8 1378.2 178.3 1325 178.3C1271.8 178.3 1228.5 207.7 1228.5 243.9ZM1354.6 301C1373.2 289.8 1385.8 268.4 1385.8 243.9C1385.8 219.4 1373.2 197.9 1354.6 186.7C1382.8 196 1402.8 218.1 1402.8 243.9C1402.8 269.7 1382.8 291.7 1354.6 301ZM1339.8 303.6C1352.4 293.3 1361.3 270.5 1361.3 243.9C1361.3 217.4 1352.4 194.4 1339.8 184.1C1364.2 191.2 1382.2 215.3 1382.2 243.9C1382.2 272.5 1364.2 296.5 1339.8 303.6ZM1330.7 304.7C1336.5 294.5 1339.5 269 1339.5 243.9C1339.5 218.8 1336.5 193.1 1330.7 183C1346 188.2 1357.6 213.5 1357.6 243.9C1357.6 274.3 1346 299.6 1330.7 304.7ZM1325 305.6C1323.7 305.6 1320.5 302.1 1317.8 288.5C1315.1 274.8 1314.2 260.8 1314.2 243.9C1314.2 227 1315.5 211 1317.8 199.2C1320.1 187.3 1323.7 182.1 1325 182.1C1326.3 182.1 1329.4 185.6 1332.1 199.2C1334.8 212.9 1335.8 226.9 1335.8 243.9C1335.8 260.9 1334.5 276.6 1332.1 288.5C1329.6 300.4 1326.3 305.6 1325 305.6ZM1319.2 183C1313.5 193.2 1310.4 218.7 1310.4 243.9C1310.4 269.2 1313.5 294.5 1319.2 304.7C1304 299.5 1292.3 274.3 1292.3 243.9C1292.3 213.5 1304 188.1 1319.2 183ZM1310.1 303.6C1285.7 296.5 1267.9 272.4 1267.9 243.9C1267.9 215.4 1285.8 191.2 1310.1 184.1C1297.5 194.4 1288.7 217.3 1288.7 243.9C1288.7 270.5 1297.4 293.3 1310.1 303.6ZM1295.4 301C1267.1 291.7 1247.1 269.7 1247.1 243.9C1247.1 218.1 1267.1 196 1295.4 186.7C1276.7 197.9 1264.1 219.3 1264.1 243.9C1264.1 268.5 1276.7 289.8 1295.4 301ZM1372.8 190.9C1399.7 201.7 1417.8 221.4 1417.8 244C1417.8 266.5 1399.8 286.1 1372.8 297C1393.2 285 1406.4 265.7 1406.4 244C1406.4 222.3 1393.2 202.8 1372.8 190.9ZM1277.2 296.9C1250.1 286.1 1232.1 266.4 1232.1 243.9C1232.1 221.4 1250.1 201.6 1277.2 190.8C1256.7 202.8 1243.4 222.1 1243.4 243.9C1243.4 265.7 1256.7 284.9 1277.2 296.9Z" fill="url(#paint14_radial)"/>
    </g>
    <g opacity="0.5">
    <path opacity="0.5" d="M1338.5 182.2H1311.6C1310.5 182.2 1309.5 181.8 1308.8 181C1308 180.2 1307.6 179.2 1307.6 178.2V168.9C1307.6 167.8 1308 166.8 1308.8 166C1309.6 165.2 1310.6 164.8 1311.7 164.8H1338.4C1339.5 164.8 1340.6 165.2 1341.3 166C1342.1 166.8 1342.5 167.8 1342.5 168.9V178.2C1342.5 179.3 1342.1 180.3 1341.3 181C1340.6 181.8 1339.6 182.2 1338.5 182.2Z" stroke="#E9B213"/>
    </g>
    <path opacity="0.5" d="M1338.5 324.9H1311.6C1310.5 324.9 1309.5 324.5 1308.8 323.7C1308 322.9 1307.6 321.9 1307.6 320.9V311.6C1307.6 310.5 1308 309.5 1308.8 308.7C1309.6 307.9 1310.6 307.5 1311.7 307.5H1338.4C1339.5 307.5 1340.6 307.9 1341.3 308.7C1342.1 309.5 1342.5 310.5 1342.5 311.6V320.9C1342.5 322 1342.1 323 1341.3 323.7C1340.6 324.4 1339.6 324.9 1338.5 324.9Z" fill="url(#paint15_radial)" stroke="url(#paint16_radial)"/>
    </g>
    <g opacity="0.9">
    <path opacity="0.9" d="M1204.5 0H1201.5V557H1204.5V0Z" fill="url(#paint17_radial)"/>
    <path opacity="0.9" d="M1210.9 558.2H1195.1C1193.9 558.2 1192.9 557.2 1192.9 556V550.5C1192.9 549.3 1193.9 548.3 1195.1 548.3H1210.9C1212.1 548.3 1213.1 549.3 1213.1 550.5V556C1213.1 557.2 1212.1 558.2 1210.9 558.2Z" fill="#903238" stroke="url(#paint18_radial)"/>
    <path opacity="0.9" d="M1221.4 796.5C1221.6 796.5 1221.7 796.4 1221.8 796.3C1221.9 796.2 1222 796 1222 795.9V727.9C1222 727.6 1221.7 727.5 1221.4 727.5C1221.3 727.5 1221.2 727.5 1221.1 727.6C1221 727.7 1221 727.8 1221 727.9V795.9C1220.9 796.3 1221.1 796.5 1221.4 796.5Z" fill="#DF6F26"/>
    <path opacity="0.9" d="M1219.4 804C1219.5 804 1219.6 804 1219.7 803.9C1219.8 803.8 1219.8 803.7 1219.8 803.6V729.3C1219.8 729 1219.7 728.7 1219.4 728.7C1219.2 728.7 1219.1 728.8 1219 728.9C1218.9 729 1218.8 729.2 1218.8 729.3V803.6C1218.8 803.9 1219.1 804 1219.4 804Z" fill="#DF6F26"/>
    <path opacity="0.9" d="M1217.3 800.4C1217.5 800.4 1217.6 800.3 1217.7 800.2C1217.8 800.1 1217.9 799.9 1217.9 799.8V729.2C1217.9 729 1217.8 728.9 1217.7 728.8C1217.6 728.7 1217.4 728.6 1217.3 728.6C1217 728.6 1216.9 728.9 1216.9 729.2V799.8C1216.9 800.1 1217.1 800.4 1217.3 800.4Z" fill="#DF6F26"/>
    <path opacity="0.9" d="M1215.5 797.7C1215.6 797.7 1215.7 797.7 1215.8 797.6C1215.9 797.5 1215.9 797.4 1215.9 797.3V729.3C1215.9 729 1215.7 728.7 1215.5 728.7C1215.3 728.7 1215.2 728.8 1215.1 728.9C1215 729 1214.9 729.2 1214.9 729.3V797.3C1214.9 797.6 1215.2 797.7 1215.5 797.7Z" fill="#DF6F26"/>
    <path opacity="0.9" d="M1213.6 801.1C1213.7 801.1 1213.8 801.1 1213.9 801C1214 800.9 1214 800.8 1214 800.7V729.2C1214 728.9 1213.9 728.6 1213.6 728.6C1213.4 728.6 1213.3 728.7 1213.2 728.8C1213.1 728.9 1213 729.1 1213 729.2V800.7C1213 801 1213.3 801.1 1213.6 801.1Z" fill="#DF6F26"/>
    <path opacity="0.9" d="M1211.6 797.7C1211.9 797.7 1212.2 797.6 1212.2 797.3V729.3C1212.2 729.1 1212.1 729 1212 728.9C1211.9 728.8 1211.8 728.7 1211.6 728.7C1211.3 728.7 1211.2 729 1211.2 729.3V797.3C1211.2 797.4 1211.2 797.5 1211.3 797.6C1211.4 797.7 1211.5 797.7 1211.6 797.7Z" fill="#DF6F26"/>
    <path opacity="0.9" d="M1209.8 805.4C1210.1 805.4 1210.2 805.1 1210.2 804.8V729.2C1210.2 728.9 1210 728.6 1209.8 728.6C1209.6 728.6 1209.5 728.7 1209.4 728.8C1209.3 728.9 1209.2 729.1 1209.2 729.2V804.8C1209.2 805 1209.3 805.1 1209.4 805.2C1209.4 805.4 1209.6 805.4 1209.8 805.4Z" fill="#DF6F26"/>
    <path opacity="0.9" d="M1207.7 802C1207.9 802 1208 801.9 1208.1 801.8C1208.2 801.7 1208.3 801.5 1208.3 801.4V729.2C1208.3 729 1208.2 728.9 1208.1 728.8C1208 728.7 1207.9 728.6 1207.7 728.6C1207.4 728.6 1207.3 728.9 1207.3 729.2V801.4C1207.3 801.7 1207.4 802 1207.7 802Z" fill="#DF6F26"/>
    <path opacity="0.9" d="M1205.9 800.4C1206.1 800.4 1206.2 800.3 1206.3 800.2C1206.4 800.1 1206.5 799.9 1206.5 799.8V729.2C1206.5 729 1206.4 728.9 1206.3 728.8C1206.2 728.7 1206 728.6 1205.9 728.6C1205.8 728.6 1205.6 728.7 1205.5 728.8C1205.4 728.9 1205.3 729.1 1205.3 729.2V799.8C1205.3 800 1205.4 800.1 1205.5 800.2C1205.6 800.4 1205.7 800.4 1205.9 800.4Z" fill="#DF6F26"/>
    <path opacity="0.9" d="M1204 797.7C1204.1 797.7 1204.2 797.7 1204.3 797.6C1204.4 797.5 1204.4 797.4 1204.4 797.3V729.3C1204.4 729 1204.3 728.7 1204 728.7C1203.8 728.7 1203.7 728.8 1203.6 728.9C1203.5 729 1203.4 729.2 1203.4 729.3V797.3C1203.4 797.6 1203.7 797.7 1204 797.7Z" fill="#DF6F26"/>
    <path opacity="0.9" d="M1202 803.3C1202.2 803.3 1202.3 803.2 1202.4 803.1C1202.5 803 1202.6 802.8 1202.6 802.7V729.2C1202.6 729 1202.5 728.9 1202.4 728.8C1202.3 728.7 1202.2 728.6 1202 728.6C1201.7 728.6 1201.6 728.9 1201.6 729.2V802.7C1201.6 803 1201.7 803.3 1202 803.3Z" fill="#DF6F26"/>
    <path opacity="0.9" d="M1200.1 801.1C1200.2 801.1 1200.3 801.1 1200.4 801C1200.5 800.9 1200.5 800.8 1200.5 800.7V729.2C1200.5 728.9 1200.4 728.6 1200.1 728.6C1199.9 728.6 1199.8 728.7 1199.7 728.8C1199.6 728.9 1199.5 729.1 1199.5 729.2V800.7C1199.6 801 1199.8 801.1 1200.1 801.1Z" fill="#DF6F26"/>
    <path opacity="0.9" d="M1198.3 797.7C1198.4 797.7 1198.5 797.7 1198.6 797.6C1198.7 797.5 1198.7 797.4 1198.7 797.3V729.3C1198.7 729 1198.6 728.7 1198.3 728.7C1198.1 728.7 1198 728.8 1197.9 728.9C1197.8 729 1197.7 729.2 1197.7 729.3V797.3C1197.7 797.6 1198 797.7 1198.3 797.7Z" fill="#DF6F26"/>
    <path opacity="0.9" d="M1196.2 806.2C1196.5 806.2 1196.8 806.1 1196.8 805.8V729.3C1196.8 729.1 1196.7 729 1196.6 728.9C1196.5 728.8 1196.4 728.7 1196.2 728.7C1195.9 728.7 1195.8 729 1195.8 729.3V805.8C1195.8 805.9 1195.9 806 1195.9 806.1C1196 806.1 1196.1 806.2 1196.2 806.2Z" fill="#DF6F26"/>
    <path opacity="0.9" d="M1194.4 802C1194.7 802 1194.8 801.7 1194.8 801.4V729.2C1194.8 728.9 1194.7 728.6 1194.4 728.6C1194.2 728.6 1194.1 728.7 1194 728.8C1193.9 728.9 1193.8 729.1 1193.8 729.2V801.4C1193.8 801.6 1193.9 801.7 1194 801.8C1194.1 801.9 1194.2 802 1194.4 802Z" fill="#DF6F26"/>
    <path opacity="0.9" d="M1192.4 797.7C1192.7 797.7 1193 797.6 1193 797.3V729.3C1193 729.1 1192.9 729 1192.8 728.9C1192.7 728.8 1192.6 728.7 1192.4 728.7C1192.1 728.7 1192 729 1192 729.3V797.3C1192 797.4 1192 797.5 1192.1 797.6C1192.2 797.7 1192.3 797.7 1192.4 797.7Z" fill="#DF6F26"/>
    <path opacity="0.9" d="M1190.5 803.3C1190.7 803.3 1190.8 803.2 1190.9 803.1C1191 803 1191.1 802.8 1191.1 802.7V729.2C1191.1 729 1191 728.9 1190.9 728.8C1190.8 728.7 1190.7 728.6 1190.5 728.6C1190.2 728.6 1190.1 728.9 1190.1 729.2V802.7C1190.1 803 1190.2 803.3 1190.5 803.3Z" fill="#DF6F26"/>
    <path opacity="0.9" d="M1188.7 800.4C1189 800.4 1189.1 800.1 1189.1 799.8V729.2C1189.1 728.9 1189 728.6 1188.7 728.6C1188.5 728.6 1188.4 728.7 1188.3 728.8C1188.2 728.9 1188.1 729.1 1188.1 729.2V799.8C1188.1 800 1188.2 800.1 1188.3 800.2C1188.3 800.4 1188.5 800.4 1188.7 800.4Z" fill="#DF6F26"/>
    <path opacity="0.9" d="M1186.6 797.7C1186.9 797.7 1187.2 797.6 1187.2 797.3V729.3C1187.2 729.1 1187.1 729 1187 728.9C1186.9 728.8 1186.8 728.7 1186.6 728.7C1186.3 728.7 1186.2 729 1186.2 729.3V797.3C1186.2 797.4 1186.2 797.5 1186.3 797.6C1186.4 797.7 1186.5 797.7 1186.6 797.7Z" fill="#DF6F26"/>
    <path opacity="0.9" d="M1184.8 796.3C1185 796.3 1185.1 796.2 1185.2 796.1C1185.3 796 1185.4 795.8 1185.4 795.7V727.7C1185.4 727.5 1185.3 727.4 1185.2 727.3C1185.1 727.2 1184.9 727.1 1184.8 727.1C1184.7 727.1 1184.5 727.2 1184.4 727.3C1184.3 727.4 1184.2 727.6 1184.2 727.7V795.7C1184.2 795.9 1184.3 796 1184.4 796.1C1184.5 796.2 1184.6 796.3 1184.8 796.3Z" fill="#DF6F26"/>
    <g opacity="0.9">
    <path opacity="0.9" d="M1210.9 558.2H1195.1C1193.9 558.2 1192.9 557.2 1192.9 556V550.5C1192.9 549.3 1193.9 548.3 1195.1 548.3H1210.9C1212.1 548.3 1213.1 549.3 1213.1 550.5V556C1213.1 557.2 1212.1 558.2 1210.9 558.2Z" stroke="url(#paint19_radial)"/>
    </g>
    <path opacity="0.9" d="M1218.1 732.8H1188.1C1186.9 732.8 1185.8 732.3 1184.9 731.5C1184.1 730.7 1183.6 729.5 1183.6 728.3V718C1183.6 716.8 1184.1 715.6 1185 714.7C1185.9 713.8 1187.1 713.3 1188.3 713.3H1218C1219.2 713.3 1220.4 713.8 1221.3 714.7C1222.2 715.6 1222.7 716.8 1222.7 718V728.3C1222.7 729.5 1222.2 730.7 1221.4 731.5C1220.4 732.3 1219.3 732.8 1218.1 732.8Z" fill="#D94432" stroke="url(#paint20_radial)"/>
    <path opacity="0.9" d="M1095.5 642.5C1095.5 682.7 1143.7 715.4 1203 715.4C1262.3 715.4 1310.5 682.7 1310.5 642.5C1310.5 602.3 1262.3 569.4 1203 569.4C1143.7 569.4 1095.5 602.2 1095.5 642.5Z" fill="#D94432"/>
    <path opacity="0.9" d="M1218.1 573.9H1188.1C1186.9 573.9 1185.8 573.4 1184.9 572.6C1184.1 571.8 1183.6 570.6 1183.6 569.4V559C1183.6 557.8 1184.1 556.6 1185 555.7C1185.9 554.8 1187.1 554.3 1188.3 554.3H1218C1219.2 554.3 1220.4 554.8 1221.3 555.7C1222.2 556.6 1222.7 557.8 1222.7 559V569.3C1222.7 570.5 1222.2 571.7 1221.4 572.5C1220.4 573.4 1219.3 573.9 1218.1 573.9Z" fill="#903238" stroke="#903238"/>
    <path opacity="0.9" d="M1221.4 796.5C1221.6 796.5 1221.7 796.4 1221.8 796.3C1221.9 796.2 1222 796 1222 795.9V727.9C1222 727.6 1221.7 727.5 1221.4 727.5C1221.3 727.5 1221.2 727.5 1221.1 727.6C1221 727.7 1221 727.8 1221 727.9V795.9C1220.9 796.3 1221.1 796.5 1221.4 796.5Z" fill="#DF6F26"/>
    <path opacity="0.9" d="M1219.4 804C1219.5 804 1219.6 804 1219.7 803.9C1219.8 803.8 1219.8 803.7 1219.8 803.6V729.3C1219.8 729 1219.7 728.7 1219.4 728.7C1219.2 728.7 1219.1 728.8 1219 728.9C1218.9 729 1218.8 729.2 1218.8 729.3V803.6C1218.8 803.9 1219.1 804 1219.4 804Z" fill="#DF6F26"/>
    <path opacity="0.9" d="M1217.3 800.4C1217.5 800.4 1217.6 800.3 1217.7 800.2C1217.8 800.1 1217.9 799.9 1217.9 799.8V729.2C1217.9 729 1217.8 728.9 1217.7 728.8C1217.6 728.7 1217.4 728.6 1217.3 728.6C1217 728.6 1216.9 728.9 1216.9 729.2V799.8C1216.9 800.1 1217.1 800.4 1217.3 800.4Z" fill="#DF6F26"/>
    <path opacity="0.9" d="M1215.5 797.7C1215.6 797.7 1215.7 797.7 1215.8 797.6C1215.9 797.5 1215.9 797.4 1215.9 797.3V729.3C1215.9 729 1215.7 728.7 1215.5 728.7C1215.3 728.7 1215.2 728.8 1215.1 728.9C1215 729 1214.9 729.2 1214.9 729.3V797.3C1214.9 797.6 1215.2 797.7 1215.5 797.7Z" fill="#DF6F26"/>
    <path opacity="0.9" d="M1213.6 801.1C1213.7 801.1 1213.8 801.1 1213.9 801C1214 800.9 1214 800.8 1214 800.7V729.2C1214 728.9 1213.9 728.6 1213.6 728.6C1213.4 728.6 1213.3 728.7 1213.2 728.8C1213.1 728.9 1213 729.1 1213 729.2V800.7C1213 801 1213.3 801.1 1213.6 801.1Z" fill="#DF6F26"/>
    <path opacity="0.9" d="M1211.6 797.7C1211.9 797.7 1212.2 797.6 1212.2 797.3V729.3C1212.2 729.1 1212.1 729 1212 728.9C1211.9 728.8 1211.8 728.7 1211.6 728.7C1211.3 728.7 1211.2 729 1211.2 729.3V797.3C1211.2 797.4 1211.2 797.5 1211.3 797.6C1211.4 797.7 1211.5 797.7 1211.6 797.7Z" fill="#DF6F26"/>
    <path opacity="0.9" d="M1209.8 805.4C1210.1 805.4 1210.2 805.1 1210.2 804.8V729.2C1210.2 728.9 1210 728.6 1209.8 728.6C1209.6 728.6 1209.5 728.7 1209.4 728.8C1209.3 728.9 1209.2 729.1 1209.2 729.2V804.8C1209.2 805 1209.3 805.1 1209.4 805.2C1209.4 805.4 1209.6 805.4 1209.8 805.4Z" fill="#DF6F26"/>
    <path opacity="0.9" d="M1207.7 802C1207.9 802 1208 801.9 1208.1 801.8C1208.2 801.7 1208.3 801.5 1208.3 801.4V729.2C1208.3 729 1208.2 728.9 1208.1 728.8C1208 728.7 1207.9 728.6 1207.7 728.6C1207.4 728.6 1207.3 728.9 1207.3 729.2V801.4C1207.3 801.7 1207.4 802 1207.7 802Z" fill="#DF6F26"/>
    <path opacity="0.9" d="M1205.9 800.4C1206.1 800.4 1206.2 800.3 1206.3 800.2C1206.4 800.1 1206.5 799.9 1206.5 799.8V729.2C1206.5 729 1206.4 728.9 1206.3 728.8C1206.2 728.7 1206 728.6 1205.9 728.6C1205.8 728.6 1205.6 728.7 1205.5 728.8C1205.4 728.9 1205.3 729.1 1205.3 729.2V799.8C1205.3 800 1205.4 800.1 1205.5 800.2C1205.6 800.4 1205.7 800.4 1205.9 800.4Z" fill="#DF6F26"/>
    <path opacity="0.9" d="M1204 797.7C1204.1 797.7 1204.2 797.7 1204.3 797.6C1204.4 797.5 1204.4 797.4 1204.4 797.3V729.3C1204.4 729 1204.3 728.7 1204 728.7C1203.8 728.7 1203.7 728.8 1203.6 728.9C1203.5 729 1203.4 729.2 1203.4 729.3V797.3C1203.4 797.6 1203.7 797.7 1204 797.7Z" fill="#DF6F26"/>
    <path opacity="0.9" d="M1202 803.3C1202.2 803.3 1202.3 803.2 1202.4 803.1C1202.5 803 1202.6 802.8 1202.6 802.7V729.2C1202.6 729 1202.5 728.9 1202.4 728.8C1202.3 728.7 1202.2 728.6 1202 728.6C1201.7 728.6 1201.6 728.9 1201.6 729.2V802.7C1201.6 803 1201.7 803.3 1202 803.3Z" fill="#DF6F26"/>
    <path opacity="0.9" d="M1200.1 801.1C1200.2 801.1 1200.3 801.1 1200.4 801C1200.5 800.9 1200.5 800.8 1200.5 800.7V729.2C1200.5 728.9 1200.4 728.6 1200.1 728.6C1199.9 728.6 1199.8 728.7 1199.7 728.8C1199.6 728.9 1199.5 729.1 1199.5 729.2V800.7C1199.6 801 1199.8 801.1 1200.1 801.1Z" fill="#DF6F26"/>
    <path opacity="0.9" d="M1198.3 797.7C1198.4 797.7 1198.5 797.7 1198.6 797.6C1198.7 797.5 1198.7 797.4 1198.7 797.3V729.3C1198.7 729 1198.6 728.7 1198.3 728.7C1198.1 728.7 1198 728.8 1197.9 728.9C1197.8 729 1197.7 729.2 1197.7 729.3V797.3C1197.7 797.6 1198 797.7 1198.3 797.7Z" fill="#DF6F26"/>
    <path opacity="0.9" d="M1196.2 806.2C1196.5 806.2 1196.8 806.1 1196.8 805.8V729.3C1196.8 729.1 1196.7 729 1196.6 728.9C1196.5 728.8 1196.4 728.7 1196.2 728.7C1195.9 728.7 1195.8 729 1195.8 729.3V805.8C1195.8 805.9 1195.9 806 1195.9 806.1C1196 806.1 1196.1 806.2 1196.2 806.2Z" fill="#DF6F26"/>
    <path opacity="0.9" d="M1194.4 802C1194.7 802 1194.8 801.7 1194.8 801.4V729.2C1194.8 728.9 1194.7 728.6 1194.4 728.6C1194.2 728.6 1194.1 728.7 1194 728.8C1193.9 728.9 1193.8 729.1 1193.8 729.2V801.4C1193.8 801.6 1193.9 801.7 1194 801.8C1194.1 801.9 1194.2 802 1194.4 802Z" fill="#DF6F26"/>
    <path opacity="0.9" d="M1192.4 797.7C1192.7 797.7 1193 797.6 1193 797.3V729.3C1193 729.1 1192.9 729 1192.8 728.9C1192.7 728.8 1192.6 728.7 1192.4 728.7C1192.1 728.7 1192 729 1192 729.3V797.3C1192 797.4 1192 797.5 1192.1 797.6C1192.2 797.7 1192.3 797.7 1192.4 797.7Z" fill="#DF6F26"/>
    <path opacity="0.9" d="M1190.5 803.3C1190.7 803.3 1190.8 803.2 1190.9 803.1C1191 803 1191.1 802.8 1191.1 802.7V729.2C1191.1 729 1191 728.9 1190.9 728.8C1190.8 728.7 1190.7 728.6 1190.5 728.6C1190.2 728.6 1190.1 728.9 1190.1 729.2V802.7C1190.1 803 1190.2 803.3 1190.5 803.3Z" fill="#DF6F26"/>
    <path opacity="0.9" d="M1188.7 800.4C1189 800.4 1189.1 800.1 1189.1 799.8V729.2C1189.1 728.9 1189 728.6 1188.7 728.6C1188.5 728.6 1188.4 728.7 1188.3 728.8C1188.2 728.9 1188.1 729.1 1188.1 729.2V799.8C1188.1 800 1188.2 800.1 1188.3 800.2C1188.3 800.4 1188.5 800.4 1188.7 800.4Z" fill="#DF6F26"/>
    <path opacity="0.9" d="M1186.6 797.7C1186.9 797.7 1187.2 797.6 1187.2 797.3V729.3C1187.2 729.1 1187.1 729 1187 728.9C1186.9 728.8 1186.8 728.7 1186.6 728.7C1186.3 728.7 1186.2 729 1186.2 729.3V797.3C1186.2 797.4 1186.2 797.5 1186.3 797.6C1186.4 797.7 1186.5 797.7 1186.6 797.7Z" fill="#DF6F26"/>
    <path opacity="0.9" d="M1184.8 796.3C1185 796.3 1185.1 796.2 1185.2 796.1C1185.3 796 1185.4 795.8 1185.4 795.7V727.7C1185.4 727.5 1185.3 727.4 1185.2 727.3C1185.1 727.2 1184.9 727.1 1184.8 727.1C1184.7 727.1 1184.5 727.2 1184.4 727.3C1184.3 727.4 1184.2 727.6 1184.2 727.7V795.7C1184.2 795.9 1184.3 796 1184.4 796.1C1184.5 796.2 1184.6 796.3 1184.8 796.3Z" fill="#DF6F26"/>
    <g opacity="0.9">
      <path opacity="0.9" d="M1095.5 642.5C1095.5 682.7 1143.7 715.4 1203 715.4C1262.3 715.4 1310.5 682.7 1310.5 642.5C1310.5 602.3 1262.3 569.4 1203 569.4C1143.7 569.4 1095.5 602.2 1095.5 642.5ZM1236 706.1C1256.7 693.6 1270.7 669.8 1270.7 642.5C1270.7 615.2 1256.6 591.3 1236 578.8C1267.4 589.1 1289.7 613.8 1289.7 642.5C1289.7 671.2 1267.4 695.8 1236 706.1ZM1219.5 709C1233.6 697.5 1243.5 672.1 1243.5 642.5C1243.5 612.9 1233.6 587.4 1219.5 575.9C1246.6 583.8 1266.7 610.6 1266.7 642.5C1266.7 674.4 1246.6 701.1 1219.5 709ZM1209.3 710.3C1215.8 699 1219.1 670.5 1219.1 642.6C1219.1 614.6 1215.8 586.1 1209.3 574.7C1226.4 580.4 1239.3 608.7 1239.3 642.6C1239.3 676.5 1226.4 704.5 1209.3 710.3ZM1203 711.3C1201.6 711.3 1198 707.4 1195 692.2C1192 677 1191 661.3 1191 642.5C1191 623.7 1192.4 605.9 1195 592.7C1197.6 579.5 1201.6 573.6 1203 573.6C1204.4 573.6 1207.9 577.5 1210.9 592.7C1213.9 607.9 1215.1 623.6 1215.1 642.5C1215.1 661.4 1213.7 679 1210.9 692.2C1208.2 705.4 1204.4 711.3 1203 711.3ZM1196.5 574.7C1190.2 586 1186.7 614.5 1186.7 642.6C1186.7 670.7 1190.1 699 1196.5 710.3C1179.6 704.6 1166.5 676.4 1166.5 642.6C1166.5 608.8 1179.6 580.4 1196.5 574.7ZM1186.3 709C1159.2 701.1 1139.2 674.3 1139.2 642.5C1139.2 610.7 1159.1 583.8 1186.3 575.9C1172.2 587.4 1162.5 612.9 1162.5 642.5C1162.5 672.1 1172.3 697.5 1186.3 709ZM1170 706.1C1138.4 695.8 1116.2 671.2 1116.2 642.5C1116.2 613.8 1138.4 589.1 1170 578.8C1149.2 591.3 1135.1 615.1 1135.1 642.5C1135.1 669.9 1149.2 693.6 1170 706.1ZM1256.2 583.4C1286.2 595.5 1306.3 617.4 1306.3 642.5C1306.3 667.6 1286.2 689.4 1256.2 701.5C1278.9 688.2 1293.7 666.6 1293.7 642.5C1293.7 618.4 1278.9 596.8 1256.2 583.4ZM1149.8 701.5C1119.7 689.4 1099.6 667.5 1099.6 642.5C1099.6 617.5 1119.7 595.4 1149.8 583.4C1127 596.7 1112.2 618.3 1112.2 642.5C1112.2 666.8 1126.9 688.2 1149.8 701.5Z" fill="url(#paint21_radial)"/>
    </g>
    <g opacity="0.9">
      <path opacity="0.9" d="M1218.1 573.9H1188.1C1186.9 573.9 1185.8 573.4 1184.9 572.6C1184.1 571.8 1183.6 570.6 1183.6 569.4V559C1183.6 557.8 1184.1 556.6 1185 555.7C1185.9 554.8 1187.1 554.3 1188.3 554.3H1218C1219.2 554.3 1220.4 554.8 1221.3 555.7C1222.2 556.6 1222.7 557.8 1222.7 559V569.3C1222.7 570.5 1222.2 571.7 1221.4 572.5C1220.4 573.4 1219.3 573.9 1218.1 573.9Z" stroke="url(#paint22_radial)"/>
    </g>
    <path opacity="0.9" d="M1218.1 732.8H1188.1C1186.9 732.8 1185.8 732.3 1184.9 731.5C1184.1 730.7 1183.6 729.5 1183.6 728.3V718C1183.6 716.8 1184.1 715.6 1185 714.7C1185.9 713.8 1187.1 713.3 1188.3 713.3H1218C1219.2 713.3 1220.4 713.8 1221.3 714.7C1222.2 715.6 1222.7 716.8 1222.7 718V728.3C1222.7 729.5 1222.2 730.7 1221.4 731.5C1220.4 732.3 1219.3 732.8 1218.1 732.8Z" fill="#903238" stroke="url(#paint23_radial)"/>
  </g>
  <g opacity="0.9">
    <path opacity="0.9" d="M1117.5 578.3C1117.5 578.3 1114.9 580.2 1116.7 582.2C1120.2 586 1118.3 589.8 1116.6 590.7C1112.7 593 1101.8 587.8 1102.9 578C1104 568.2 1104.5 567.5 1098.3 561.7C1092.1 555.9 1087.7 558.9 1087.7 558.9C1086.7 560.2 1087.9 560.1 1087.9 560.1C1091.1 558.7 1094.7 559.4 1097.2 561.9C1102.7 567.2 1103 569.6 1102.7 571.4C1102.4 573.2 1100.4 581.4 1104.1 586.3C1107.8 591.2 1113.5 593.5 1117.4 591.2C1121.3 588.9 1119.6 583.8 1118 582.1C1117.6 581.6 1116.8 581.2 1118.1 579.2L1118.2 579.1C1119.1 577.6 1117.5 578.3 1117.5 578.3Z" fill="#F3C755"/>
    <path opacity="0.1" d="M1117.5 578.3C1117.5 578.3 1114.9 580.2 1116.7 582.2C1120.2 586 1118.3 589.8 1116.6 590.7C1112.7 593 1101.8 587.8 1102.9 578C1104 568.2 1104.5 567.5 1098.3 561.7C1092.1 555.9 1087.7 558.9 1087.7 558.9C1086.7 560.2 1087.9 560.1 1087.9 560.1C1091.1 558.7 1094.7 559.4 1097.2 561.9C1102.7 567.2 1103 569.6 1102.7 571.4C1102.4 573.2 1100.4 581.4 1104.1 586.3C1107.8 591.2 1113.5 593.5 1117.4 591.2C1121.3 588.9 1119.6 583.8 1118 582.1C1117.6 581.6 1116.8 581.2 1118.1 579.2L1118.2 579.1C1119.1 577.6 1117.5 578.3 1117.5 578.3Z" fill="#010202"/>
    <path opacity="0.9" d="M1114.2 576.4C1113.8 578.3 1118.7 578.8 1118.7 578.8C1118.7 578.8 1122.1 581.4 1122.4 579.5C1122.6 578.7 1121.1 575.7 1121.1 575.7L1117.6 573.6C1117.6 573.7 1114.4 575.4 1114.2 576.4Z" fill="#E9B214"/>
    <path opacity="0.9" d="M1118.2 578.8C1118.2 578.8 1115.6 580.6 1117.4 582.7C1120.9 586.5 1119 590.3 1117.3 591.2C1113.4 593.5 1102.5 588.3 1103.6 578.5C1104.7 568.7 1105.2 568 1099 562.2C1092.8 556.4 1088.4 559.4 1088.4 559.4C1087.4 560.7 1088.6 560.6 1088.6 560.6C1091.8 559.2 1095.4 559.9 1097.9 562.4C1103.4 567.7 1103.7 570.1 1103.4 571.9C1103.1 573.7 1101.1 581.9 1104.8 586.8C1108.5 591.7 1114.2 594 1118.1 591.7C1122 589.4 1120.3 584.3 1118.7 582.6C1118.3 582.1 1117.5 581.7 1118.8 579.7L1118.9 579.6C1119.8 578.1 1118.2 578.8 1118.2 578.8Z" fill="#F3C755"/>
    <path opacity="0.14" d="M1114.2 576.399C1113.8 578.299 1117.4 577.799 1118.7 578.799C1120 579.799 1122.1 581.399 1122.4 579.499C1121.1 579.099 1116.1 577.399 1114.2 576.399Z" fill="#E9B214"/>
    <path opacity="0.9" d="M1131.1 541.3C1135.1 539.3 1136.7 534.5 1134.7 530.6C1132.7 526.6 1127.9 525 1123.9 527C1119.9 529 1118.3 533.8 1120.3 537.7C1122.3 541.7 1127.1 543.3 1131.1 541.3Z" fill="url(#paint24_radial)"/>
    <path opacity="0.9" d="M1131.4 538.6C1134.2 537.2 1135.3 533.9 1133.9 531.1C1132.5 528.3 1129.2 527.2 1126.4 528.6C1123.6 530 1122.5 533.3 1123.9 536.1C1125.3 538.9 1128.6 540 1131.4 538.6Z" fill="#D94532"/>
    <path opacity="0.9" d="M1137.4 577.1C1147.9 571.9 1152.2 559.1 1146.9 548.6C1141.7 538.1 1128.9 533.8 1118.4 539.1C1107.9 544.3 1103.6 557.1 1108.9 567.6C1114.2 578.1 1126.9 582.3 1137.4 577.1Z" fill="url(#paint25_radial)"/>
    <g opacity="0.1">
      <path opacity="0.5" d="M1143.3 543.899C1151.1 552.599 1150.4 566.099 1141.7 573.899C1137.5 577.599 1132.1 579.599 1126.5 579.299C1131.5 576.499 1142 567.599 1141.3 555.699C1141 546.999 1132.7 539.399 1127.4 536.899C1130.4 536.899 1133.4 537.499 1136.1 538.699C1138.9 539.899 1141.3 541.699 1143.3 543.899Z" fill="#010202"/>
    </g>
    <path opacity="0.9" d="M1106.9 559.699C1111.1 558.199 1113.3 553.699 1111.8 549.499C1110.4 545.299 1105.8 543.099 1101.6 544.599C1097.4 546.099 1095.2 550.599 1096.7 554.799C1098.2 558.999 1102.7 561.199 1106.9 559.699Z" fill="#E9B213"/>
    <path opacity="0.9" d="M1110.1 548.399C1108.7 551.099 1107.9 553.999 1107.8 556.999C1106.8 557.399 1105.8 557.499 1104.8 557.299C1103.8 557.099 1102.8 556.699 1102 555.999C1101.2 555.299 1100.7 554.399 1100.3 553.399C1100 552.399 1100 551.299 1100.2 550.299C1100.5 549.299 1101 548.399 1101.8 547.699C1102.6 546.999 1103.5 546.499 1104.5 546.299C1105.5 546.099 1106.6 546.199 1107.5 546.499C1108.6 546.999 1109.5 547.599 1110.1 548.399Z" fill="#D94532"/>
    <path opacity="0.15" d="M1115.8 579.1C1115.8 579.1 1119 581.9 1119.5 580C1119.7 579.2 1118.4 576.2 1118.4 576.2L1116.7 575.1C1117.2 577.7 1116.8 578.9 1115.8 579.1Z" fill="#E9B214"/>
    <path opacity="0.9" d="M1135.9 555.2C1135.9 555.2 1136.8 553.3 1138.4 553C1138.8 552.9 1138.9 553.1 1138.9 553.6C1138.9 553.6 1139 555.7 1138.7 555.9C1138.5 556.1 1136.2 556 1136.2 556C1135.8 555.9 1135.7 555.6 1135.9 555.2Z" fill="#3B3A3A"/>
    <path opacity="0.2" d="M1137.3 553.5C1137.7 553.3 1138 553.1 1138.4 553C1138.8 552.9 1138.9 553.1 1138.9 553.6C1139 554.4 1138.9 555.2 1138.8 555.9C1138.5 554.4 1137.9 553.3 1137.3 553.5Z" fill="#E7B114"/>
    <path opacity="0.3" d="M1136.8 554.999C1136.8 554.999 1137.7 553.599 1138.6 553.399L1136.8 554.999Z" fill="white"/>
    <path opacity="0.9" d="M1136.4 561.3C1136.4 561.3 1143.4 563 1143.6 554.8L1136.4 561.3ZM1141.2 560.2C1141.9 559.7 1139.9 557.2 1138.8 555.9L1141.2 560.2Z" stroke="#010101" stroke-width="1.7668" stroke-linecap="round" stroke-linejoin="round"/>
    <path opacity="0.6" d="M1127.9 559.1C1127.9 559.1 1123.6 554.3 1126 552.1C1128.4 549.9 1132.6 554.6 1132.6 554.6C1132.6 554.6 1126.4 551.8 1127.9 559.1ZM1137.1 550.9C1137.1 550.9 1132.8 546.1 1135.2 543.9C1137.6 541.7 1141.8 546.4 1141.8 546.4C1141.8 546.4 1135.6 543.5 1137.1 550.9Z" fill="#010202"/>
    <path opacity="0.9" d="M1140.9 555.599C1144.8 551.399 1152.3 548.999 1152.3 548.999L1140.9 555.599ZM1136.7 557.999C1130.9 561.199 1125.2 567.499 1125.2 567.499L1136.7 557.999ZM1137.3 558.799C1132 562.799 1128 570.699 1128 570.699L1137.3 558.799ZM1140.2 554.799C1143.4 549.899 1149.4 545.699 1149.4 545.699L1140.2 554.799Z" stroke="#010101" stroke-width="0.3" stroke-linecap="round" stroke-linejoin="round"/>
    <path opacity="0.9" d="M1156.6 572C1153 570.5 1151.6 573.1 1151.1 574.3C1150.3 574.1 1149.6 573.9 1148.9 573.5L1144.5 571.1C1143.3 572.9 1141.7 574.4 1139.9 575.7L1144 579.8C1144 579.8 1141.9 581.2 1142.5 582.5C1143.1 583.7 1144.9 584.8 1147.1 582.1C1149.3 579.4 1152.7 578.9 1155.6 578.2C1158.5 577.5 1160.9 575.2 1160 573.3C1159.4 571.9 1158.3 571.1 1156.6 572Z" fill="url(#paint26_radial)"/>
    <path opacity="0.1" d="M1142.6 582.5C1143.2 583.7 1145 584.8 1147.2 582.1C1149.4 579.4 1152.8 578.9 1155.7 578.2C1158.6 577.5 1161 575.2 1160.1 573.3C1157.3 577.6 1156 576 1149.4 579.7C1145.8 581.5 1145 584.3 1142.6 582.5Z" fill="#010202"/>
    <path opacity="0.9" d="M1137.4 580.8L1135.4 577.8C1135.4 577.8 1130.6 579.4 1126.8 578.9C1126.8 578.9 1128.2 585.4 1127 587.1C1125.9 587 1124.9 587.8 1124.9 588.9C1124.9 589.3 1124.9 589.6 1125.1 590C1125.2 590.2 1125.4 590.4 1125.6 590.6C1125.8 590.8 1126 590.9 1126.3 591C1126.5 591.1 1126.8 591.1 1127.1 591.1C1127.3 591.1 1127.6 591 1127.8 590.9C1128.1 590.8 1128.3 590.5 1128.5 590.3C1129.1 590.7 1129.8 590.8 1130.5 590.6C1131.2 590.4 1131.8 590 1132.2 589.4C1132.4 589.1 1132.5 588.7 1132.6 588.3C1133.2 588.7 1133.9 588.9 1134.6 588.9C1135.3 588.8 1136 588.5 1136.4 587.9C1136.8 587.4 1137 586.8 1137 586.2C1137.3 586.4 1137.7 586.6 1138.1 586.6C1138.5 586.7 1138.9 586.7 1139.3 586.6C1139.7 586.5 1140.1 586.4 1140.4 586.1C1140.7 585.9 1141 585.6 1141.2 585.2C1141.4 584.9 1141.6 584.5 1141.6 584.1C1141.7 583.7 1141.7 583.3 1141.6 582.9C1141.5 582.5 1141.4 582.1 1141.1 581.8C1140.9 581.5 1140.6 581.2 1140.2 581C1139.8 580.7 1139.4 580.6 1138.9 580.5C1138.3 580.6 1137.8 580.6 1137.4 580.8Z" fill="url(#paint27_radial)"/>
    <path opacity="0.2" d="M1159.6 573.1C1157.8 572.5 1155.4 573.5 1155.4 573.5C1155.8 573 1156.4 572.5 1157 572.2C1157.8 571.7 1159.1 572.1 1159.6 573.1Z" fill="white"/>
    <path opacity="0.1" d="M1137.8 586.299C1140 584.999 1140.9 583.699 1139.2 580.899C1140.7 581.199 1141.6 582.799 1141.3 584.199C1141 585.699 1139.4 586.599 1138 586.299C1137.9 586.399 1137.9 586.299 1137.8 586.299ZM1133.9 588.499C1135.7 587.399 1136.4 586.399 1135 584.199C1135.3 584.299 1135.5 584.399 1135.8 584.599C1136 584.799 1136.2 584.999 1136.4 585.199C1136.6 585.399 1136.6 585.699 1136.7 585.999C1136.8 586.299 1136.7 586.599 1136.7 586.899C1136.3 587.999 1135.2 588.799 1133.9 588.499C1133.9 588.499 1134 588.499 1133.9 588.499ZM1129.7 590.199C1131.3 589.299 1131.9 588.399 1130.7 586.399C1131.8 586.599 1132.4 587.699 1132.2 588.699C1132 589.799 1130.9 590.399 1129.9 590.199C1129.9 590.299 1129.8 590.299 1129.7 590.199ZM1126.5 590.799C1127.8 589.999 1128.3 589.299 1127.3 587.699C1127.5 587.699 1127.7 587.799 1127.9 587.899C1128.1 587.999 1128.2 588.199 1128.3 588.299C1128.4 588.399 1128.5 588.699 1128.5 588.899C1128.5 589.099 1128.5 589.299 1128.5 589.499C1128.5 589.699 1128.4 589.899 1128.3 590.099C1128.2 590.299 1128 590.399 1127.8 590.499C1127.6 590.599 1127.4 590.699 1127.2 590.699C1127 590.699 1126.8 590.699 1126.6 590.699L1126.5 590.799ZM1132.6 578.499L1134.6 581.599C1132.2 582.599 1130.2 584.099 1128.6 586.199C1130.7 584.499 1132.8 583.199 1135.1 582.499C1135.1 582.499 1135.9 581.099 1137.4 580.799L1135.3 577.699C1134.4 578.099 1133.5 578.399 1132.6 578.499Z" fill="#010202"/>
    <path opacity="0.2" d="M1140.6 575.4C1140.6 575.4 1144.4 578.5 1144.6 580.1C1144.6 580.1 1143.7 576.1 1142.8 575.3C1141.8 574.5 1140.6 575.4 1140.6 575.4Z" fill="white"/>
    <path opacity="0.1" d="M1151.1 574.3C1151.6 573 1153 570.4 1156.6 572C1156.7 572 1153.3 575.2 1151.1 574.3Z" fill="#010202"/>
    <path opacity="0.2" d="M1127.2 579.199C1127.2 579.199 1128.2 584.999 1127.3 586.399C1127.3 586.399 1129.3 582.299 1129.1 580.799C1128.8 579.399 1127.2 579.199 1127.2 579.199ZM1140 582.299C1138.3 581.699 1137.2 581.899 1136.4 584.099C1136.3 583.899 1136.2 583.599 1136.2 583.399C1136.2 583.099 1136.2 582.899 1136.3 582.599C1136.4 582.299 1136.5 582.099 1136.7 581.899C1136.9 581.699 1137.1 581.499 1137.3 581.399C1138.3 580.999 1139.6 581.299 1140 582.299ZM1135.4 585.799C1134.1 585.399 1133.4 585.499 1132.8 587.099C1132.7 586.899 1132.6 586.799 1132.6 586.599C1132.6 586.399 1132.6 586.199 1132.6 585.999C1132.6 585.799 1132.7 585.599 1132.8 585.499C1132.9 585.299 1133.1 585.199 1133.2 585.099C1133.4 584.999 1133.6 584.899 1133.8 584.899C1134 584.899 1134.2 584.899 1134.4 584.999C1134.6 585.099 1134.8 585.199 1134.9 585.299C1135 585.399 1135.2 585.599 1135.2 585.799H1135.4ZM1130.9 587.199C1129.9 586.899 1129.4 586.999 1129 588.199C1128.9 588.099 1128.9 587.899 1128.9 587.799C1128.9 587.699 1128.9 587.499 1129 587.399C1129.1 587.299 1129.1 587.099 1129.2 586.999C1129.3 586.899 1129.4 586.799 1129.5 586.799C1130.1 586.499 1130.6 586.799 1130.9 587.199ZM1128.1 588.599C1127 587.799 1126.2 587.699 1125.3 589.099C1125.1 588.299 1125.6 587.599 1126.4 587.399C1127.2 587.199 1128 587.699 1128.1 588.499V588.599Z" fill="white"/>
    <path opacity="0.9" d="M1136.2 561.6C1136.1 561.5 1136 561.4 1136.1 561.3V561.2C1136.1 561.2 1136.1 561.1 1136.2 561.1C1136.3 561.1 1136.3 561.1 1136.3 561.1H1136.4C1136.4 561.1 1139.1 561.7 1141.1 560.2C1142.5 559.2 1143.2 557.4 1143.3 554.9C1143.3 554.8 1143.3 554.8 1143.4 554.7C1143.4 554.7 1143.5 554.6 1143.6 554.6C1143.8 554.6 1143.8 554.7 1143.9 554.8C1144.4 555.9 1146.3 560.6 1143.2 563.2C1140 565.8 1136.4 561.7 1136.2 561.6Z" fill="#010101"/>
    <path opacity="0.9" d="M1143.9 559.5L1143 557.1C1142.6 559.3 1141.1 560.8 1139.3 561.3L1140.1 563.1C1140.2 563.4 1140.3 563.4 1140.6 563.3L1142.2 562L1141.8 560.4L1142.5 561.7L1143.9 560.1C1144 559.8 1144 559.7 1143.9 559.5Z" fill="white"/>
  </g>
</svg>
