<?xml version="1.0" encoding="utf-8"?>
<!-- Generator: Adobe Illustrator 23.1.1, SVG Export Plug-In . SVG Version: 6.00 Build 0)  -->
<svg version="1.1" id="Layer_1" xmlns="http://www.w3.org/2000/svg" xmlns:xlink="http://www.w3.org/1999/xlink" x="0px" y="0px"
	 viewBox="0 0 688 347" style="enable-background:new 0 0 688 347;" xml:space="preserve">
<style type="text/css">
	.st0{fill:#D94432;}
	.st1{fill:url(#SVGID_1_);}
	.st2{fill:url(#SVGID_2_);}
	.st3{fill:#FFFFFF;}
	.st4{fill:url(#SVGID_3_);}
	.st5{fill:#F3C755;}
	.st6{opacity:0.1;fill:#010202;enable-background:new    ;}
	.st7{fill:#E9B214;}
	.st8{opacity:0.14;fill:#E9B214;enable-background:new    ;}
	.st9{fill:url(#SVGID_4_);}
	.st10{fill:#D94532;}
	.st11{fill:url(#SVGID_5_);}
	.st12{opacity:0.1;}
	.st13{opacity:0.5;fill:#010202;enable-background:new    ;}
	.st14{fill:#E9B213;}
	.st15{opacity:0.15;fill:#E9B214;enable-background:new    ;}
	.st16{fill:#3B3A3A;}
	.st17{opacity:0.2;fill:#E7B114;enable-background:new    ;}
	.st18{opacity:0.3;fill:#FFFFFF;enable-background:new    ;}
	.st19{fill:#010101;}
	.st20{opacity:0.6;fill:#010202;enable-background:new    ;}
	.st21{fill:url(#SVGID_6_);}
	.st22{fill:url(#SVGID_7_);}
	.st23{opacity:0.2;fill:#FFFFFF;enable-background:new    ;}
	.st24{fill-rule:evenodd;clip-rule:evenodd;fill:#FFFFFF;}
	.st25{fill:none;stroke:#0CA6FE;stroke-width:2;}
	.st26{opacity:0.5;fill:none;stroke:#FFFFFF;enable-background:new    ;}
	.st27{fill:url(#SVGID_8_);}
	.st28{fill:url(#SVGID_9_);}
	.st29{fill:url(#SVGID_10_);}
	.st30{fill:url(#SVGID_11_);}
	.st31{opacity:0.5;}
	.st32{opacity:0.7;}
	.st33{fill:#FFFFFF;fill-opacity:0.2;}
	.st34{fill:url(#SVGID_12_);}
	.st35{opacity:0.6;}
	.st36{fill:url(#SVGID_13_);}
	.st37{opacity:0.2;}
	.st38{fill:url(#SVGID_14_);}
	.st39{fill:url(#SVGID_15_);}
</style>
<g id="Gift_Card_Background">
	<path class="st0" d="M686,8v331c0,3.3-2.7,6-6,6H8c-3.3,0-6-2.7-6-6V8c0-3.3,2.7-6,6-6h672C683.3,2,686,4.7,686,8z"/>
	
		<radialGradient id="SVGID_1_" cx="344" cy="173.5" r="272.4319" gradientTransform="matrix(-1 0 0 -0.5044 688 261.0065)" gradientUnits="userSpaceOnUse">
		<stop  offset="0" style="stop-color:#260133"/>
		<stop  offset="1" style="stop-color:#1F2348"/>
	</radialGradient>
	<path class="st1" d="M680,2c3.3,0,6,2.7,6,6v331c0,3.3-2.7,6-6,6H8c-3.3,0-6-2.7-6-6V8c0-3.3,2.7-6,6-6H680 M680,0H8
		C3.6,0,0,3.6,0,8v331c0,4.4,3.6,8,8,8h672c4.4,0,8-3.6,8-8V8C688,3.6,684.4,0,680,0L680,0z"/>
</g>
<g id="Nimiq_Logo">
	
		<radialGradient id="SVGID_2_" cx="352.5786" cy="181.2562" r="1" gradientTransform="matrix(-21.4734 0 0 19.0891 7632.5356 -3137.9292)" gradientUnits="userSpaceOnUse">
		<stop  offset="0" style="stop-color:#EC991C"/>
		<stop  offset="1" style="stop-color:#E9B213"/>
	</radialGradient>
	<path class="st2" d="M61.2,311.6l-4.5-7.8c-0.3-0.6-0.9-0.9-1.6-0.9h-8.9c-0.6,0-1.2,0.3-1.5,0.9l-4.5,7.8c-0.3,0.6-0.3,1.2,0,1.8
		l4.5,7.8c0.3,0.6,0.9,0.9,1.5,0.9h8.9c0.6,0,1.2-0.3,1.5-0.9l4.5-7.8C61.6,312.9,61.6,312.2,61.2,311.6z"/>
	<path class="st3" d="M77.1,306.9h1.9v11.3h-1.5l-6.1-7.9v7.9h-1.9v-11.3H71l6.1,7.9V306.9z"/>
	<path class="st3" d="M82.9,318.2v-11.3H85v11.3H82.9z"/>
	<path class="st3" d="M98.3,306.9h1.6v11.3h-1.8v-7l-3.1,7h-1.3l-3.1-7v7h-1.8v-11.3h1.6l3.9,8.9L98.3,306.9z"/>
	<path class="st3" d="M103.8,318.2v-11.3h2.1v11.3H103.8z"/>
	<path class="st3" d="M119.9,315.6c-0.6,1.2-1.6,1.9-2.4,2.3c0.1,0.2,0.6,0.9,0.9,1.2c0.3,0.4,0.7,0.7,1.2,1.1l-1.4,1.1
		c-0.5-0.4-1-0.8-1.4-1.3c-0.5-0.5-0.9-1.1-1.2-1.7c-0.1,0-0.3,0-0.5,0c-1.2,0-2.1-0.2-3-0.7c-0.8-0.5-1.5-1.1-1.9-2
		c-0.4-0.8-0.7-1.9-0.7-3.1s0.2-2.2,0.7-3.1c0.4-0.9,1.1-1.6,1.9-2c0.8-0.5,1.8-0.7,2.9-0.7c1.1,0,2.1,0.2,2.9,0.7
		c0.8,0.5,1.5,1.1,1.9,2c0.4,0.9,0.7,1.9,0.7,3.1S120.3,314.8,119.9,315.6z M112.5,315.6c0.6,0.7,1.4,1.1,2.5,1.1
		c1.1,0,1.9-0.4,2.5-1.1c0.6-0.7,0.9-1.7,0.9-3.1c0-1.3-0.3-2.4-0.9-3.1c-0.6-0.7-1.4-1.1-2.5-1.1c-1.1,0-1.9,0.4-2.5,1.1
		c-0.6,0.7-0.9,1.8-0.9,3.1C111.6,313.9,111.9,314.9,112.5,315.6z"/>
</g>
<radialGradient id="SVGID_3_" cx="396.35" cy="119.88" r="0.2109" gradientUnits="userSpaceOnUse">
	<stop  offset="0" style="stop-color:#EC991C"/>
	<stop  offset="1" style="stop-color:#E9B213"/>
</radialGradient>
<path class="st4" d="M396.5,119.9L396.5,119.9c0,0.1,0,0.1,0,0.2s0,0-0.1,0l-0.1,0C396.4,120,396.5,120,396.5,119.9
	C396.5,119.9,396.5,119.9,396.5,119.9z"/>
<g id="Rat_mascot">
	<path id="QR_Code_Background" class="st5" d="M460,191.9c0,0,5.7,0.9,4.4,5.6c-2.6,8.9,3.6,13.7,7,13.6c8.2,0.6,21.7-16.7,12-31.6
		c-9.8-15-11.1-15.6-5.8-30.1c5.3-14.4,14.9-13.2,14.9-13.2c2.8,1.3,0.7,2,0.7,2c-6.3,0.3-11.7,4.4-13.6,10.4
		c-4.7,13.1-3.2,17.2-1.2,19.9c2.1,2.7,11.8,14.3,9.9,25.2c-1.9,11-9.4,19.3-17.6,18.7c-8.2-0.6-9.5-10.2-8.4-14.3
		c0.3-1.2,1.2-2.5-2.5-4.6l-0.3-0.1C456.9,192.1,460,191.9,460,191.9z"/>
	<path class="st6" d="M460,191.9c0,0,5.7,0.9,4.4,5.6c-2.6,8.9,3.6,13.7,7,13.6c8.2,0.6,21.7-16.7,12-31.6
		c-9.8-15-11.1-15.6-5.8-30.1c5.3-14.4,14.9-13.2,14.9-13.2c2.8,1.3,0.7,2,0.7,2c-6.3,0.3-11.7,4.4-13.6,10.4
		c-4.7,13.1-3.2,17.2-1.2,19.9c2.1,2.7,11.8,14.3,9.9,25.2c-1.9,11-9.4,19.3-17.6,18.7c-8.2-0.6-9.5-10.2-8.4-14.3
		c0.3-1.2,1.2-2.5-2.5-4.6l-0.3-0.1C456.9,192.1,460,191.9,460,191.9z"/>
	<path class="st7" d="M464,186.2c2.1,2.7-5.4,7.6-5.4,7.6s-3.4,6.9-5.4,4.2c-1-1.2-1-7.1-1-7.1l4-6.2
		C456.3,184.6,462.8,184.7,464,186.2z"/>
	<path class="st5" d="M459.4,193.3c0,0,5.7,0.9,4.4,5.6c-2.6,8.9,3.6,13.7,7,13.6c8.2,0.6,21.7-16.7,12-31.6
		c-9.7-15-11.1-15.6-5.8-30.1c5.3-14.4,14.9-13.2,14.9-13.2c2.8,1.3,0.7,2,0.7,2c-6.3,0.3-11.7,4.4-13.6,10.4
		c-4.7,13.1-3.2,17.2-1.1,19.9c2.1,2.7,11.8,14.3,9.9,25.2c-1.9,11-9.4,19.3-17.6,18.7c-8.2-0.6-9.5-10.2-8.4-14.3
		c0.3-1.2,1.2-2.5-2.5-4.6l-0.3-0.1C456.2,193.4,459.4,193.3,459.4,193.3z"/>
	<path class="st8" d="M464,186.2c2.1,2.7-4,4.8-5.4,7.6c-1.3,2.8-3.4,6.9-5.4,4.2C454.9,196.2,461.7,189.3,464,186.2z"/>
	
		<radialGradient id="SVGID_4_" cx="323.7195" cy="197.4162" r="1" gradientTransform="matrix(28.9891 0 0 -28.9891 -8990.6611 5865.9072)" gradientUnits="userSpaceOnUse">
		<stop  offset="0" style="stop-color:#EC991C"/>
		<stop  offset="1" style="stop-color:#E9B213"/>
	</radialGradient>
	<path class="st9" d="M408.2,143c-8,0-14.5-6.5-14.5-14.5c0-8,6.5-14.5,14.5-14.5c8,0,14.5,6.5,14.5,14.5
		C422.7,136.5,416.2,143,408.2,143z"/>
	<path class="st10" d="M405.5,138.9c-5.6,0-10.1-4.5-10.1-10.1c0-5.6,4.5-10.1,10.1-10.1c5.6,0,10.1,4.5,10.1,10.1
		C415.6,134.4,411.1,138.9,405.5,138.9z"/>
	
		<radialGradient id="SVGID_5_" cx="331.3684" cy="193.4199" r="1" gradientTransform="matrix(76.8629 0 0 -76.8629 -25081.5176 15072.8682)" gradientUnits="userSpaceOnUse">
		<stop  offset="0" style="stop-color:#EC991C"/>
		<stop  offset="1" style="stop-color:#E9B213"/>
	</radialGradient>
	<path class="st11" d="M426.8,206.1c-21.2,0-38.4-17.2-38.4-38.4s17.2-38.4,38.4-38.4c21.2,0,38.4,17.2,38.4,38.4
		S448.1,206.1,426.8,206.1z"/>
	<g class="st12">
		<path class="st13" d="M390.5,157.1c-5.6,20.5,6.4,41.6,26.9,47.2c9.7,2.7,20.1,1.4,28.9-3.5c-10.3-0.5-34.6-6.5-43.1-26.3
			c-6.5-14.4,0.8-33.4,7.3-41.7c-4.8,2.4-9.1,5.8-12.6,10C394.4,147,391.9,151.8,390.5,157.1z"/>
	</g>
	<path class="st14" d="M462.2,153.3c-7.9,1-15.2-4.6-16.2-12.5c-1-7.9,4.6-15.2,12.5-16.2c7.9-1,15.2,4.6,16.2,12.5
		C475.8,145,470.2,152.3,462.2,153.3z"/>
	<path class="st10" d="M447.9,137.6c4.4,3.2,8,7.3,10.7,12.1c1.9-0.1,3.7-0.8,5.2-1.9c1.5-1.1,2.7-2.6,3.4-4.4
		c0.7-1.7,0.9-3.6,0.6-5.5c-0.3-1.9-1.1-3.6-2.4-5c-1.2-1.4-2.9-2.4-4.7-3c-1.8-0.5-3.7-0.6-5.5-0.1c-1.8,0.5-3.5,1.5-4.7,2.8
		S448.3,135.8,447.9,137.6L447.9,137.6z"/>
	<path class="st15" d="M463.4,191.9c0,0-2.9,7.1-5.2,4.5c-1-1.1-1.4-7-1.4-7l1.8-3.2C460.1,190.7,461.7,192.3,463.4,191.9z"/>
	<path class="st16" d="M411.6,169.4c0,0-3-2.3-5.8-1.6c-0.6,0.1-0.7,0.6-0.4,1.4c0,0,1.6,3.5,2.1,3.6c0.5,0.1,4.2-1.9,4.2-1.9
		C412.4,170.4,412.3,169.8,411.6,169.4z"/>
	<path class="st17" d="M408.1,167.8c-0.7-0.1-1.5-0.1-2.3,0.1c-0.8,0.2-0.7,0.6-0.4,1.4c0.5,1.3,1.2,2.5,2.1,3.6
		C406.8,170.2,406.9,167.9,408.1,167.8z"/>
	<path class="st18" d="M410,169.7c0,0-2.6-1.5-4.2-1.2L410,169.7z"/>
	<path class="st19" d="M408.7,183.1c-0.6,0-1.2,0-1.8-0.2c-3.4-0.6-6.4-3.2-8.7-7.5c-0.2-0.4-0.1-0.8,0.3-1c0.4-0.2,0.8-0.1,1,0.3
		c1.8,3.3,3.8,5.4,6.2,6.3c-0.4-2.2,0.6-6.4,1.1-8.3c0.1-0.4,0.5-0.6,0.8-0.5c0.4,0.1,0.6,0.4,0.6,0.8l-0.4,8.6
		c4,0.4,7.4-2.4,7.4-2.4c0.3-0.3,0.8-0.2,1.1,0.1s0.2,0.8-0.1,1.1C416.2,180.4,412.9,183.1,408.7,183.1z"/>
	<path class="st20" d="M427.8,169.3c0,0,3.1-11.3-2.5-12.8c-5.6-1.6-8.6,9.4-8.6,9.4S424.3,156.2,427.8,169.3z M406.2,163.4
		c0,0,3.1-11.3-2.5-12.8c-5.6-1.6-8.6,9.4-8.6,9.4S402.7,150.3,406.2,163.4z"/>
	<path class="st19" d="M436.8,188.5c0,0-0.1,0-0.1,0l-24.6-11.8c-0.1-0.1-0.2-0.2-0.2-0.4s0.2-0.2,0.3-0.2
		c11.7,2.2,24.6,11.8,24.8,11.9c0.1,0.1,0.2,0.3,0.1,0.4C437,188.4,436.9,188.5,436.8,188.5z M414.8,177.3l18.7,9
		C429.4,183.6,422.1,179.3,414.8,177.3z M438.9,180.9C438.9,180.9,438.9,180.9,438.9,180.9l-26.4-6c-0.2,0-0.2-0.2-0.2-0.3
		c0-0.2,0.2-0.3,0.3-0.3c11.9,0.5,26.3,6,26.4,6c0.1,0.1,0.2,0.2,0.2,0.4C439.2,180.8,439,180.9,438.9,180.9z M416.8,175.2l16.7,3.8
		C429.2,177.7,422.9,175.9,416.8,175.2z M403.8,174.4c0,0-0.1,0-0.1,0c-9.6-3.6-23.5-1.5-23.7-1.5c-0.2,0-0.3-0.1-0.3-0.2
		c0-0.2,0.1-0.3,0.3-0.3c0.1,0,14.2-2.2,24,1.5c0.2,0.1,0.2,0.2,0.2,0.4C404.1,174.3,404,174.4,403.8,174.4z M404.4,172.6
		C404.4,172.6,404.4,172.6,404.4,172.6l-22.4-7.3c-0.1,0-0.2-0.2-0.2-0.4c0-0.2,0.2-0.3,0.3-0.2c0.1,0,13.3,2.1,22.4,7.4
		c0.1,0.1,0.2,0.2,0.1,0.4C404.6,172.5,404.5,172.6,404.4,172.6z M386.9,166.2l14.1,4.6C396.1,168.6,390.7,167.1,386.9,166.2z"/>
	
		<radialGradient id="SVGID_6_" cx="326.0464" cy="199.8999" r="1" gradientTransform="matrix(35.766 0 0 -20.8991 -11274.3018 4400.7959)" gradientUnits="userSpaceOnUse">
		<stop  offset="0" style="stop-color:#EC991C"/>
		<stop  offset="1" style="stop-color:#E9B213"/>
	</radialGradient>
	<path class="st21" d="M391.6,213.3c4.5-5.4,9-2.3,10.8-0.6c1.1-0.9,2.1-1.9,2.9-3.1l5.2-7.4c3.4,1.9,7.2,3.2,11.1,3.7l-3.3,10
		c0,0,4.5,0.6,4.5,3.1c0,2.5-2,5.6-7.8,3.1s-11.7-0.6-16.9,0.6c-5.2,1.3-11.1-0.6-11.1-4.4C387.1,215.4,388.3,213.2,391.6,213.3
		L391.6,213.3z"/>
	<path class="st6" d="M422.8,219c0,2.4-2,5.6-7.8,3.1c-5.8-2.5-11.7-0.6-16.9,0.6c-5.2,1.3-11.1-0.6-11.1-4.4
		c8,4.7,8.9,1.1,22.5,1.6C416.8,220,420.5,223.9,422.8,219z"/>
	
		<radialGradient id="SVGID_7_" cx="324.9638" cy="199.2063" r="1" gradientTransform="matrix(32.2576 0 0 -22.6654 -10057.4922 4738.1143)" gradientUnits="userSpaceOnUse">
		<stop  offset="0" style="stop-color:#EC991C"/>
		<stop  offset="1" style="stop-color:#E9B213"/>
	</radialGradient>
	<path class="st22" d="M430,212.1l0.7-6.5c0,0,9.1-1.3,14.9-5.2c0,0,3.1,11.7,6.3,13.5c1.6-1,3.9-0.5,4.9,1.2
		c0.4,0.6,0.6,1.2,0.5,1.9c0,0.5-0.1,0.9-0.3,1.4c-0.2,0.4-0.4,0.8-0.8,1.2c-0.3,0.3-0.7,0.6-1.1,0.8s-0.9,0.3-1.4,0.3
		c-0.6,0-1.1-0.2-1.6-0.5c-0.7,1.1-1.7,1.9-3,2.2c-1.2,0.3-2.6,0.1-3.6-0.5c-0.6-0.4-1.1-0.9-1.5-1.5c-0.5,1.2-1.5,2.1-2.7,2.5
		c-1.2,0.4-2.5,0.4-3.7-0.1c-1-0.5-1.8-1.3-2.3-2.3c-0.4,0.6-0.9,1.2-1.4,1.6c-0.6,0.4-1.2,0.7-1.9,0.9c-0.7,0.2-1.4,0.2-2.1,0.1
		c-0.7-0.1-1.4-0.3-2-0.7c-0.6-0.4-1.2-0.9-1.6-1.4c-0.4-0.6-0.7-1.2-0.9-1.9c-0.2-0.7-0.2-1.4-0.1-2.1c0.1-0.7,0.3-1.4,0.7-2
		c0.4-0.8,1-1.4,1.7-1.9C428.3,212.4,429.1,212.1,430,212.1L430,212.1z"/>
	<path class="st23" d="M387.8,217.5c2.4-2.4,7.2-2.7,7.2-2.7c-1.1-0.5-2.3-0.8-3.6-0.8C389.4,213.9,387.8,215.5,387.8,217.5z"/>
	<path class="st6" d="M433.6,221.3c-4.7-0.4-7.1-1.6-6.6-7.6c-2.2,1.7-2.4,5-0.7,7.1c1.7,2.1,5,2.4,7.1,0.7
		C433.5,221.5,433.5,221.4,433.6,221.3z M441.7,221.7c-3.8-0.3-5.6-1.4-5.3-6.1c-0.4,0.3-0.7,0.7-1,1.2c-0.2,0.5-0.4,1-0.4,1.5
		c0,0.5,0,1.1,0.2,1.6c0.2,0.5,0.4,1,0.8,1.4C437.4,222.9,440,223.1,441.7,221.7C441.6,221.8,441.7,221.7,441.7,221.7z M450,221.1
		c-3.3-0.2-5-1.2-4.7-5.4c-1.5,1.3-1.8,3.4-0.5,5c1.3,1.6,3.4,1.8,5,0.5C449.8,221.3,449.9,221.2,450,221.1L450,221.1z M455.6,219.4
		c-2.7-0.2-4.1-0.9-3.8-4.4c-0.3,0.2-0.5,0.5-0.7,0.9c-0.2,0.3-0.3,0.7-0.3,1.1c0,0.4,0,0.8,0.1,1.1c0.1,0.4,0.3,0.7,0.5,1
		c0.2,0.3,0.5,0.5,0.9,0.7c0.3,0.2,0.7,0.3,1.1,0.3c0.4,0,0.8,0,1.1-0.1c0.4-0.1,0.7-0.3,1-0.5L455.6,219.4z M435.9,204.4l-0.7,6.6
		c4.6-0.4,9.2,0.5,13.3,2.5c-4.7-1-9.2-1.4-13.5-0.7c0,0-2.5-1.6-5.1-0.8l0.8-6.7C432.5,205.3,434.2,205,435.9,204.4L435.9,204.4z"
		/>
	<path class="st23" d="M420.4,205.9c0,0-3.5,8.1-2.6,10.8c0,0-1.7-7.2-0.9-9.3C417.7,205.4,420.4,205.9,420.4,205.9z"/>
	<path class="st6" d="M402.4,212.7c-1.8-1.6-6.3-4.7-10.8,0.6C391.6,213.4,399.6,215.8,402.4,212.7z"/>
	<path class="st23" d="M445.1,201.2c0,0,3,10.2,5.7,11.8c0,0-6.5-5.1-7.4-7.6C442.6,202.8,445.1,201.2,445.1,201.2z M426.8,216.6
		c2.4-2.4,4.2-3,7.2,0c0-0.5-0.1-0.9-0.3-1.4c-0.2-0.4-0.4-0.8-0.8-1.1c-0.3-0.3-0.7-0.6-1.2-0.8c-0.4-0.2-0.9-0.3-1.4-0.3
		C428.6,213.1,426.8,214.6,426.8,216.6L426.8,216.6z M437.2,218.5c1.7-1.7,3-2.2,5.2,0c0-0.4,0-0.7-0.1-1.1
		c-0.1-0.3-0.3-0.7-0.5-0.9c-0.2-0.3-0.5-0.5-0.8-0.6c-0.3-0.2-0.7-0.2-1-0.3c-0.4,0-0.7,0-1,0.2c-0.3,0.1-0.6,0.3-0.9,0.6
		c-0.3,0.2-0.5,0.5-0.6,0.9c-0.1,0.3-0.2,0.7-0.2,1V218.5z M445.6,217.2c1.3-1.3,2.3-1.6,3.9,0c0-0.3-0.1-0.5-0.2-0.7
		c-0.1-0.2-0.3-0.4-0.5-0.6c-0.2-0.2-0.4-0.3-0.7-0.4c-0.2-0.1-0.5-0.1-0.8-0.1C446.4,215.4,445.7,216.2,445.6,217.2L445.6,217.2z
		 M451.2,217.2c1.2-2.2,2.4-2.9,5-1.5c-0.4-1.4-1.7-2.3-3.1-1.9c-1.4,0.4-2.3,1.7-1.9,3.1V217.2z"/>
	<path class="st19" d="M416.3,180c0.1-0.3,0.1-0.5-0.1-0.6c0-0.1-0.1-0.1-0.1-0.1c-0.1,0-0.1-0.1-0.2-0.1c-0.1,0-0.1,0-0.2,0
		c-0.1,0-0.1,0.1-0.2,0.1c-0.1,0.1-3.9,3.2-8.3,2.4c-3-0.6-5.7-2.9-7.8-6.9c-0.1-0.1-0.2-0.2-0.3-0.2c-0.1,0-0.3,0-0.4,0
		c-0.2,0.1-0.3,0.3-0.3,0.6c0,2.2,0.9,11.3,8,13C413.5,189.8,416.1,180.3,416.3,180z"/>
	<path class="st3" d="M402.1,182.8l-0.5-4.7c2.3,3.2,6.1,4.4,9.4,3.8l0.2,3.5c0.1,0.5-0.1,0.6-0.6,0.7l-3.6-0.7l-0.6-2.9l0,2.7
		l-3.5-1.4C402.3,183.5,402.1,183.2,402.1,182.8z"/>
</g>
<path class="st24" d="M646.6,66.3v8.4c0,0.1,0,0.3,0.1,0.4l0,0c0.1,0.2,0.2,0.4,0.3,0.6c0,0.1,0.1,0.1,0.1,0.2
	c0.1,0.1,0.1,0.1,0.1,0.1l0,0c0.1,0.1,0.3,0.2,0.4,0.2l7.2,4.1c0.7,0.4,1.1,1.1,1.1,1.8v16.9c0,0.2-0.1,0.5-0.2,0.7c0,0,0,0.1,0,0.1
	c0,0,0,0,0,0c0,0,0,0.1-0.1,0.1l0,0c0,0,0,0.1-0.1,0.1c0,0-0.1,0-0.1,0.1l-0.1,0.1c-0.1,0.1-0.1,0.1-0.1,0.1c0,0,0,0,0,0
	c-0.1,0.1-0.2,0.1-0.2,0.2c0,0-0.1,0.1-0.2,0.1c0,0,0,0,0,0l0,0c0,0-0.1,0-0.1,0l-7.3,4.2c0,0-0.1,0-0.1,0.1c0,0,0,0-0.1,0.1
	c0,0-0.1,0.1-0.2,0.1l0,0c0,0-0.1,0.1-0.1,0.1c0,0,0,0-0.1,0.1c0,0-0.1,0.1-0.1,0.1c0,0.1-0.1,0.2-0.1,0.2c0,0-0.1,0.1-0.1,0.2l0,0
	c0,0.1,0,0.1-0.1,0.2c0,0.1,0,0.2,0,0.3v8.4c0,0.1,0,0.1,0,0.2c0,0.1,0,0.1,0,0.2c0,0,0,0.1,0,0.1c0,0,0.1,0.1,0.1,0.1l0,0
	c0,0,0,0.1,0.1,0.1c0,0,0,0.1,0,0.1c0,0.1,0.1,0.1,0.1,0.1l0,0c0,0.1,0.1,0.2,0.2,0.2c0,0,0,0,0,0c0.1,0.1,0.1,0.1,0.1,0.1
	c0,0,0,0,0,0.1l0,0c0,0,0,0,0,0.1c0,0,0.1,0.1,0.1,0.1c0,0,0.1,0,0.2,0.1l7.3,4.2c0.7,0.4,1.1,1.1,1.1,1.8V139
	c0,0.8-0.5,1.4-1.1,1.8l-4.5,2.7l-3,1.7c-0.5,0.3-0.8,0.9-0.8,1.4v8.4c0,0.6,0.3,1.1,0.8,1.4l7.4,4.2c0.7,0.4,1.1,1.1,1.1,1.8v16.6
	c0,0.8-0.5,1.4-1.1,1.8l-5.9,3.6l-1.4,0.8c-0.5,0.3-0.8,0.9-0.8,1.4v8.5v0c0,0.1,0,0.1,0,0.2l0,0c0,0,0,0.1,0,0.1l0,0v0.1l0,0
	c0,0,0,0,0,0.1c0,0.1,0.1,0.1,0.1,0.2c0.1,0.1,0.1,0.1,0.1,0.2l0,0c0.1,0.1,0.2,0.2,0.2,0.2c0,0,0,0,0,0l0,0
	c0.1,0.1,0.3,0.2,0.4,0.2l7.2,4.1c0.7,0.4,1.1,1.1,1.1,1.8V216c0,0.1,0,0.3,0,0.4c0,0.3-0.1,0.5-0.1,0.8l0,0l0,0
	c0,0.3-0.1,0.5-0.2,0.7c-0.1,0.3-0.2,0.5-0.4,0.8c-0.1,0.1-0.1,0.2-0.2,0.3c-0.1,0.1-0.1,0.2-0.2,0.3l0,0c0,0-0.1,0.1-0.1,0.1
	c0,0-0.1,0.1-0.1,0.1c-0.1,0.1-0.2,0.2-0.3,0.3c-0.1,0-0.1,0.1-0.2,0.1c-0.1,0.1-0.2,0.2-0.3,0.3c-0.1,0.1-0.2,0.1-0.3,0.2
	c0,0-0.1,0-0.1,0l0,0c0,0-0.1,0.1-0.2,0.1c0,0-0.1,0-0.2,0.1c-0.2,0.1-0.3,0.2-0.5,0.2c-0.2,0.1-0.4,0.2-0.6,0.2l0,0
	c-0.1,0-0.2,0.1-0.3,0.1c-0.1,0-0.1,0-0.1,0c-0.1,0-0.2,0.1-0.4,0.1l0,0c-0.1,0-0.2,0-0.3,0h-13.8c-0.7,0-1.4-0.4-1.7-1c0,0,0,0,0,0
	l0,0c0,0-0.1-0.1-0.1-0.1l-4.2-7.4c0-0.1-0.1-0.2-0.2-0.3c-0.1-0.1-0.1-0.1-0.2-0.2l0,0c-0.1-0.1-0.1-0.1-0.2-0.2c0,0-0.1,0-0.1,0
	c-0.1-0.1-0.2-0.2-0.4-0.2l0,0c-0.1,0-0.3-0.1-0.4-0.1h-8.4c-0.1,0-0.2,0-0.2,0c-0.1,0-0.3,0-0.4,0.1l0,0c-0.1,0-0.1,0.1-0.2,0.1
	c0,0-0.1,0.1-0.1,0.1c-0.1,0.1-0.2,0.2-0.2,0.3l0,0l0,0c-0.1,0.1-0.2,0.3-0.2,0.4l-4.1,7.2c-0.4,0.7-1.1,1.1-1.8,1.1H597
	c-0.7,0-1.4-0.4-1.8-1.1c0,0,0-0.1,0-0.1l0,0c0,0,0,0,0,0l-4.2-7.4c0,0,0-0.1-0.1-0.1c0,0,0,0-0.1-0.1c0,0-0.1-0.1-0.1-0.2l0,0
	c0,0-0.1-0.1-0.1-0.1c0,0,0,0-0.1-0.1c0,0-0.1-0.1-0.1-0.1c0,0-0.1,0-0.1-0.1c-0.1-0.1-0.2-0.2-0.4-0.2l0,0c-0.1,0-0.3-0.1-0.4-0.1
	h-8.4c-0.5,0-1,0.2-1.3,0.6c0,0,0,0-0.1,0l0,0c0,0,0,0-0.1,0c0,0-0.1,0.1-0.1,0.1c0,0,0,0.1-0.1,0.2l-4.2,7.3
	c-0.4,0.7-1.1,1.1-1.8,1.1h-16.6c-0.1,0-0.2,0-0.3,0h-0.1h-0.1c-0.1,0-0.1,0-0.2-0.1l0,0c-0.1,0-0.1-0.1-0.3-0.1h-0.1l0,0l0,0
	c0,0,0,0-0.1,0s-0.1-0.1-0.2-0.1c0,0,0,0-0.1-0.1c-0.1-0.1-0.2-0.2-0.4-0.3c0,0,0,0,0,0c-0.1-0.1-0.2-0.2-0.2-0.3l0,0l0,0
	c-0.1-0.1-0.2-0.3-0.2-0.4l-2.6-4.2l-1.7-3c-0.3-0.5-0.9-0.8-1.4-0.8h-8.4c-0.6,0-1.1,0.3-1.4,0.8l-4.2,7.4
	c-0.4,0.7-1.1,1.1-1.8,1.1h-16.5c-0.1,0-0.1,0-0.2,0c-0.1,0-0.1,0-0.1,0l0,0c0,0,0,0-0.1,0l0,0c-0.1,0-0.3-0.1-0.4-0.1
	c0,0,0,0-0.1,0c-0.1-0.1-0.2-0.1-0.3-0.1c-0.1-0.1-0.2-0.1-0.3-0.2c-0.1-0.1-0.2-0.2-0.2-0.3l0,0l0,0c-0.1-0.1-0.1-0.2-0.2-0.3
	l-3.7-6l-0.5-0.8c-0.1-0.1-0.2-0.2-0.2-0.3c0,0,0-0.1-0.1-0.1c0,0,0,0,0,0c0,0-0.1-0.1-0.1-0.1l0,0c0,0-0.1-0.1-0.1-0.1
	c0,0-0.1,0-0.1,0c0,0-0.1,0-0.1,0l0,0c-0.1,0-0.1-0.1-0.1-0.1c0,0-0.1,0-0.1,0c0,0-0.1,0-0.1-0.1l0,0c0,0-0.1-0.1-0.1-0.1
	c-0.1,0-0.2-0.1-0.3-0.1H501c-0.6,0-1.1,0.3-1.4,0.9l-0.8,1.4l-3.3,5.4l0,0c-0.1,0.2-0.3,0.4-0.4,0.6c-0.4,0.3-0.8,0.5-1.4,0.5
	h-13.6c-0.5,0-1-0.1-1.5-0.3c-0.1-0.1-0.3-0.1-0.4-0.2c-0.1-0.1-0.3-0.1-0.4-0.2c-0.1-0.1-0.3-0.2-0.4-0.3c-0.1-0.1-0.3-0.2-0.4-0.3
	c-0.1-0.1-0.3-0.2-0.4-0.3c-0.1-0.1-0.2-0.2-0.3-0.4c-0.1-0.1-0.2-0.3-0.3-0.4c-0.1-0.1-0.2-0.2-0.2-0.4c-0.1-0.2-0.2-0.3-0.2-0.5
	l0,0c-0.1-0.1-0.1-0.3-0.2-0.4l0,0c-0.1-0.2-0.1-0.5-0.1-0.8l0,0c0-0.1,0-0.1,0-0.2c0-0.1,0-0.2,0-0.2l0,0l0,0c0-0.1,0-0.2,0-0.3
	V202c0-0.5,0.2-0.9,0.5-1.3c0.2-0.2,0.4-0.4,0.5-0.5c0,0,0,0,0,0l0,0c0,0,0.1-0.1,0.1-0.1l7.4-4.2c0.1,0,0.2-0.1,0.3-0.2
	c0.1-0.1,0.1-0.1,0.2-0.2l0,0c0.1-0.1,0.1-0.1,0.2-0.2c0,0,0-0.1,0-0.1c0.1-0.1,0.2-0.2,0.2-0.4l0,0c0-0.1,0.1-0.3,0.1-0.4v-8.4
	c0-0.1,0-0.3-0.1-0.4l0,0c-0.1-0.2-0.2-0.4-0.3-0.6c0-0.1-0.1-0.1-0.1-0.2c-0.1-0.1-0.1-0.1-0.1-0.1l0,0c-0.1-0.1-0.3-0.2-0.4-0.2
	l-7.2-4.1c-0.7-0.4-1.1-1.1-1.1-1.8V162c0-0.5,0.2-0.9,0.5-1.3c0.2-0.2,0.4-0.4,0.6-0.5c0,0,0,0,0.1,0l0,0c0,0,0,0,0.1,0l7.4-4.2
	c0.1,0,0.2-0.1,0.3-0.2c0.1-0.1,0.1-0.1,0.2-0.2l0,0c0.1-0.1,0.1-0.1,0.2-0.2c0,0,0,0,0-0.1c0.1-0.1,0.2-0.2,0.2-0.4l0,0
	c0-0.1,0.1-0.3,0.1-0.4v-8.4c0-0.5-0.2-1-0.6-1.3c0,0,0,0,0-0.1l0,0c0,0,0,0,0-0.1c0,0-0.1-0.1-0.1-0.1c0,0-0.1,0-0.2-0.1l-7.3-4.2
	c-0.7-0.4-1.1-1.1-1.1-1.8V122c0-0.1,0-0.2,0-0.3c0,0,0,0,0,0c0-0.1,0-0.2,0.1-0.2l0,0c0,0,0-0.1,0.1-0.1c0,0,0,0,0-0.1
	c0-0.1,0.1-0.2,0.1-0.2c0,0,0,0,0-0.1c0,0,0.1-0.1,0.1-0.1c0,0,0,0,0.1-0.1c0.1-0.1,0.1-0.2,0.2-0.2c0,0,0.1-0.1,0.1-0.1
	c0.1-0.1,0.2-0.1,0.3-0.2l0,0l0,0c0.1-0.1,0.3-0.2,0.4-0.2l4.2-2.6c0,0,0,0,0.1,0l0,0c0,0,0,0,0.1,0l0.8-0.5l1.3-0.7
	c0.1-0.1,0.3-0.1,0.4-0.2l0,0c0.1-0.1,0.1-0.1,0.2-0.2c0.1-0.1,0.1-0.1,0.1-0.2l0,0c0-0.1,0.1-0.2,0.1-0.3c0,0,0,0,0-0.1
	c0,0,0,0,0-0.1c0,0,0-0.1,0.1-0.1l0,0c0,0,0-0.1,0-0.1c0,0,0,0,0-0.1c0-0.1,0-0.1,0-0.2v-8.4c0-0.1,0-0.2,0-0.3c0,0,0-0.1,0-0.1
	c0,0,0,0,0,0c0,0,0-0.1-0.1-0.1c0,0,0,0,0,0c0,0,0,0,0,0l0,0c0,0-0.1-0.1-0.1-0.1c0,0,0,0,0,0c0,0,0-0.1,0-0.1c0,0-0.1,0-0.1-0.1
	c0-0.1-0.1-0.1-0.1-0.1c0,0,0,0,0,0c0-0.1-0.1-0.1-0.2-0.2l0,0c-0.1,0-0.1-0.1-0.2-0.1c0,0,0,0-0.1,0c0,0,0,0-0.1-0.1l-6.7-4.3
	c-0.7-0.4-1.2-1.1-1.2-1.9V81.9c0-0.1,0-0.2,0-0.3c0,0,0-0.1,0-0.1l0,0c0-0.1,0.1-0.2,0.1-0.2c0,0,0.1-0.1,0.1-0.1
	c0.1-0.1,0.1-0.2,0.1-0.2c0,0,0,0,0-0.1c0.2-0.3,0.5-0.5,0.7-0.7c0,0,0.1,0,0.1,0l0,0c0,0,0,0,0,0l5.9-3.6l0.8-0.5
	c0.1,0,0.2-0.1,0.3-0.2c0.1-0.1,0.2-0.1,0.2-0.2l0,0c0-0.1,0.1-0.1,0.1-0.1c0,0,0-0.1,0-0.1c0,0,0-0.1,0-0.1l0,0c0,0,0,0,0-0.1
	c0,0,0,0,0-0.1c0-0.1,0.1-0.1,0.1-0.1s0.1-0.1,0.1-0.1c0-0.1,0.1-0.3,0.1-0.4V66c0-0.6-0.3-1.1-0.9-1.4l-1.4-0.8l-5.4-3.3l0,0
	c-0.2-0.1-0.4-0.3-0.6-0.4c-0.4-0.4-0.6-0.9-0.6-1.4V45c0-0.3,0-0.5,0.1-0.8c0.1-0.3,0.1-0.5,0.2-0.8c0.1-0.1,0.1-0.3,0.2-0.4
	c0-0.1,0.1-0.1,0.1-0.2c0-0.1,0.1-0.2,0.1-0.3l0,0c0,0,0-0.1,0-0.1c0,0,0-0.1,0.1-0.1l0,0c0,0,0,0,0.1,0c0-0.1,0.1-0.1,0.1-0.2l0,0
	c0.1-0.1,0.1-0.2,0.2-0.3c0-0.1,0.1-0.1,0.1-0.2c0,0,0-0.1,0.1-0.1c0,0,0,0,0-0.1c0.1-0.1,0.2-0.3,0.4-0.4c0,0,0.1-0.1,0.1-0.1
	c0,0,0.1,0,0.1-0.1c0,0,0,0,0,0c0-0.1,0.1-0.1,0.2-0.1l0,0c0,0,0.1-0.1,0.1-0.1c0,0,0.1,0,0.1-0.1c0,0,0.1-0.1,0.1-0.1l0,0
	c0,0,0.1,0,0.1,0c0.1,0,0.1-0.1,0.2-0.1c0.1-0.1,0.2-0.1,0.3-0.2c0,0,0.1,0,0.1,0c0,0,0.1,0,0.1,0c0.2-0.1,0.5-0.2,0.7-0.2l0,0
	c0.1,0,0.2-0.1,0.3-0.1s0.1,0,0.1,0l0,0c0.1,0,0.2,0,0.3,0l0,0c0.1,0,0.2,0,0.2,0c0.1,0,0.2,0,0.3,0h13.8c0.1,0,0.2,0,0.3,0
	c0,0,0.1,0,0.2,0c0,0,0.1,0,0.1,0l0,0c0.1,0,0.1,0,0.1,0l0,0l0,0c0,0,0.1,0.1,0.2,0.1c0,0,0,0,0,0c0,0,0.1,0,0.1,0.1
	c0,0,0.1,0,0.1,0c0,0,0.1,0,0.1,0.1c0.1,0,0.1,0.1,0.2,0.2c0,0,0.1,0.1,0.1,0.1l0,0l0,0c0.1,0.1,0.2,0.2,0.2,0.3c0,0,0,0.1,0,0.1
	l0,0l0,0c0,0.1,0.1,0.1,0.1,0.1l4.2,7.3c0,0.1,0.1,0.2,0.2,0.3c0.1,0.1,0.1,0.1,0.2,0.2l0,0c0.1,0.1,0.1,0.1,0.2,0.2
	c0,0,0.1,0,0.1,0c0.1,0.1,0.2,0.2,0.4,0.2l0,0c0.1,0,0.3,0.1,0.4,0.1h8.4c0.1,0,0.2,0,0.2,0c0.1,0,0.3,0,0.4-0.1l0,0
	c0.1,0,0.1-0.1,0.2-0.1c0,0,0.1,0,0.1-0.1c0.1-0.1,0.2-0.2,0.3-0.4c0-0.1,0.1-0.1,0.1-0.2l3.1-5.5c0.7-1.3,1.5-3,3-3l0,0h16.9
	c0.1,0,0.2,0,0.3,0h0.1l0,0l0,0c0.2,0,0.3,0.1,0.5,0.1l0,0l0,0c0.1,0,0.2,0.1,0.2,0.1c0,0,0,0,0,0c0.1,0,0.1,0.1,0.1,0.1l0.1,0.1
	l0,0c0,0,0,0,0,0l0,0c0,0,0.1,0,0.1,0c0.1,0.1,0.1,0.1,0.2,0.2c0.1,0.1,0.2,0.2,0.2,0.3c0,0,0,0.1,0,0.1l0,0c0,0,0,0,0,0l4.2,7.4
	c0,0.1,0.1,0.2,0.2,0.3c0.1,0.1,0.1,0.1,0.2,0.2l0,0c0.1,0.1,0.1,0.1,0.2,0.2c0,0,0.1,0,0.1,0c0.1,0.1,0.2,0.2,0.4,0.2l0,0
	c0.1,0,0.3,0.1,0.4,0.1h8.4c0.1,0,0.1,0,0.2,0c0.1,0,0.1,0,0.2,0s0.1,0,0.1,0l0,0c0.1,0,0.2-0.1,0.3-0.1c0,0,0,0,0.1,0
	c0.1,0,0.1-0.1,0.1-0.1c0,0,0.1,0,0.1,0c0,0,0.1,0,0.1-0.1l0,0c0.1,0,0.1-0.1,0.2-0.2c0,0,0,0,0,0l0,0c0.1-0.1,0.2-0.3,0.3-0.5
	l4.1-7.1c0.4-0.7,1.1-1.1,1.8-1.1h16.9c0.1,0,0.2,0,0.3,0h0.1c0.1,0,0.1,0,0.1,0l0,0c0.1,0,0.2,0.1,0.3,0.1c0,0,0.1,0.1,0.1,0.1
	c0.1,0.1,0.2,0.1,0.3,0.1c0,0,0.1,0.1,0.1,0.1c0.1,0,0.1,0.1,0.1,0.1l0,0c0.1,0.1,0.1,0.1,0.2,0.2c0,0,0,0,0,0.1
	c0,0,0.1,0.1,0.1,0.1l0,0c0,0,0,0.1,0,0.1c0,0,0,0.1,0.1,0.1c0,0,0,0.1,0.1,0.1l2.5,4.4l1.7,3c0.3,0.5,0.9,0.9,1.4,0.9h8.4
	c0.6,0,1.1-0.3,1.4-0.9l4.2-7.4c0.4-0.7,1.1-1.1,1.8-1.1h16.9c0.1,0,0.2,0,0.3,0h0.1c0.1,0,0.1,0,0.1,0l0,0c0.1,0,0.2,0.1,0.3,0.1
	c0,0,0.1,0.1,0.1,0.1c0.1,0.1,0.2,0.1,0.3,0.1c0,0,0.1,0.1,0.1,0.1c0,0,0.1,0.1,0.1,0.1l0,0c0.1,0.1,0.1,0.1,0.2,0.2
	c0,0,0,0,0.1,0.1c0,0,0.1,0.1,0.1,0.1l0,0c0,0,0,0.1,0,0.1c0,0,0,0.1,0.1,0.1c0,0,0,0.1,0.1,0.1l3.3,5.9l0.8,1.4
	c0.3,0.5,0.9,0.9,1.4,0.9h8.5h0c0.1,0,0.1,0,0.2,0l0,0c0,0,0.1,0,0.1,0l0,0h0.1h0.1c0.1,0,0.1-0.1,0.2-0.1c0,0,0,0,0,0
	c0.1-0.1,0.2-0.1,0.3-0.2l0,0c0.1-0.1,0.1-0.1,0.1-0.1l0,0c0.1-0.1,0.2-0.3,0.3-0.5l4.1-7.1c0.4-0.7,1.1-1.1,1.8-1.1H651
	c0.1,0,0.2,0,0.4,0c0.3,0,0.5,0.1,0.8,0.1l0,0c0.1,0,0.3,0.1,0.4,0.1c0.1,0,0.1,0.1,0.2,0.1c0.1,0.1,0.3,0.1,0.5,0.2
	c0.1,0.1,0.3,0.1,0.4,0.2c0,0,0,0,0.1,0l0,0c0,0,0.1,0.1,0.1,0.1c0.1,0,0.2,0.1,0.2,0.1c0.1,0.1,0.2,0.1,0.3,0.2l0,0
	c0,0,0.1,0.1,0.1,0.1c0,0,0,0,0,0c0.1,0.1,0.3,0.3,0.4,0.4c0,0,0.1,0.1,0.1,0.1c0,0,0,0.1,0.1,0.1c0.1,0.1,0.3,0.3,0.3,0.5l0,0
	c0,0.1,0.1,0.1,0.1,0.1l0,0c0,0,0.1,0.1,0.1,0.1c0,0,0,0.1,0.1,0.1l0,0c0,0,0.1,0.1,0.1,0.1c0,0,0,0,0,0c0,0.1,0,0.1,0.1,0.2
	c0,0,0,0,0,0c0,0,0,0.1,0,0.1c0.1,0.1,0.1,0.3,0.1,0.4c0,0.1,0.1,0.2,0.1,0.3c0,0.1,0.1,0.2,0.1,0.3c0,0.1,0,0.1,0,0.2
	c0,0,0,0,0,0.1c0,0.1,0.1,0.2,0.1,0.4l0,0c0,0.1,0,0.2,0,0.3v13.8c0,0.1,0,0.2,0,0.3c0,0,0,0,0,0.1c0,0.1-0.1,0.2-0.1,0.4l0,0
	c0,0,0,0.1,0,0.1c0,0,0,0,0,0l0,0c0,0-0.1,0.1-0.1,0.1c0,0,0,0,0,0c0,0,0,0,0,0.1c-0.2,0.2-0.4,0.5-0.7,0.6c0,0,0,0,0,0l0,0
	c0,0-0.1,0.1-0.1,0.1l-7.4,4.2c-0.1,0-0.2,0.1-0.3,0.2c-0.1,0.1-0.1,0.1-0.2,0.2l0,0c-0.1,0.1-0.1,0.1-0.2,0.2
	c0,0.1-0.1,0.2-0.1,0.3c0,0,0,0,0,0l0,0C646.6,66,646.6,66.2,646.6,66.3C646.6,66.2,646.6,66.3,646.6,66.3z"/>
<path class="st25" d="M42,93"/>
<path class="st25" d="M42,46"/>
<line id="Price_and_messsage_divider_line" class="st26" x1="17" y1="107.5" x2="384" y2="107.5"/>
<g>
	
		<radialGradient id="SVGID_8_" cx="337.3234" cy="188.5526" r="1" gradientTransform="matrix(-269 0 0 76 91398 -14008)" gradientUnits="userSpaceOnUse">
		<stop  offset="0" style="stop-color:#EC991C"/>
		<stop  offset="1" style="stop-color:#E9B213"/>
	</radialGradient>
	<path class="st27" d="M389,252.6c0-0.8,0.3-1.4,0.8-2c0.6-0.6,1.2-0.8,2-0.8H409c0.8,0,1.4-0.2,2-0.6c0.6-0.4,0.9-0.8,0.9-1.3
		c0-0.6,0.3-1,0.8-1.3c0.6-0.4,1.2-0.6,2-0.6h1.9c0.9-0.1,1.5,0.2,2,0.7c0.5,0.6,0.7,1.3,0.7,2.2c0,0.8-0.2,1.6-0.5,2.4
		c-0.3,0.8-0.8,1.4-1.4,2l-2.1,2.2c-0.6,0.5-1.3,1-2.3,1.4c-0.9,0.4-1.8,0.6-2.6,0.6h-18.7c-0.8,0-1.4-0.3-2-0.8
		c-0.6-0.6-0.8-1.3-0.8-2.1V252.6z M422.9,252.7c0-0.8,0.3-1.4,0.8-2c0.6-0.6,1.3-0.8,2.1-0.8h7.5c0.8,0,1.5-0.2,2.1-0.6
		c0.6-0.4,0.8-0.9,0.8-1.4c0-0.5,0.3-0.9,0.8-1.3c0.6-0.4,1.2-0.6,2.1-0.6h1.7c0.9,0,1.6,0.3,2.1,0.8c0.5,0.6,0.7,1.2,0.7,2.1
		c0,0.8-0.2,1.6-0.5,2.4c-0.3,0.8-0.8,1.5-1.5,2.2l-2,2.1c-0.5,0.5-1.2,1-2.2,1.4c-0.9,0.4-1.8,0.6-2.6,0.6h-2.2
		c-0.8,0-1.5,0.3-2.1,0.8c-0.6,0.6-0.8,1.2-0.8,2v8c0,0.8,0.3,1.5,0.8,2.1c0.6,0.6,1.3,0.8,2.1,0.8h8.1c0.8,0,1.5,0.3,2.1,0.8
		c0.6,0.6,0.8,1.2,0.8,2.1v1.8c0,0.8-0.2,1.5-0.5,2.1c-0.3,0.6-0.7,0.8-1.2,0.8c-0.4,0-0.8,0.3-1.1,0.8c-0.3,0.5-0.4,1.2-0.4,2v37.4
		c0,0.8-0.3,1.4-0.8,2c-0.6,0.6-1.2,0.9-2,0.9h-0.4c-0.8,0-1.4-0.3-2-0.9c-0.6-0.6-0.8-1.2-0.8-2v-37.4c0-0.8-0.2-1.4-0.7-2
		c-0.4-0.6-1-0.8-1.7-0.8c-0.6,0-1.2,0.3-1.7,0.8c-0.4,0.6-0.7,1.2-0.7,2v31.4c0,0.8-0.2,1.6-0.6,2.6c-0.4,1-0.8,1.8-1.3,2.5
		l-1.5,1.7c-0.7,0.7-1.3,1.2-2,1.6c-0.7,0.4-1.2,0.7-1.7,0.7c-0.5,0-0.9-0.3-1.3-0.9c-0.3-0.6-0.5-1.2-0.5-2v-1.8
		c0-0.8,0.1-1.5,0.2-2.1c0.2-0.6,0.5-0.8,0.8-0.8c0.3,0,0.5-0.3,0.7-0.8c0.2-0.6,0.2-1.2,0.2-2.1V252.7z M397.7,288.9
		c0.8,0,1.5-0.2,2.1-0.7c0.6-0.5,0.9-1.1,0.9-1.7s-0.3-1.2-0.9-1.7c-0.6-0.5-1.3-0.7-2.1-0.7h-5.9c-0.8,0-1.4-0.3-2-0.8
		c-0.6-0.6-0.8-1.2-0.8-2v-1.8c0-0.8,0.2-1.5,0.7-2.1c0.4-0.6,1-0.8,1.6-0.8c0.6,0,1.1-0.3,1.5-0.8c0.4-0.6,0.7-1.3,0.7-2.1v-2.6
		c0-0.8-0.2-1.5-0.7-2.1c-0.4-0.6-0.9-0.8-1.5-0.8c-0.6,0-1.1-0.3-1.6-0.8c-0.4-0.6-0.7-1.3-0.7-2.1v-1.8c0-0.8,0.3-1.5,0.8-2.1
		c0.6-0.6,1.2-0.8,2-0.8h24.8c0.8,0,1.4,0.3,2,0.8c0.6,0.6,0.8,1.2,0.8,2.1v1.8c0,0.8-0.2,1.5-0.7,2.1c-0.4,0.6-0.9,0.8-1.4,0.8
		c-0.6,0-1.1,0.3-1.6,0.8c-0.4,0.6-0.6,1.2-0.6,2.1v2.6c0,0.8,0.2,1.5,0.6,2.1c0.4,0.6,1,0.8,1.6,0.8c0.6,0,1,0.3,1.4,0.8
		c0.4,0.6,0.7,1.2,0.7,2.1v1.8c0,0.8-0.3,1.4-0.8,2s-1.2,0.8-2,0.8h-5.5c-0.8,0-1.5,0.2-2.1,0.7c-0.6,0.5-0.8,1.1-0.8,1.7
		s0.3,1.2,0.8,1.7c0.6,0.4,1.3,0.7,2.1,0.7h5.5c0.8,0,1.4,0.3,2,0.8c0.6,0.6,0.8,1.2,0.8,2v1.8c0,0.8-0.3,1.5-0.8,2.1
		c-0.6,0.6-1.2,0.9-2,0.9h-5.5c-0.8,0-1.5,0.3-2.1,0.8c-0.6,0.6-0.8,1.2-0.8,2v19.8c0,0.8-0.3,1.4-0.9,2c-0.6,0.6-1.2,0.9-2,0.9
		h-1.8c-0.8,0-1.4-0.3-2-0.9c-0.6-0.6-0.8-1.2-0.8-2v-19.8c0-0.8-0.3-1.4-0.9-2c-0.6-0.6-1.3-0.8-2.1-0.8h-5.9c-0.8,0-1.4-0.3-2-0.9
		c-0.6-0.6-0.8-1.3-0.8-2.1v-1.8c0-0.8,0.3-1.4,0.8-2c0.6-0.6,1.2-0.8,2-0.8H397.7z M400.2,273.6c0,0.8,0.3,1.5,0.8,2.1
		c0.6,0.6,1.3,0.8,2.1,0.8h2.2c0.8,0,1.5-0.3,2.1-0.8c0.6-0.6,0.9-1.3,0.9-2.1v-2.6c0-0.8-0.3-1.5-0.9-2.1c-0.6-0.6-1.2-0.8-2.1-0.8
		h-2.2c-0.8,0-1.5,0.3-2.1,0.8c-0.6,0.6-0.8,1.2-0.8,2.1V273.6z M389,317.3c0-0.8,0.1-1.5,0.2-2.1c0.2-0.6,0.5-0.8,0.7-0.8
		c0.3,0,0.5-0.3,0.7-0.8c0.2-0.6,0.2-1.2,0.2-2.1v-8.4c0-0.8,0.3-1.4,0.8-2c0.6-0.6,1.3-0.8,2.2-0.8h1.1c0.8,0,1.4,0.3,2,0.8
		s0.8,1.2,0.8,2v9.9c0,0.8-0.2,1.6-0.6,2.6c-0.3,1-0.7,1.8-1.2,2.5l-1.6,1.7c-0.5,0.6-1.1,1.1-1.8,1.6c-0.7,0.4-1.3,0.7-1.7,0.7
		c-0.6,0-1-0.3-1.3-0.8s-0.5-1.2-0.5-2.1V317.3z M414.6,300.3c0.8,0,1.5,0.3,2.1,0.8c0.6,0.6,0.9,1.2,0.9,2v8.4
		c0,0.8,0.1,1.5,0.2,2.1c0.2,0.6,0.4,0.8,0.7,0.8c0.3,0,0.5,0.3,0.7,0.8c0.2,0.6,0.3,1.2,0.3,2.1v1.8c0,0.8-0.2,1.5-0.5,2.1
		c-0.3,0.6-0.8,0.8-1.3,0.8c-0.4,0-1-0.2-1.7-0.7c-0.7-0.4-1.3-0.9-1.8-1.5l-1.6-1.8c-0.5-0.6-0.9-1.4-1.3-2.4
		c-0.3-0.9-0.5-1.8-0.5-2.6v-9.9c0-0.8,0.3-1.4,0.8-2c0.6-0.6,1.3-0.8,2.1-0.8H414.6z"/>
	
		<radialGradient id="SVGID_9_" cx="337.3234" cy="188.5526" r="1" gradientTransform="matrix(-269 0 0 76 91398 -14008)" gradientUnits="userSpaceOnUse">
		<stop  offset="0" style="stop-color:#EC991C"/>
		<stop  offset="1" style="stop-color:#E9B213"/>
	</radialGradient>
	<path class="st28" d="M491.6,322c-0.8,0-1.5-0.3-2.1-0.9c-0.6-0.6-0.8-1.2-0.8-2v-4.5c0-0.8-0.3-1.4-0.9-2
		c-0.6-0.6-1.2-0.9-2.1-0.9H463c-0.8,0-1.4-0.3-2-0.8c-0.6-0.6-0.8-1.3-0.8-2.1v-1.9c0-0.8,0.2-1.4,0.5-2c0.4-0.6,0.8-0.8,1.3-0.8
		c0.6,0,1.1-0.3,1.5-0.8c0.4-0.6,0.6-1.3,0.6-2.2v-25.1c0-0.8,0.3-1.4,0.8-2c0.6-0.6,1.2-0.9,2.1-0.9h18.7c0.8,0,1.5-0.3,2.1-0.8
		c0.6-0.6,0.9-1.2,0.9-2V262c0-0.8-0.3-1.5-0.9-2.1c-0.6-0.6-1.2-0.8-2.1-0.8h-16.4c-0.8,0-1.7-0.2-2.7-0.6
		c-0.9-0.4-1.7-0.9-2.2-1.5l-2.2-2.1c-0.6-0.6-1-1.3-1.4-2.2c-0.4-1-0.6-1.9-0.6-2.6v-1.2c0-0.8,0.3-1.4,0.8-2
		c0.6-0.6,1.2-0.8,2-0.8h2c0.8,0,1.5,0.2,2.1,0.7c0.6,0.5,0.8,1.1,0.8,1.9c0,0.8,0.3,1.4,0.8,2c0.6,0.5,1.2,0.7,2.1,0.7h41.9
		c0.8,0,1.4,0.3,2,0.8c0.6,0.6,0.8,1.2,0.8,2.1v1.9c0,0.8-0.3,1.5-0.8,2.1c-0.6,0.6-1.2,0.8-2,0.8h-13.5c-0.8,0-1.5,0.3-2.1,0.8
		c-0.6,0.6-0.8,1.2-0.8,2.1v8.4c0,0.8,0.3,1.4,0.8,2c0.6,0.6,1.3,0.8,2.1,0.8h13.6c0.8,0,1.4,0.3,2,0.9c0.6,0.6,0.8,1.2,0.8,2v1.9
		c0,0.8-0.3,1.5-0.8,2.1c-0.6,0.6-1.2,0.8-2,0.8h-13.6c-0.8,0-1.5,0.3-2.1,0.8c-0.6,0.6-0.8,1.2-0.8,2v17.5c0,0.8,0.3,1.5,0.8,2.1
		c0.6,0.6,1.3,0.9,2.1,0.9h13.5c0.8,0,1.4,0.3,2,0.8c0.6,0.6,0.8,1.2,0.8,2v1.9c0,0.8-0.3,1.5-0.8,2.1c-0.6,0.6-1.2,0.8-2,0.8h-13.5
		c-0.8,0-1.5,0.3-2.1,0.9c-0.6,0.6-0.8,1.2-0.8,2v4.5c0,0.8-0.3,1.4-0.9,2c-0.6,0.6-1.2,0.9-2,0.9H491.6z M485.7,304.1
		c0.8,0,1.5-0.3,2.1-0.9c0.6-0.6,0.9-1.3,0.9-2.1v-17.5c0-0.8-0.3-1.4-0.9-2c-0.6-0.6-1.2-0.8-2.1-0.8h-11c-0.8,0-1.5,0.3-2.1,0.8
		c-0.6,0.6-0.8,1.2-0.8,2v17.5c0,0.8,0.3,1.5,0.8,2.2c0.6,0.6,1.2,0.8,2.1,0.8H485.7z"/>
	
		<radialGradient id="SVGID_10_" cx="337.3234" cy="188.5526" r="1" gradientTransform="matrix(-269 0 0 76 91398 -14008)" gradientUnits="userSpaceOnUse">
		<stop  offset="0" style="stop-color:#EC991C"/>
		<stop  offset="1" style="stop-color:#E9B213"/>
	</radialGradient>
	<path class="st29" d="M548.4,319.1c0,0.8-0.3,1.4-0.9,2c-0.6,0.6-1.2,0.9-2,0.9h-1.9c-0.8,0-1.4-0.3-2-0.9c-0.6-0.6-0.8-1.2-0.8-2
		v-47.3c0-0.8-0.1-1.5-0.4-2c-0.2-0.6-0.6-0.8-1-0.8c-0.3,0-0.7,0.3-1,0.8c-0.3,0.6-0.4,1.2-0.4,2v45c0,0.8-0.3,1.4-0.8,2
		c-0.6,0.6-1.2,0.8-2,0.8h-0.8c-0.8,0-1.4-0.3-2-0.8c-0.6-0.6-0.8-1.2-0.8-2V252c0-0.8,0.3-1.5,0.8-2.1c0.6-0.6,1.2-0.8,2-0.8h0.8
		c0.8,0,1.4,0.3,2,0.8c0.6,0.6,0.8,1.2,0.8,2.1v6.5c0,0.8,0.1,1.4,0.4,2c0.3,0.6,0.7,0.8,1,0.8c0.4,0,0.8-0.2,1-0.7
		c0.3-0.6,0.4-1.2,0.4-2.1v-9.6c0-0.8,0.3-1.4,0.8-2c0.6-0.6,1.2-0.9,2-0.9h1.9c0.8,0,1.4,0.3,2,0.9c0.6,0.6,0.9,1.2,0.9,2v9.6
		c0,0.8,0.2,1.4,0.5,2c0.3,0.6,0.7,0.8,1.2,0.8c0.3,0,0.7,0.3,1,0.9c0.3,0.6,0.5,1.2,0.5,2v2c0,0.7-0.2,1.3-0.5,1.9
		c-0.3,0.6-0.7,0.9-1,0.9c-0.5,0-0.9,0.3-1.2,0.8c-0.3,0.6-0.5,1.2-0.5,2V319.1z M584.6,288.2c0,0.8,0.1,1.5,0.2,2.2
		c0.2,0.6,0.4,0.8,0.6,0.8c0.2,0,0.4,0.3,0.6,0.9c0.2,0.6,0.3,1.2,0.3,2v1.7c0,0.8-0.3,1.5-0.8,2.2c-0.6,0.6-1.2,0.8-2,0.8h-8
		c-0.6,0-1.1,0.2-1.5,0.5c-0.3,0.3-0.5,0.7-0.5,1.2c0,0.3,0.1,0.6,0.2,0.9l4.4,10.3c0.3,0.7,0.9,1.3,1.7,1.8
		c0.8,0.6,1.6,0.8,2.4,0.8h1.2c0.8,0,1.4,0.3,2,0.8c0.6,0.6,0.8,1.2,0.8,2.1v1.8c0,0.8-0.3,1.4-0.8,2c-0.6,0.6-1.2,0.9-2,0.9h-6.4
		c-0.8,0-1.6-0.3-2.4-0.8c-0.8-0.5-1.3-1.1-1.7-1.8l-4.3-10c-0.4-0.7-0.8-1.1-1.3-1.1c-0.6,0-1,0.3-1.3,1l-5.4,10.2
		c-0.4,0.7-1,1.3-1.9,1.8c-0.8,0.5-1.6,0.7-2.4,0.7h-2.1c-0.8,0-1.5-0.3-2.1-0.9c-0.6-0.6-0.8-1.2-0.8-2v-1.8c0-0.8,0.2-1.5,0.5-2.1
		c0.3-0.6,0.7-0.8,1.2-0.8c0.5,0,1-0.2,1.6-0.7c0.6-0.5,1.1-1.1,1.6-1.9l5.4-10.3c0.2-0.6,0.3-0.9,0.3-1.1c0-0.4-0.2-0.8-0.6-1.1
		c-0.3-0.3-0.8-0.4-1.3-0.4h-3.5c-0.8,0-1.5-0.3-2.1-0.8c-0.6-0.6-0.8-1.3-0.8-2.2v-1.7c0-0.8,0.3-1.5,0.8-2.1
		c0.6-0.6,1.2-0.8,2.1-0.8h4.7c0.8,0,1.4-0.3,2-0.8c0.6-0.6,0.9-1.3,0.9-2.2v-25.1c0-0.8-0.3-1.5-0.9-2.1c-0.6-0.6-1.2-0.9-2-0.9
		h-4.7c-0.8,0-1.5-0.3-2.1-0.8c-0.6-0.6-0.8-1.3-0.8-2.1v-1.8c0-0.8,0.3-1.5,0.8-2.1c0.6-0.6,1.2-0.9,2.1-0.9h4.7
		c0.8,0,1.4-0.3,2-0.8c0.6-0.6,0.9-1.2,0.9-2v-0.8c0-0.8,0.3-1.4,0.8-2s1.2-0.8,2.1-0.8h1.8c0.8,0,1.4,0.3,2,0.8
		c0.6,0.6,0.8,1.2,0.8,2v0.8c0,0.8,0.3,1.4,0.8,2c0.6,0.6,1.3,0.8,2.1,0.8h7.1c0.8,0,1.4,0.3,2,0.9c0.6,0.6,0.8,1.3,0.8,2.1V288.2z
		 M571.8,288.2c0,0.8,0.2,1.5,0.7,2.2c0.5,0.6,1.1,0.8,1.9,0.8c0.8,0,1.4-0.3,1.8-0.8c0.5-0.6,0.7-1.3,0.7-2.2v-25.1
		c0-0.8-0.2-1.5-0.7-2.1c-0.4-0.6-1.1-0.9-1.8-0.9c-0.8,0-1.4,0.3-1.9,0.9c-0.5,0.6-0.7,1.2-0.7,2.1V288.2z"/>
	
		<radialGradient id="SVGID_11_" cx="337.3234" cy="188.5526" r="1" gradientTransform="matrix(-269 0 0 76 91398 -14008)" gradientUnits="userSpaceOnUse">
		<stop  offset="0" style="stop-color:#EC991C"/>
		<stop  offset="1" style="stop-color:#E9B213"/>
	</radialGradient>
	<path class="st30" d="M602.7,253.2c0-0.8,0.3-1.5,0.8-2.1c0.6-0.6,1.2-0.9,2-0.9h41.9c0.8,0,1.5-0.2,2.1-0.6
		c0.6-0.4,0.8-0.9,0.8-1.5s0.3-1.1,0.8-1.5c0.6-0.4,1.3-0.7,2.2-0.7h1.9c0.8,0,1.4,0.3,2,0.8c0.6,0.6,0.8,1.2,0.8,2v0.1
		c0,0.8-0.2,1.7-0.6,2.6c-0.4,0.9-0.9,1.7-1.4,2.4l-2.1,2c-0.6,0.6-1.4,1-2.4,1.4c-0.9,0.4-1.8,0.6-2.6,0.6h-10.2
		c-0.8,0-1.5,0.3-2.1,0.9c-0.6,0.6-0.8,1.2-0.8,2v15.9c0,0.8,0.3,1.5,0.8,2.1c0.6,0.6,1.3,0.8,2.1,0.8h16.4c0.8,0,1.4,0.3,2,0.8
		c0.6,0.6,0.8,1.2,0.8,2v2c0,0.8-0.3,1.5-0.8,2.1c-0.6,0.6-1.2,0.8-2,0.8h-16.4c-0.8,0-1.5,0.3-2.1,0.8c-0.6,0.6-0.8,1.2-0.8,2V313
		c0,0.8-0.2,1.7-0.6,2.6c-0.4,0.9-0.9,1.7-1.5,2.2l-1.9,2.2c-0.6,0.6-1.4,1.1-2.3,1.5c-0.9,0.4-1.8,0.6-2.7,0.6h-4.5
		c-0.8,0-1.4-0.3-2-0.9c-0.6-0.6-0.8-1.2-0.8-2v-1.9c0-0.8,0.3-1.5,0.8-2.1c0.6-0.6,1.2-0.8,2-0.8h2.8c0.8,0,1.5-0.3,2.1-0.8
		c0.6-0.6,0.8-1.2,0.8-2.1v-21.3c0-0.8-0.3-1.4-0.8-2s-1.2-0.8-2.1-0.8h-13.5c-0.8,0-1.7-0.2-2.7-0.6c-0.9-0.4-1.7-1-2.2-1.6
		l-2.2-2.1c-0.6-0.6-1-1.3-1.4-2.2c-0.4-1-0.6-1.9-0.6-2.6V253.2z M628.1,260.8c0-0.8-0.3-1.4-0.8-2c-0.6-0.6-1.2-0.9-2.1-0.9h-11.9
		c-0.8,0-1.5,0.3-2.1,0.9c-0.6,0.6-0.8,1.2-0.8,2v15.9c0,0.8,0.3,1.5,0.8,2.1c0.6,0.6,1.2,0.8,2.1,0.8h11.9c0.8,0,1.5-0.3,2.1-0.8
		c0.6-0.6,0.8-1.2,0.8-2.1V260.8z M613.9,313c0,0.8-0.2,1.6-0.6,2.6c-0.4,1-0.9,1.7-1.4,2.2l-2,2.2c-0.6,0.6-1.4,1.1-2.2,1.5
		c-0.9,0.4-1.7,0.6-2.4,0.6c-0.8,0-1.4-0.3-1.9-0.8c-0.4-0.6-0.7-1.2-0.7-2.1v-1.9c0-0.8,0.2-1.5,0.5-2.1c0.4-0.6,0.8-0.8,1.3-0.8
		c0.4,0,0.8-0.3,1.2-0.8c0.4-0.6,0.6-1.2,0.6-2.1v-14.7c0-0.8,0.3-1.5,0.8-2.1c0.6-0.6,1.3-0.8,2.1-0.8h1.9c0.8,0,1.4,0.3,2,0.8
		s0.8,1.2,0.8,2.1V313z M651.5,293.8c0.8,0,1.5,0.3,2.1,0.8c0.6,0.6,0.8,1.2,0.8,2.1v14.7c0,0.8,0.2,1.5,0.5,2.1
		c0.4,0.6,0.8,0.8,1.2,0.8c0.5,0,0.9,0.3,1.2,0.8c0.4,0.6,0.6,1.2,0.6,2.1v1.9c0,0.8-0.2,1.5-0.7,2.1c-0.4,0.6-1.1,0.8-1.8,0.8
		c-0.7,0-1.5-0.2-2.4-0.6c-0.9-0.4-1.6-0.9-2.1-1.5l-2.2-2.2c-0.6-0.5-1-1.2-1.4-2.2c-0.4-0.9-0.6-1.8-0.6-2.6v-16.3
		c0-0.8,0.3-1.5,0.8-2.1c0.6-0.6,1.2-0.8,2-0.8H651.5z"/>
</g>
<g id="Fireworks_2" class="st31">
	<path class="st3" d="M370.2,102.7c0.4,0.2,0.7,0.4,1,0.6c0.1,0.1,0.2,0.1,0.3,0c0.3-0.2,0.6-0.3,0.9-0.4c0,0,0.1,0,0.2-0.1
		c-0.1,0.3-0.1,0.6-0.2,0.9c-0.1,0.3,0,0.4,0.2,0.6c0.2,0.2,0.4,0.4,0.7,0.7l-0.7,0.1c-0.2,0-0.4,0-0.6,0.1
		c-0.1,0.1-0.2,0.3-0.3,0.5l-0.3,0.6c-0.1-0.2-0.2-0.3-0.2-0.4c-0.1-0.2-0.2-0.4-0.3-0.7c0-0.1-0.1-0.1-0.2-0.1
		c-0.3-0.1-0.7-0.1-1-0.1c-0.1,0-0.1,0-0.2,0v-0.1c0.2-0.2,0.5-0.5,0.7-0.7c0.2-0.2,0.2-0.3,0.2-0.6
		C370.3,103.3,370.2,103,370.2,102.7z"/>
	<path class="st3" d="M388.7,114.5c0.6-0.2,1.2-0.3,1.7-0.5c2.3-0.6,4.7-0.9,7-1.2c0.1,0,0.2,0,0.3,0c0.1,0,0.2,0.1,0.1,0.2
		c0,0.1-0.1,0.2-0.2,0.2c0,0-0.1,0.1-0.1,0.1c-0.3,0.3-0.6,0.4-1,0.4c-1.7,0-3.3,0-5,0.3c-0.9,0.1-1.8,0.3-2.7,0.4L388.7,114.5
		L388.7,114.5z"/>
	<path class="st3" d="M386.3,110l0.1-0.5c0.6-2.4,1.3-4.8,2-7.2c0.2-0.6,0.3-1.2,0.5-1.8c0-0.1,0.1-0.2,0.2-0.3
		c0.1,0.1,0.2,0.2,0.2,0.3c0.1,0.1,0.2,0.3,0.2,0.4c0,0.1,0,0.2,0,0.2c-0.7,1.9-1.4,3.8-2.1,5.6c-0.4,1-0.7,2-1.1,3L386.3,110
		L386.3,110z"/>
	<path class="st3" d="M375.7,123.7c0.1-0.4,0.1-0.7,0.2-1.1c0,0,0-0.1,0.1-0.1c1.1-1,2.2-2.1,3.4-3c0.8-0.6,1.6-1.1,2.4-1.7
		c0.2-0.2,0.5-0.3,0.7-0.4C380,119.2,377.9,121.4,375.7,123.7L375.7,123.7z"/>
	<g class="st32">
		<path class="st33" d="M394.6,123.4c0,0.1-0.1,0.3-0.1,0.4c-3-2.6-6-5.2-8.9-7.8l-0.2-0.2c1.4,1,2.8,2.1,4.2,3.2
			c0.2,0.1,0.4,0.3,0.7,0.6C391.7,120.8,393.1,122.1,394.6,123.4z"/>
		<linearGradient id="SVGID_12_" gradientUnits="userSpaceOnUse" x1="390.1781" y1="119.5784" x2="389.3317" y2="120.2913">
			<stop  offset="0" style="stop-color:#FFFFFF;stop-opacity:0"/>
			<stop  offset="1" style="stop-color:#FFFFFF"/>
		</linearGradient>
		<path class="st34" d="M394.6,123.4c0,0.1-0.1,0.3-0.1,0.4c-3-2.6-6-5.2-8.9-7.8l-0.2-0.2c1.4,1,2.8,2.1,4.2,3.2
			c0.2,0.1,0.4,0.3,0.7,0.6C391.7,120.8,393.1,122.1,394.6,123.4z"/>
	</g>
	<path class="st3" d="M387.2,111.5c0.2-0.3,0.4-0.6,0.6-0.9c1-1.6,2.2-3.1,3.3-4.7c0.2-0.2,0.3-0.5,0.5-0.8c0,0,0,0,0.1-0.1
		c0,0,0.1,0,0.1,0c0.1,0,0.2,0,0.3,0c0.3,0.1,0.4,0.3,0.2,0.5c-0.2,0.2-0.3,0.4-0.5,0.6c-1.5,1.7-2.9,3.4-4.4,5.1L387.2,111.5
		L387.2,111.5z"/>
	<path class="st3" d="M384.5,97.2c0.1,0.3,0.3,0.6,0.4,0.8c0.2,0.3,0.2,0.6,0.2,1c-0.2,1.6-0.3,3.2-0.4,4.8c0,0.5-0.1,1.1-0.1,1.6
		C384.3,102.8,384.3,100,384.5,97.2z"/>
	<path class="st3" d="M383.3,118.3c0,0,0,0.1,0,0.1c-0.7,1.4-1.2,2.9-1.7,4.4c-0.3,0.8-0.5,1.7-0.8,2.5c0,0.1-0.1,0.2-0.2,0.2
		c-0.2,0.1-0.4,0.2-0.6,0.3c0,0-0.1,0-0.1,0c0,0,0-0.1,0-0.1c0.3-0.8,0.6-1.6,0.9-2.3C381.5,121.7,382.3,120.1,383.3,118.3
		C383.2,118.4,383.2,118.4,383.3,118.3L383.3,118.3z"/>
	<path class="st3" d="M378.5,109.9c-0.4-0.3-0.9-0.6-1.3-0.9c-1.6-1.1-3.2-2.2-4.8-3.3c-0.1-0.1-0.2-0.1-0.3-0.2s-0.1-0.2,0-0.2
		c0.4-0.1,0.8-0.2,1.1,0.1c1.7,1.4,3.4,2.8,5.2,4.3C378.5,109.8,378.5,109.9,378.5,109.9L378.5,109.9z"/>
	<path class="st3" d="M381.5,105.9c-0.1-0.2-0.2-0.5-0.4-0.7c-0.8-1.7-1.5-3.4-2.1-5.2c-0.1-0.3,0-0.6,0.2-0.8c0,0,0.1-0.1,0.2-0.1
		c0,0,0.1,0.1,0.1,0.1c0.4,1.3,0.8,2.6,1.2,3.9c0.3,0.8,0.6,1.7,0.9,2.5L381.5,105.9L381.5,105.9z"/>
	<path class="st3" d="M381.7,110.7c-0.4-0.5-0.8-1.1-1.2-1.6c-0.9-1.1-1.8-2.2-2.7-3.4c-0.1-0.1-0.1-0.2,0-0.3
		c0.1-0.2,0.5-0.3,0.6-0.1c0.4,0.6,0.8,1.3,1.2,1.9c0.6,0.9,1.2,1.9,1.8,2.8C381.5,110.3,381.6,110.5,381.7,110.7L381.7,110.7z"/>
	<path class="st3" d="M386.9,115.9c0.2,0.1,0.4,0.1,0.5,0.2c1.7,0.6,3.5,1.3,5.2,1.9c0.2,0.1,0.4,0.2,0.6,0.3c0,0,0.1,0.1,0.1,0.1
		c0,0.2,0.1,0.4,0.1,0.6L386.9,115.9L386.9,115.9z"/>
	<path class="st3" d="M384.6,118c0.1,0.5,0.2,1.1,0.3,1.7l0.8,3.9c0,0.1,0.1,0.2,0.1,0.3c0,0.1,0,0.2-0.2,0.2
		c-0.1,0-0.4-0.2-0.5-0.2c0,0,0-0.1,0-0.1C384.9,121.8,384.7,119.9,384.6,118L384.6,118L384.6,118z"/>
	<path class="st3" d="M380.1,116.5c-0.5,0.2-0.9,0.4-1.4,0.5c-1.1,0.5-2.2,0.9-3.3,1.4c-0.2,0.1-0.3,0.2-0.4,0.2
		c-0.1,0.1-0.2,0-0.2-0.1c-0.1-0.3,0.1-0.5,0.3-0.7c1.1-0.5,2.3-0.8,3.5-1.1c0.5-0.1,1-0.2,1.4-0.4
		C380.1,116.5,380.1,116.5,380.1,116.5L380.1,116.5z"/>
	<path class="st3" d="M375.8,114.7l-0.2,0l-4.9,0.9c-0.1,0-0.3,0-0.4,0.1c-0.1,0-0.1,0-0.2-0.1c-0.1-0.3,0-0.4,0.3-0.5
		C372.1,114.7,373.9,114.7,375.8,114.7C375.7,114.6,375.8,114.6,375.8,114.7L375.8,114.7z"/>
	<path class="st3" d="M386.7,118.1c1.2,1.4,2.5,2.8,3.7,4.3l0,0l-0.6-0.3l0.1,0.7C388.8,121.3,387.7,119.7,386.7,118.1L386.7,118.1z
		"/>
	<path class="st3" d="M371,110.7l0.5-0.1c-0.2-0.2-0.3-0.4-0.5-0.5c0.3,0,4.8,1.8,5.3,2.2C374.5,111.8,372.8,111.3,371,110.7
		L371,110.7z"/>
	<path class="st3" d="M397.6,108.3c-1.7,0.6-3.4,1.3-5,2.1l0.5-0.3c0.2-0.1,0.3-0.2,0.5-0.3c0.8-0.5,1.6-0.9,2.4-1.4
		c0.3-0.2,0.6-0.2,0.9-0.1C397.1,108.2,397.3,108.2,397.6,108.3z"/>
	<path class="st3" d="M386.4,114.6l0.6-0.5c0.6-0.6,1.3-1.1,2-1.7c0.1-0.1,0.2-0.1,0.3-0.1c0.1,0,0.3,0.1,0.5,0.1
		c0,0,0.1,0.1,0.1,0.1c0,0-0.1,0.1-0.1,0.1c-0.7,0.4-1.5,0.8-2.2,1.3c-0.3,0.2-0.6,0.4-0.9,0.6C386.6,114.6,386.5,114.6,386.4,114.6
		L386.4,114.6z"/>
	<path class="st3" d="M385,114.3c-0.4-1.2-0.8-2.3-1.2-3.5c-0.2-0.5,0-0.8,0.2-1.2l0.1,0L385,114.3L385,114.3z"/>
	<path class="st3" d="M383.6,115.1l-3.1-0.8l0,0l0.6-0.1c-0.1-0.1-0.2-0.2-0.3-0.3l0,0C381.8,114.2,382.7,114.7,383.6,115.1
		L383.6,115.1z"/>
	<path class="st3" d="M368.1,108.3l0.8,0.5c0,0,0,0,0.1,0c0,0,0,0,0.1,0l0.9-0.4c0,0,0.1,0,0.1,0c0,0,0.1,0,0.1,0c0,0,0,0,0,0.1
		c0,0,0,0.1,0,0.1l-0.2,0.9c0,0,0,0,0,0.1c0,0,0,0,0,0.1l0.7,0.7c0,0,0,0,0,0.1c0,0,0,0.1,0,0.1s0,0.1,0,0.1c0,0,0,0-0.1,0l-1,0.1
		c0,0,0,0-0.1,0c0,0,0,0,0,0.1l-0.4,0.9c0,0,0,0-0.1,0.1c0,0-0.1,0-0.1,0c0,0-0.1,0-0.1,0c0,0,0,0-0.1-0.1l-0.4-0.9c0,0,0,0,0-0.1
		c0,0,0,0-0.1,0l-0.9-0.1c0,0-0.1,0-0.1,0c0,0,0,0,0-0.1c0,0,0-0.1,0-0.1c0,0,0-0.1,0-0.1l0.7-0.7c0,0,0,0,0-0.1c0,0,0,0,0-0.1
		l-0.2-0.9c0,0,0-0.1,0-0.1c0,0,0,0,0.1-0.1C368,108.3,368,108.3,368.1,108.3C368.1,108.3,368.1,108.3,368.1,108.3L368.1,108.3z"/>
	<path class="st3" d="M367.8,114.4l0.8,0.4c0,0,0,0,0.1,0c0,0,0,0,0.1,0l0.9-0.4c0,0,0.1,0,0.1,0c0,0,0.1,0,0.1,0c0,0,0,0,0.1,0.1
		c0,0,0,0.1,0,0.1l-0.2,0.9c0,0,0,0,0,0.1c0,0,0,0,0,0.1l0.7,0.7c0,0,0,0,0,0.1c0,0,0,0.1,0,0.1c0,0,0,0.1,0,0.1s0,0-0.1,0l-1,0.1
		c0,0,0,0-0.1,0c0,0,0,0,0,0.1l-0.4,0.9c0,0,0,0-0.1,0.1c0,0-0.1,0-0.1,0c0,0-0.1,0-0.1,0s0,0-0.1-0.1l-0.4-0.9c0,0,0,0,0-0.1
		c0,0,0,0-0.1,0l-0.9-0.1c0,0-0.1,0-0.1,0c0,0,0,0,0-0.1c0,0,0-0.1,0-0.1c0,0,0-0.1,0-0.1l0.7-0.7c0,0,0,0,0-0.1c0,0,0,0,0-0.1
		l-0.2-0.9c0,0,0-0.1,0-0.1c0,0,0,0,0.1-0.1C367.7,114.4,367.7,114.4,367.8,114.4C367.8,114.4,367.8,114.4,367.8,114.4L367.8,114.4z
		"/>
	<path class="st3" d="M373.6,122.5l0.8,0.5c0,0,0,0,0.1,0c0,0,0,0,0.1,0l0.9-0.4c0,0,0.1,0,0.1,0c0,0,0.1,0,0.1,0s0,0,0.1,0.1
		c0,0,0,0.1,0,0.1l-0.2,0.9c0,0,0,0,0,0.1c0,0,0,0,0,0.1l0.7,0.7c0,0,0,0,0,0.1c0,0,0,0.1,0,0.1c0,0,0,0.1,0,0.1c0,0,0,0-0.1,0
		l-1,0.1c0,0,0,0-0.1,0c0,0,0,0,0,0.1l-0.4,0.9c0,0,0,0-0.1,0.1c0,0-0.1,0-0.1,0c0,0-0.1,0-0.1,0c0,0,0,0-0.1-0.1l-0.4-0.9
		c0,0,0,0,0-0.1c0,0,0,0-0.1,0l-0.9-0.1c0,0-0.1,0-0.1,0s0,0,0-0.1c0,0,0-0.1,0-0.1c0,0,0-0.1,0-0.1l0.7-0.7c0,0,0,0,0-0.1
		c0,0,0,0,0-0.1l-0.2-0.9c0,0,0-0.1,0-0.1c0,0,0,0,0.1-0.1C373.4,122.5,373.5,122.5,373.6,122.5
		C373.5,122.5,373.5,122.5,373.6,122.5z"/>
	<path class="st3" d="M379,125.8l0.8,0.5c0,0,0,0,0.1,0s0,0,0.1,0l0.9-0.4c0,0,0.1,0,0.1,0c0,0,0.1,0,0.1,0c0,0,0,0,0.1,0.1
		c0,0,0,0.1,0,0.1l-0.2,0.9c0,0,0,0,0,0.1c0,0,0,0,0,0.1l0.7,0.7c0,0,0,0,0,0.1c0,0,0,0.1,0,0.1c0,0,0,0.1,0,0.1c0,0,0,0-0.1,0
		l-0.9,0.1c0,0,0,0-0.1,0c0,0,0,0,0,0.1L380,129c0,0,0,0-0.1,0.1c0,0-0.1,0-0.1,0c0,0-0.1,0-0.1,0c0,0,0,0-0.1-0.1l-0.4-0.9
		c0,0,0,0,0-0.1c0,0,0,0-0.1,0l-0.9-0.1c0,0-0.1,0-0.1,0c0,0,0,0,0-0.1c0,0,0-0.1,0-0.1c0,0,0-0.1,0-0.1l0.7-0.7c0,0,0,0,0-0.1
		c0,0,0,0,0-0.1l-0.2-0.9c0,0,0-0.1,0-0.1c0,0,0,0,0.1-0.1C378.9,125.8,378.9,125.8,379,125.8C379,125.7,379,125.8,379,125.8
		L379,125.8z"/>
	<path class="st3" d="M384.8,123.9l0.8,0.5c0,0,0,0,0.1,0c0,0,0,0,0.1,0l0.9-0.4c0,0,0.1,0,0.1,0c0,0,0.1,0,0.1,0c0,0,0,0,0.1,0.1
		c0,0,0,0.1,0,0.1l-0.2,0.9c0,0,0,0,0,0.1c0,0,0,0,0,0.1l0.7,0.7c0,0,0,0,0,0.1c0,0,0,0.1,0,0.1c0,0,0,0,0,0.1c0,0,0,0-0.1,0l-1,0.1
		c0,0,0,0-0.1,0c0,0,0,0,0,0.1l-0.4,0.9c0,0,0,0-0.1,0.1c0,0-0.1,0-0.1,0c0,0-0.1,0-0.1,0c0,0,0,0-0.1-0.1l-0.4-0.9c0,0,0,0,0-0.1
		c0,0,0,0-0.1,0l-0.9-0.1c0,0-0.1,0-0.1,0c0,0,0,0,0-0.1c0,0,0-0.1,0-0.1c0,0,0-0.1,0-0.1l0.7-0.7c0,0,0,0,0-0.1c0,0,0,0,0-0.1
		l-0.2-0.9c0,0,0-0.1,0-0.1c0,0,0,0,0.1-0.1S384.7,123.9,384.8,123.9C384.7,123.9,384.7,123.9,384.8,123.9L384.8,123.9z"/>
	<path class="st3" d="M390.4,122.6l0.8,0.5c0,0,0,0,0.1,0c0,0,0,0,0.1,0l0.9-0.4c0,0,0.1,0,0.1,0c0,0,0.1,0,0.1,0c0,0,0,0,0.1,0.1
		c0,0,0,0.1,0,0.1l-0.2,0.9c0,0,0,0,0,0.1c0,0,0,0,0,0.1l0.7,0.7c0,0,0,0,0,0.1c0,0,0,0.1,0,0.1c0,0,0,0.1,0,0.1c0,0,0,0-0.1,0
		l-1,0.1c0,0,0,0-0.1,0c0,0,0,0,0,0.1l-0.4,0.9c0,0,0,0-0.1,0.1c0,0-0.1,0-0.1,0c0,0-0.1,0-0.1,0c0,0,0,0-0.1-0.1l-0.4-0.9
		c0,0,0,0,0-0.1c0,0,0,0-0.1,0l-0.9-0.1c0,0-0.1,0-0.1,0c0,0,0,0,0-0.1c0,0,0-0.1,0-0.1c0,0,0-0.1,0-0.1l0.7-0.7c0,0,0,0,0-0.1
		c0,0,0,0,0-0.1l-0.2-0.9c0,0,0-0.1,0-0.1c0,0,0,0,0.1-0.1C390.2,122.6,390.3,122.6,390.4,122.6
		C390.3,122.6,390.3,122.6,390.4,122.6L390.4,122.6z"/>
	<path class="st3" d="M396.5,119.9L396.5,119.9c0,0.1,0,0.1,0,0.2s0,0-0.1,0l-0.1,0l-0.9,0.1c0,0,0,0-0.1,0c0,0,0,0-0.1,0.1
		l-0.4,0.8c0,0,0,0.1-0.1,0.1c0,0,0,0-0.1,0c0,0-0.1,0-0.1,0c0,0,0,0-0.1-0.1l-0.4-0.9c0,0,0,0,0-0.1c0,0,0,0-0.1,0l-1-0.1
		c0,0,0,0-0.1,0c0,0,0,0,0-0.1c0,0,0-0.1,0-0.1c0,0,0,0,0.1-0.1l0.7-0.7c0,0,0,0,0-0.1c0,0,0-0.1,0-0.1l-0.2-0.9c0,0,0-0.1,0-0.1
		c0,0,0,0,0-0.1c0,0,0.1,0,0.1,0c0,0,0,0,0.1,0l0.8,0.5c0,0,0,0,0.1,0c0,0,0,0,0.1,0l0.9-0.4c0,0,0.1,0,0.1,0c0,0,0,0,0.1,0
		c0,0,0,0,0,0.1c0,0,0,0,0,0.1l-0.2,0.9c0,0,0,0,0,0.1c0,0,0,0.1,0,0.1L396.5,119.9C396.5,119.8,396.5,119.9,396.5,119.9
		C396.5,119.9,396.5,119.9,396.5,119.9z"/>
	<path class="st3" d="M398.2,112.1l0.8,0.5c0,0,0,0,0.1,0c0,0,0,0,0.1,0l0.9-0.4c0,0,0.1,0,0.1,0c0,0,0.1,0,0.1,0c0,0,0,0,0.1,0.1
		c0,0,0,0.1,0,0.1l-0.2,0.9c0,0,0,0,0,0.1c0,0,0,0,0,0.1l0.7,0.7c0,0,0,0,0,0.1c0,0,0,0.1,0,0.1c0,0,0,0.1,0,0.1c0,0,0,0-0.1,0
		l-1,0.1c0,0,0,0-0.1,0c0,0,0,0,0,0.1l-0.4,0.9c0,0,0,0-0.1,0.1c0,0-0.1,0-0.1,0c0,0-0.1,0-0.1,0c0,0,0,0-0.1-0.1l-0.4-0.9
		c0,0,0,0,0-0.1c0,0,0,0-0.1,0l-0.9-0.1c0,0-0.1,0-0.1,0c0,0,0,0,0-0.1c0,0,0-0.1,0-0.1c0,0,0-0.1,0-0.1l0.7-0.7c0,0,0,0,0-0.1
		c0,0,0,0,0-0.1l-0.2-0.9c0,0,0-0.1,0-0.1c0,0,0,0,0.1-0.1C398.1,112.1,398.1,112,398.2,112.1C398.2,112,398.2,112,398.2,112.1
		L398.2,112.1z"/>
	<path class="st3" d="M397.8,105.7l0.8,0.4c0,0,0,0,0.1,0c0,0,0,0,0.1,0l0.9-0.4c0,0,0.1,0,0.1,0c0,0,0.1,0,0.1,0c0,0,0,0,0.1,0.1
		c0,0,0,0.1,0,0.1l-0.2,0.9c0,0,0,0,0,0.1c0,0,0,0,0,0.1l0.7,0.7c0,0,0,0,0,0.1c0,0,0,0.1,0,0.1c0,0,0,0.1,0,0.1c0,0,0,0-0.1,0
		l-1,0.1c0,0,0,0-0.1,0c0,0,0,0,0,0.1l-0.4,0.9c0,0,0,0-0.1,0.1c0,0-0.1,0-0.1,0c0,0-0.1,0-0.1,0c0,0,0,0-0.1-0.1l-0.4-0.9
		c0,0,0,0,0-0.1s0,0-0.1,0l-0.9-0.1c0,0-0.1,0-0.1,0s0,0,0-0.1s0-0.1,0-0.1c0,0,0-0.1,0-0.1l0.7-0.7c0,0,0,0,0-0.1c0,0,0,0,0-0.1
		l-0.2-0.9c0,0,0-0.1,0-0.1c0,0,0-0.1,0.1-0.1C397.6,105.7,397.7,105.7,397.8,105.7C397.7,105.7,397.8,105.7,397.8,105.7z"/>
	<path class="st3" d="M389.7,109.8l0.8,0.5c0,0,0,0,0.1,0c0,0,0,0,0.1,0l0.9-0.4c0,0,0.1,0,0.1,0c0,0,0.1,0,0.1,0s0,0,0.1,0.1
		c0,0,0,0.1,0,0.1l-0.2,0.9c0,0,0,0,0,0.1c0,0,0,0,0,0.1l0.7,0.7c0,0,0,0,0,0.1c0,0,0,0.1,0,0.1s0,0.1,0,0.1c0,0,0,0-0.1,0l-1,0.1
		c0,0,0,0-0.1,0c0,0,0,0,0,0.1l-0.4,0.9c0,0,0,0-0.1,0.1c0,0-0.1,0-0.1,0c0,0-0.1,0-0.1,0c0,0,0,0-0.1-0.1l-0.4-0.9c0,0,0,0,0-0.1
		c0,0,0,0-0.1,0L389,112c0,0-0.1,0-0.1,0s0,0,0-0.1c0,0,0-0.1,0-0.1c0,0,0-0.1,0-0.1l0.7-0.7c0,0,0,0,0-0.1s0-0.1,0-0.1l-0.2-0.9
		c0,0,0-0.1,0-0.1c0,0,0,0,0.1-0.1C389.6,109.8,389.6,109.8,389.7,109.8C389.6,109.8,389.7,109.8,389.7,109.8L389.7,109.8z"/>
	<path class="st3" d="M392.1,102.6l0.8,0.5c0,0,0,0,0.1,0c0,0,0,0,0.1,0l0.9-0.4c0,0,0.1,0,0.1,0c0,0,0.1,0,0.1,0c0,0,0,0,0.1,0.1
		c0,0,0,0.1,0,0.1l-0.2,0.9c0,0,0,0,0,0.1c0,0,0,0,0,0.1l0.7,0.7c0,0,0,0,0,0.1c0,0,0,0.1,0,0.1c0,0,0,0.1,0,0.1c0,0,0,0-0.1,0
		l-1,0.1c0,0,0,0-0.1,0c0,0,0,0,0,0.1l-0.4,0.9c0,0,0,0-0.1,0.1c0,0-0.1,0-0.1,0c0,0-0.1,0-0.1,0c0,0,0,0-0.1-0.1l-0.4-0.9
		c0,0,0,0,0-0.1c0,0,0,0-0.1,0l-0.9-0.1c0,0-0.1,0-0.1,0s0,0,0-0.1s0-0.1,0-0.1c0,0,0-0.1,0-0.1l0.7-0.7c0,0,0,0,0-0.1
		c0,0,0,0,0-0.1l-0.2-0.9c0,0,0-0.1,0-0.1c0,0,0,0,0.1-0.1C392,102.6,392,102.6,392.1,102.6C392.1,102.6,392.1,102.6,392.1,102.6
		L392.1,102.6z"/>
	<path class="st3" d="M389.1,97.6l0.8,0.5c0,0,0,0,0.1,0c0,0,0,0,0.1,0l0.9-0.4c0,0,0.1,0,0.1,0c0,0,0.1,0,0.1,0c0,0,0,0,0.1,0.1
		c0,0,0,0.1,0,0.1l-0.2,0.9c0,0,0,0.1,0,0.1c0,0,0,0,0,0.1l0.7,0.7c0,0,0,0,0,0.1c0,0,0,0.1,0,0.1c0,0,0,0.1,0,0.1c0,0,0,0-0.1,0
		l-0.9,0.1c0,0,0,0-0.1,0c0,0,0,0,0,0.1l-0.4,0.9c0,0,0,0-0.1,0.1c0,0-0.1,0-0.1,0c0,0-0.1,0-0.1,0c0,0,0,0-0.1-0.1l-0.4-0.9
		c0,0,0,0,0-0.1c0,0,0,0-0.1,0l-0.9-0.1c0,0-0.1,0-0.1,0c0,0,0,0,0-0.1c0,0,0-0.1,0-0.1c0,0,0-0.1,0-0.1l0.7-0.7c0,0,0,0,0-0.1
		c0,0,0,0,0-0.1l-0.2-0.9c0,0,0-0.1,0-0.1c0,0,0,0,0.1-0.1C389,97.6,389,97.6,389.1,97.6C389.1,97.6,389.1,97.6,389.1,97.6
		L389.1,97.6z"/>
	<path class="st3" d="M384.2,94.5L385,95c0,0,0,0,0.1,0c0,0,0,0,0.1,0l0.9-0.4c0,0,0.1,0,0.1,0c0,0,0.1,0,0.1,0c0,0,0,0,0.1,0.1
		c0,0,0,0.1,0,0.1l-0.2,0.9c0,0,0,0,0,0.1c0,0,0,0,0,0.1l0.7,0.7c0,0,0,0,0,0.1c0,0,0,0.1,0,0.1c0,0,0,0.1,0,0.1c0,0,0,0-0.1,0
		l-0.9,0.1c0,0,0,0-0.1,0c0,0,0,0,0,0.1l-0.4,0.9c0,0,0,0-0.1,0.1c0,0-0.1,0-0.1,0c0,0-0.1,0-0.1,0c0,0,0,0-0.1-0.1l-0.4-0.9
		c0,0,0,0,0-0.1c0,0,0,0-0.1,0l-0.9-0.1c0,0-0.1,0-0.1,0c0,0,0,0,0-0.1c0,0,0-0.1,0-0.1c0,0,0-0.1,0-0.1l0.7-0.7c0,0,0,0,0-0.1
		c0,0,0,0,0-0.1l-0.2-0.9c0,0,0-0.1,0-0.1c0,0,0,0,0.1-0.1S384.1,94.5,384.2,94.5C384.2,94.5,384.2,94.5,384.2,94.5L384.2,94.5z"/>
	<path class="st3" d="M377.5,96.5l0.8,0.5c0,0,0,0,0.1,0c0,0,0,0,0.1,0l0.9-0.4c0,0,0.1,0,0.1,0s0.1,0,0.1,0c0,0,0,0,0,0.1
		c0,0,0,0.1,0,0.1l-0.2,0.9c0,0,0,0,0,0.1c0,0,0,0,0,0.1l0.7,0.7c0,0,0,0,0,0.1c0,0,0,0.1,0,0.1s0,0.1,0,0.1c0,0,0,0-0.1,0l-1,0.1
		c0,0,0,0-0.1,0c0,0,0,0,0,0.1l-0.4,0.9c0,0,0,0-0.1,0.1c0,0-0.1,0-0.1,0c0,0-0.1,0-0.1,0c0,0,0,0-0.1-0.1l-0.4-0.9c0,0,0,0,0-0.1
		c0,0,0,0-0.1,0l-0.9-0.1c0,0-0.1,0-0.1,0c0,0,0,0,0-0.1c0,0,0-0.1,0-0.1c0,0,0-0.1,0-0.1l0.7-0.7c0,0,0,0,0-0.1c0,0,0,0,0-0.1
		l-0.2-0.9c0,0,0-0.1,0-0.1c0,0,0,0,0.1-0.1C377.3,96.5,377.3,96.5,377.5,96.5C377.4,96.5,377.4,96.5,377.5,96.5L377.5,96.5z"/>
	<path class="st3" d="M376.2,102.7l0.8,0.5c0,0,0,0,0.1,0s0,0,0.1,0l0.8-0.4c0,0,0.1,0,0.1,0c0,0,0.1,0,0.1,0c0,0,0,0,0.1,0.1
		c0,0,0,0.1,0,0.1l-0.2,0.9c0,0,0,0,0,0.1s0,0,0,0.1l0.7,0.7c0,0,0,0,0,0.1c0,0,0,0.1,0,0.1s0,0.1,0,0.1c0,0,0,0-0.1,0l-0.9,0.1
		c0,0,0,0-0.1,0c0,0,0,0,0,0.1l-0.4,0.9c0,0,0,0-0.1,0.1c0,0-0.1,0-0.1,0c0,0-0.1,0-0.1,0c0,0,0,0-0.1-0.1l-0.4-0.9c0,0,0,0,0-0.1
		c0,0,0,0-0.1,0l-0.9-0.1c0,0-0.1,0-0.1,0c0,0,0,0,0-0.1s0-0.1,0-0.1c0,0,0-0.1,0-0.1l0.7-0.7c0,0,0,0,0-0.1c0,0,0,0,0-0.1l-0.2-0.9
		c0,0,0-0.1,0-0.1c0,0,0,0,0.1-0.1C376,102.7,376.1,102.7,376.2,102.7C376.1,102.7,376.1,102.7,376.2,102.7L376.2,102.7z"/>
	<path class="st3" d="M382.3,107.1l0.8,0.5c0,0,0,0,0.1,0c0,0,0,0,0.1,0l0.9-0.4c0,0,0.1,0,0.1,0c0,0,0.1,0,0.1,0c0,0,0,0,0.1,0.1
		c0,0,0,0.1,0,0.1l-0.2,0.9c0,0,0,0,0,0.1c0,0,0,0,0,0.1l0.7,0.7c0,0,0,0,0,0.1c0,0,0,0.1,0,0.1c0,0,0,0,0,0.1c0,0,0,0-0.1,0l-1,0.1
		c0,0,0,0-0.1,0c0,0,0,0,0,0.1l-0.4,0.9c0,0,0,0-0.1,0.1c0,0-0.1,0-0.1,0c0,0-0.1,0-0.1,0c0,0,0,0-0.1-0.1l-0.4-0.9c0,0,0,0,0-0.1
		c0,0,0,0-0.1,0l-0.9-0.1c0,0-0.1,0-0.1,0c0,0,0,0,0-0.1c0,0,0-0.1,0-0.1c0,0,0-0.1,0-0.1l0.7-0.7c0,0,0,0,0-0.1c0,0,0,0,0-0.1
		l-0.2-0.9c0,0,0-0.1,0-0.1c0,0,0,0,0.1-0.1C382.2,107.1,382.2,107.1,382.3,107.1C382.3,107,382.3,107.1,382.3,107.1L382.3,107.1z"
		/>
	<path class="st3" d="M377.8,111.8l0.8,0.5c0,0,0,0,0.1,0c0,0,0,0,0.1,0l0.9-0.4c0,0,0.1,0,0.1,0c0,0,0.1,0,0.1,0c0,0,0,0,0.1,0.1
		c0,0,0,0.1,0,0.1l-0.2,0.9c0,0,0,0,0,0.1c0,0,0,0,0,0.1l0.7,0.7c0,0,0,0,0,0.1c0,0,0,0.1,0,0.1c0,0,0,0.1,0,0.1c0,0,0,0-0.1,0
		l-1,0.1c0,0,0,0-0.1,0c0,0,0,0,0,0.1l-0.4,0.9c0,0,0,0-0.1,0.1c0,0-0.1,0-0.1,0c0,0-0.1,0-0.1,0c0,0,0,0-0.1-0.1l-0.4-0.9
		c0,0,0,0,0-0.1c0,0,0,0-0.1,0l-0.9-0.1c0,0-0.1,0-0.1,0c0,0,0,0,0-0.1c0,0,0-0.1,0-0.1c0,0,0-0.1,0-0.1l0.7-0.7c0,0,0,0,0-0.1
		c0,0,0,0,0-0.1l-0.2-0.9c0,0,0-0.1,0-0.1c0,0,0,0,0.1-0.1C377.7,111.8,377.7,111.8,377.8,111.8
		C377.7,111.8,377.8,111.8,377.8,111.8z"/>
</g>
<g id="Fireworks_1" class="st35">
	<path class="st3" d="M419.7,53.2c0.3,0.6,0.6,1.1,0.8,1.7c0.1,0.2,0.2,0.3,0.4,0.3c0.6,0.1,1.1,0.2,1.7,0.2c0.1,0,0.1,0,0.3,0.1
		c-0.4,0.4-0.7,0.8-1.1,1.1c-0.4,0.3-0.4,0.6-0.3,1c0.1,0.5,0.2,1,0.3,1.6l-1.1-0.5c-0.3-0.1-0.6-0.4-0.9-0.4
		c-0.3,0-0.6,0.3-0.9,0.4l-1,0.6c0-0.3,0-0.6,0.1-0.8c0.1-0.4,0.1-0.8,0.2-1.2c0-0.1,0-0.2-0.1-0.3c-0.4-0.4-0.8-0.8-1.3-1.2
		c-0.1-0.1-0.2-0.1-0.2-0.1l0.1-0.1c0.5-0.1,1.1-0.2,1.6-0.3c0.4-0.1,0.6-0.2,0.8-0.6C419.2,54.2,419.4,53.7,419.7,53.2z"/>
	<path class="st3" d="M433.9,86.7c0.9,0.3,1.9,0.6,2.8,1c3.7,1.4,7.3,3.1,10.8,4.9c0.1,0.1,0.3,0.1,0.4,0.2c0.2,0.1,0.2,0.3,0,0.4
		c-0.1,0.1-0.3,0.1-0.4,0.2c-0.1,0-0.2,0-0.3,0.1c-0.7,0.2-1.2,0-1.8-0.4c-2.3-1.6-4.6-3.1-7.1-4.3c-1.3-0.7-2.7-1.3-4.1-1.9
		L433.9,86.7L433.9,86.7z"/>
	<path class="st3" d="M434.9,78.4l0.7-0.6c3.1-2.8,6.3-5.4,9.5-7.9c0.8-0.6,1.5-1.3,2.3-1.9c0.1-0.1,0.3-0.2,0.5-0.3
		c0,0.2,0.1,0.4,0.1,0.6c0,0.3,0,0.5-0.1,0.8c0,0.1-0.1,0.2-0.2,0.3c-2.7,1.9-5.4,3.8-8.1,5.8c-1.4,1-2.8,2.1-4.3,3.1L434.9,78.4
		L434.9,78.4z"/>
	<path class="st3" d="M407.6,87.1c0.4-0.4,0.8-0.9,1.2-1.3c0.1,0,0.1-0.1,0.2-0.1c2.5-0.3,5-0.7,7.5-1c1.6-0.2,3.3,0,4.9,0
		c0.4,0,0.9,0,1.3,0.1C417.7,85,412.7,86,407.6,87.1L407.6,87.1z"/>
	<g class="st32">
		<path class="st33" d="M440.5,131.7c-0.2-0.1-0.3-0.1-0.5-0.2h0c-3.9-15.3-7.8-30.5-11.7-45.7l0-0.4c0.9,2.7,1.9,5.4,2.8,8.2
			c0.1,0.4,0.3,0.9,0.4,1.4C434.4,107.2,437.4,119.4,440.5,131.7z"/>
		<linearGradient id="SVGID_13_" gradientUnits="userSpaceOnUse" x1="435.1775" y1="105.4169" x2="429.5194" y2="125.7732">
			<stop  offset="0" style="stop-color:#FFFFFF;stop-opacity:0"/>
			<stop  offset="1" style="stop-color:#FFFFFF"/>
		</linearGradient>
		<path class="st36" d="M440.5,131.7c-0.2-0.1-0.3-0.1-0.5-0.2h0c-3.9-15.3-7.8-30.5-11.7-45.7l0-0.4c0.9,2.7,1.9,5.4,2.8,8.2
			c0.1,0.4,0.3,0.9,0.4,1.4C434.4,107.2,437.4,119.4,440.5,131.7z"/>
	</g>
	<path class="st3" d="M434.7,81.2c0.6-0.2,1.1-0.5,1.7-0.7c2.9-1.2,5.9-2.2,8.9-3.3c0.5-0.2,0.9-0.4,1.4-0.6c0,0,0.1,0,0.1,0
		c0.1,0,0.1,0,0.1,0.1c0.2,0.1,0.3,0.2,0.4,0.4c0.3,0.4,0.3,0.7-0.2,0.8c-0.4,0.1-0.8,0.2-1.2,0.3c-3.6,1-7.2,1.9-10.7,2.9
		L434.7,81.2L434.7,81.2z"/>
	<path class="st3" d="M444.3,59.1c-0.1,0.5-0.2,1-0.2,1.5c0,0.6-0.3,1.1-0.7,1.5c-1.7,2-3.3,4.1-5,6.1c-0.6,0.7-1.1,1.4-1.7,2.1
		C438.9,66.5,441.5,62.8,444.3,59.1z"/>
	<path class="st3" d="M423,86.9c-0.1,0.1-0.1,0.1-0.2,0.1c-2.3,1.3-4.4,2.9-6.5,4.5c-1.2,0.9-2.3,1.8-3.4,2.7
		c-0.1,0.1-0.3,0.2-0.5,0.1c-0.4-0.1-0.7-0.1-1.1-0.2c-0.1,0-0.1-0.1-0.2-0.1c0,0,0.1-0.1,0.1-0.2c1.2-0.8,2.3-1.5,3.5-2.3
		c2.5-1.8,5.3-3.2,8-4.6C422.8,86.9,422.9,86.9,423,86.9L423,86.9z"/>
	<path class="st3" d="M424.3,70.9c-0.3-0.8-0.6-1.6-1-2.4c-1.2-3-2.3-6-3.5-8.9c-0.1-0.2-0.2-0.4-0.2-0.6c-0.1-0.2,0-0.3,0.2-0.2
		c0.6,0.2,1.2,0.5,1.4,1.2c1,3.6,2,7.1,3.1,10.7C424.3,70.7,424.3,70.8,424.3,70.9L424.3,70.9z"/>
	<path class="st3" d="M432.1,68.1c0.1-0.4,0.1-0.9,0.2-1.3c0.4-3.1,1.1-6.1,1.9-9.1c0.2-0.5,0.5-0.8,1-0.9c0.1,0,0.2,0,0.3,0
		c0,0.1,0,0.2,0,0.3c-0.7,2.2-1.4,4.3-2.1,6.5c-0.4,1.4-0.8,2.8-1.1,4.2L432.1,68.1L432.1,68.1z"/>
	<path class="st3" d="M427.8,75c-0.1-1.1-0.1-2.2-0.2-3.3c-0.2-2.4-0.3-4.7-0.5-7.1c0-0.3,0.1-0.4,0.3-0.4c0.4-0.1,0.9,0.1,0.9,0.4
		c0,1.3,0,2.5-0.1,3.8c-0.1,1.8-0.2,3.7-0.3,5.5C427.9,74.2,427.9,74.6,427.8,75L427.8,75z"/>
	<path class="st3" d="M430.2,87c0.2,0.3,0.4,0.5,0.6,0.8c1.8,2.5,3.6,5,5.3,7.5c0.2,0.3,0.4,0.7,0.6,1c0,0.1,0.1,0.2,0.1,0.2
		c-0.1,0.3-0.3,0.6-0.4,1L430.2,87L430.2,87z"/>
	<path class="st3" d="M425.1,87.7c-0.4,0.9-0.7,1.7-1.1,2.6l-2.5,6c-0.1,0.2-0.1,0.4-0.2,0.6c-0.1,0.2-0.2,0.3-0.4,0.1
		c-0.1-0.2-0.3-0.5-0.5-0.8c0,0,0-0.1,0-0.2c1.4-2.8,2.9-5.5,4.5-8.2L425.1,87.7L425.1,87.7z"/>
	<path class="st3" d="M420.4,81.4c-0.8-0.2-1.6-0.4-2.4-0.6c-2-0.4-3.9-0.8-5.9-1.2c-0.3-0.1-0.6-0.1-0.8-0.1
		c-0.3,0-0.3-0.1-0.2-0.4c0.2-0.5,0.6-0.7,1.1-0.6c2,0.4,3.9,1,5.8,1.7c0.8,0.3,1.5,0.6,2.3,0.9C420.3,81.3,420.3,81.3,420.4,81.4
		L420.4,81.4z"/>
	<path class="st3" d="M416.1,74.8l-0.3-0.2l-7.6-3.4c-0.2-0.1-0.4-0.2-0.6-0.3c-0.2-0.1-0.2-0.2-0.1-0.3c0.2-0.4,0.4-0.5,0.9-0.4
		c2.7,1.2,5.2,2.8,7.7,4.4C416.1,74.7,416.1,74.8,416.1,74.8L416.1,74.8z"/>
	<path class="st3" d="M427.9,89.8c0.4,3.1,0.7,6.2,1.1,9.3l-0.1,0l-0.5-1l-0.6,1.1c-0.1-3.1-0.1-6.3,0-9.4L427.9,89.8z"/>
	<path class="st3" d="M413.2,64.9l0.8,0.4c-0.1-0.4-0.1-0.8-0.2-1.2c0.4,0.3,4.8,6.9,5.2,8C417.1,69.7,415.1,67.4,413.2,64.9
		L413.2,64.9z"/>
	<path class="st3" d="M451.9,86.5c-2.9-0.9-5.8-1.4-8.7-1.8l1,0c0.3,0,0.7,0,1,0c1.5,0.1,3,0.2,4.5,0.3c0.5,0,1,0.3,1.4,0.6
		C451.3,85.9,451.6,86.2,451.9,86.5z"/>
	<path class="st3" d="M430.7,84.7l1.3-0.2c1.4-0.3,2.9-0.3,4.3-0.4c0.2,0,0.4,0,0.5,0.2c0.1,0.2,0.4,0.4,0.6,0.6
		c0.1,0.1,0,0.2,0.1,0.3c-0.1,0-0.2,0.1-0.3,0c-1.4-0.1-2.8-0.3-4.2-0.4c-0.6,0-1.2,0-1.8-0.1C431,84.8,430.9,84.8,430.7,84.7
		L430.7,84.7z"/>
	<path class="st3" d="M429.1,83c0.5-2,1.1-3.9,1.5-5.9c0.2-0.8,0.8-1,1.4-1.4l0.1,0.1l-2.9,7.2L429.1,83z"/>
	<path class="st3" d="M426.4,82.8l-3.5-3.9l0-0.1l0.9,0.5c0-0.3-0.1-0.5-0.1-0.7l0.1,0C424.8,79.9,425.6,81.3,426.4,82.8L426.4,82.8
		z"/>
	<path class="st3" d="M411.6,59l0.7,1.4c0,0,0,0.1,0.1,0.1c0,0,0.1,0,0.1,0l1.6,0.2c0,0,0.1,0,0.1,0.1c0,0,0.1,0.1,0.1,0.1
		c0,0,0,0.1,0,0.1c0,0,0,0.1-0.1,0.1l-1.1,1.1c0,0-0.1,0.1-0.1,0.1c0,0,0,0.1,0,0.1l0.3,1.6c0,0,0,0.1,0,0.1c0,0,0,0.1-0.1,0.1
		c0,0-0.1,0-0.1,0c0,0-0.1,0-0.1,0l-1.4-0.7c0,0-0.1,0-0.1,0c0,0-0.1,0-0.1,0l-1.4,0.8c0,0-0.1,0-0.1,0c0,0-0.1,0-0.1,0
		c0,0-0.1-0.1-0.1-0.1c0,0,0-0.1,0-0.1l0.2-1.6c0,0,0-0.1,0-0.1c0,0,0-0.1-0.1-0.1l-1.2-1.1c0,0-0.1-0.1-0.1-0.1c0,0,0-0.1,0-0.1
		s0-0.1,0.1-0.1c0,0,0.1-0.1,0.1-0.1l1.6-0.3c0,0,0.1,0,0.1,0c0,0,0.1-0.1,0.1-0.1l0.7-1.4c0,0,0.1-0.1,0.1-0.1s0.1,0,0.1,0
		C411.4,58.9,411.5,58.9,411.6,59C411.6,58.9,411.6,58.9,411.6,59L411.6,59z"/>
	<path class="st3" d="M405.4,67.1l0.7,1.4c0,0,0,0.1,0.1,0.1c0,0,0.1,0,0.1,0l1.6,0.2c0,0,0.1,0,0.1,0.1c0,0,0.1,0.1,0.1,0.1
		c0,0,0,0.1,0,0.1c0,0,0,0.1-0.1,0.1l-1.1,1.1c0,0,0,0.1-0.1,0.1c0,0,0,0.1,0,0.1l0.3,1.6c0,0,0,0.1,0,0.1c0,0,0,0.1-0.1,0.1
		c0,0-0.1,0-0.1,0c0,0-0.1,0-0.1,0l-1.4-0.7c0,0-0.1,0-0.1,0c0,0-0.1,0-0.1,0l-1.4,0.8c0,0-0.1,0-0.1,0c0,0-0.1,0-0.1,0
		c0,0-0.1-0.1-0.1-0.1c0,0,0-0.1,0-0.1l0.2-1.6c0,0,0-0.1,0-0.1c0,0,0-0.1-0.1-0.1l-1.2-1.1c0,0-0.1-0.1-0.1-0.1s0-0.1,0-0.1
		c0,0,0-0.1,0.1-0.1c0,0,0.1-0.1,0.1-0.1l1.6-0.3c0,0,0.1,0,0.1,0s0.1-0.1,0.1-0.1l0.7-1.4c0,0,0-0.1,0.1-0.1s0.1,0,0.1,0
		c0,0,0.1,0,0.1,0C405.4,67,405.4,67,405.4,67.1L405.4,67.1z"/>
	<path class="st3" d="M405.8,83.5l0.7,1.4c0,0,0,0.1,0.1,0.1c0,0,0.1,0,0.1,0l1.6,0.2c0,0,0.1,0,0.1,0.1c0,0,0.1,0.1,0.1,0.1
		c0,0,0,0.1,0,0.1c0,0,0,0.1-0.1,0.1l-1.1,1.1c0,0,0,0.1-0.1,0.1c0,0,0,0.1,0,0.1l0.3,1.6c0,0,0,0.1,0,0.1c0,0,0,0.1-0.1,0.1
		c0,0-0.1,0-0.1,0c0,0-0.1,0-0.1,0l-1.4-0.7c0,0-0.1,0-0.1,0c0,0-0.1,0-0.1,0l-1.4,0.8c0,0-0.1,0-0.1,0c0,0-0.1,0-0.1,0
		s-0.1-0.1-0.1-0.1c0,0,0-0.1,0-0.1l0.2-1.6c0,0,0-0.1,0-0.1c0,0,0-0.1-0.1-0.1l-1.2-1.1c0,0-0.1-0.1-0.1-0.1c0,0,0-0.1,0-0.1
		c0,0,0-0.1,0.1-0.1s0.1-0.1,0.1-0.1l1.6-0.3c0,0,0.1,0,0.1,0s0.1-0.1,0.1-0.1l0.7-1.4c0,0,0.1-0.1,0.1-0.1c0,0,0.1,0,0.1,0
		C405.6,83.4,405.6,83.4,405.8,83.5C405.7,83.4,405.7,83.5,405.8,83.5z"/>
	<path class="st3" d="M410.2,93l0.7,1.4c0,0,0,0.1,0.1,0.1c0,0,0.1,0,0.1,0l1.6,0.2c0,0,0.1,0,0.1,0.1s0.1,0.1,0.1,0.1
		c0,0,0,0.1,0,0.1c0,0,0,0.1-0.1,0.1l-1.1,1.1c0,0,0,0.1-0.1,0.1c0,0,0,0.1,0,0.1l0.3,1.6c0,0,0,0.1,0,0.1c0,0,0,0.1-0.1,0.1
		c0,0-0.1,0-0.1,0c0,0-0.1,0-0.1,0l-1.4-0.7c0,0-0.1,0-0.1,0c0,0-0.1,0-0.1,0l-1.4,0.8c0,0-0.1,0-0.1,0c0,0-0.1,0-0.1,0
		c0,0-0.1-0.1-0.1-0.1c0,0,0-0.1,0-0.1l0.2-1.6c0,0,0-0.1,0-0.1c0,0,0-0.1-0.1-0.1l-1.2-1.1c0,0-0.1-0.1-0.1-0.1c0,0,0-0.1,0-0.1
		c0,0,0-0.1,0.1-0.1c0,0,0.1-0.1,0.1-0.1l1.6-0.3c0,0,0.1,0,0.1,0c0,0,0.1-0.1,0.1-0.1l0.7-1.4c0,0,0.1-0.1,0.1-0.1c0,0,0.1,0,0.1,0
		C410,92.9,410,92.9,410.2,93C410.1,93,410.1,93,410.2,93L410.2,93z"/>
	<path class="st3" d="M419.8,95.9l0.7,1.4c0,0,0,0.1,0.1,0.1c0,0,0.1,0,0.1,0l1.6,0.2c0,0,0.1,0,0.1,0.1c0,0,0.1,0.1,0.1,0.1
		c0,0,0,0.1,0,0.1c0,0,0,0.1-0.1,0.1l-1.1,1.1c0,0-0.1,0.1-0.1,0.1c0,0,0,0.1,0,0.1l0.3,1.6c0,0,0,0.1,0,0.1s0,0.1-0.1,0.1
		c0,0-0.1,0-0.1,0c0,0-0.1,0-0.1,0l-1.4-0.7c0,0-0.1,0-0.1,0c0,0-0.1,0-0.1,0l-1.4,0.8c0,0-0.1,0-0.1,0c0,0-0.1,0-0.1,0
		c0,0-0.1-0.1-0.1-0.1c0,0,0-0.1,0-0.1l0.2-1.6c0,0,0-0.1,0-0.1c0,0,0-0.1-0.1-0.1l-1.2-1.1c0,0-0.1-0.1-0.1-0.1c0,0,0-0.1,0-0.1
		c0,0,0-0.1,0.1-0.1c0,0,0.1-0.1,0.1-0.1l1.6-0.3c0,0,0.1,0,0.1,0c0,0,0.1-0.1,0.1-0.1l0.7-1.4c0,0,0.1-0.1,0.1-0.1c0,0,0.1,0,0.1,0
		C419.6,95.7,419.6,95.7,419.8,95.9C419.7,95.8,419.7,95.8,419.8,95.9L419.8,95.9z"/>
	<path class="st3" d="M428.6,99.4l0.7,1.4c0,0,0,0.1,0.1,0.1c0,0,0.1,0,0.1,0l1.6,0.2c0,0,0.1,0,0.1,0.1c0,0,0.1,0.1,0.1,0.1
		c0,0,0,0.1,0,0.1c0,0,0,0.1-0.1,0.1l-1.1,1.1c0,0,0,0.1-0.1,0.1c0,0,0,0.1,0,0.1l0.3,1.6c0,0,0,0.1,0,0.1c0,0,0,0.1-0.1,0.1
		c0,0-0.1,0-0.1,0.1c0,0-0.1,0-0.1,0l-1.4-0.7c0,0-0.1,0-0.1,0c0,0-0.1,0-0.1,0l-1.4,0.8c0,0-0.1,0-0.1,0c0,0-0.1,0-0.1,0
		c0,0-0.1-0.1-0.1-0.1c0,0,0-0.1,0-0.1l0.2-1.6c0,0,0-0.1,0-0.1c0,0,0-0.1-0.1-0.1l-1.2-1.1c0,0-0.1-0.1-0.1-0.1c0,0,0-0.1,0-0.1
		c0,0,0-0.1,0.1-0.1c0,0,0.1-0.1,0.1-0.1l1.6-0.3c0,0,0.1,0,0.1-0.1c0,0,0.1-0.1,0.1-0.1l0.7-1.4c0,0,0.1-0.1,0.1-0.1
		c0,0,0.1,0,0.1,0C428.4,99.3,428.5,99.3,428.6,99.4C428.5,99.3,428.6,99.4,428.6,99.4L428.6,99.4z"/>
	<path class="st3" d="M437.8,96.2l0.7,1.4c0,0,0,0.1,0.1,0.1s0.1,0,0.1,0l1.6,0.2c0,0,0.1,0,0.1,0.1c0,0,0.1,0.1,0.1,0.1
		c0,0,0,0.1,0,0.1c0,0,0,0.1-0.1,0.1l-1.1,1.1c0,0,0,0.1-0.1,0.1c0,0,0,0.1,0,0.1l0.3,1.6c0,0,0,0.1,0,0.1c0,0,0,0.1-0.1,0.1
		s-0.1,0-0.1,0.1c0,0-0.1,0-0.1,0l-1.4-0.7c0,0-0.1,0-0.1,0c0,0-0.1,0-0.1,0l-1.4,0.8c0,0-0.1,0-0.1,0c0,0-0.1,0-0.1,0
		c0,0-0.1-0.1-0.1-0.1c0,0,0-0.1,0-0.1l0.2-1.6c0,0,0-0.1,0-0.1c0,0,0-0.1-0.1-0.1l-1.2-1.1c0,0-0.1-0.1-0.1-0.1c0,0,0-0.1,0-0.1
		c0,0,0-0.1,0.1-0.1c0,0,0.1-0.1,0.1-0.1l1.6-0.3c0,0,0.1,0,0.1,0c0,0,0.1-0.1,0.1-0.1l0.7-1.4c0,0,0.1-0.1,0.1-0.1c0,0,0.1,0,0.1,0
		S437.7,96.1,437.8,96.2C437.8,96.1,437.8,96.2,437.8,96.2L437.8,96.2z"/>
	<path class="st3" d="M449.3,92.3l0.7,1.4c0,0,0,0.1,0.1,0.1c0,0,0.1,0,0.1,0l1.6,0.2c0,0,0.1,0,0.1,0.1c0,0,0.1,0.1,0.1,0.1
		c0,0,0,0.1,0,0.1c0,0,0,0.1-0.1,0.1l-1.1,1.1c0,0,0,0.1-0.1,0.1c0,0,0,0.1,0,0.1l0.3,1.6c0,0,0,0.1,0,0.1c0,0,0,0.1-0.1,0.1
		c0,0-0.1,0-0.1,0c0,0-0.1,0-0.1,0l-1.4-0.7c0,0-0.1,0-0.1,0c0,0-0.1,0-0.1,0l-1.4,0.8c0,0-0.1,0-0.1,0c0,0-0.1,0-0.1,0
		c0,0-0.1-0.1-0.1-0.1c0,0,0-0.1,0-0.1l0.2-1.6c0,0,0-0.1,0-0.1c0,0,0-0.1-0.1-0.1l-1.2-1.1c0,0-0.1-0.1-0.1-0.1c0,0,0-0.1,0-0.1
		c0,0,0-0.1,0.1-0.1c0,0,0.1-0.1,0.1-0.1l1.6-0.3c0,0,0.1,0,0.1,0c0,0,0.1-0.1,0.1-0.1l0.7-1.4c0,0,0.1-0.1,0.1-0.1c0,0,0.1,0,0.1,0
		C449.1,92.1,449.1,92.1,449.3,92.3C449.2,92.2,449.2,92.2,449.3,92.3L449.3,92.3z"/>
	<path class="st3" d="M454.6,83.2l0.7,1.4c0,0,0,0.1,0.1,0.1c0,0,0.1,0,0.1,0l1.6,0.2c0,0,0.1,0,0.1,0.1c0,0,0.1,0.1,0.1,0.1
		c0,0,0,0.1,0,0.1c0,0,0,0.1-0.1,0.1l-1.1,1.1c0,0,0,0.1-0.1,0.1c0,0,0,0.1,0,0.1l0.3,1.6c0,0,0,0.1,0,0.1c0,0,0,0.1-0.1,0.1
		c0,0-0.1,0-0.1,0c0,0-0.1,0-0.1,0l-1.4-0.7c0,0-0.1,0-0.1,0c0,0-0.1,0-0.1,0l-1.4,0.8c0,0-0.1,0-0.1,0c0,0-0.1,0-0.1,0
		c0,0-0.1-0.1-0.1-0.1c0,0,0-0.1,0-0.1l0.2-1.6c0,0,0-0.1,0-0.1c0,0,0-0.1-0.1-0.1l-1.2-1.1c0,0-0.1-0.1-0.1-0.1c0,0,0-0.1,0-0.1
		c0,0,0-0.1,0.1-0.1c0,0,0.1-0.1,0.1-0.1l1.6-0.3c0,0,0.1,0,0.1,0c0,0,0.1-0.1,0.1-0.1l0.7-1.4c0,0,0-0.1,0.1-0.1c0,0,0.1,0,0.1,0
		c0,0,0.1,0,0.1,0C454.5,83.1,454.5,83.1,454.6,83.2z"/>
	<path class="st3" d="M439.7,81.2l0.7,1.4c0,0,0,0.1,0.1,0.1c0,0,0.1,0,0.1,0l1.6,0.2c0,0,0.1,0,0.1,0.1c0,0,0.1,0.1,0.1,0.1
		c0,0,0,0.1,0,0.1s0,0.1-0.1,0.1l-1.1,1.1c0,0,0,0.1-0.1,0.1s0,0.1,0,0.1l0.3,1.6c0,0,0,0.1,0,0.1c0,0,0,0.1-0.1,0.1
		c0,0-0.1,0-0.1,0c0,0-0.1,0-0.1,0l-1.4-0.7c0,0-0.1,0-0.1,0c0,0-0.1,0-0.1,0l-1.4,0.8c0,0-0.1,0-0.1,0c0,0-0.1,0-0.1,0
		c0,0-0.1-0.1-0.1-0.1c0,0,0-0.1,0-0.1l0.2-1.6c0,0,0-0.1,0-0.1c0,0,0-0.1-0.1-0.1l-1.2-1.1c0,0-0.1-0.1-0.1-0.1c0,0,0-0.1,0-0.1
		c0,0,0-0.1,0.1-0.1c0,0,0.1-0.1,0.1-0.1l1.6-0.3c0,0,0.1,0,0.1,0c0,0,0.1-0.1,0.1-0.1l0.7-1.4c0,0,0.1-0.1,0.1-0.1c0,0,0.1,0,0.1,0
		C439.5,81.1,439.6,81.1,439.7,81.2C439.6,81.1,439.7,81.2,439.7,81.2L439.7,81.2z"/>
	<path class="st3" d="M449.7,73.6l0.7,1.4c0,0,0,0.1,0.1,0.1c0,0,0.1,0,0.1,0l1.6,0.2c0,0,0.1,0,0.1,0.1c0,0,0.1,0.1,0.1,0.1
		c0,0,0,0.1,0,0.1s0,0.1-0.1,0.1l-1.1,1.1c0,0,0,0.1-0.1,0.1c0,0,0,0.1,0,0.1l0.3,1.6c0,0,0,0.1,0,0.1c0,0,0,0.1-0.1,0.1
		c0,0-0.1,0-0.1,0c0,0-0.1,0-0.1,0l-1.4-0.7c0,0-0.1,0-0.1,0c0,0-0.1,0-0.1,0l-1.4,0.8c0,0-0.1,0-0.1,0c0,0-0.1,0-0.1,0
		c0,0-0.1-0.1-0.1-0.1c0,0,0-0.1,0-0.1l0.2-1.6c0,0,0-0.1,0-0.1c0,0,0-0.1-0.1-0.1l-1.2-1.1c0,0-0.1-0.1-0.1-0.1c0,0,0-0.1,0-0.1
		c0,0,0-0.1,0.1-0.1c0,0,0.1-0.1,0.1-0.1l1.6-0.3c0,0,0.1,0,0.1,0c0,0,0.1-0.1,0.1-0.1l0.7-1.4c0,0,0.1-0.1,0.1-0.1c0,0,0.1,0,0.1,0
		C449.6,73.4,449.6,73.5,449.7,73.6C449.7,73.5,449.7,73.5,449.7,73.6L449.7,73.6z"/>
	<path class="st3" d="M450.3,64l0.7,1.4c0,0,0,0.1,0.1,0.1c0,0,0.1,0,0.1,0l1.6,0.2c0,0,0.1,0,0.1,0.1c0,0,0.1,0.1,0.1,0.1
		c0,0,0,0.1,0,0.1c0,0,0,0.1-0.1,0.1l-1.1,1.1c0,0,0,0.1-0.1,0.1c0,0,0,0.1,0,0.1l0.3,1.6c0,0,0,0.1,0,0.1c0,0,0,0.1-0.1,0.1
		c0,0-0.1,0-0.1,0c0,0-0.1,0-0.1,0l-1.4-0.7c0,0-0.1,0-0.1,0c0,0-0.1,0-0.1,0l-1.4,0.8c0,0-0.1,0-0.1,0c0,0-0.1,0-0.1,0
		c0,0-0.1-0.1-0.1-0.1c0,0,0-0.1,0-0.1l0.2-1.6c0,0,0-0.1,0-0.1c0,0,0-0.1-0.1-0.1l-1.2-1.1c0,0-0.1-0.1-0.1-0.1c0,0,0-0.1,0-0.1
		c0,0,0-0.1,0.1-0.1c0,0,0.1-0.1,0.1-0.1l1.6-0.3c0,0,0.1,0,0.1,0c0,0,0.1-0.1,0.1-0.1l0.7-1.4c0,0,0.1-0.1,0.1-0.1c0,0,0.1,0,0.1,0
		C450.1,63.9,450.2,63.9,450.3,64C450.2,64,450.3,64,450.3,64L450.3,64z"/>
	<path class="st3" d="M446.5,55.2l0.7,1.4c0,0,0,0.1,0.1,0.1c0,0,0.1,0,0.1,0l1.6,0.2c0,0,0.1,0,0.1,0.1c0,0,0.1,0.1,0.1,0.1
		c0,0,0,0.1,0,0.1c0,0,0,0.1-0.1,0.1l-1.1,1.1c0,0,0,0.1-0.1,0.1s0,0.1,0,0.1l0.3,1.6c0,0,0,0.1,0,0.1c0,0,0,0.1-0.1,0.1
		c0,0-0.1,0-0.1,0c0,0-0.1,0-0.1,0l-1.4-0.7c0,0-0.1,0-0.1,0c0,0-0.1,0-0.1,0l-1.4,0.8c0,0-0.1,0-0.1,0c0,0-0.1,0-0.1,0
		c0,0-0.1-0.1-0.1-0.1c0,0,0-0.1,0-0.1l0.2-1.6c0,0,0-0.1,0-0.1c0,0,0-0.1-0.1-0.1l-1.2-1.1c0,0-0.1-0.1-0.1-0.1c0,0,0-0.1,0-0.1
		c0,0,0-0.1,0.1-0.1c0,0,0.1-0.1,0.1-0.1l1.6-0.3c0,0,0.1,0,0.1,0c0,0,0.1-0.1,0.1-0.1l0.7-1.4c0,0,0.1-0.1,0.1-0.1c0,0,0.1,0,0.1,0
		C446.3,55,446.3,55,446.5,55.2C446.4,55.1,446.5,55.1,446.5,55.2L446.5,55.2z"/>
	<path class="st3" d="M435.4,51.6l0.7,1.4c0,0,0,0.1,0.1,0.1c0,0,0.1,0,0.1,0l1.6,0.2c0,0,0.1,0,0.1,0.1c0,0,0.1,0.1,0.1,0.1
		c0,0,0,0.1,0,0.1c0,0,0,0.1-0.1,0.1l-1.1,1.1c0,0-0.1,0.1-0.1,0.1c0,0,0,0.1,0,0.1l0.3,1.6c0,0,0,0.1,0,0.1c0,0,0,0.1-0.1,0.1
		c0,0-0.1,0-0.1,0c0,0-0.1,0-0.1,0l-1.4-0.7c0,0-0.1,0-0.1,0c0,0-0.1,0-0.1,0l-1.4,0.8c0,0-0.1,0-0.1,0c0,0-0.1,0-0.1,0
		c0,0-0.1-0.1-0.1-0.1c0,0,0-0.1,0-0.1l0.2-1.6c0,0,0-0.1,0-0.1c0,0,0-0.1-0.1-0.1l-1.2-1.1c0,0-0.1-0.1-0.1-0.1c0,0,0-0.1,0-0.1
		s0-0.1,0.1-0.1c0,0,0.1-0.1,0.1-0.1l1.6-0.3c0,0,0.1,0,0.1,0c0,0,0.1-0.1,0.1-0.1l0.7-1.4c0,0,0.1-0.1,0.1-0.1c0,0,0.1,0,0.1,0
		C435.2,51.4,435.3,51.4,435.4,51.6C435.3,51.5,435.4,51.5,435.4,51.6L435.4,51.6z"/>
	<path class="st3" d="M427.8,58.9l0.7,1.4c0,0,0,0.1,0.1,0.1c0,0,0.1,0,0.1,0l1.6,0.2c0,0,0.1,0,0.1,0.1c0,0,0.1,0.1,0.1,0.1
		c0,0,0,0.1,0,0.1c0,0,0,0.1-0.1,0.1l-1.1,1.1c0,0,0,0.1-0.1,0.1c0,0,0,0.1,0,0.1l0.3,1.6c0,0,0,0.1,0,0.1s0,0.1-0.1,0.1
		s-0.1,0-0.1,0c0,0-0.1,0-0.1,0l-1.4-0.7c0,0-0.1,0-0.1,0c0,0-0.1,0-0.1,0l-1.4,0.8c0,0-0.1,0-0.1,0c0,0-0.1,0-0.1,0
		c0,0-0.1-0.1-0.1-0.1c0,0,0-0.1,0-0.1l0.2-1.6c0,0,0-0.1,0-0.1c0,0,0-0.1-0.1-0.1l-1.2-1.1c0,0-0.1-0.1-0.1-0.1c0,0,0-0.1,0-0.1
		c0,0,0-0.1,0.1-0.1c0,0,0.1-0.1,0.1-0.1l1.6-0.3c0,0,0.1,0,0.1,0c0,0,0.1-0.1,0.1-0.1l0.7-1.4c0,0,0.1-0.1,0.1-0.1c0,0,0.1,0,0.1,0
		C427.6,58.7,427.7,58.7,427.8,58.9C427.8,58.8,427.8,58.8,427.8,58.9L427.8,58.9z"/>
	<path class="st3" d="M432.2,70.6l0.7,1.4c0,0,0,0.1,0.1,0.1c0,0,0.1,0,0.1,0l1.6,0.2c0,0,0.1,0,0.1,0.1c0,0,0.1,0.1,0.1,0.1
		c0,0,0,0.1,0,0.1c0,0,0,0.1-0.1,0.1l-1.1,1.1c0,0-0.1,0.1-0.1,0.1c0,0,0,0.1,0,0.1l0.3,1.6c0,0,0,0.1,0,0.1c0,0,0,0.1-0.1,0.1
		c0,0-0.1,0-0.1,0c0,0-0.1,0-0.1,0l-1.4-0.7c0,0-0.1,0-0.1,0s-0.1,0-0.1,0l-1.4,0.8c0,0-0.1,0-0.1,0c0,0-0.1,0-0.1,0
		c0,0-0.1-0.1-0.1-0.1c0,0,0-0.1,0-0.1l0.2-1.6c0,0,0-0.1,0-0.1c0,0,0-0.1-0.1-0.1l-1.2-1.1c0,0-0.1-0.1-0.1-0.1s0-0.1,0-0.1
		c0,0,0-0.1,0.1-0.1c0,0,0.1-0.1,0.1-0.1l1.6-0.3c0,0,0.1,0,0.1,0c0,0,0.1-0.1,0.1-0.1l0.7-1.4c0,0,0.1-0.1,0.1-0.1c0,0,0.1,0,0.1,0
		C432,70.4,432,70.4,432.2,70.6C432.1,70.5,432.1,70.5,432.2,70.6L432.2,70.6z"/>
	<path class="st3" d="M421.5,72.8l0.7,1.4c0,0,0,0.1,0.1,0.1c0,0,0.1,0,0.1,0l1.6,0.2c0,0,0.1,0,0.1,0.1c0,0,0.1,0.1,0.1,0.1
		c0,0,0,0.1,0,0.1c0,0,0,0.1-0.1,0.1l-1.1,1.1c0,0,0,0.1-0.1,0.1c0,0,0,0.1,0,0.1l0.3,1.6c0,0,0,0.1,0,0.1c0,0,0,0.1-0.1,0.1
		c0,0-0.1,0-0.1,0c0,0-0.1,0-0.1,0l-1.4-0.7c0,0-0.1,0-0.1,0c0,0-0.1,0-0.1,0l-1.4,0.8c0,0-0.1,0-0.1,0c0,0-0.1,0-0.1,0
		c0,0-0.1-0.1-0.1-0.1c0,0,0-0.1,0-0.1l0.2-1.6c0,0,0-0.1,0-0.1c0,0,0-0.1-0.1-0.1l-1.2-1.1c0,0-0.1-0.1-0.1-0.1c0,0,0-0.1,0-0.1
		c0,0,0-0.1,0.1-0.1c0,0,0.1-0.1,0.1-0.1l1.6-0.3c0,0,0.1,0,0.1,0c0,0,0.1-0.1,0.1-0.1l0.7-1.4c0,0,0.1-0.1,0.1-0.1s0.1,0,0.1,0
		S421.4,72.7,421.5,72.8C421.5,72.8,421.5,72.8,421.5,72.8z"/>
</g>
<g id="Fireworks_3" class="st37">
	<path class="st3" d="M382.6,34.3c0.3,0.4,0.5,0.7,0.8,1.1c0.1,0.1,0.2,0.2,0.4,0.2c0.4,0,0.8,0,1.2,0c0.1,0,0.1,0,0.2,0
		c-0.2,0.3-0.4,0.6-0.6,0.9c-0.2,0.3-0.2,0.5-0.1,0.7c0.2,0.3,0.3,0.7,0.4,1.1l-0.8-0.2c-0.2-0.1-0.5-0.2-0.7-0.2
		c-0.2,0-0.4,0.3-0.6,0.4l-0.7,0.5c0-0.2,0-0.4-0.1-0.6c0-0.3,0-0.6,0-0.9c0-0.1-0.1-0.2-0.1-0.2c-0.3-0.2-0.7-0.4-1-0.6
		c-0.1,0-0.1,0-0.2-0.1l0-0.1c0.4-0.1,0.7-0.3,1.1-0.4c0.3-0.1,0.4-0.3,0.5-0.5C382.4,35.1,382.5,34.8,382.6,34.3z"/>
	<path class="st3" d="M397,56.1c0.7,0.1,1.4,0.2,2.1,0.3c2.8,0.5,5.5,1.2,8.2,2.1c0.1,0,0.2,0.1,0.3,0.1c0.2,0.1,0.2,0.2,0,0.3
		c-0.1,0.1-0.2,0.1-0.3,0.2c-0.1,0-0.1,0-0.2,0.1c-0.4,0.2-0.8,0.2-1.3,0c-1.8-0.8-3.6-1.6-5.5-2.1c-1-0.3-2.1-0.5-3.1-0.8L397,56.1
		L397,56.1z"/>
	<path class="st3" d="M396.6,50.1l0.4-0.5c1.8-2.3,3.7-4.6,5.7-6.8c0.5-0.5,0.9-1.1,1.4-1.7c0.1-0.1,0.2-0.2,0.3-0.3
		c0,0.1,0.1,0.3,0.1,0.4c0,0.2,0,0.4,0,0.6c0,0.1-0.1,0.2-0.1,0.2c-1.7,1.7-3.3,3.4-5,5.1c-0.9,0.9-1.7,1.8-2.6,2.8L396.6,50.1
		L396.6,50.1z"/>
	<path class="st3" d="M378.5,59.8c0.2-0.4,0.5-0.7,0.7-1.1c0,0,0.1-0.1,0.1-0.1c1.7-0.6,3.4-1.2,5.1-1.7c1.1-0.3,2.3-0.5,3.5-0.7
		c0.3-0.1,0.6-0.1,0.9-0.1C385.3,57,381.9,58.4,378.5,59.8L378.5,59.8z"/>
	<g class="st32">
		<path class="st33" d="M392.8,55.9c1,1.8,2,3.6,3,5.4c0.1,0.3,0.3,0.6,0.4,0.9c5.1,11.3,10.3,22.6,15.4,33.9
			c3.3,7.4,6.6,15,9.9,22.5c0.9,2,1.8,4,2.6,6c-10.3-23.4-20.8-46-31.3-68.5L392.8,55.9z"/>
		
			<linearGradient id="SVGID_14_" gradientUnits="userSpaceOnUse" x1="411.1852" y1="270.5145" x2="394.2482" y2="305.2222" gradientTransform="matrix(1 0 0 -1 0 366)">
			<stop  offset="0" style="stop-color:#FFFFFF;stop-opacity:0"/>
			<stop  offset="1" style="stop-color:#FFFFFF"/>
		</linearGradient>
		<path class="st38" d="M392.8,55.9c1,1.8,2,3.6,3,5.4c0.1,0.3,0.3,0.6,0.4,0.9c5.1,11.3,10.3,22.6,15.4,33.9
			c3.3,7.4,6.6,15,9.9,22.5c0.9,2,1.8,4,2.6,6c-10.3-23.4-20.8-46-31.3-68.5L392.8,55.9z"/>
	</g>
	<path class="st3" d="M396.8,52.1c0.4-0.2,0.7-0.5,1.1-0.7c1.9-1.3,3.9-2.3,5.9-3.5c0.3-0.2,0.6-0.4,0.9-0.6c0,0,0.1,0,0.1,0
		c0,0,0.1,0,0.1,0c0.1,0.1,0.2,0.1,0.3,0.2c0.3,0.2,0.3,0.5-0.1,0.6c-0.3,0.1-0.6,0.2-0.8,0.4c-2.4,1.1-4.8,2.3-7.2,3.4L396.8,52.1
		L396.8,52.1z"/>
	<path class="st3" d="M400.7,35.3c0,0.4,0,0.8,0,1.1c0,0.4-0.1,0.8-0.3,1.2c-0.9,1.6-1.8,3.3-2.7,5c-0.3,0.6-0.6,1.1-0.9,1.7
		C397.9,41.2,399.2,38.3,400.7,35.3z"/>
	<path class="st3" d="M389.3,57.7c0,0-0.1,0.1-0.1,0.1c-1.4,1.2-2.7,2.6-4,4c-0.7,0.8-1.4,1.6-2.1,2.4c-0.1,0.1-0.2,0.2-0.3,0.2
		c-0.3,0-0.5,0-0.8,0c-0.1,0-0.1,0-0.1-0.1c0,0,0-0.1,0.1-0.1c0.7-0.7,1.4-1.4,2.1-2.1c1.6-1.6,3.3-3,5-4.3
		C389.2,57.7,389.2,57.7,389.3,57.7L389.3,57.7z"/>
	<path class="st3" d="M388.1,46.2c-0.3-0.5-0.7-1-1-1.5c-1.2-1.9-2.4-3.9-3.6-5.8c-0.1-0.1-0.2-0.2-0.2-0.4c-0.1-0.1,0-0.2,0.1-0.2
		c0.5,0.1,0.9,0.2,1.1,0.7c1.2,2.4,2.4,4.7,3.6,7.1C388.1,46.1,388.1,46.1,388.1,46.2L388.1,46.2z"/>
	<path class="st3" d="M393.3,43.2c0-0.3,0-0.6-0.1-0.9c-0.1-2.2,0-4.4,0.2-6.6c0-0.4,0.3-0.6,0.6-0.8c0.1,0,0.1,0,0.2,0
		c0,0.1,0,0.1,0,0.2c-0.2,1.6-0.4,3.2-0.6,4.8c-0.1,1-0.2,2.1-0.2,3.1L393.3,43.2L393.3,43.2z"/>
	<path class="st3" d="M391.2,48.6c-0.2-0.8-0.4-1.5-0.6-2.3c-0.4-1.6-0.9-3.3-1.3-4.9c-0.1-0.2,0-0.3,0.2-0.4
		c0.3-0.2,0.6-0.1,0.7,0.2c0.1,0.9,0.3,1.8,0.4,2.7c0.2,1.3,0.4,2.6,0.5,3.9C391.2,48.1,391.2,48.3,391.2,48.6L391.2,48.6z"/>
	<path class="st3" d="M394.4,56.8c0.2,0.2,0.3,0.3,0.5,0.5c1.6,1.5,3.2,3.1,4.7,4.6c0.2,0.2,0.4,0.4,0.6,0.6c0,0,0.1,0.1,0.1,0.2
		c0,0.2-0.1,0.5-0.2,0.8L394.4,56.8L394.4,56.8z"/>
	<path class="st3" d="M390.9,57.9c-0.1,0.6-0.3,1.3-0.4,2l-1,4.6c0,0.1,0,0.3-0.1,0.4c0,0.1-0.1,0.2-0.3,0.1
		c-0.1-0.1-0.3-0.3-0.5-0.5c0,0,0-0.1,0-0.1C389.4,62.2,390.1,60.1,390.9,57.9L390.9,57.9L390.9,57.9z"/>
	<path class="st3" d="M386.8,54.1c-0.6,0-1.2-0.1-1.8-0.1c-1.4,0-2.9,0-4.3-0.1c-0.2,0-0.4,0-0.6,0.1c-0.2,0-0.2-0.1-0.2-0.2
		c0.1-0.4,0.3-0.5,0.7-0.5c1.5,0,2.9,0.2,4.3,0.5c0.6,0.1,1.2,0.2,1.7,0.3C386.7,54.1,386.7,54.1,386.8,54.1L386.8,54.1z"/>
	<path class="st3" d="M382.9,50.1l-0.3-0.1l-5.8-1.4c-0.2,0-0.3-0.1-0.5-0.1c-0.2,0-0.1-0.1-0.1-0.2c0.1-0.3,0.2-0.4,0.6-0.4
		C378.9,48.4,380.9,49.2,382.9,50.1C382.9,50,382.9,50,382.9,50.1L382.9,50.1z"/>
	<path class="st3" d="M393.1,59c0.7,2.1,1.3,4.3,2,6.4l-0.1,0l-0.5-0.7l-0.2,0.9C393.9,63.5,393.4,61.3,393.1,59L393.1,59z"/>
	<path class="st3" d="M379.6,43.5l0.6,0.2c-0.1-0.3-0.2-0.6-0.3-0.8c0.3,0.1,4.3,4.2,4.7,4.9C382.9,46.3,381.2,44.9,379.6,43.5
		L379.6,43.5z"/>
	<path class="st3" d="M409.6,53.6c-2.1-0.2-4.3-0.2-6.4-0.1l0.7-0.1c0.2,0,0.5-0.1,0.7-0.1c1.1-0.1,2.2-0.2,3.2-0.3
		c0.4,0,0.7,0.1,1,0.3C409.1,53.3,409.4,53.4,409.6,53.6z"/>
	<path class="st3" d="M394.5,55.1l0.9-0.3c1-0.4,2-0.6,3-0.8c0.1,0,0.3,0,0.4,0.1c0.1,0.1,0.3,0.2,0.5,0.4c0,0,0.1,0.1,0.1,0.2
		c-0.1,0-0.1,0.1-0.2,0.1c-1,0.1-2,0.2-3,0.3c-0.4,0-0.9,0.1-1.3,0.2C394.7,55.1,394.6,55.1,394.5,55.1L394.5,55.1z"/>
	<path class="st3" d="M393.1,54.1c0.1-1.4,0.3-2.9,0.3-4.4c0-0.6,0.4-0.8,0.8-1.1l0.1,0L393.1,54.1L393.1,54.1z"/>
	<path class="st3" d="M391.2,54.3l-3-2.3l0,0l0.7,0.2c-0.1-0.2-0.1-0.3-0.2-0.5l0,0C389.7,52.5,390.4,53.4,391.2,54.3L391.2,54.3z"
		/>
	<path class="st3" d="M377.7,39.5l0.7,0.9c0,0,0,0,0.1,0.1c0,0,0.1,0,0.1,0l1.1-0.1c0,0,0.1,0,0.1,0c0,0,0.1,0,0.1,0.1
		c0,0,0,0.1,0,0.1c0,0,0,0.1,0,0.1l-0.6,0.9c0,0,0,0.1,0,0.1c0,0,0,0.1,0,0.1l0.4,1.1c0,0,0,0.1,0,0.1c0,0,0,0.1,0,0.1
		c0,0-0.1,0-0.1,0.1c0,0-0.1,0-0.1,0l-1.1-0.3c0,0-0.1,0-0.1,0c0,0-0.1,0-0.1,0l-0.9,0.7c0,0-0.1,0-0.1,0c0,0-0.1,0-0.1,0
		s-0.1,0-0.1-0.1c0,0,0-0.1,0-0.1l0-1.1c0,0,0-0.1,0-0.1s0,0-0.1-0.1l-1-0.6c0,0-0.1,0-0.1-0.1c0,0,0-0.1,0-0.1c0,0,0-0.1,0-0.1
		c0,0,0,0,0.1-0.1l1.1-0.4c0,0,0.1,0,0.1,0c0,0,0,0,0-0.1l0.3-1.1c0,0,0-0.1,0.1-0.1c0,0,0.1,0,0.1,0
		C377.5,39.4,377.6,39.4,377.7,39.5C377.6,39.4,377.7,39.5,377.7,39.5L377.7,39.5z"/>
	<path class="st3" d="M374.4,46l0.7,0.9c0,0,0,0,0.1,0.1c0,0,0.1,0,0.1,0l1.1-0.1c0,0,0.1,0,0.1,0c0,0,0.1,0,0.1,0.1
		c0,0,0,0.1,0,0.1c0,0,0,0.1,0,0.1l-0.6,0.9c0,0,0,0.1,0,0.1c0,0,0,0.1,0,0.1l0.4,1.1c0,0,0,0.1,0,0.1c0,0,0,0.1,0,0.1
		c0,0-0.1,0-0.1,0.1c0,0-0.1,0-0.1,0l-1.1-0.3c0,0-0.1,0-0.1,0c0,0-0.1,0-0.1,0l-0.9,0.7c0,0-0.1,0-0.1,0c0,0-0.1,0-0.1,0
		c0,0-0.1,0-0.1-0.1c0,0,0-0.1,0-0.1l0-1.1c0,0,0-0.1,0-0.1c0,0,0,0-0.1-0.1l-1-0.6c0,0-0.1,0-0.1-0.1c0,0,0-0.1,0-0.1
		c0,0,0-0.1,0-0.1c0,0,0,0,0.1-0.1l1.1-0.4c0,0,0.1,0,0.1,0c0,0,0,0,0-0.1l0.3-1.1c0,0,0-0.1,0-0.1c0,0,0.1,0,0.1,0
		C374.2,45.9,374.3,45.9,374.4,46C374.3,45.9,374.3,46,374.4,46L374.4,46z"/>
	<path class="st3" d="M376.7,57.5l0.7,0.9c0,0,0,0,0.1,0.1s0.1,0,0.1,0l1.1-0.1c0,0,0.1,0,0.1,0s0.1,0,0.1,0.1c0,0,0,0.1,0,0.1
		c0,0,0,0.1,0,0.1l-0.6,0.9c0,0,0,0.1,0,0.1c0,0,0,0.1,0,0.1l0.4,1.1c0,0,0,0.1,0,0.1c0,0,0,0.1,0,0.1c0,0-0.1,0-0.1,0.1
		c0,0-0.1,0-0.1,0l-1.1-0.3c0,0-0.1,0-0.1,0c0,0-0.1,0-0.1,0l-0.9,0.7c0,0-0.1,0-0.1,0c0,0-0.1,0-0.1,0c0,0-0.1,0-0.1-0.1
		c0,0,0-0.1,0-0.1l0-1.1c0,0,0-0.1,0-0.1c0,0,0,0-0.1-0.1l-1-0.6c0,0,0,0-0.1-0.1c0,0,0-0.1,0-0.1c0,0,0-0.1,0-0.1c0,0,0,0,0.1-0.1
		l1.1-0.4c0,0,0.1,0,0.1,0c0,0,0,0,0-0.1l0.3-1.1c0,0,0-0.1,0.1-0.1c0,0,0.1,0,0.1,0C376.6,57.4,376.6,57.4,376.7,57.5
		C376.7,57.5,376.7,57.5,376.7,57.5z"/>
	<path class="st3" d="M381.1,63.7l0.7,0.9c0,0,0,0,0.1,0.1c0,0,0.1,0,0.1,0l1.1-0.1c0,0,0.1,0,0.1,0c0,0,0.1,0,0.1,0.1
		c0,0,0,0.1,0,0.1c0,0,0,0.1,0,0.1l-0.6,0.9c0,0,0,0.1,0,0.1c0,0,0,0.1,0,0.1L383,67c0,0,0,0.1,0,0.1c0,0,0,0.1,0,0.1
		c0,0-0.1,0-0.1,0.1c0,0-0.1,0-0.1,0l-1.1-0.3c0,0-0.1,0-0.1,0c0,0-0.1,0-0.1,0l-0.9,0.7c0,0-0.1,0-0.1,0c0,0-0.1,0-0.1,0
		c0,0-0.1,0-0.1-0.1c0,0,0-0.1,0-0.1l0-1.1c0,0,0-0.1,0-0.1c0,0,0,0-0.1-0.1l-1-0.6c0,0,0,0-0.1-0.1s0-0.1,0-0.1c0,0,0-0.1,0-0.1
		c0,0,0,0,0.1-0.1l1.1-0.4c0,0,0.1,0,0.1,0c0,0,0,0,0-0.1l0.3-1.1c0,0,0-0.1,0.1-0.1c0,0,0.1,0,0.1,0
		C380.9,63.6,381,63.6,381.1,63.7C381,63.6,381.1,63.6,381.1,63.7L381.1,63.7z"/>
	<path class="st3" d="M388.2,64.4l0.7,0.9c0,0,0,0,0.1,0.1c0,0,0.1,0,0.1,0l1.1-0.1c0,0,0.1,0,0.1,0c0,0,0.1,0,0.1,0.1
		c0,0,0,0.1,0,0.1c0,0,0,0.1,0,0.1l-0.6,0.9c0,0,0,0.1,0,0.1c0,0,0,0.1,0,0.1l0.4,1.1c0,0,0,0.1,0,0.1c0,0,0,0.1,0,0.1
		c0,0-0.1,0-0.1,0.1c0,0-0.1,0-0.1,0l-1.1-0.3c0,0-0.1,0-0.1,0c0,0-0.1,0-0.1,0l-0.9,0.7c0,0-0.1,0-0.1,0c0,0-0.1,0-0.1,0
		c0,0-0.1,0-0.1-0.1c0,0,0-0.1,0-0.1l0-1.1c0,0,0-0.1,0-0.1c0,0,0,0-0.1-0.1l-1-0.6c0,0-0.1,0-0.1-0.1c0,0,0-0.1,0-0.1
		c0,0,0-0.1,0-0.1c0,0,0.1,0,0.1-0.1l1.1-0.4c0,0,0.1,0,0.1,0c0,0,0,0,0-0.1l0.3-1.1c0,0,0-0.1,0.1-0.1c0,0,0.1,0,0.1,0
		C388.1,64.3,388.1,64.3,388.2,64.4C388.2,64.3,388.2,64.4,388.2,64.4L388.2,64.4z"/>
	<path class="st3" d="M394.9,65.7l0.7,0.9c0,0,0,0,0.1,0.1c0,0,0.1,0,0.1,0l1.1-0.1c0,0,0.1,0,0.1,0c0,0,0.1,0,0.1,0.1
		c0,0,0,0.1,0,0.1c0,0,0,0.1,0,0.1l-0.6,0.9c0,0,0,0.1,0,0.1c0,0,0,0.1,0,0.1l0.4,1.1c0,0,0,0.1,0,0.1c0,0,0,0.1,0,0.1
		c0,0-0.1,0-0.1,0.1c0,0-0.1,0-0.1,0l-1.1-0.3c0,0-0.1,0-0.1,0c0,0-0.1,0-0.1,0l-0.9,0.7c0,0-0.1,0-0.1,0c0,0-0.1,0-0.1,0
		c0,0-0.1,0-0.1-0.1c0,0,0-0.1,0-0.1l0-1.1c0,0,0-0.1,0-0.1c0,0,0,0-0.1-0.1l-1-0.6c0,0,0,0-0.1-0.1c0,0,0-0.1,0-0.1
		c0,0,0-0.1,0-0.1c0,0,0,0,0.1-0.1l1.1-0.4c0,0,0.1,0,0.1,0c0,0,0,0,0-0.1l0.3-1.1c0,0,0-0.1,0.1-0.1c0,0,0.1,0,0.1,0
		C394.8,65.7,394.8,65.7,394.9,65.7C394.8,65.7,394.9,65.7,394.9,65.7L394.9,65.7z"/>
	<path class="st3" d="M401,62.3l0.7,0.9c0,0,0,0,0.1,0.1s0.1,0,0.1,0l1.1-0.1c0,0,0.1,0,0.1,0c0,0,0.1,0,0.1,0.1c0,0,0,0.1,0,0.1
		c0,0,0,0.1,0,0.1l-0.6,0.9c0,0,0,0.1,0,0.1c0,0,0,0.1,0,0.1l0.4,1.1c0,0,0,0.1,0,0.1s0,0.1,0,0.1c0,0-0.1,0-0.1,0.1
		c0,0-0.1,0-0.1,0l-1.1-0.3c0,0-0.1,0-0.1,0c0,0-0.1,0-0.1,0l-0.9,0.7c0,0-0.1,0-0.1,0c0,0-0.1,0-0.1,0c0,0-0.1,0-0.1-0.1
		c0,0,0-0.1,0-0.1l0-1.1c0,0,0-0.1,0-0.1c0,0,0,0-0.1-0.1l-1-0.6c0,0-0.1,0-0.1-0.1c0,0,0-0.1,0-0.1c0,0,0-0.1,0-0.1
		c0,0,0,0,0.1-0.1l1.1-0.4c0,0,0.1,0,0.1,0c0,0,0,0,0-0.1l0.3-1.1c0,0,0-0.1,0.1-0.1c0,0,0.1,0,0.1,0
		C400.8,62.2,400.9,62.2,401,62.3C400.9,62.2,401,62.3,401,62.3L401,62.3z"/>
	<path class="st3" d="M408.5,58l0.7,0.9c0,0,0,0,0.1,0.1c0,0,0.1,0,0.1,0l1.1-0.1c0,0,0.1,0,0.1,0c0,0,0.1,0,0.1,0.1
		c0,0,0,0.1,0,0.1c0,0,0,0.1,0,0.1l-0.6,0.9c0,0,0,0.1,0,0.1c0,0,0,0.1,0,0.1l0.4,1.1c0,0,0,0.1,0,0.1c0,0,0,0.1,0,0.1
		c0,0-0.1,0-0.1,0.1c0,0-0.1,0-0.1,0l-1.1-0.3c0,0-0.1,0-0.1,0c0,0-0.1,0-0.1,0l-0.9,0.7c0,0-0.1,0-0.1,0c0,0-0.1,0-0.1,0
		c0,0-0.1,0-0.1-0.1c0,0,0-0.1,0-0.1l0-1.1c0,0,0-0.1,0-0.1c0,0,0,0-0.1-0.1l-1-0.6c0,0-0.1,0-0.1-0.1c0,0,0-0.1,0-0.1
		c0,0,0-0.1,0-0.1c0,0,0,0,0.1-0.1l1.1-0.4c0,0,0.1,0,0.1,0c0,0,0,0,0-0.1l0.3-1.1c0,0,0-0.1,0.1-0.1c0,0,0.1,0,0.1,0
		C408.4,57.9,408.4,57.9,408.5,58C408.5,58,408.5,58,408.5,58L408.5,58z"/>
	<path class="st3" d="M411.1,50.9l0.7,0.9c0,0,0,0,0.1,0.1c0,0,0.1,0,0.1,0l1.1-0.1c0,0,0.1,0,0.1,0c0,0,0.1,0,0.1,0.1
		c0,0,0,0.1,0,0.1c0,0,0,0.1,0,0.1l-0.6,0.9c0,0,0,0.1,0,0.1c0,0,0,0.1,0,0.1l0.4,1.1c0,0,0,0.1,0,0.1c0,0,0,0.1,0,0.1
		c0,0-0.1,0-0.1,0.1c0,0-0.1,0-0.1,0l-1.1-0.3c0,0-0.1,0-0.1,0c0,0-0.1,0-0.1,0l-0.9,0.7c0,0-0.1,0-0.1,0c0,0-0.1,0-0.1,0
		c0,0-0.1,0-0.1-0.1c0,0,0-0.1,0-0.1l0-1.1c0,0,0-0.1,0-0.1c0,0,0,0-0.1-0.1l-1-0.6c0,0-0.1,0-0.1-0.1c0,0,0-0.1,0-0.1
		c0,0,0-0.1,0-0.1c0,0,0,0,0.1-0.1l1.1-0.4c0,0,0.1,0,0.1,0c0,0,0,0,0-0.1l0.3-1.1c0,0,0-0.1,0-0.1c0,0,0.1,0,0.1,0
		C410.9,50.8,410.9,50.9,411.1,50.9C411,50.9,411,50.9,411.1,50.9z"/>
	<path class="st3" d="M400.3,51.5l0.7,0.9c0,0,0,0,0.1,0.1c0,0,0.1,0,0.1,0l1.1-0.1c0,0,0.1,0,0.1,0c0,0,0.1,0,0.1,0.1
		c0,0,0,0.1,0,0.1c0,0,0,0.1,0,0.1l-0.6,0.9c0,0,0,0.1,0,0.1c0,0,0,0.1,0,0.1l0.4,1.1c0,0,0,0.1,0,0.1c0,0,0,0.1,0,0.1
		c0,0-0.1,0-0.1,0.1c0,0-0.1,0-0.1,0l-1.1-0.3c0,0-0.1,0-0.1,0c0,0-0.1,0-0.1,0l-0.9,0.7c0,0-0.1,0-0.1,0c0,0-0.1,0-0.1,0
		c0,0-0.1,0-0.1-0.1c0,0,0-0.1,0-0.1l0-1.1c0,0,0-0.1,0-0.1c0,0,0,0-0.1-0.1l-1-0.6c0,0,0,0-0.1-0.1c0,0,0-0.1,0-0.1
		c0,0,0-0.1,0-0.1c0,0,0,0,0.1-0.1l1.1-0.4c0,0,0.1,0,0.1,0c0,0,0,0,0-0.1l0.3-1.1c0,0,0-0.1,0.1-0.1c0,0,0.1,0,0.1,0
		C400.2,51.4,400.2,51.4,400.3,51.5C400.3,51.4,400.3,51.4,400.3,51.5L400.3,51.5z"/>
	<path class="st3" d="M406.4,44.8l0.7,0.9c0,0,0,0,0.1,0.1c0,0,0.1,0,0.1,0l1.1-0.1c0,0,0.1,0,0.1,0s0.1,0,0.1,0.1c0,0,0,0.1,0,0.1
		s0,0.1,0,0.1l-0.6,0.9c0,0,0,0.1,0,0.1c0,0,0,0.1,0,0.1l0.4,1.1c0,0,0,0.1,0,0.1c0,0,0,0.1,0,0.1c0,0-0.1,0-0.1,0.1
		c0,0-0.1,0-0.1,0l-1.1-0.3c0,0-0.1,0-0.1,0c0,0-0.1,0-0.1,0l-0.9,0.7c0,0-0.1,0-0.1,0s-0.1,0-0.1,0c0,0-0.1,0-0.1-0.1
		c0,0,0-0.1,0-0.1l0-1.1c0,0,0-0.1,0-0.1c0,0,0,0-0.1-0.1l-1-0.6c0,0-0.1,0-0.1-0.1c0,0,0-0.1,0-0.1c0,0,0-0.1,0-0.1
		c0,0,0,0,0.1-0.1l1.1-0.4c0,0,0.1,0,0.1,0c0,0,0,0,0-0.1l0.3-1.1c0,0,0-0.1,0.1-0.1c0,0,0.1,0,0.1,0
		C406.3,44.7,406.3,44.7,406.4,44.8C406.4,44.7,406.4,44.8,406.4,44.8L406.4,44.8z"/>
	<path class="st3" d="M405.6,38l0.7,0.9c0,0,0,0,0.1,0.1c0,0,0.1,0,0.1,0l1.1-0.1c0,0,0.1,0,0.1,0c0,0,0.1,0,0.1,0.1
		c0,0,0,0.1,0,0.1c0,0,0,0.1,0,0.1l-0.6,0.9c0,0,0,0.1,0,0.1c0,0,0,0.1,0,0.1l0.4,1.1c0,0,0,0.1,0,0.1c0,0,0,0.1,0,0.1
		c0,0-0.1,0-0.1,0.1s-0.1,0-0.1,0l-1.1-0.3c0,0-0.1,0-0.1,0c0,0-0.1,0-0.1,0l-0.9,0.7c0,0-0.1,0-0.1,0c0,0-0.1,0-0.1,0
		c0,0-0.1,0-0.1-0.1c0,0,0-0.1,0-0.1l0-1.1c0,0,0-0.1,0-0.1c0,0,0,0-0.1-0.1l-1-0.6c0,0-0.1,0-0.1-0.1c0,0,0-0.1,0-0.1
		c0,0,0-0.1,0-0.1c0,0,0,0,0.1-0.1l1.1-0.4c0,0,0.1,0,0.1,0c0,0,0,0,0-0.1l0.3-1.1c0,0,0-0.1,0.1-0.1c0,0,0.1,0,0.1,0
		C405.4,37.9,405.5,37.9,405.6,38C405.5,38,405.5,38,405.6,38L405.6,38z"/>
	<path class="st3" d="M401.7,32.2l0.7,0.9c0,0,0,0,0.1,0.1c0,0,0.1,0,0.1,0l1.1-0.1c0,0,0.1,0,0.1,0c0,0,0.1,0,0.1,0.1
		c0,0,0,0.1,0,0.1c0,0,0,0.1,0,0.1l-0.6,0.9c0,0,0,0.1,0,0.1c0,0,0,0.1,0,0.1l0.4,1.1c0,0,0,0.1,0,0.1c0,0,0,0.1,0,0.1
		c0,0-0.1,0-0.1,0.1s-0.1,0-0.1,0l-1.1-0.3c0,0-0.1,0-0.1,0s-0.1,0-0.1,0l-0.9,0.7c0,0-0.1,0-0.1,0c0,0-0.1,0-0.1,0
		c0,0-0.1,0-0.1-0.1c0,0,0-0.1,0-0.1l0-1.1c0,0,0-0.1,0-0.1c0,0,0,0-0.1-0.1l-1-0.6c0,0,0,0-0.1-0.1c0,0,0-0.1,0-0.1
		c0,0,0-0.1,0-0.1c0,0,0,0,0.1-0.1l1.1-0.4c0,0,0.1,0,0.1,0c0,0,0,0,0-0.1l0.3-1.1c0,0,0-0.1,0.1-0.1c0,0,0.1,0,0.1,0
		C401.6,32.2,401.6,32.2,401.7,32.2C401.7,32.2,401.7,32.2,401.7,32.2L401.7,32.2z"/>
	<path class="st3" d="M393.4,31.2l0.7,0.9c0,0,0,0,0.1,0.1c0,0,0.1,0,0.1,0l1.1-0.1c0,0,0.1,0,0.1,0c0,0,0.1,0,0.1,0.1
		c0,0,0,0.1,0,0.1c0,0,0,0.1,0,0.1l-0.6,0.9c0,0,0,0.1,0,0.1c0,0,0,0.1,0,0.1l0.4,1.1c0,0,0,0.1,0,0.1c0,0,0,0.1,0,0.1
		c0,0-0.1,0-0.1,0.1c0,0-0.1,0-0.1,0l-1.1-0.3c0,0-0.1,0-0.1,0c0,0-0.1,0-0.1,0l-0.9,0.7c0,0-0.1,0-0.1,0c0,0-0.1,0-0.1,0
		c0,0-0.1,0-0.1-0.1c0,0,0-0.1,0-0.1l0-1.1c0,0,0-0.1,0-0.1c0,0,0,0-0.1-0.1l-1-0.6c0,0-0.1,0-0.1-0.1c0,0,0-0.1,0-0.1
		c0,0,0-0.1,0-0.1c0,0,0,0,0.1-0.1l1.1-0.4c0,0,0.1,0,0.1,0c0,0,0,0,0-0.1l0.3-1.1c0,0,0-0.1,0-0.1c0,0,0.1,0,0.1,0
		C393.3,31.1,393.3,31.1,393.4,31.2C393.4,31.1,393.4,31.1,393.4,31.2L393.4,31.2z"/>
	<path class="st3" d="M389.1,37.3l0.7,0.9c0,0,0,0,0.1,0.1c0,0,0.1,0,0.1,0l1.1-0.1c0,0,0.1,0,0.1,0c0,0,0.1,0,0.1,0.1
		c0,0,0,0.1,0,0.1c0,0,0,0.1,0,0.1l-0.6,0.9c0,0,0,0.1,0,0.1c0,0,0,0.1,0,0.1l0.4,1.1c0,0,0,0.1,0,0.1c0,0,0,0.1,0,0.1
		c0,0-0.1,0-0.1,0.1c0,0-0.1,0-0.1,0l-1.1-0.3c0,0-0.1,0-0.1,0c0,0-0.1,0-0.1,0l-0.9,0.7c0,0-0.1,0-0.1,0s-0.1,0-0.1,0
		c0,0-0.1,0-0.1-0.1c0,0,0-0.1,0-0.1l0-1.1c0,0,0-0.1,0-0.1c0,0,0,0-0.1-0.1l-1-0.6c0,0-0.1,0-0.1-0.1c0,0,0-0.1,0-0.1
		c0,0,0-0.1,0-0.1c0,0,0,0,0.1-0.1l1.1-0.4c0,0,0.1,0,0.1,0c0,0,0,0,0-0.1l0.3-1.1c0,0,0-0.1,0.1-0.1c0,0,0.1,0,0.1,0
		C388.9,37.2,388.9,37.2,389.1,37.3C389,37.2,389,37.3,389.1,37.3L389.1,37.3z"/>
	<path class="st3" d="M393.6,45l0.7,0.9c0,0,0,0,0.1,0.1s0.1,0,0.1,0l1.1-0.1c0,0,0.1,0,0.1,0c0,0,0.1,0,0.1,0.1c0,0,0,0.1,0,0.1
		c0,0,0,0.1,0,0.1l-0.6,0.9c0,0,0,0.1,0,0.1c0,0,0,0.1,0,0.1l0.4,1.1c0,0,0,0.1,0,0.1c0,0,0,0.1,0,0.1c0,0-0.1,0-0.1,0.1
		c0,0-0.1,0-0.1,0l-1.1-0.3c0,0-0.1,0-0.1,0c0,0-0.1,0-0.1,0l-0.9,0.7c0,0-0.1,0-0.1,0c0,0-0.1,0-0.1,0c0,0-0.1,0-0.1-0.1
		c0,0,0-0.1,0-0.1l0-1.1c0,0,0-0.1,0-0.1c0,0,0,0-0.1-0.1l-1-0.6c0,0-0.1,0-0.1-0.1c0,0,0-0.1,0-0.1s0-0.1,0-0.1c0,0,0.1,0,0.1-0.1
		l1.1-0.4c0,0,0.1,0,0.1,0c0,0,0,0,0-0.1l0.3-1.1c0,0,0-0.1,0.1-0.1c0,0,0.1,0,0.1,0C393.5,44.9,393.5,44.9,393.6,45
		C393.6,44.9,393.6,44.9,393.6,45L393.6,45z"/>
	<path class="st3" d="M386.5,47.9l0.7,0.9c0,0,0,0,0.1,0.1s0.1,0,0.1,0l1.1-0.1c0,0,0.1,0,0.1,0c0,0,0.1,0,0.1,0.1c0,0,0,0.1,0,0.1
		c0,0,0,0.1,0,0.1l-0.6,0.9c0,0,0,0.1,0,0.1c0,0,0,0.1,0,0.1l0.4,1.1c0,0,0,0.1,0,0.1c0,0,0,0.1,0,0.1c0,0-0.1,0-0.1,0.1
		s-0.1,0-0.1,0l-1.1-0.3c0,0-0.1,0-0.1,0c0,0-0.1,0-0.1,0L386,52c0,0-0.1,0-0.1,0c0,0-0.1,0-0.1,0c0,0-0.1,0-0.1-0.1
		c0,0,0-0.1,0-0.1l0-1.1c0,0,0-0.1,0-0.1c0,0,0,0-0.1-0.1l-1-0.6c0,0-0.1,0-0.1-0.1c0,0,0-0.1,0-0.1c0,0,0-0.1,0-0.1
		c0,0,0,0,0.1-0.1l1.1-0.4c0,0,0.1,0,0.1,0c0,0,0,0,0-0.1l0.3-1.1c0,0,0-0.1,0.1-0.1c0,0,0.1,0,0.1,0
		C386.3,47.9,386.4,47.9,386.5,47.9C386.4,47.9,386.4,47.9,386.5,47.9z"/>
</g>
<g id="Fireworks_4" class="st12">
	<path class="st3" d="M439.3,27.5c0.1,0.5,0.3,0.9,0.4,1.3c0,0.2,0.1,0.2,0.3,0.3c0.4,0.1,0.8,0.2,1.2,0.3c0.1,0,0.1,0,0.2,0.1
		c-0.3,0.2-0.6,0.5-0.9,0.7c-0.3,0.2-0.4,0.4-0.3,0.7c0,0.4,0,0.7,0,1.2l-0.7-0.5c-0.2-0.1-0.4-0.3-0.6-0.4c-0.2,0-0.4,0.1-0.7,0.2
		l-0.8,0.3c0.1-0.2,0.1-0.4,0.1-0.5c0.1-0.3,0.2-0.5,0.3-0.8c0-0.1,0-0.2,0-0.2c-0.2-0.3-0.5-0.6-0.8-0.9c0,0-0.1-0.1-0.2-0.1
		l0.1-0.1c0.4,0,0.8,0,1.2,0c0.3,0,0.5-0.1,0.6-0.3C438.8,28.2,439,27.9,439.3,27.5z"/>
	<path class="st3" d="M446,52.8c0.6,0.3,1.3,0.6,1.9,1c2.5,1.3,4.8,2.9,7.1,4.6c0.1,0.1,0.2,0.1,0.2,0.2c0.1,0.1,0.1,0.2,0,0.3
		c-0.1,0-0.2,0.1-0.3,0.1c-0.1,0-0.1,0-0.2,0c-0.5,0.1-0.9-0.1-1.2-0.4c-1.5-1.3-3-2.6-4.6-3.8c-0.9-0.6-1.8-1.2-2.7-1.8L446,52.8
		L446,52.8z"/>
	<path class="st3" d="M447.5,46.9l0.5-0.4c2.5-1.7,5-3.2,7.6-4.7c0.6-0.4,1.2-0.8,1.8-1.1c0.1-0.1,0.3-0.1,0.4-0.2
		c0,0.1,0,0.3,0,0.4c0,0.2-0.1,0.4-0.2,0.6c0,0.1-0.1,0.2-0.2,0.2c-2.1,1.1-4.2,2.2-6.3,3.3c-1.1,0.6-2.2,1.2-3.3,1.8L447.5,46.9
		L447.5,46.9z"/>
	<path class="st3" d="M427.3,50.4c0.3-0.3,0.7-0.5,1-0.8c0,0,0.1,0,0.2,0c1.8,0,3.6,0,5.4,0.1c1.2,0.1,2.3,0.3,3.5,0.5
		c0.3,0,0.6,0.1,0.9,0.2C434.6,49.9,431,50.1,427.3,50.4L427.3,50.4z"/>
	<g class="st32">
		<path class="st33" d="M442,51.2c0.4,2,0.8,4,1.2,6.1c0,0.3,0.1,0.7,0.1,1c1.3,12.3,2.6,24.7,3.8,37c0.8,8.1,1.5,16.3,2.2,24.4
			c0.2,2.2,0.4,4.4,0.5,6.6c-2.4-25.4-5.1-50.2-7.9-74.9L442,51.2z"/>
		
			<linearGradient id="SVGID_15_" gradientUnits="userSpaceOnUse" x1="446.9131" y1="271.3831" x2="441.9051" y2="309.6776" gradientTransform="matrix(1 0 0 -1 0 366)">
			<stop  offset="0" style="stop-color:#FFFFFF;stop-opacity:0"/>
			<stop  offset="1" style="stop-color:#FFFFFF"/>
		</linearGradient>
		<path class="st39" d="M442,51.2c0.4,2,0.8,4,1.2,6.1c0,0.3,0.1,0.7,0.1,1c1.3,12.3,2.6,24.7,3.8,37c0.8,8.1,1.5,16.3,2.2,24.4
			c0.2,2.2,0.4,4.4,0.5,6.6c-2.4-25.4-5.1-50.2-7.9-74.9L442,51.2z"/>
	</g>
	<path class="st3" d="M447.1,48.9c0.4-0.1,0.8-0.2,1.3-0.3c2.2-0.6,4.4-1,6.7-1.4c0.4-0.1,0.7-0.2,1.1-0.3c0,0,0.1,0,0.1,0
		c0,0,0.1,0,0.1,0.1c0.1,0.1,0.2,0.2,0.3,0.3c0.2,0.3,0.1,0.5-0.3,0.6c-0.3,0-0.6,0-0.9,0.1c-2.6,0.3-5.3,0.6-7.9,1L447.1,48.9
		L447.1,48.9z"/>
	<path class="st3" d="M456.1,34.3c-0.1,0.4-0.2,0.7-0.3,1.1c-0.1,0.4-0.3,0.7-0.7,1c-1.4,1.3-2.8,2.6-4.2,3.8
		c-0.5,0.4-0.9,0.9-1.4,1.3C451.5,38.9,453.8,36.6,456.1,34.3z"/>
	<path class="st3" d="M438.2,51.8c0,0-0.1,0.1-0.2,0.1c-1.8,0.7-3.4,1.6-5,2.5c-0.9,0.5-1.8,1.1-2.7,1.6c-0.1,0.1-0.2,0.1-0.3,0
		c-0.2-0.1-0.5-0.2-0.7-0.2c-0.1,0-0.1-0.1-0.1-0.1c0,0,0.1-0.1,0.1-0.1c0.9-0.4,1.8-0.8,2.7-1.3c2-1,4-1.8,6.1-2.5
		C438.1,51.8,438.1,51.8,438.2,51.8L438.2,51.8z"/>
	<path class="st3" d="M440.7,40.5c-0.1-0.6-0.3-1.2-0.4-1.8c-0.5-2.2-1.1-4.5-1.6-6.7c0-0.1-0.1-0.3-0.1-0.4c0-0.1,0-0.2,0.2-0.1
		c0.4,0.2,0.8,0.5,0.9,1c0.4,2.6,0.7,5.2,1.1,7.9C440.8,40.5,440.8,40.5,440.7,40.5L440.7,40.5z"/>
	<path class="st3" d="M446.6,39.4c0.1-0.3,0.2-0.6,0.2-0.9c0.6-2.1,1.4-4.2,2.3-6.2c0.2-0.4,0.4-0.5,0.8-0.6c0.1,0,0.1,0,0.2,0
		c0,0.1,0,0.1,0,0.2c-0.7,1.5-1.4,2.9-2.1,4.4c-0.4,0.9-0.8,1.9-1.2,2.9L446.6,39.4L446.6,39.4z"/>
	<path class="st3" d="M442.9,43.8c0.1-0.8,0.1-1.6,0.2-2.3c0.1-1.7,0.2-3.4,0.3-5.1c0-0.2,0.1-0.2,0.3-0.3c0.3-0.1,0.6,0.1,0.6,0.4
		c-0.1,0.9-0.3,1.8-0.4,2.7c-0.2,1.3-0.5,2.6-0.7,3.9C443,43.3,442.9,43.6,442.9,43.8L442.9,43.8z"/>
	<path class="st3" d="M443.3,52.6c0.1,0.2,0.2,0.4,0.3,0.6c1,2,2,3.9,3,5.9c0.1,0.2,0.2,0.5,0.3,0.8c0,0.1,0,0.1,0,0.2
		c-0.1,0.2-0.2,0.4-0.4,0.7L443.3,52.6L443.3,52.6z"/>
	<path class="st3" d="M439.7,52.5c-0.3,0.6-0.7,1.1-1,1.7l-2.4,4c-0.1,0.1-0.1,0.3-0.2,0.4c-0.1,0.1-0.2,0.2-0.3,0
		c-0.1-0.1-0.2-0.4-0.3-0.6c0,0,0-0.1,0.1-0.1C436.8,56.1,438.2,54.3,439.7,52.5L439.7,52.5L439.7,52.5z"/>
	<path class="st3" d="M436.9,47.7c-0.6-0.2-1.1-0.4-1.7-0.6c-1.4-0.5-2.7-1-4.1-1.4c-0.2-0.1-0.4-0.1-0.6-0.1
		c-0.2,0-0.2-0.1-0.1-0.3c0.2-0.3,0.5-0.4,0.8-0.3c1.4,0.5,2.7,1.1,3.9,1.8c0.5,0.3,1,0.6,1.5,0.8C436.9,47.6,436.9,47.6,436.9,47.7
		L436.9,47.7z"/>
	<path class="st3" d="M434.6,42.5l-0.2-0.1l-5-3.1c-0.1-0.1-0.3-0.2-0.4-0.3c-0.1-0.1-0.1-0.1,0-0.2c0.2-0.3,0.4-0.3,0.7-0.2
		C431.3,39.7,432.9,41.1,434.6,42.5C434.5,42.5,434.6,42.5,434.6,42.5L434.6,42.5z"/>
	<path class="st3" d="M441.4,54.3c-0.1,2.2-0.1,4.5-0.2,6.7l-0.1,0l-0.3-0.8l-0.5,0.7C440.7,58.7,441,56.5,441.4,54.3L441.4,54.3z"
		/>
	<path class="st3" d="M433.5,35.2l0.5,0.4c0-0.3,0-0.6,0-0.9c0.3,0.2,2.7,5.4,2.9,6.2C435.8,39,434.6,37.2,433.5,35.2L433.5,35.2z"
		/>
	<path class="st3" d="M458.8,54.4c-2-0.9-4-1.5-6-2.2l0.7,0.1c0.2,0,0.5,0.1,0.7,0.1c1.1,0.2,2.1,0.5,3.2,0.7
		c0.4,0.1,0.7,0.3,0.9,0.6C458.4,53.9,458.6,54.2,458.8,54.4z"/>
	<path class="st3" d="M443.9,51l0.9,0c1-0.1,2.1,0.1,3.1,0.2c0.1,0,0.3,0.1,0.3,0.2c0.1,0.1,0.2,0.3,0.3,0.5c0,0.1,0,0.1,0,0.2
		c-0.1,0-0.1,0-0.2,0c-1-0.2-2-0.5-3-0.7c-0.4-0.1-0.9-0.2-1.3-0.2C444.1,51.1,444,51.1,443.9,51L443.9,51z"/>
	<path class="st3" d="M443,49.6c0.6-1.3,1.2-2.7,1.7-4c0.2-0.6,0.7-0.7,1.1-0.8l0.1,0L443,49.6L443,49.6z"/>
	<path class="st3" d="M441.1,49.2l-2.1-3.1l0,0l0.6,0.4c0-0.2,0-0.3,0-0.5l0.1,0C440.2,47,440.7,48.1,441.1,49.2L441.1,49.2z"/>
	<path class="st3" d="M433,30.9l0.4,1.1c0,0,0,0.1,0,0.1c0,0,0,0,0.1,0l1.1,0.3c0,0,0.1,0,0.1,0.1c0,0,0,0.1,0,0.1c0,0,0,0.1,0,0.1
		c0,0,0,0.1-0.1,0.1l-0.9,0.7c0,0,0,0-0.1,0.1c0,0,0,0.1,0,0.1l0.1,1.1c0,0,0,0.1,0,0.1c0,0,0,0.1-0.1,0.1c0,0-0.1,0-0.1,0
		c0,0-0.1,0-0.1,0l-0.9-0.6c0,0-0.1,0-0.1,0c0,0-0.1,0-0.1,0l-1.1,0.4c0,0-0.1,0-0.1,0c0,0-0.1,0-0.1,0c0,0,0-0.1,0-0.1
		c0,0,0-0.1,0-0.1l0.3-1.1c0,0,0-0.1,0-0.1c0,0,0-0.1,0-0.1l-0.7-0.9c0,0,0-0.1,0-0.1c0,0,0-0.1,0-0.1c0,0,0-0.1,0.1-0.1
		c0,0,0.1,0,0.1,0l1.1,0c0,0,0.1,0,0.1,0c0,0,0,0,0.1-0.1l0.6-1c0,0,0,0,0.1-0.1c0,0,0.1,0,0.1,0C432.9,30.7,432.9,30.8,433,30.9
		C432.9,30.8,433,30.8,433,30.9L433,30.9z"/>
	<path class="st3" d="M427.8,36l0.4,1.1c0,0,0,0.1,0,0.1c0,0,0,0,0.1,0l1.1,0.3c0,0,0.1,0,0.1,0c0,0,0,0.1,0,0.1c0,0,0,0.1,0,0.1
		c0,0,0,0.1-0.1,0.1l-0.9,0.7c0,0,0,0-0.1,0.1c0,0,0,0.1,0,0.1l0.1,1.1c0,0,0,0.1,0,0.1c0,0,0,0.1-0.1,0.1c0,0-0.1,0-0.1,0
		c0,0-0.1,0-0.1,0l-0.9-0.6c0,0-0.1,0-0.1,0c0,0-0.1,0-0.1,0l-1.1,0.4c0,0-0.1,0-0.1,0c0,0-0.1,0-0.1,0c0,0,0-0.1-0.1-0.1
		c0,0,0-0.1,0-0.1l0.3-1.1c0,0,0-0.1,0-0.1c0,0,0-0.1,0-0.1l-0.7-0.9c0,0,0-0.1,0-0.1c0,0,0-0.1,0-0.1c0,0,0-0.1,0.1-0.1
		c0,0,0.1,0,0.1,0l1.1,0c0,0,0.1,0,0.1,0s0,0,0.1-0.1l0.6-0.9c0,0,0-0.1,0.1-0.1c0,0,0.1,0,0.1,0S427.7,35.9,427.8,36
		C427.7,35.9,427.8,35.9,427.8,36L427.8,36z"/>
	<path class="st3" d="M426.3,47.7l0.4,1.1c0,0,0,0.1,0,0.1c0,0,0,0,0.1,0l1.1,0.3c0,0,0.1,0,0.1,0c0,0,0,0.1,0,0.1c0,0,0,0.1,0,0.1
		c0,0,0,0.1-0.1,0.1l-0.9,0.7c0,0,0,0-0.1,0.1c0,0,0,0.1,0,0.1l0.1,1.1c0,0,0,0.1,0,0.1c0,0,0,0.1-0.1,0.1c0,0-0.1,0-0.1,0
		c0,0-0.1,0-0.1,0l-0.9-0.6c0,0-0.1,0-0.1,0c0,0-0.1,0-0.1,0l-1.1,0.4c0,0-0.1,0-0.1,0c0,0-0.1,0-0.1,0c0,0,0-0.1-0.1-0.1
		c0,0,0-0.1,0-0.1l0.3-1.1c0,0,0-0.1,0-0.1c0,0,0-0.1,0-0.1L424,49c0,0,0-0.1,0-0.1c0,0,0-0.1,0-0.1c0,0,0-0.1,0.1-0.1
		c0,0,0.1,0,0.1,0l1.1,0c0,0,0.1,0,0.1,0c0,0,0,0,0.1-0.1l0.6-1c0,0,0,0,0.1-0.1c0,0,0.1,0,0.1,0C426.2,47.5,426.3,47.6,426.3,47.7
		C426.3,47.6,426.3,47.6,426.3,47.7z"/>
	<path class="st3" d="M428.5,54.9l0.4,1.1c0,0,0,0.1,0,0.1c0,0,0,0,0.1,0l1.1,0.3c0,0,0.1,0,0.1,0.1c0,0,0,0.1,0,0.1
		c0,0,0,0.1,0,0.1c0,0,0,0.1-0.1,0.1l-0.9,0.7c0,0,0,0-0.1,0.1c0,0,0,0.1,0,0.1l0.1,1.1c0,0,0,0.1,0,0.1c0,0,0,0.1-0.1,0.1
		c0,0-0.1,0-0.1,0c0,0-0.1,0-0.1,0l-0.9-0.6c0,0-0.1,0-0.1,0c0,0-0.1,0-0.1,0l-1.1,0.4c0,0-0.1,0-0.1,0c0,0-0.1,0-0.1,0
		c0,0,0-0.1-0.1-0.1c0,0,0-0.1,0-0.1l0.3-1.1c0,0,0-0.1,0-0.1c0,0,0-0.1,0-0.1l-0.7-0.9c0,0,0-0.1,0-0.1c0,0,0-0.1,0-0.1
		c0,0,0-0.1,0.1-0.1c0,0,0.1,0,0.1,0l1.1,0c0,0,0.1,0,0.1,0s0,0,0.1-0.1l0.6-1c0,0,0,0,0.1-0.1c0,0,0.1,0,0.1,0
		C428.4,54.7,428.4,54.8,428.5,54.9C428.5,54.8,428.5,54.8,428.5,54.9L428.5,54.9z"/>
	<path class="st3" d="M435,57.8l0.4,1.1c0,0,0,0.1,0,0.1s0,0,0.1,0l1.1,0.3c0,0,0.1,0,0.1,0.1c0,0,0,0.1,0,0.1c0,0,0,0.1,0,0.1
		c0,0,0,0.1-0.1,0.1l-0.9,0.7c0,0,0,0-0.1,0.1c0,0,0,0.1,0,0.1l0.1,1.1c0,0,0,0.1,0,0.1c0,0,0,0.1-0.1,0.1c0,0-0.1,0-0.1,0
		c0,0-0.1,0-0.1,0l-0.9-0.6c0,0-0.1,0-0.1,0c0,0-0.1,0-0.1,0l-1.1,0.4c0,0-0.1,0-0.1,0c0,0-0.1,0-0.1,0c0,0,0-0.1,0-0.1
		c0,0,0-0.1,0-0.1l0.3-1.1c0,0,0-0.1,0-0.1c0,0,0-0.1,0-0.1l-0.7-0.9c0,0,0-0.1,0-0.1c0,0,0-0.1,0-0.1c0,0,0-0.1,0.1-0.1
		c0,0,0.1,0,0.1,0l1.1,0c0,0,0.1,0,0.1,0c0,0,0,0,0.1-0.1l0.6-1c0,0,0,0,0.1-0.1c0,0,0.1,0,0.1,0C434.9,57.7,434.9,57.7,435,57.8
		C435,57.8,435,57.8,435,57.8L435,57.8z"/>
	<path class="st3" d="M440.9,61.2l0.4,1.1c0,0,0,0.1,0,0.1c0,0,0,0,0.1,0l1.1,0.3c0,0,0.1,0,0.1,0.1c0,0,0,0.1,0,0.1
		c0,0,0,0.1,0,0.1c0,0,0,0.1-0.1,0.1l-0.9,0.7c0,0,0,0-0.1,0.1c0,0,0,0.1,0,0.1l0.1,1.1c0,0,0,0.1,0,0.1c0,0,0,0.1-0.1,0.1
		c0,0-0.1,0-0.1,0c0,0-0.1,0-0.1,0l-0.9-0.6c0,0-0.1,0-0.1,0c0,0-0.1,0-0.1,0l-1.1,0.4c0,0-0.1,0-0.1,0c0,0-0.1,0-0.1,0
		c0,0,0-0.1-0.1-0.1c0,0,0-0.1,0-0.1l0.3-1.1c0,0,0-0.1,0-0.1c0,0,0-0.1,0-0.1l-0.7-0.9c0,0,0-0.1,0-0.1c0,0,0-0.1,0-0.1
		c0,0,0-0.1,0.1-0.1c0,0,0.1,0,0.1,0l1.1,0c0,0,0.1,0,0.1,0c0,0,0,0,0.1-0.1l0.6-1c0,0,0,0,0.1-0.1c0,0,0.1,0,0.1,0
		C440.8,61.1,440.9,61.1,440.9,61.2C440.9,61.2,440.9,61.2,440.9,61.2L440.9,61.2z"/>
	<path class="st3" d="M447.8,59.9l0.4,1.1c0,0,0,0.1,0,0.1c0,0,0,0,0.1,0l1.1,0.3c0,0,0.1,0,0.1,0c0,0,0,0.1,0,0.1c0,0,0,0.1,0,0.1
		c0,0,0,0.1-0.1,0.1l-0.9,0.7c0,0,0,0-0.1,0.1c0,0,0,0.1,0,0.1l0.1,1.1c0,0,0,0.1,0,0.1c0,0,0,0.1-0.1,0.1c0,0-0.1,0-0.1,0
		c0,0-0.1,0-0.1,0l-0.9-0.6c0,0-0.1,0-0.1,0c0,0-0.1,0-0.1,0l-1.1,0.4c0,0-0.1,0-0.1,0c0,0-0.1,0-0.1,0c0,0,0-0.1-0.1-0.1
		c0,0,0-0.1,0-0.1l0.3-1.1c0,0,0-0.1,0-0.1c0,0,0-0.1,0-0.1l-0.7-0.9c0,0,0-0.1,0-0.1c0,0,0-0.1,0-0.1c0,0,0-0.1,0.1-0.1
		c0,0,0.1,0,0.1,0l1.1,0c0,0,0.1,0,0.1,0c0,0,0,0,0.1-0.1l0.6-1c0,0,0,0,0.1-0.1s0.1,0,0.1,0C447.7,59.8,447.7,59.8,447.8,59.9
		C447.8,59.8,447.8,59.9,447.8,59.9L447.8,59.9z"/>
	<path class="st3" d="M456.3,58.2l0.4,1.1c0,0,0,0.1,0,0.1c0,0,0,0,0.1,0l1.1,0.3c0,0,0.1,0,0.1,0.1c0,0,0,0.1,0,0.1
		c0,0,0,0.1,0,0.1c0,0,0,0.1-0.1,0.1l-0.9,0.7c0,0,0,0-0.1,0.1c0,0,0,0.1,0,0.1L457,62c0,0,0,0.1,0,0.1c0,0,0,0.1-0.1,0.1
		c0,0-0.1,0-0.1,0c0,0-0.1,0-0.1,0l-0.9-0.6c0,0-0.1,0-0.1,0c0,0-0.1,0-0.1,0l-1.1,0.4c0,0-0.1,0-0.1,0c0,0-0.1,0-0.1,0
		c0,0,0-0.1-0.1-0.1c0,0,0-0.1,0-0.1l0.3-1.1c0,0,0-0.1,0-0.1c0,0,0-0.1,0-0.1l-0.7-0.9c0,0,0-0.1,0-0.1c0,0,0-0.1,0-0.1
		c0,0,0-0.1,0.1-0.1c0,0,0.1,0,0.1,0l1.1,0c0,0,0.1,0,0.1,0c0,0,0,0,0.1-0.1l0.6-1c0,0,0,0,0.1-0.1c0,0,0.1,0,0.1,0
		C456.2,58.1,456.2,58.1,456.3,58.2C456.3,58.2,456.3,58.2,456.3,58.2L456.3,58.2z"/>
	<path class="st3" d="M461,52.3l0.4,1.1c0,0,0,0.1,0,0.1c0,0,0,0,0.1,0l1.1,0.3c0,0,0.1,0,0.1,0c0,0,0,0.1,0,0.1c0,0,0,0.1,0,0.1
		c0,0,0,0.1-0.1,0.1l-0.9,0.7c0,0,0,0-0.1,0.1c0,0,0,0.1,0,0.1l0.1,1.1c0,0,0,0.1,0,0.1c0,0,0,0.1-0.1,0.1c0,0-0.1,0-0.1,0
		c0,0-0.1,0-0.1,0l-0.9-0.6c0,0-0.1,0-0.1,0c0,0-0.1,0-0.1,0l-1.1,0.4c0,0-0.1,0-0.1,0c0,0-0.1,0-0.1,0c0,0,0-0.1-0.1-0.1
		c0,0,0-0.1,0-0.1l0.3-1.1c0,0,0-0.1,0-0.1c0,0,0-0.1,0-0.1l-0.7-0.9c0,0,0-0.1,0-0.1c0,0,0-0.1,0-0.1c0,0,0-0.1,0.1-0.1
		c0,0,0.1,0,0.1,0l1.1,0c0,0,0.1,0,0.1,0c0,0,0,0,0.1-0.1l0.6-0.9c0,0,0-0.1,0.1-0.1c0,0,0.1,0,0.1,0
		C460.9,52.2,460.9,52.2,461,52.3C460.9,52.3,461,52.3,461,52.3z"/>
	<path class="st3" d="M450.6,49.4l0.4,1.1c0,0,0,0.1,0,0.1c0,0,0,0,0.1,0l1.1,0.3c0,0,0.1,0,0.1,0c0,0,0,0.1,0,0.1c0,0,0,0.1,0,0.1
		c0,0,0,0.1-0.1,0.1l-0.9,0.7c0,0,0,0-0.1,0.1c0,0,0,0.1,0,0.1l0.1,1.1c0,0,0,0.1,0,0.1c0,0,0,0.1-0.1,0.1c0,0-0.1,0-0.1,0
		c0,0-0.1,0-0.1,0l-0.9-0.6c0,0-0.1,0-0.1,0c0,0-0.1,0-0.1,0l-1.1,0.4c0,0-0.1,0-0.1,0c0,0-0.1,0-0.1,0c0,0,0-0.1-0.1-0.1
		c0,0,0-0.1,0-0.1l0.3-1.1c0,0,0-0.1,0-0.1c0,0,0-0.1,0-0.1l-0.7-0.9c0,0,0-0.1,0-0.1c0,0,0-0.1,0-0.1c0,0,0-0.1,0.1-0.1
		c0,0,0.1,0,0.1,0l1.1,0c0,0,0.1,0,0.1,0s0,0,0.1-0.1l0.6-1c0,0,0,0,0.1-0.1c0,0,0.1,0,0.1,0C450.5,49.3,450.6,49.3,450.6,49.4
		C450.6,49.4,450.6,49.4,450.6,49.4L450.6,49.4z"/>
	<path class="st3" d="M458.5,45l0.4,1.1c0,0,0,0.1,0,0.1c0,0,0,0,0.1,0l1.1,0.3c0,0,0.1,0,0.1,0c0,0,0,0.1,0,0.1c0,0,0,0.1,0,0.1
		c0,0,0,0.1-0.1,0.1l-0.9,0.7c0,0,0,0-0.1,0.1c0,0,0,0.1,0,0.1l0.1,1.1c0,0,0,0.1,0,0.1c0,0,0,0.1-0.1,0.1c0,0-0.1,0-0.1,0
		c0,0-0.1,0-0.1,0l-0.9-0.6c0,0-0.1,0-0.1,0c0,0-0.1,0-0.1,0l-1.1,0.4c0,0-0.1,0-0.1,0c0,0-0.1,0-0.1,0c0,0,0-0.1-0.1-0.1
		c0,0,0-0.1,0-0.1l0.3-1.1c0,0,0-0.1,0-0.1c0,0,0-0.1,0-0.1l-0.7-0.9c0,0,0-0.1,0-0.1c0,0,0-0.1,0-0.1c0,0,0-0.1,0.1-0.1
		c0,0,0.1,0,0.1,0l1.1,0c0,0,0.1,0,0.1,0c0,0,0,0,0.1-0.1l0.6-1c0,0,0,0,0.1-0.1c0,0,0.1,0,0.1,0C458.4,44.9,458.5,44.9,458.5,45
		C458.5,45,458.5,45,458.5,45L458.5,45z"/>
	<path class="st3" d="M459.9,38.3l0.4,1.1c0,0,0,0.1,0,0.1c0,0,0,0,0.1,0l1.1,0.3c0,0,0.1,0,0.1,0.1c0,0,0,0.1,0,0.1
		c0,0,0,0.1,0,0.1c0,0,0,0.1-0.1,0.1l-0.9,0.7c0,0,0,0-0.1,0.1c0,0,0,0.1,0,0.1l0.1,1.1c0,0,0,0.1,0,0.1c0,0,0,0.1-0.1,0.1
		c0,0-0.1,0-0.1,0c0,0-0.1,0-0.1,0l-0.9-0.6c0,0-0.1,0-0.1,0c0,0-0.1,0-0.1,0l-1.1,0.4c0,0-0.1,0-0.1,0c0,0-0.1,0-0.1,0
		c0,0,0-0.1-0.1-0.1s0-0.1,0-0.1l0.3-1.1c0,0,0-0.1,0-0.1c0,0,0-0.1,0-0.1l-0.7-0.9c0,0,0-0.1,0-0.1c0,0,0-0.1,0-0.1
		c0,0,0-0.1,0.1-0.1c0,0,0.1,0,0.1,0l1.1,0c0,0,0.1,0,0.1,0s0,0,0.1-0.1l0.6-1c0,0,0,0,0.1-0.1c0,0,0.1,0,0.1,0
		C459.8,38.2,459.8,38.2,459.9,38.3C459.8,38.3,459.9,38.3,459.9,38.3L459.9,38.3z"/>
	<path class="st3" d="M458.1,31.7l0.4,1.1c0,0,0,0.1,0,0.1c0,0,0,0,0.1,0l1.1,0.3c0,0,0.1,0,0.1,0.1c0,0,0,0.1,0,0.1
		c0,0,0,0.1,0,0.1c0,0,0,0.1-0.1,0.1l-0.9,0.7c0,0,0,0-0.1,0.1c0,0,0,0.1,0,0.1l0.1,1.1c0,0,0,0.1,0,0.1c0,0,0,0.1-0.1,0.1
		c0,0-0.1,0-0.1,0c0,0-0.1,0-0.1,0l-0.9-0.6c0,0-0.1,0-0.1,0c0,0-0.1,0-0.1,0l-1.1,0.4c0,0-0.1,0-0.1,0c0,0-0.1,0-0.1,0
		c0,0,0-0.1-0.1-0.1s0-0.1,0-0.1l0.3-1.1c0,0,0-0.1,0-0.1c0,0,0-0.1,0-0.1l-0.7-0.9c0,0,0-0.1,0-0.1c0,0,0-0.1,0-0.1
		c0,0,0-0.1,0.1-0.1c0,0,0.1,0,0.1,0l1.1,0c0,0,0.1,0,0.1,0c0,0,0,0,0.1-0.1l0.6-1c0,0,0,0,0.1-0.1c0,0,0.1,0,0.1,0
		C458,31.5,458,31.6,458.1,31.7C458,31.6,458.1,31.6,458.1,31.7L458.1,31.7z"/>
	<path class="st3" d="M450.6,28l0.4,1.1c0,0,0,0.1,0,0.1c0,0,0,0,0.1,0l1.1,0.3c0,0,0.1,0,0.1,0.1c0,0,0,0.1,0,0.1c0,0,0,0.1,0,0.1
		c0,0,0,0.1-0.1,0.1l-0.9,0.7c0,0,0,0-0.1,0.1c0,0,0,0.1,0,0.1l0.1,1.1c0,0,0,0.1,0,0.1c0,0,0,0.1-0.1,0.1c0,0-0.1,0-0.1,0
		c0,0-0.1,0-0.1,0l-0.9-0.6c0,0-0.1,0-0.1,0c0,0-0.1,0-0.1,0l-1.1,0.4c0,0-0.1,0-0.1,0s-0.1,0-0.1,0c0,0,0-0.1-0.1-0.1s0-0.1,0-0.1
		l0.3-1.1c0,0,0-0.1,0-0.1c0,0,0-0.1,0-0.1l-0.7-0.9c0,0,0-0.1,0-0.1c0,0,0-0.1,0-0.1c0,0,0-0.1,0.1-0.1c0,0,0.1,0,0.1,0l1.1,0
		c0,0,0.1,0,0.1,0c0,0,0,0,0.1-0.1l0.6-1c0,0,0,0,0.1-0.1c0,0,0.1,0,0.1,0C450.5,27.9,450.5,27.9,450.6,28
		C450.5,27.9,450.6,28,450.6,28L450.6,28z"/>
	<path class="st3" d="M444.5,32.4l0.4,1.1c0,0,0,0.1,0,0.1c0,0,0,0,0.1,0l1.1,0.3c0,0,0.1,0,0.1,0c0,0,0,0.1,0,0.1c0,0,0,0.1,0,0.1
		c0,0,0,0.1-0.1,0.1l-0.9,0.7c0,0,0,0-0.1,0.1c0,0,0,0.1,0,0.1l0.1,1.1c0,0,0,0.1,0,0.1c0,0,0,0.1-0.1,0.1c0,0-0.1,0-0.1,0
		c0,0-0.1,0-0.1,0l-0.9-0.6c0,0-0.1,0-0.1,0c0,0-0.1,0-0.1,0l-1.1,0.4c0,0-0.1,0-0.1,0c0,0-0.1,0-0.1,0c0,0,0-0.1-0.1-0.1
		c0,0,0-0.1,0-0.1l0.3-1.1c0,0,0-0.1,0-0.1c0,0,0-0.1,0-0.1l-0.7-0.9c0,0,0-0.1,0-0.1c0,0,0-0.1,0-0.1s0-0.1,0.1-0.1
		c0,0,0.1,0,0.1,0l1.1,0c0,0,0.1,0,0.1,0c0,0,0,0,0.1-0.1l0.6-1c0,0,0,0,0.1-0.1c0,0,0.1,0,0.1,0C444.4,32.3,444.4,32.3,444.5,32.4
		C444.4,32.3,444.5,32.4,444.5,32.4L444.5,32.4z"/>
	<path class="st3" d="M446.4,41.1l0.4,1.1c0,0,0,0.1,0,0.1c0,0,0,0,0.1,0l1.1,0.3c0,0,0.1,0,0.1,0.1c0,0,0,0.1,0,0.1
		c0,0,0,0.1,0,0.1c0,0,0,0.1-0.1,0.1l-0.9,0.7c0,0,0,0-0.1,0.1c0,0,0,0.1,0,0.1l0.1,1.1c0,0,0,0.1,0,0.1c0,0,0,0.1-0.1,0.1
		c0,0-0.1,0-0.1,0c0,0-0.1,0-0.1,0l-0.9-0.6c0,0-0.1,0-0.1,0c0,0-0.1,0-0.1,0l-1.1,0.4c0,0-0.1,0-0.1,0c0,0-0.1,0-0.1,0
		c0,0,0-0.1,0-0.1c0,0,0-0.1,0-0.1l0.3-1.1c0,0,0-0.1,0-0.1c0,0,0-0.1,0-0.1l-0.7-0.9c0,0,0-0.1,0-0.1c0,0,0-0.1,0-0.1
		c0,0,0-0.1,0.1-0.1c0,0,0.1,0,0.1,0l1.1,0c0,0,0.1,0,0.1,0s0,0,0.1-0.1l0.6-1c0,0,0,0,0.1-0.1c0,0,0.1,0,0.1,0
		C446.3,41,446.3,41,446.4,41.1C446.3,41.1,446.4,41.1,446.4,41.1L446.4,41.1z"/>
	<path class="st3" d="M438.6,41.7l0.4,1.1c0,0,0,0.1,0,0.1s0,0,0.1,0l1.1,0.3c0,0,0.1,0,0.1,0.1c0,0,0,0.1,0,0.1c0,0,0,0.1,0,0.1
		c0,0,0,0.1-0.1,0.1l-0.9,0.7c0,0,0,0-0.1,0.1c0,0,0,0.1,0,0.1l0.1,1.1c0,0,0,0.1,0,0.1c0,0,0,0.1-0.1,0.1c0,0-0.1,0-0.1,0
		c0,0-0.1,0-0.1,0l-0.9-0.6c0,0,0,0-0.1,0c0,0-0.1,0-0.1,0l-1.1,0.4c0,0-0.1,0-0.1,0c0,0-0.1,0-0.1,0c0,0,0-0.1-0.1-0.1s0-0.1,0-0.1
		L437,44c0,0,0-0.1,0-0.1s0-0.1,0-0.1l-0.7-0.9c0,0,0-0.1,0-0.1c0,0,0-0.1,0-0.1c0,0,0-0.1,0.1-0.1c0,0,0.1,0,0.1,0l1.1,0
		c0,0,0.1,0,0.1,0c0,0,0,0,0.1-0.1l0.6-1c0,0,0,0,0.1-0.1c0,0,0.1,0,0.1,0C438.5,41.6,438.5,41.6,438.6,41.7
		C438.6,41.6,438.6,41.6,438.6,41.7z"/>
</g>
</svg>
