<svg width="1680" height="1080" data-name="Layer 1" viewBox="0 0 1676.89 1082" xmlns="http://www.w3.org/2000/svg" xmlns:xlink="http://www.w3.org/1999/xlink"><defs><radialGradient id="ab" cx="-2020" cy="2260" r="1" gradientTransform="matrix(-67 0 0 67 -134000 -150000)" gradientUnits="userSpaceOnUse"><stop stop-color="#ec991c" offset="0"/><stop stop-color="#e9b213" offset="1"/></radialGradient><radialGradient id="z" cx="900" cy="459" r="69.3" gradientTransform="matrix(-1.15 -3.11 1.03 -.381 1470 3460)" gradientUnits="userSpaceOnUse" xlink:href="#ab"/><radialGradient id="y" cx="871" cy="444" r="69.3" gradientTransform="matrix(.397 -1.82 1.77 .384 -258 1890)" gradientUnits="userSpaceOnUse"><stop stop-color="#cc3047" offset="0"/><stop stop-color="#d94432" offset="1"/></radialGradient><radialGradient id="x" cx="871" cy="444" r="69.3" gradientTransform="matrix(.397 -1.82 1.77 .384 -258 1890)" gradientUnits="userSpaceOnUse"><stop stop-color="#41a38e" offset="0"/><stop stop-color="#21bca5" offset="1"/></radialGradient><radialGradient id="w" cx="871" cy="444" r="69.3" gradientTransform="matrix(.397 -1.82 1.77 .384 -258 1890)" gradientUnits="userSpaceOnUse"><stop stop-color="#265dd7" offset="0"/><stop stop-color="#0582ca" offset="1"/></radialGradient><radialGradient id="v" cx="871" cy="444" r="69.3" gradientTransform="matrix(.397 -1.82 1.77 .384 -258 1890)" gradientUnits="userSpaceOnUse"><stop stop-color="#4d4c96" offset="0"/><stop stop-color="#5f4b8b" offset="1"/></radialGradient><radialGradient id="u" cx="871" cy="444" r="69.3" gradientTransform="matrix(.397 -1.82 1.77 .384 -258 1890)" gradientUnits="userSpaceOnUse"><stop stop-color="#e0516b" offset="0"/><stop stop-color="#fa7268" offset="1"/></radialGradient><radialGradient id="t" cx="871" cy="444" r="69.3" gradientTransform="matrix(.397 -1.82 1.77 .384 -258 1890)" gradientUnits="userSpaceOnUse"><stop stop-color="#70b069" offset="0"/><stop stop-color="#88b04b" offset="1"/></radialGradient><radialGradient id="s" cx="871" cy="444" r="69.3" gradientTransform="matrix(.957 -3.12 2.95 .907 -1270 2780)" gradientUnits="userSpaceOnUse"><stop stop-color="#70b069" offset="0"/><stop stop-color="#0582ca" offset="1"/></radialGradient><radialGradient id="r" cx="871" cy="444" r="69.3" gradientTransform="matrix(1.4 -2.16 3.03 1.97 -1690 1480)" gradientUnits="userSpaceOnUse"><stop stop-color="#5f4b8b" offset="0"/><stop stop-color="#fa7268" offset="1"/></radialGradient><radialGradient id="q" cx="871" cy="444" r="69.3" gradientTransform="matrix(.759 -4.22 2.28 .411 -803 3960)" gradientUnits="userSpaceOnUse"><stop stop-color="#e9b213" offset="0"/><stop stop-color="#d94432" offset="1"/></radialGradient><radialGradient id="p" cx="871" cy="444" r="69.3" gradientTransform="matrix(1.33 -3.19 2.42 1.01 -1360 2800)" gradientUnits="userSpaceOnUse"><stop stop-color="#0582ca" offset="0"/><stop stop-color="#d94432" offset="1"/></radialGradient><radialGradient id="o" cx="871" cy="444" r="69.3" gradientTransform="matrix(1.15 -3.39 2.48 .841 -1230 3050)" gradientUnits="userSpaceOnUse"><stop stop-color="#88b04b" offset="0"/><stop stop-color="#e9b213" offset="1"/></radialGradient><symbol id="m"><path d="M825 453c-24 1-68.4-20.8-69.3-77.6-.38-24.9 19.9-104 69.3-104m0 182c24 1 68.4-20.8 69.3-77.6.38-24.9-19.9-104-69.3-104" fill="url(#z)"/><path d="M825 453c-24 1-68.4-20.8-69.3-77.6-.38-24.9 19.9-104 69.3-104" fill="#fff" opacity=".3"/></symbol><symbol id="k"><path d="M825 453c-24 1-68.4-20.8-69.3-77.6-.38-24.9 19.9-104 69.3-104m0 182c24 1 68.4-20.8 69.3-77.6.38-24.9-19.9-104-69.3-104" fill="url(#x)"/><path d="M825 453c-24 1-68.4-20.8-69.3-77.6-.38-24.9 19.9-104 69.3-104" fill="#fff" opacity=".3"/></symbol><symbol id="a"><path d="M825 453c-24 1-68.4-20.8-69.3-77.6-.38-24.9 19.9-104 69.3-104m0 182c24 1 68.4-20.8 69.3-77.6.38-24.9-19.9-104-69.3-104" fill="url(#o)"/><path d="M825 453c-24 1-68.4-20.8-69.3-77.6-.38-24.9 19.9-104 69.3-104" fill="#fff" opacity=".3"/></symbol><symbol id="g"><path d="M825 453c-24 1-68.4-20.8-69.3-77.6-.38-24.9 19.9-104 69.3-104m0 182c24 1 68.4-20.8 69.3-77.6.38-24.9-19.9-104-69.3-104" fill="url(#t)"/><path d="M825 453c-24 1-68.4-20.8-69.3-77.6-.38-24.9 19.9-104 69.3-104" fill="#fff" opacity=".3"/></symbol><symbol id="i"><path d="M825 453c-24 1-68.4-20.8-69.3-77.6-.38-24.9 19.9-104 69.3-104m0 182c24 1 68.4-20.8 69.3-77.6.38-24.9-19.9-104-69.3-104" fill="url(#v)"/><path d="M825 453c-24 1-68.4-20.8-69.3-77.6-.38-24.9 19.9-104 69.3-104" fill="#fff" opacity=".3"/></symbol><symbol id="n"><path d="M825 453c-24 1-68.4-20.8-69.3-77.6-.38-24.9 19.9-104 69.3-104m0 182c24 1 68.4-20.8 69.3-77.6.38-24.9-19.9-104-69.3-104" fill="url(#y)"/><path d="M825 453c-24 1-68.4-20.8-69.3-77.6-.38-24.9 19.9-104 69.3-104" fill="#fff" opacity=".3"/></symbol><symbol id="b"><path d="M825 453c-24 1-68.4-20.8-69.3-77.6-.38-24.9 19.9-104 69.3-104m0 182c24 1 68.4-20.8 69.3-77.6.38-24.9-19.9-104-69.3-104" fill="url(#p)"/><path d="M825 453c-24 1-68.4-20.8-69.3-77.6-.38-24.9 19.9-104 69.3-104" fill="#fff" opacity=".3"/></symbol><symbol id="j"><path d="M825 453c-24 1-68.4-20.8-69.3-77.6-.38-24.9 19.9-104 69.3-104m0 182c24 1 68.4-20.8 69.3-77.6.38-24.9-19.9-104-69.3-104" fill="url(#w)"/><path d="M825 453c-24 1-68.4-20.8-69.3-77.6-.38-24.9 19.9-104 69.3-104" fill="#fff" opacity=".3"/></symbol><symbol id="h"><path d="M825 453c-24 1-68.4-20.8-69.3-77.6-.38-24.9 19.9-104 69.3-104m0 182c24 1 68.4-20.8 69.3-77.6.38-24.9-19.9-104-69.3-104" fill="url(#u)"/><path d="M825 453c-24 1-68.4-20.8-69.3-77.6-.38-24.9 19.9-104 69.3-104" fill="#fff" opacity=".3"/></symbol><symbol id="d"><path d="M825 453c-24 1-68.4-20.8-69.3-77.6-.38-24.9 19.9-104 69.3-104m0 182c24 1 68.4-20.8 69.3-77.6.38-24.9-19.9-104-69.3-104" fill="url(#q)"/><path d="M825 453c-24 1-68.4-20.8-69.3-77.6-.38-24.9 19.9-104 69.3-104" fill="#fff" opacity=".3"/></symbol><symbol id="f"><path d="M825 453c-24 1-68.4-20.8-69.3-77.6-.38-24.9 19.9-104 69.3-104m0 182c24 1 68.4-20.8 69.3-77.6.38-24.9-19.9-104-69.3-104" fill="url(#s)"/><path d="M825 453c-24 1-68.4-20.8-69.3-77.6-.38-24.9 19.9-104 69.3-104" fill="#fff" opacity=".3"/></symbol><symbol id="e"><path d="M825 453c-24 1-68.4-20.8-69.3-77.6-.38-24.9 19.9-104 69.3-104m0 182c24 1 68.4-20.8 69.3-77.6.38-24.9-19.9-104-69.3-104" fill="url(#r)"/><path d="M825 453c-24 1-68.4-20.8-69.3-77.6-.38-24.9 19.9-104 69.3-104" fill="#fff" opacity=".3"/></symbol><linearGradient id="aa" x1="840" x2="840" y1="1080" y2="-2.4" gradientTransform="matrix(1 0 0 -1 0 1080)" gradientUnits="userSpaceOnUse"><stop stop-color="#fff" offset="0"/><stop stop-color="#fff" stop-opacity=".3" offset=".9"/><stop stop-color="#fff" stop-opacity="0" offset="1"/></linearGradient><style></style></defs><path d="M-1.56 0h1680v1080h-1680z" fill="#f4f4f4"/><use transform="matrix(1.15 -.134 .134 1.15 -384 747)" width="100%" height="100%" xlink:href="#a"/><use transform="matrix(1.26 -.244 .244 1.26 439 710)" width="100%" height="100%" xlink:href="#m"/><use transform="matrix(1.39 0 0 1.39 -685 544)" width="100%" height="100%" xlink:href="#k"/><use transform="rotate(29.1 336 -982)" width="100%" height="100%" xlink:href="#g"/><use transform="matrix(.936 -.391 .391 .936 726 139)" width="100%" height="100%" xlink:href="#i"/><use transform="matrix(1.62 -.0823 .0823 1.62 -1080 434)" width="100%" height="100%" xlink:href="#j"/><use transform="matrix(1.21 -.27 .27 1.21 312 477)" width="100%" height="100%" opacity=".86" xlink:href="#n"/><use transform="matrix(1.27 -.353 .353 1.27 -996 392)" width="100%" height="100%" xlink:href="#b"/><use transform="matrix(1.33 .541 -.541 1.33 378 84.9)" width="100%" height="100%" xlink:href="#j"/><use transform="matrix(1.57 .406 -.406 1.57 -1030 79.3)" width="100%" height="100%" xlink:href="#h"/><use transform="matrix(.786 .334 -.334 .786 1040 -38.1)" width="100%" height="100%" xlink:href="#d"/><use transform="matrix(.972 .107 -.107 .972 79.8 432)" width="100%" height="100%" opacity=".5" xlink:href="#f"/><use transform="matrix(.863 .0236 -.0236 .863 189 -93.8)" width="100%" height="100%" xlink:href="#e"/><use transform="translate(449 -125)" width="100%" height="100%" xlink:href="#m"/><use transform="matrix(.752 -.26 .26 .752 655 132)" width="100%" height="100%" xlink:href="#k"/><use transform="matrix(.667 0 0 .667 -53.3 78.3)" width="100%" height="100%" xlink:href="#a"/><use transform="matrix(1.34 -.325 .325 1.34 208 767)" width="100%" height="100%" xlink:href="#g"/><use transform="matrix(.452 -.333 .333 .452 555 218)" width="100%" height="100%" xlink:href="#i"/><use transform="matrix(.697 .442 -.442 .697 940 -353)" width="100%" height="100%" xlink:href="#n"/><use transform="matrix(.518 .35 -.35 .518 304 -332)" width="100%" height="100%" xlink:href="#b"/><use transform="matrix(.272 -.17 .17 .272 84.5 217)" width="100%" height="100%" xlink:href="#h"/><use transform="matrix(.867 -.272 .272 .867 299 683)" width="100%" height="100%" xlink:href="#d"/><use transform="matrix(.655 -.233 .233 .655 -467 161)" width="100%" height="100%" xlink:href="#f"/><use transform="matrix(.915 .216 -.216 .915 -229 206)" width="100%" height="100%" xlink:href="#e"/><path d="M0 0h1680v1080H0z" fill="url(#aa)"/></svg>