<svg id="Layer_1" data-name="Layer 1" xmlns="http://www.w3.org/2000/svg" viewBox="0 0 688 347"><defs><linearGradient id="linear-gradient" x1="344" y1="347" x2="344" gradientUnits="userSpaceOnUse"><stop offset="0" stop-color="#00c1f0"/><stop offset=".1" stop-color="#24c8f1"/><stop offset=".3" stop-color="#5bd2f3"/><stop offset=".6" stop-color="#86daf4"/><stop offset=".7" stop-color="#a4e0f5"/><stop offset=".9" stop-color="#b7e4f6"/><stop offset="1" stop-color="#bee5f6"/></linearGradient><linearGradient id="linear-gradient-2" x1="389.7" y1="230.5" x2="418" y2="181.5" gradientTransform="matrix(1 0 0 -1 0 348.1)" gradientUnits="userSpaceOnUse"><stop offset="0" stop-color="#5600d4"/><stop offset=".1" stop-color="#5c11d7"/><stop offset=".3" stop-color="#6a3ee0"/><stop offset=".7" stop-color="#8187ef"/><stop offset="1" stop-color="#9cdbff"/></linearGradient><linearGradient id="linear-gradient-3" x1="344.3" y1="395.3" x2="344.3" y2="203.3" gradientUnits="userSpaceOnUse"><stop offset="0" stop-color="#00aa5b"/><stop offset="0" stop-color="#08ab55"/><stop offset=".1" stop-color="#26af3e"/><stop offset=".2" stop-color="#3fb22b"/><stop offset=".3" stop-color="#52b41d"/><stop offset=".5" stop-color="#5fb613"/><stop offset=".7" stop-color="#67b70d"/><stop offset="1" stop-color="#69b70b"/></linearGradient><linearGradient id="linear-gradient-4" x1="627.4" y1="18.3" x2="472.4" y2="97.8" gradientTransform="matrix(1 0 0 -1 0 348.1)" gradientUnits="userSpaceOnUse"><stop offset="0" stop-color="#fff" stop-opacity="0"/><stop offset=".5" stop-color="#fff" stop-opacity=".6"/><stop offset="1" stop-color="#fff" stop-opacity="0"/></linearGradient><radialGradient id="radial-gradient" cx="-1897.6" cy="489.6" r="1" gradientTransform="matrix(-154 0 0 94.45 -291605.4 -45918.4)" gradientUnits="userSpaceOnUse"><stop offset="0" stop-color="#ec991c"/><stop offset="1" stop-color="#e9b213"/></radialGradient><radialGradient id="radial-gradient-2" cx="344" cy="173.5" r="272.4" gradientTransform="matrix(-1 0 0 -.5 688 261)" gradientUnits="userSpaceOnUse"><stop offset="0" stop-color="#260133"/><stop offset="1" stop-color="#1f2348"/></radialGradient><style>.cls-17,.cls-19,.cls-2{fill:#fff}.cls-11,.cls-2,.cls-3,.cls-4,.cls-5,.cls-6{fill-rule:evenodd}.cls-3{fill:#edead7}.cls-4{fill:#de8a8a}.cls-5{fill:#fda9a9}.cls-6{fill:#facfff}.cls-7{fill:#cc4558}.cls-34{fill:none;stroke-miterlimit:10}.cls-9{fill:#000b1b}.cls-10{fill:#f9b3ff}.cls-11{fill:#f6a5ff}.cls-19{opacity:.8}.cls-20{fill:#6e6571}.cls-21{fill:#b2b2b2}.cls-22{fill:#d1dce3}.cls-23{fill:#fffdee}.cls-25{fill:#000202}.cls-26{fill:#da5c81}.cls-34{stroke:#fff;stroke-width:1.74px}</style></defs><rect width="688" height="347" rx="8.3" fill="url(#linear-gradient)"/><g id="Bunny_Face" data-name="Bunny Face"><path class="cls-2" d="M410.8 112.5a17.8 17.8 0 01-.1 2A19.2 19.2 0 11387 93.8h1a.8.8 0 00.2 0h.1a.5.5 0 01.2-.1 19 19 0 013-.2h1.8a19.3 19.3 0 0117.3 17.3v1.8z"/><path class="cls-3" d="M387.7 93.6h.4-.7zM410.8 112.5a17.8 17.8 0 01-.1 2 13.2 13.2 0 00-3.2-1.3c-.6-4.5-2.7-13-9.7-16.8-4.4-2.4-7.5-3.2-9.4-2.9a.5.5 0 01.2 0 19 19 0 013-.3h1.8a19.3 19.3 0 0117.3 17.4v1.9z"/><path class="cls-2" d="M376 78.8a129 129 0 016.8 14.2l-1.3.7c-1.3-3-9.3-20.8-14.9-21.8a3 3 0 00-2 .3 2.6 2.6 0 00-1.2 2.3 9.5 9.5 0 00.8 4 50 50 0 0014 18 6.1 6.1 0 00-.5.6l-.5.6-4.6-4.4a78.9 78.9 0 01-14.8-16.5 12 12 0 01-1.4-6.8 5.3 5.3 0 011.3-3 4.3 4.3 0 012.7-1.3 10.4 10.4 0 015.9 1.4 31 31 0 019.7 11.7z"/><path class="cls-3" d="M381.3 89.3a15.1 15.1 0 01-1.3.9l1.6 3.5 1.2-.7-1.5-3.7zm-8.9 1.6c-4.8-2.2-8.6-9.1-12.2-14.3A16.3 16.3 0 01357 68a6.2 6.2 0 00-.6 1.9 11.8 11.8 0 001.4 6.8A78.9 78.9 0 00372.6 93l4.7 4.5.4-.7a6.1 6.1 0 01.5-.5 74.2 74.2 0 01-5.7-5.6z"/><path class="cls-2" d="M398.5 84.1a.6.6 0 01.3.3l1.5 1.6a15.9 15.9 0 004.3 3 4.6 4.6 0 003.6.2 3.9 3.9 0 002-2.3c1-2.3.4-5.4-.7-8.4a28.5 28.5 0 00-6.4-9.9 7.5 7.5 0 00-2-1.2 8.2 8.2 0 00-4.9-.5 8.7 8.7 0 00-4.7 2.7 11.5 11.5 0 00-2 3.2 22.7 22.7 0 00-1.3 7 104.3 104.3 0 00.1 11.7 17.6 17.6 0 011.8 0 58.8 58.8 0 012.2-16 13.3 13.3 0 01-.6-3 .5.5 0 01.5-.5.5.5 0 01.6.5 22 22 0 005.7 11.7zm-4.3 8c.5 0 .9.2 1.3.4a231.3 231.3 0 012.2-7.8c-.5-.5-1-1-1.3-1.6a30 30 0 00-2.2 9z"/><path class="cls-3" d="M398.5 84.1a.6.6 0 01.3.3l1.5 1.6a15.9 15.9 0 004.3 3 4.6 4.6 0 003.6.2 3.9 3.9 0 002-2.3l.3-.7c-1.2 1.1-3.7 2.6-8.1-1.6-5.2-4.8-8.9-12.2-8.7-16.8a9.1 9.1 0 00-2.2 1.8 11.7 11.7 0 00-2 3.2 22.8 22.8 0 00-1.3 7 102 102 0 00.2 11.7 15 15 0 011.7 0 58.3 58.3 0 012.3-15.9 13.5 13.5 0 01-.6-3 .6.6 0 01.4-.6.5.5 0 01.6.5c.3 3.7 2.7 8.2 5.7 11.7zm-4.3 8c.5 0 .9.2 1.3.4a231.3 231.3 0 012.2-7.8c-.5-.5-1-1-1.3-1.6a30 30 0 00-2.2 9z"/><path class="cls-4" d="M392.7 76.4a26.5 26.5 0 003.3 6.2c-.5 1.4-2.2 5.9-2.3 9.3a16.3 16.3 0 00-3-.4 57.1 57.1 0 012-15z"/><path class="cls-5" d="M366.6 72.4c5.4 1 13.3 18.8 14.5 21.5a14.2 14.2 0 00-2.6 2.2 48.9 48.9 0 01-13.9-17.8 9.3 9.3 0 01-.7-3.8 2.2 2.2 0 011-1.9 2.7 2.7 0 011.7-.2z"/><path class="cls-4" d="M379.5 90.4l1.6 3.5a13.8 13.8 0 00-2.6 2.1 83.3 83.3 0 01-5-4.8 7.6 7.6 0 006-.8z"/><path class="cls-6" d="M380.2 114.6c1.6-.4 3-.2 3.3.6s-1 1.7-2.6 2-3.1.2-3.3-.5 1-1.7 2.6-2.1zM401.6 108.5c1.6-.4 3-.2 3.3.6s-1 1.7-2.6 2-3.1.2-3.3-.5 1-1.7 2.6-2.1z"/><path class="cls-7" d="M387.1 114.9s3 4.6 6.2 3.8 2.8-7.7 2.8-7.7l-1.4.8h-1.5l-2.1-.4-1 1.6-1.6 1.3z"/><path d="M387.1 114.9s3 4.6 6.2 3.8 2.8-7.7 2.8-7.7l-1.4.8h-1.5l-2.1-.4-1 1.6-1.6 1.3z" stroke-miterlimit="10" stroke="#000b1b" stroke-width=".2" fill="none"/><path class="cls-9" d="M385.9 115a5.9 5.9 0 003-1.2 6.7 6.7 0 002-2.5v-.2h.2a6.7 6.7 0 003.3.4 4.1 4.1 0 001.6-.5 4.4 4.4 0 001.3-1.1 4.9 4.9 0 01-1.2 1.3 4.3 4.3 0 01-1.6.7 6.5 6.5 0 01-3.5-.3h.3a6.6 6.6 0 01-2.2 2.5 5.6 5.6 0 01-3.2.9zM385.9 106.5v.4s-4.4-1.7-6.8 1.6a.7.7 0 01-.4-.7s1-3.3 7.2-1.3z"/><path class="cls-9" d="M379.7 106.6a3.4 3.4 0 01-1.4-.6 1.6 1.6 0 001 .9zM379 107.2a2.5 2.5 0 01-1.4-.5s.2.6 1.4.8v-.3M392.1 104.7l.2.4s2.8-3.9 6.6-2.4a.7.7 0 000-.7s-2.7-2.3-6.8 2.7z"/><path class="cls-9" d="M397.4 101.5a3.3 3.3 0 00.8-1.3 1.6 1.6 0 01-.4 1.3zM398.3 101.7a2.4 2.4 0 001-1.3s.1.7-.8 1.5l-.2-.2"/><path class="cls-10" d="M388.9 109.2a.4.4 0 010-.6 4.3 4.3 0 012.6-.7c.6.1-.5 1.8-.9 1.9a2 2 0 01-1.8-.6z"/><path class="cls-11" d="M405.9 109.3h.5a.2.2 0 01.1.2.2.2 0 01-.2.2h-.5a.2.2 0 01-.1-.3l.2-.1zM405.7 108.6l.5-.2a.2.2 0 01.2.1.2.2 0 010 .3l-.5.2a.2.2 0 01-.3-.1.2.2 0 01.1-.3zM405 108l.3-.3a.2.2 0 01.3 0 .2.2 0 010 .2l-.4.4a.2.2 0 01-.2 0 .2.2 0 010-.2zM375.7 116.4l-.6-.2a.2.2 0 01-.2-.3.2.2 0 01.4-.1l.5.2a.3.3 0 01.2.3.2.2 0 01-.3.1zM375.7 117.4l-.6.2a.2.2 0 01-.3-.2.2.2 0 01.2-.3l.6-.1a.2.2 0 01.3.2.2.2 0 01-.2.2zM376.3 118.2l-.5.4a.3.3 0 01-.3 0 .3.3 0 010-.3l.5-.4a.3.3 0 01.3 0 .3.3 0 010 .3z"/></g><path d="M432 156.8l1-24.7a6.5 6.5 0 00-3-5.7l-21-13.1a6.5 6.5 0 00-6.5-.2l-21.8 11.5a6.5 6.5 0 00-3.4 5.5l-1 24.6a6.5 6.5 0 003 5.7l21 13.1a6.5 6.5 0 006.4.3l21.8-11.6a6.5 6.5 0 003.5-5.4z" fill="url(#linear-gradient-2)"/><path id="Bunny_L" data-name="Bunny L" class="cls-2" d="M377.2 130.9c-.8.2-.9.7-1.3 1.1a3 3 0 00-.7 1.2 3.4 3.4 0 000 .6 3.8 3.8 0 000 .8 5.6 5.6 0 001 2.7 5.7 5.7 0 00.6.6c1.2 1.2 2.2 1.5 3 1.3a2 2 0 001.1-1.5 4.5 4.5 0 00-.2-2.7 3 3 0 00-3.1-2 2.5 2.5 0 01-.5 0z"/><path id="Bunny_R" data-name="Bunny R" class="cls-2" d="M411.9 120a4.4 4.4 0 001.6 2.2 2.2 2.2 0 002 .4 2.2 2.2 0 001.1-1.4 6.7 6.7 0 00.3-1.5 5.7 5.7 0 00-.8-3.6 3.7 3.7 0 00-1-1 2.7 2.7 0 00-1.3-.5 3.6 3.6 0 00-2.2.5 10 10 0 011.3.8.5.5 0 010 .7 3 3 0 00-1.1 3.4z"/><path d="M450.4 230.8l-1.1 1.3a58 58 0 01-7.9 7 60.3 60.3 0 01-44.7 11.7 10 10 0 01-1-.2 61.2 61.2 0 01-9.5-2.3 58.6 58.6 0 01-13.2-6 63.4 63.4 0 01-10.4-8.3 75.4 75.4 0 01-12.6-16.3 93.4 93.4 0 01-4.8-9.4 116.7 116.7 0 01-7.5-24.5 16.8 16.8 0 01-.2-5.5l3.2-25 27.8 19 2.6-13.5 17.1 7 1.6-26.4L414 163l3.2-14.3 7.8 4.2-.9-24.8 21.2 21.2 4.5-12.6 1 1.7c1 1.6 1.8 3.3 2.7 5q2.7 5.3 4.8 10.5c11.5 28.6 10 56.7-7.8 77z" fill="#efbc38"/><path d="M364.5 235.8l.9.7-1-.7a.1.1 0 00.1 0z" style="isolation:isolate" opacity=".7" fill="#efbc38"/><path id="Shade_1" data-name="Shade 1" d="M450.2 149.3l-2.7-6.4-2.3 6.4-21.2-21.2 8.2 33.1c2.8 20.3-2 39.2-15.5 53.8a60.6 60.6 0 01-53.7 18.6l-1-.2a39 39 0 002.6 2.4 60.3 60.3 0 0075.9-10.4c18.4-19.9 20.5-47.7 9.7-76.1z" fill="#edb53a"/><path id="Shade_2" data-name="Shade 2" d="M450.6 138.3l-.9-1.6-2.2 6.2 2.6 6.4c11 28.4 8.8 56.2-9.7 76a60.7 60.7 0 01-53.6 18.7 60 60 0 01-22.3-8.2 5.3 5.3 0 00.4.4c.2 0 .3.2.5.3a.7.7 0 00.2.2l1.4 1.2a60.6 60.6 0 006.1 4.4l2 1.2a40 40 0 004 2c1.3.7 2.6 1.2 3.9 1.7l1.2.5a13.3 13.3 0 001.5.5l1.6.5 1.5.4a43.6 43.6 0 006.9 1.5 60.7 60.7 0 0053.6-18.6c22.3-24 20.8-59.5 1.3-93.7z" fill="#e8ae3a"/><g id="Egg_Deco" data-name="Egg Deco"><path class="cls-17" d="M431.5 158.4l-2.5 4.7a1.5 1.5 0 000 1.5l2.8 4.5a1.5 1.5 0 001.3.7l5.4-.2a1.4 1.4 0 001.2-.8l2.5-4.7a1.5 1.5 0 000-1.5l-2.9-4.5a1.5 1.5 0 00-1.3-.7l-5.3.2a1.5 1.5 0 00-1.2.8zM458.2 154a1.5 1.5 0 01-1.4 0l-4.2-2.9a1.5 1.5 0 01-.7-1.3l.3-5a1.5 1.5 0 01.8-1.2l.4-.2q2.7 5.3 4.8 10.6zM447.8 176.9l-2.5 4.7a1.5 1.5 0 000 1.5l2.8 4.5a1.5 1.5 0 001.3.7l5.4-.3a1.5 1.5 0 001.2-.7l2.5-4.7a1.5 1.5 0 000-1.5l-2.9-4.5a1.5 1.5 0 00-1.3-.7l-5.3.2a1.4 1.4 0 00-1.2.8zM401.1 172.3l-1.1 5.1a1.5 1.5 0 00.4 1.5l4 3.6a1.5 1.5 0 001.4.3l5-1.6a1.5 1.5 0 001-1l1.2-5.3a1.4 1.4 0 00-.4-1.4l-3.9-3.6a1.5 1.5 0 00-1.4-.3l-5.1 1.6a1.5 1.5 0 00-1 1zM422.8 185.6l-1.2 5.2a1.5 1.5 0 00.5 1.4l3.9 3.7a1.5 1.5 0 001.4.3l5.1-1.6a1.5 1.5 0 001-1l1.2-5.3a1.5 1.5 0 00-.5-1.4l-3.9-3.6a1.5 1.5 0 00-1.4-.3l-5.1 1.6a1.5 1.5 0 00-1 1zM442.2 207l-1.2 5.2a1.4 1.4 0 00.5 1.4l3.9 3.6a1.5 1.5 0 001.4.4l5.1-1.6a1.5 1.5 0 001-1.1l1.2-5.2a1.5 1.5 0 00-.5-1.4l-3.9-3.6a1.5 1.5 0 00-1.4-.4l-5 1.6a1.5 1.5 0 00-1 1.1zM450.4 230.8l-1.1 1.3a56.7 56.7 0 01-7.9 7l-.1-.1a1.8 1.8 0 01-.6-1.7l1.1-4.9a1.8 1.8 0 011.2-1.3l4.8-1.4a1.8 1.8 0 011.7.3zM371.7 181l-1.2 5.2a1.4 1.4 0 00.5 1.4l3.9 3.6a1.5 1.5 0 001.4.3l5.1-1.5a1.5 1.5 0 001-1l1.2-5.3a1.5 1.5 0 00-.5-1.4l-3.9-3.6a1.5 1.5 0 00-1.4-.3l-5 1.6a1.5 1.5 0 00-1.1 1zM392 198.6l-1.2 5.2a1.5 1.5 0 00.5 1.4l3.9 3.6a1.5 1.5 0 001.4.4l5-1.6a1.5 1.5 0 001-1l1.3-5.3a1.5 1.5 0 00-.5-1.4l-3.9-3.6a1.5 1.5 0 00-1.5-.3l-5 1.6a1.4 1.4 0 00-1 1zM418.3 215.6l-1.1 5.2a1.5 1.5 0 00.4 1.4l4 3.6a1.5 1.5 0 001.3.3l5.1-1.5a1.5 1.5 0 001-1.1l1.2-5.2a1.5 1.5 0 00-.4-1.4l-4-3.6a1.5 1.5 0 00-1.4-.4l-5 1.6a1.4 1.4 0 00-1 1zM425.4 247.3l-.2.6a59.4 59.4 0 01-12.5 3 1.7 1.7 0 01-.3-1.5l1-4.8a1.8 1.8 0 011.3-1.3l4.8-1.5a1.7 1.7 0 011.7.4l3.6 3.4a1.8 1.8 0 01.6 1.7zM386.5 227l-1.2 5.3a1.5 1.5 0 00.4 1.4l4 3.6a1.5 1.5 0 001.4.3l5-1.6a1.5 1.5 0 001-1l1.2-5.3a1.5 1.5 0 00-.4-1.4l-4-3.6a1.5 1.5 0 00-1.3-.3l-5.1 1.6a1.4 1.4 0 00-1 1zM396.8 250.8l-1.1-.1a61.2 61.2 0 01-9.5-2.3l.2-.1 4.8-1.5a1.8 1.8 0 011.7.4l3.7 3.4a.6.6 0 01.1.2zM365.8 206.4l-1.2 5.2a1.5 1.5 0 00.4 1.4l4 3.6a1.5 1.5 0 001.4.3l5-1.5a1.5 1.5 0 001-1.1l1.2-5.2a1.5 1.5 0 00-.4-1.4l-4-3.6a1.5 1.5 0 00-1.4-.4l-5 1.6a1.4 1.4 0 00-1 1zM374 237.4l-1 4.8a62.8 62.8 0 01-10.4-8.2 1.6 1.6 0 01.7-.5l4.8-1.5a1.8 1.8 0 011.7.4l3.7 3.4a1.8 1.8 0 01.6 1.6zM348.3 186.7l-1.2 5.2a1.5 1.5 0 00.5 1.4l3.9 3.6a1.5 1.5 0 001.4.4l5.1-1.6a1.5 1.5 0 001-1.1l1.2-5.2a1.5 1.5 0 00-.5-1.4l-3.9-3.6a1.5 1.5 0 00-1.4-.3l-5 1.5a1.5 1.5 0 00-1 1.1zM350.9 213.8l-.9 4a94.4 94.4 0 01-4.8-9.5 1.7 1.7 0 011.5.4l3.7 3.4a1.8 1.8 0 01.5 1.7z"/></g><path id="Grass_2" data-name="Grass 2" d="M688 245.8c-17-.2-12.1 12.1-16.7-5.5-.7-1.8-1.6 19.8-7 25.9-2.5-19-1.6-10.8-6.6 2 .2-13.7 12.9-40.5-4.8-10-2.3 6-4.7-31.4-6.4-35.6-2.3 6.6-1.6 19.4-1.8 30-.6-5-10.9-26.2-7-11.4 8.2 24.9-6 20.5-2.9-1.9 4.4-7.3-2-58.7-1.6-29.3-2.1 6.6-1.3 49.1-9.6 18.3-1.5 5.3 1.4 13.9 1.9 22.6-2.5 12.7-1.8-8.9-3.5-6.5-8 19.3-1.6-27.7 0-34-7.7 15.6-8.5 15.3-11 29.6 1-7.9-.8-20-2.5-24.3 1.4-2.6-5.8 58.4-7.8 24.8 1.8-18.7-1-14.3-4.4-28.7 1.7 8.8-11.9 65.8-10 22.9 3.3-6.4 3.3-7.5-2-1.8-9.7 13.5-4.6-25.1-7.3-28-4 8.5-2.7 69.8-14.2 16.8-3.3 8.1 2.5 25.2 5.8 35.4-7-21.8-9.3-26.6-21.5-42 1.7 5.3 16.1 40.8 4.8 20.9-.3-3.7-.4-6-.7-6-6.4 4.3-13.6-14.8-2.4 8-3 13.2-6-18.5-14.5-28 3.8 17 4.6 23 5 42-3.6-10.7-4.2-29-5.8-37.6-4.3 11.2 0 24.1-4.5 25.8-4.4-6.5-2.4-1.7-1.1 5.1-7.1-4.4-2.1-47-6.6-25.3-2.3 17.6-2.5 9.5-7.5-.5 0 2.9 3.3 29.7-3.6 20.8-5 32.4-1.4-22.4-2-21.4-.5-.2-4 7.7-6.3 22.7-1 22.2-8.5-38-9.7-31.5-2.2-5.6 2.3 30 .8 32.4-23.7-36.4-7.6-11-2.5 13.4-4-4.4-7.9-20.2-8.1-19.5-3.4-2 3 26.4-4.5 8.2 1.7-7.1 1.4-16.8-1-20.8-1.7 6.4-1.9 19.3-6.6.6-4.3-19.7-2 14 1.5 21.3-3.2-6.2-3.7-16.1-5.1-16.7-.8-3.7-1.3-2.6-1.8 1.4-3.9-5.5-10.8-19-10-24.1-2.6 6.6-2.6 19.2-4.4 32.8 1.2-8.7-16-46.4-9.4-24.5-.1 3 6.7 20-1 12.1 1 4.3 7.8 12.9 2.2 18.4 0-12.7-8.6-41.2-5.6-13.3.4 5-3.8 4.6-5.8 2.8.9 18.1-3.4-20.3-6.9-23.2 2 10.8-2.3 44.9.4 15.3-12.2 18.5-3.4-21.8-7.6-27.8-2.8-5.2-.7 50.6-8.3 27-.6.2.5 4.6.3 12.1-9 14.1.8-22.2 1.6-26.7-11.5 15.9-10.7 21.6-16.6 44.2 3-9.8 6.4-30 1.8-38.6.2-1.7-2.6 27-8.2 34.2 1.1-9.4-1.9-15.6-2.3-15.4-1 .1-.2 5.5-2.9 13.7a19.5 19.5 0 00-.6-9.2c.8-6.4 4.6-13.8 5.6-17.6-17 23.3-7.2.7-10.6-14.2-1-27.7-3.5 14.2-5.4 26-6.8 12.6-8.7-14.2-13.6-16.7 1.9 3-2.3 28-2.9 13.8.3-6.5-6.5-50.5-5.7-24.9-.4 5.2 3.2 39.7-3.5 12.3-2.9-9.7-3.6-10.2-2.6 0 .5 24 10.9 31-11.2 10.1 2 1.6 8.9 18.8 10.4 26-3.6-4.4-6-15.2-6.5-14.6-.5-.2-2.4 4.8-.2 13.4-10.4-10.2-9.4-29.5-12.4-40.5-1.4.4 1 36.8-9.7 13.7 2.5-7.1 3.8-10.7-1.8-2.4-5.4-6.3-5.6-5.6-1.7 1.7-.1 4.1-3.7 8.9-4.8 15.6-7.2-9.5-2.2-67.6-7.3-39-4.1 10 1.3 37.8-9 12 .8 8.7 2.4 17.2-.4 28 .2-7.6.9-18.6-2-23-.8 0 0 6.2-2 16-.7-4-3.1-13-4.5-14.3 1.6 10.7-1.7 48.7-1.4 18 2.5-5.7 2.3-6.3-2-1.5-9.1 14 1-9.2 1.6-12.3-4.9 2.3-16 27.7-9.8 6.5-2.6 1-5.8 5.5-7.8 10 2.4-12.1 10.2-31-2.4-8.2-5.2 19.3-5.6-38.4-7.9-12.6 1.1 46.5-13.1-19.6-5 28-5 16.3-1.5 0-5.7-4.7-.6-.4-.6 7.4-3.7 13.6-4.9-4 4.9-20.8 6-25.1-.2-.5-6.6 3.9-11.4 15.5.1-12-.8-39-1.5-36.7-.9-2.5-5 36.6-5.7 45.8-1-7.8-11.3-29.4-11.8-27.3-1.1-.7 11.6 43.7-1.4 19.5.3-4.8.5-7.8 0-8-6.3 12-4.9-20.2-9.5-22.7-.4 1.4.2 11.9.4 15.3-4.8.3-1-17.9-1.8-19.6-4 6.6-6 21.2-5.8 33-1.3-2.8-1.5 2-1.4 6.2-4.5-25.4-5.5-25.2-5.6.2-7.3-3.2 2.3-27.4 2-34.2-3.4.6-7.5 24.4-9.6 15.7-1.7 13.9-.8 8-1.8-2.2-3.6-22.5-2 17-8.6 26.3.4-8.6-2.2-13.9-2.6-13.6 0-1.3-1.3 11.5-4 17.3-3.1-6.4 11.7-41.2 1.8-26A71 71 0 00155 261c-5.6-9.8.8-73.2-5.3-42.2-3.3 6.8 0 35.5-6 17.2-3.3-7.9-4-7.8-2.4.6 11.2 43.4-9.5 7-14.1-11.9-2.7 3.9 5.2 32.6 1.9 31.6-1.1-13.6-8-34.1-5.5-9.4-5.9 6-.4-15.1-1.6-16.9-3.6 1.3-5.7 24.8-6.1 20.2-5 11.5-5.7-11.6-4.6-15.3-2.1 5.6-4.3-8-5-7-.3 3.7 1.7 20.3-4.7 20.9-1.3 9.4-1.5-5.8-3.4-7.7.6-2-2.7 21.5-7 28.3.4-7.2-2-11.4-2.4-11.2-.6-.7-.9 8.3-3.6 14-1.3-7.2 3.8-20 5.5-25.6.8-2-10.6 11.4-11.6 21.2-3-6.4-3.8-53.7-6.4-31-.6 4.9-.7 15.2-.6 23.7-2.4-5.4-4.8-13-7.6-15.5-.6 9 11.6 38.7-4 15.6 2.7-14.7 5.1-38.6.6-51.1-2.3 3.2-.7 53.4-7.3 37.5-2.6-8.3-3.2-8.2-2.5.4-.5 4.3 3.6 15.8.2 21.5 0-10.5-1.7-15.2-3-6.9-7.8 7.3 1.4-33.2 1.1-39-3.2 1-7.1 30.3-9.3 19.3-.3 1.3-1.8 21.2-1.2 7.5-3.6-44-1.4 2.8-8.8 22.2-3-6.8 1.7-35.4-2.5-26 .2-4 3.2-10.5-.6-4.5-3.3-31.5-5.1 23-10 32.9-5.7-7.6-3.8-18-.3-24.7C1.1 273.9 4 242.4 0 226c0 22.5.2 84.8 0 110.5A10.4 10.4 0 0010.4 347H678a10 10 0 0010.1-10zM7.1 265.6V264a1.5 1.5 0 010 1.7zm3 13.2l.4-4.9c.8 4.1 3.3 12-.4 4.9zm25.8-.3c-.4.7 0-.7.1-1.1l-.1 1zm10.4-7.3a4.9 4.9 0 011.3-4.5c0 1.5-.8 2.9-1.3 4.5zm13.6-3.9a46.6 46.6 0 013 7.5c-1-2.2-2-4.7-3-7.5zm56-9c-.2.7 0-1.7 0-2.1l.1 2.2zm7.7-1.7c-.2 13-3.2 1-1.1-5 2-8 .7 1.2 1 5zm16 9.3c-1.2-3.1-2.6-6.9-3.8-11a61 61 0 013.8 11zm45.4-4.1c-2.1 0-.7-5 1-5.7l-1 5.7zm15.3-24.3l.5-2c-.1 1.4.3 5.3-.5 2zm62 18.5c.3-.9-.2-2.3.6-2.8l-.5 2.8zm1-4.2c-1.4-.3.5-4.7.5-6a48.7 48.7 0 01-.6 6zm49.1-8.7c-.8-5.4-1.4-7.5-.3-11.6 2.1 4 .9 4.8.3 11.7zm4 6.4v-3.7c.2 1.3.6 2.5 0 3.7zm11.7 5.7c-1.1-3.1-3.3-7-4-10.4.7 3.4 4 8.2 4 10.5zm33.4-6.8c-3.6-4.7-1.3-12.6-1.4-16.8.5 4.7 3.3 12 1.5 16.8zm7.4-1.2c-.7-1.6.6-3.3 1-4.8a42 42 0 01-1 4.8zm67.8-5.8c-.1.8 0 1.8-.5.6.3-1 .6-2.5.6-.6zm25.7.3c.3 1.3.4 2.8.6 4.1-2.7 0-.8-2.5-.5-4zm-5.3-10c-.3-6.7-1.1-5.8-1-11 6 6.2 3.6 27.2 1 11zm5.3 20.3c-.8 3-2.7-6.3-.5-4 1.9 1 1.4 2.3.5 4zm12.8 3c0-3 1.3.9 1.9 1.9l-1.9-1.8zm38.5 5.8l.1-1.5c.4.5 0 1.1-.1 1.5zm2.4-8.6c-1.8-1.8.1-4.5.6-6.6.8 2.3 0 4.6-.6 6.7zm9.3-.5c-1.4 1.4-2.8-8.8.2-1 .2.4 0 .7-.2 1zm3.3 8.5c.2-.8.5 1 .7 1.3-.3-.3-.4-.7-.7-1.2zm50-17.6v-1.7a1.4 1.4 0 010 1.7zm3 13.6l.3-4.7c1 4.5 3.3 12.4-.3 4.8zm26.1 5.4c-.3.7.2-.7.2-1l-.1 1.1zm10.6-7a7.3 7.3 0 011.4-1.8c-.2 1.9-1.7 6-1.4 1.8zm2 16.5c-2 .1-.4-1 0-2.2a10.5 10.5 0 000 2.3zm11.9-14.8a62.7 62.7 0 013 8c-1-2.3-2-5-3-8z" fill="#00aa5b"/><rect class="cls-19" x="21.6" y="44.9" width="351.4" height="52.4" rx="8.5"/><g id="Lamb"><path class="cls-20" d="M434.6 229.8l-.9 9.9a2 2 0 001 2 2.2 2.2 0 002.4-.3l1-.7a2 2 0 00.8-1.5l.4-9a2 2 0 00-1.5-2l-.6-.2a2.1 2.1 0 00-2.6 1.8zM440.4 230.8v10a2 2 0 001.2 1.8 2.2 2.2 0 002.3-.3l1-.9a2 2 0 00.6-1.5l-.3-9a2 2 0 00-1.7-2h-.6a2 2 0 00-2.5 1.9zM462.9 228.6l2 9.7a2 2 0 01-.9 2 2.2 2.2 0 01-2.3.2l-1-.7a2 2 0 01-1-1.4l-1.5-9a2 2 0 011.3-2.2l.5-.2a2 2 0 012.9 1.6zM469 225.3l2 9.8a2 2 0 01-.8 2 2.1 2.1 0 01-2.3.1l-1.1-.6a2 2 0 01-1-1.4l-1.5-9a2 2 0 011.4-2.2l.5-.2a2 2 0 012.8 1.5z"/><path class="cls-21" d="M472.7 182.6s7.2.9 9 1.6 3.8 2.4 3.4 4.3-3.5 2.2-6 1.1-8.2-3.2-9-5 2.6-2 2.6-2z"/><path class="cls-22" d="M470.6 215.4a4.8 4.8 0 00-.1-8.8 4.8 4.8 0 001-3.4 5 5 0 00-5.6-4.4 5.2 5.2 0 00-1.4.3 5 5 0 00-5.2-3 6.7 6.7 0 00-.8.2 5.2 5.2 0 00-4.5-1.9 5.4 5.4 0 00-2 .6 5.1 5.1 0 00-5-2.6 5.2 5.2 0 00-4 2.6 4.6 4.6 0 00-4-1.8 4.5 4.5 0 00-4.2 4.3 4.9 4.9 0 00-2.8-.6 4.7 4.7 0 00-4.3 5 4.5 4.5 0 001.1 2.5h-.3a5.2 5.2 0 00-4.8 5.6 5 5 0 001.7 3.3 5 5 0 00-1.7 4.3 5.2 5.2 0 005.5 4.5 5 5 0 00-.3 2.4 5.3 5.3 0 005.9 4.7 5.5 5.5 0 002-.7 5.3 5.3 0 005.8 3.9 5.4 5.4 0 003.8-2.2 5 5 0 007 .6 4.9 4.9 0 003.6 1.2 4.8 4.8 0 003.9-2.7 5.3 5.3 0 001.7 0 4.7 4.7 0 004.3-5v-.1a4.6 4.6 0 001.5 0 4.9 4.9 0 004.5-5.2 4.7 4.7 0 00-2.3-3.6z"/><path class="cls-22" d="M475.5 215.9a4.8 4.8 0 00-.1-8.8 4.8 4.8 0 001-3.4 5 5 0 00-5.6-4.4 5.5 5.5 0 00-1.3.3 5.1 5.1 0 00-5.3-3 7 7 0 00-.7.2 5.2 5.2 0 00-4.6-2 5 5 0 00-1.9.7 5.1 5.1 0 00-5-2.6 5.2 5.2 0 00-4 2.6 4.6 4.6 0 00-4.1-1.8 4.5 4.5 0 00-4.1 4.3 4.9 4.9 0 00-2.9-.6 4.7 4.7 0 00-4.2 5 4.4 4.4 0 001 2.5 1.6 1.6 0 00-.3 0 5.2 5.2 0 00-4.7 5.6 5 5 0 001.7 3.3 5 5 0 00-1.8 4.3 5.2 5.2 0 005.6 4.5 5 5 0 00-.4 2.4 5.3 5.3 0 006 4.6 5.5 5.5 0 002-.6 5.3 5.3 0 005.7 3.9 5.4 5.4 0 003.9-2.2 5 5 0 007 .6 4.9 4.9 0 007.5-1.6 5.5 5.5 0 001.7.1 4.7 4.7 0 004.2-5v-.2a4.7 4.7 0 001.6 0 4.9 4.9 0 004.5-5.2 4.6 4.6 0 00-2.4-3.5z"/><path class="cls-23" d="M472.8 215.6a4.8 4.8 0 00-.1-8.8 4.8 4.8 0 001-3.4 5 5 0 00-5.6-4.4 5.2 5.2 0 00-1.4.3 5 5 0 00-5.2-3 6.2 6.2 0 00-.8.1 5.3 5.3 0 00-6.4-1.3 5.1 5.1 0 00-5-2.5 5.2 5.2 0 00-4 2.5 4.6 4.6 0 00-4.2-1.7 4.5 4.5 0 00-4.1 4.2 4.9 4.9 0 00-2.8-.5 4.7 4.7 0 00-4.3 5 4.5 4.5 0 001.1 2.5 1.7 1.7 0 00-.3 0 5.2 5.2 0 00-4.8 5.6 5 5 0 001.8 3.3 5 5 0 00-1.8 4.3 5.2 5.2 0 005.5 4.5 5 5 0 00-.3 2.4 5.3 5.3 0 005.9 4.6 5.5 5.5 0 002.1-.6 5.3 5.3 0 005.7 3.9 5.4 5.4 0 003.9-2.3 5 5 0 007 .7 4.9 4.9 0 003.6 1.1 4.8 4.8 0 003.9-2.7 5.2 5.2 0 001.6.1 4.7 4.7 0 004.3-5v-.2a4.7 4.7 0 001.6 0 4.9 4.9 0 004.4-5.2 4.7 4.7 0 00-2.3-3.5z"/><path d="M461.1 207.5s6.8-9.2 18.6-7.2" stroke="#84bf63" stroke-width="1.3" stroke-miterlimit="10" fill="none"/><path class="cls-21" d="M466.4 205.3a9.9 9.9 0 01-2.5.5 9.4 9.4 0 01-2.8-.1c-5.2-1-9.5-6.3-10.2-13.1-.8-8 3.8-15 10.1-15.6s12.2 5.3 13 13.3c.7 6.9-2.6 13-7.6 15z"/><path class="cls-23" d="M474.2 182.4a2.2 2.2 0 01-3.1 2 2 2 0 01.4 1 2.2 2.2 0 01-2 2.3 2.2 2.2 0 01-2-1v.3a2.1 2.1 0 01-2 2.2 2.2 2.2 0 01-2-.9 2.1 2.1 0 01-1.8 1.5 2.1 2.1 0 01-2.3-1.6 2.3 2.3 0 01-2 1.5 2.2 2.2 0 01-2.4-1.9v-.2a2 2 0 01-1.5 1 2 2 0 01-1.5-.5 13.4 13.4 0 002.4-3l-4.6-.2-.9.2a1.9 1.9 0 01-.2-.9 2.1 2.1 0 011.3-2 2 2 0 01-1.2-1.8 2.2 2.2 0 012-2.4 2.6 2.6 0 01.6 0 2 2 0 01-.2-.6 2.2 2.2 0 012-2.4 2.3 2.3 0 011.5.4 2.2 2.2 0 012-2.3 2.3 2.3 0 011.7.5 2 2 0 014-.2 2.2 2.2 0 011.6-1 2.1 2.1 0 012.3 1.8 2.2 2.2 0 011.2-.5 2.1 2.1 0 012.2 1.3 2 2 0 01.5 0 2 2 0 012.3 1.8 2 2 0 011.6 1.9 2 2 0 01-1.2 2 2 2 0 011.3 1.7z"/><path class="cls-22" d="M424 203a3.6 3.6 0 00-4.1-.9 3.5 3.5 0 00-2.2 2.9 3 3 0 00-.4.1 3.4 3.4 0 00-1.9 4.5 3.5 3.5 0 003.6 2 3.3 3.3 0 00.2 1.8 3.6 3.6 0 004.7 1.8 3.4 3.4 0 001.9-4.5 4.3 4.3 0 00-.4-.6 3.8 3.8 0 001.5-.3 3.6 3.6 0 002-4.8 3.8 3.8 0 00-4.9-2z"/><path class="cls-23" d="M424.2 204.4a2.5 2.5 0 00-2.8-1.1 2.5 2.5 0 00-1.8 1.7 1.7 1.7 0 00-.3 0 2.5 2.5 0 00-1.9 3 2.4 2.4 0 002.2 1.8 2.4 2.4 0 000 1.3 2.5 2.5 0 004.9-1.2 2.8 2.8 0 00-.2-.5 2.8 2.8 0 001 0 2.6 2.6 0 10-1.1-5z"/><path class="cls-20" d="M475.6 186.2c-.4-1 1-2.1 2.2-1.7a21.3 21.3 0 014.4 1.7c.8.7.9 1.9-1.1 1.9s-5.4-1.2-5.5-1.8v-.1z"/><g id="Eye"><ellipse class="cls-25" cx="456.8" cy="194.7" rx="1.6" ry="3" transform="rotate(-5.7 457 194.8)"/><path class="cls-17" d="M457.9 193.2c0 .8-.1 1.5-.5 1.5s-.7-.6-.8-1.4.2-1.4.5-1.4.7.5.8 1.3zM456.4 194.3c0 .3 0 .5-.2.5s-.3-.2-.3-.5 0-.5.2-.5.3.2.3.5zM457.2 195.5l-.1.4-.3-.4.2-.4.2.4z"/><path class="cls-25" d="M454.3 191.5a1.1 1.1 0 01.5-1.1 1.3 1.3 0 011.2-.2 2.7 2.7 0 00-1 .4 2 2 0 00-.7 1z"/><ellipse class="cls-26" cx="456.3" cy="197.9" rx="1.4" ry=".6" transform="rotate(-5.7 456.4 198)"/></g><g id="Eye-2" data-name="Eye"><ellipse class="cls-25" cx="468.6" cy="193.5" rx="1.6" ry="3" transform="rotate(-5.7 468.9 193.6)"/><path class="cls-17" d="M467.3 192.3c0 .7.4 1.3.7 1.3s.6-.7.6-1.5-.5-1.3-.9-1.3-.5.7-.4 1.4zM469 193c0 .3.1.5.3.5s.2-.3.2-.5-.2-.5-.3-.5-.3.2-.2.5zM468.4 194.3c0 .3 0 .4.2.4s.1-.2.1-.4-.1-.4-.2-.3l-.1.3z"/><path class="cls-25" d="M470.4 189.9a1.8 1.8 0 00-.8-.8 2.7 2.7 0 00-1-.1 1.4 1.4 0 01.5-.2 1.3 1.3 0 01.7 0 1.1 1.1 0 01.6 1z"/><ellipse class="cls-26" cx="469.8" cy="196.6" rx="1.4" ry=".6" transform="rotate(-5.7 470 196.7)"/></g><path class="cls-17" d="M482 203.3l2.2.4a.7.7 0 00.7-.2l1.4-1.8a.7.7 0 00.1-.7l-.8-2a.7.7 0 00-.5-.5l-2.2-.4a.7.7 0 00-.7.3l-1.4 1.7a.7.7 0 00-.1.7l.8 2a.7.7 0 00.5.5z"/><path class="cls-11" d="M483.8 197l.2-1.3a.4.4 0 01.5-.3.4.4 0 01.4.4l-.2 1.3a.4.4 0 01-.5.4.4.4 0 01-.4-.5zM487 199l1.3-.5a.4.4 0 01.5.3.4.4 0 01-.2.6l-1.3.5a.4.4 0 01-.5-.3.4.4 0 01.3-.6zM478.5 202.1l1.2-.4a.4.4 0 01.6.2v.1a.4.4 0 01-.3.5l-1.2.5a.4.4 0 01-.6-.2v-.1a.4.4 0 01.3-.6zM486.8 202.9l1 .8a.4.4 0 010 .6v.1a.4.4 0 01-.6 0l-1-.8a.4.4 0 010-.6v-.1a.4.4 0 01.6 0zM479.8 197l1 1a.4.4 0 010 .5.4.4 0 01-.6.1l-1-.8a.4.4 0 010-.6.4.4 0 01.6-.1zM482.2 206l.2-1.3a.4.4 0 01.5-.3h.1a.4.4 0 01.4.5l-.3 1.3a.4.4 0 01-.5.3.4.4 0 01-.4-.4z"/></g><g id="Layer_5" data-name="Layer 5"><path class="cls-23" d="M454.5 185.1a13.4 13.4 0 01-2.5 3 1.7 1.7 0 01-.5-1.2 1.8 1.8 0 01.1-.9 2.3 2.3 0 01-2.6-.9l.8-.2z"/><path class="cls-21" d="M439.5 192.3c0-4.7 7-6.7 9.5-7.2a2.3 2.3 0 002.6.9 1.8 1.8 0 00-.2 1 1.7 1.7 0 00.6 1l-1.1 1.3c-3.2 3.2-8.9 5-8.9 5s-2.5 1.7-2.5-2z"/><path class="cls-20" d="M449 188.4c.2-1.1-1.4-1.9-2.5-1.2a22.4 22.4 0 00-4 2.6c-.6.8-.5 2 1.4 1.6s5-2.2 5-2.8a1 1 0 01.1-.2z"/></g><path d="M688 236.8c0-21.7-2.1 7.4-9.6 12.5-1.4 2.3-2.3.2-3.1 5-3.8-29-.5.4-9.3 13.2-1.9-15.5-1.9-14.7-5.6 0-1.6 4.6-.7-3.3-.3-5.6 4.5-15 8-26.7-5.5-2.4-1.5 7.6-4.7-24.7-5-27.8-2.1-21.8-3.8 14-3.2 22.3a110.1 110.1 0 00-4.6-11.6c-6.6-15-.3 8.3.2 15.2-5.8 14.4-5.5-34.2-4.5-45.2-4-39.7-2.4 47.2-9.6 24-2.6-8.4-3.3-9.3-2.6-.3 0 4.1 3.3 15.8.2 21.2-1.5-16.1.2-10.8-5.6-4.7-1.3-12.3 2.2-30.5 3.7-40.9-7.6 15.7-8.4 15.4-10.9 29.6 1.1-7.9-.8-20-2.4-24.3-1-2.4-1 28.9-6.4 38.5-1-15.5-1.6-28-1.2-32.6-3.6 5.7-3.4-11.7-4.7-9.8.5 6-4.4 31-7.4 41.8-9.6-6 4.8-31.9-4.6-20.7-9.6 13.6-4.6-25-7.3-28-1.8-.6-2.5 19.8-3.4 26-2.4 30.4-7.1 1.4-10.7-9.1-2.9 7.9 1.6 24.8 6 34.9-7-19.1-9.4-27-21.7-41.5 1.7 5.3 16.1 40.8 4.8 20.9-.4-5.4-.3-9-2.2-3.1-16.4-16.7 1.6.7-1.2 12.3-2.7-6.1-6-17-9.8-27.7-9.5-19.5.4 7.4.3 15.5-7.6-8.6-1.2 2 .4 6.1.4 30.5-5-17.6-6-24.7-4.9 10.5 1.8 31.4-7 22.7-.9 0 .7 3.5 1.4 8.2-7.7-8.1-1.7-25.4-5-32.4-2.8 3-.7 15.1-4.2 20.3-1.3-5.6-6.9-22.7-4.5-7 4.4 20-5.6 10.5-4.5 21.7-5.4 15.5 0-34.3-1.4-29-.6-.2-4.1 7.7-6.4 22.7-1 22.2-8.4-38-9.7-31.4-2.1-5.6 2.4 29.9.8 32.4-10.8-18.5-20.7-30.8-5.1 1.4 7 26.7-5.3-6.1-5.5-7.6-.5-.2-2.6 5.6 0 15.9-5.4-3.1-3-16.8-3.7-22.2-3-12.7-1.2-4-4 7.4-3-6.4-4.7-16-6.1-20-4 5.6 8.6 47-1.5 13.3 1.5-2.4-2.5-6.7-2.1-.4-4-5.4-11-19-10-24-8.2 34.7 2 34.3-15.9.7 5.2 18 7.7 58.2-.3 17.6-7-19 3.4 20-7.9 10 .9 18-3.4-20.3-6.8-23.2-.8 4 3 39.2-1.4 24-.5-5.5 5-13.7-2.3-4.3-4.5 5.9-1-28.5-3.6-32.2-2.8-5.2-.6 50.5-8.2 27-.7.2.4 4.6.3 12-9.1 14.2.8-22 1.6-26.6-4.6.6-8.3 25.5-10.9 14.9-.5 0-.4 1.9-.7 5-9.4 45.6 3.4 2.5-3.2-14.3.2-1.7-2.7 27-8.2 34.2 1-9.5-2-15.6-2.4-15.4-2.1 19.7-5.4 4.1-.1-7.4 3.3-6.9 3.2-7.8-2-1.6-11 24.4-3.3-21-7.3-27.5-2.5-.3-.3 33.5-8.8 40.5a84 84 0 00-9.2-22c1.8 3-2.3 28-3 13.8.3-6.5-6.5-50.4-5.7-24.8-.4 5.1 3.2 39.7-3.5 12.2-2.9-9.6-3.6-10.2-2.6 0 .5 24 10.9 31-11.2 10.2 2 1.5 8.9 18.7 10.5 26-3.7-4.4-6.2-15.2-6.6-14.6-1.1 17.4-4.4 7.4-10.3-6.3-.4-19.1-2.2-31.9-4.7 0-.7-2.8-1.2-1-1.6 2.2-3.8-4.9-6.4-12.5-3.6-16.6-2 3.4-5.7 4.6-8.3.5 4 4.6.1 15.9-2.3 21-5.9-14-4.6-39.8-4.7-47.6a97 97 0 00-4.4 24.5c-1.5 13.6-2.2 5.3-7-3.3.5 8 2.8 19-.8 27.7 1.7-14.5-1.5-36.7-3.6-6.7-9-33.1-.6 8.2-6.1 18.5-1.5-12.3 5.2-28-6-10.3.7-6.7 4.7-14.3 5.7-18.2-4.2-.6-10.4 21.3-11.7 13.5 0-4.7 5.2-11.2-2-3.5-1-1.5-1-.5-.7 1.1-7.6 13.2 2.3-11.9 2.2-14.7-15.6 25.5-9.8 10.4-14.6-8-2.8 3.9.9 38.7-6.2 20-3.3-6.8-3.9-6.8-2.5.5 1.2 5 5 17.9-1 23.2.5-4.8.2-10.9-2.1-13.1-.7-.5-.6 7.3-3.7 13.5-5-4 4.9-20.7 6-25 0-5.3-14.3 24.1-11.5 8.3-.5-38-1.6-39.4-5.4-.3 1.7 44.9-21.8-50.3-9.4 9.8 4.2 19.1-7.6-4.9-5.5-9-6.3 12-5-20.2-9.5-22.6-.4 1.3.2 11.8.4 15.2-3 .8-2.6-8.9-2.4-11.6 1.3-24.8-7.6 27.3-6.6 30.7-4.1-22.2-5.9-26.8-5.5.6-9.4 1.7 8.8-49.6-1.8-27.7-1 2.1-2 5-3.3 8.2-.7 4.8-1.5 3.9-2.7 1-.1 1.3-1.2 8-1.5 11.2.4-6.7 0-16.7-2.1-20.2 0-1.8-2.1 24.9-6.8 33.1.4-8.5-2.1-13.8-2.5-13.5-.2-1-1.3 11-4 17.2a82.3 82.3 0 013.8-24.6c5.6-18-11 14.8-10.3 21.9-3.8-10.5-2.6-52.1-2.8-50.8-7.4 10 0 49.7-11.6 20 10.3 43.3-5.5 22.3-13.5-5.5-2.6 3.9 5.2 32.5 1.9 31.6-1.4-8.7-2.6-17.8-5.7-22.6-.9 3 2.2 12.1-2.2 15.6-1-6.2 1.4-15.8.9-19.3-14 40.6-5.6 20.2-15.7-2.2-.3 3.7 1.7 20.3-4.7 20.9-1.3 9.4-1.5-5.8-3.4-7.7.5-1.9-2.7 21.5-7 28.3.3-7.2-2-11.4-2.4-11.2-.6-.7-.9 8.3-3.7 14-1.2-7.2 3.9-20 5.5-25.5.9-2-10.6 11.3-11.5 21-3.1-6.3-3.8-53.6-6.4-30.8-.6 4.9-.8 15.2-.6 23.6-2.5-5.3-4.8-13-7.6-15.4-.6 9 11.5 38.6-4 15.6 2.7-14.7 5.1-38.6.6-51.1-2.3 3.3-.7 53.3-7.3 37.5-2.7-8.3-3.3-8.2-2.5.4-.5 4.3 3.6 15.8.2 21.5.5-7.2-1.4-11.6-1.8-11.4-8 21.3-1.4-28-.1-34.6-14.5 28.5-7 38.8-13.1 8.5.2-3-2 30.7-6.3 40.6-.8-16.3-1.7-28.3-1.2-33-2.8 6.5-3.6-10.2-4.6-8.8s-4 52.6-9.5 38.9c-5.5-5.4 1.3-15.3 2-19.5-15.7 24-13.4-15.4-17.2-23.3.3 10.7-.9 70.8-.9 101 0 11 2 18 9.2 18l668.4.1c8.7 0 9.9-6 9.9-9.6V236.8z" fill="url(#linear-gradient-3)"/><path style="isolation:isolate" opacity=".5" stroke="#fff" fill="none" d="M17 107.5h367"/><path d="M498.5 240.3v26.4h-4.8v-11.5h-13.4v11.5h-4.8v-26.3h4.8v11h13.4v-11zm23.2 7.7v18.7h-4.5v-3a6.2 6.2 0 01-2.5 2.4 7.7 7.7 0 01-3.6.8 8 8 0 01-4.3-1.1 7.8 7.8 0 01-3-3.4 11.7 11.7 0 01-1-5 12 12 0 011-5.2 8.3 8.3 0 013-3.4 7.6 7.6 0 014.3-1.3 7.3 7.3 0 013.7.9 5.9 5.9 0 012.4 2.4V248zm-9.4 15.3a4.3 4.3 0 003.6-1.6 7 7 0 001.3-4.4 7.2 7.2 0 00-1.3-4.6 4.8 4.8 0 00-7.2.1 7.3 7.3 0 00-1.2 4.5 7 7 0 001.2 4.5 4.5 4.5 0 003.6 1.5zm25-15.8a7.4 7.4 0 014.3 1.3 8 8 0 013 3.4 11.5 11.5 0 011 5.1 11.7 11.7 0 01-1 5.1 7.7 7.7 0 01-7.2 4.6 7.7 7.7 0 01-3.6-.9 6.2 6.2 0 01-2.5-2.4v11h-4.6v-21.4a41.6 41.6 0 00-.3-5.3h4.4l.3 3.2a5.5 5.5 0 012.4-2.7 7.4 7.4 0 013.9-1zm-1.2 15.8a4.3 4.3 0 003.6-1.5 6.9 6.9 0 001.2-4.5 7.3 7.3 0 00-1.2-4.5 4.2 4.2 0 00-3.6-1.7 4.3 4.3 0 00-3.6 1.6 8.8 8.8 0 000 9 4.3 4.3 0 003.6 1.6zm24.2-15.8a7.4 7.4 0 014.2 1.3 8 8 0 013 3.4 11.5 11.5 0 011 5.1 11.7 11.7 0 01-1 5.1 7.7 7.7 0 01-7.2 4.6 7.7 7.7 0 01-3.6-.9 6.2 6.2 0 01-2.5-2.4v11h-4.6v-21.4a41.6 41.6 0 00-.3-5.3h4.4l.3 3.2a5.5 5.5 0 012.4-2.7 7.4 7.4 0 013.9-1zm-1.3 15.8a4.3 4.3 0 003.6-1.5 6.9 6.9 0 001.3-4.5 7.3 7.3 0 00-1.3-4.5 4.2 4.2 0 00-3.6-1.7 4.3 4.3 0 00-3.6 1.6 8.8 8.8 0 000 9 4.3 4.3 0 003.6 1.6zm31-15.3l-8.8 20a11.3 11.3 0 01-3.8 5 13.4 13.4 0 01-5.6 2l-1-3.5a10.9 10.9 0 004-1.5 6 6 0 002-2.6l.7-1.4-7.8-18h4.8l5.4 13.4 5.4-13.4zm-114.4 40.4H493v3.7h-12.9v7.3h12.2v3.8h-12.2v7.7h13v3.8h-17.7zM515 296v18.7h-4.5v-3a6.2 6.2 0 01-2.4 2.4 7.7 7.7 0 01-3.7.8 8 8 0 01-4.3-1.1 7.8 7.8 0 01-2.9-3.4 11.7 11.7 0 01-1-5 12 12 0 011-5.2 8.3 8.3 0 013-3.4 7.6 7.6 0 014.3-1.3 7.3 7.3 0 013.6.9 5.9 5.9 0 012.4 2.4V296zm-9.3 15.3a4.3 4.3 0 003.5-1.6 7 7 0 001.3-4.4 7.2 7.2 0 00-1.3-4.6 4.8 4.8 0 00-7.1.1 7.3 7.3 0 00-1.3 4.5 6.9 6.9 0 001.3 4.5 4.4 4.4 0 003.6 1.5zm21.2 3.7a12.6 12.6 0 01-8-2.4l1.3-3.2a11.2 11.2 0 006.8 2.2 4.8 4.8 0 002.6-.6 1.7 1.7 0 001-1.5 1.6 1.6 0 00-.7-1.3 5.5 5.5 0 00-2.2-1l-3-.6c-3.5-.8-5.2-2.5-5.2-5.2a4.9 4.9 0 011-3 6.2 6.2 0 012.7-2.1 10.1 10.1 0 014-.7 12.2 12.2 0 013.9.6 10 10 0 013.2 1.7L533 301a9.6 9.6 0 00-5.8-2 4.5 4.5 0 00-2.4.5 1.9 1.9 0 00-1 1.6 1.7 1.7 0 00.6 1.3 4.5 4.5 0 001.9.9l3.1.7a7.8 7.8 0 014 2 4.6 4.6 0 011.3 3.4 4.8 4.8 0 01-2 4 9.4 9.4 0 01-5.7 1.6zm17.4-15.5v8.4c0 2.2 1 3.3 3 3.3a6.7 6.7 0 002-.3v3.6a8.8 8.8 0 01-3 .5 6.5 6.5 0 01-5-1.8 7.1 7.1 0 01-1.7-5.1v-8.6H536V296h3.6v-4.5l4.6-1.6v6.1h5v3.5zm24.5 6.1h-12.9a6.8 6.8 0 001.5 4.4 5.4 5.4 0 004 1.5 9.2 9.2 0 005.7-2l1.3 3.1a10.5 10.5 0 01-3.3 1.8 12.5 12.5 0 01-4 .6 9.8 9.8 0 01-7.1-2.6 9.5 9.5 0 01-2.6-7 10.8 10.8 0 011.1-5.1 8.3 8.3 0 013.2-3.5 9 9 0 014.7-1.2 7.7 7.7 0 016 2.5 9.8 9.8 0 012.3 6.8zm-8.2-6.7a4.3 4.3 0 00-3 1 5.3 5.3 0 00-1.5 3.2h8.7a5.1 5.1 0 00-1.3-3.2 3.8 3.8 0 00-3-1zm22.1-3.3a5.2 5.2 0 011.9.3v4.2a6.4 6.4 0 00-2.5-.5 4.7 4.7 0 00-3.6 1.4 5.2 5.2 0 00-1.2 3.6v10.1h-4.6v-13.4a41.8 41.8 0 00-.3-5.3h4.3l.4 3.3a5.6 5.6 0 012.2-2.8 6.3 6.3 0 013.4-1z" fill="url(#radial-gradient)"/><path d="M498.5 240.3v26.4h-4.8v-11.5h-13.4v11.5h-4.8v-26.3h4.8v11h13.4v-11zm23.2 7.7v18.7h-4.5v-3a6.2 6.2 0 01-2.5 2.4 7.7 7.7 0 01-3.6.8 8 8 0 01-4.3-1.1 7.8 7.8 0 01-3-3.4 11.7 11.7 0 01-1-5 12 12 0 011-5.2 8.3 8.3 0 013-3.4 7.6 7.6 0 014.3-1.3 7.3 7.3 0 013.7.9 5.9 5.9 0 012.4 2.4V248zm-9.4 15.3a4.3 4.3 0 003.6-1.6 7 7 0 001.3-4.4 7.2 7.2 0 00-1.3-4.6 4.8 4.8 0 00-7.2.1 7.3 7.3 0 00-1.2 4.5 7 7 0 001.2 4.5 4.5 4.5 0 003.6 1.5zm25-15.8a7.4 7.4 0 014.3 1.3 8 8 0 013 3.4 11.5 11.5 0 011 5.1 11.7 11.7 0 01-1 5.1 7.7 7.7 0 01-7.2 4.6 7.7 7.7 0 01-3.6-.9 6.2 6.2 0 01-2.5-2.4v11h-4.6v-21.4a41.6 41.6 0 00-.3-5.3h4.4l.3 3.2a5.5 5.5 0 012.4-2.7 7.4 7.4 0 013.9-1zm-1.2 15.8a4.3 4.3 0 003.6-1.5 6.9 6.9 0 001.2-4.5 7.3 7.3 0 00-1.2-4.5 4.2 4.2 0 00-3.6-1.7 4.3 4.3 0 00-3.6 1.6 8.8 8.8 0 000 9 4.3 4.3 0 003.6 1.6zm24.2-15.8a7.4 7.4 0 014.2 1.3 8 8 0 013 3.4 11.5 11.5 0 011 5.1 11.7 11.7 0 01-1 5.1 7.7 7.7 0 01-7.2 4.6 7.7 7.7 0 01-3.6-.9 6.2 6.2 0 01-2.5-2.4v11h-4.6v-21.4a41.6 41.6 0 00-.3-5.3h4.4l.3 3.2a5.5 5.5 0 012.4-2.7 7.4 7.4 0 013.9-1zm-1.3 15.8a4.3 4.3 0 003.6-1.5 6.9 6.9 0 001.3-4.5 7.3 7.3 0 00-1.3-4.5 4.2 4.2 0 00-3.6-1.7 4.3 4.3 0 00-3.6 1.6 8.8 8.8 0 000 9 4.3 4.3 0 003.6 1.6zm31-15.3l-8.8 20a11.3 11.3 0 01-3.8 5 13.4 13.4 0 01-5.6 2l-1-3.5a10.9 10.9 0 004-1.5 6 6 0 002-2.6l.7-1.4-7.8-18h4.8l5.4 13.4 5.4-13.4zm-114.4 40.4H493v3.7h-12.9v7.3h12.2v3.8h-12.2v7.7h13v3.8h-17.7zM515 296v18.7h-4.5v-3a6.2 6.2 0 01-2.4 2.4 7.7 7.7 0 01-3.7.8 8 8 0 01-4.3-1.1 7.8 7.8 0 01-2.9-3.4 11.7 11.7 0 01-1-5 12 12 0 011-5.2 8.3 8.3 0 013-3.4 7.6 7.6 0 014.3-1.3 7.3 7.3 0 013.6.9 5.9 5.9 0 012.4 2.4V296zm-9.3 15.3a4.3 4.3 0 003.5-1.6 7 7 0 001.3-4.4 7.2 7.2 0 00-1.3-4.6 4.8 4.8 0 00-7.1.1 7.3 7.3 0 00-1.3 4.5 6.9 6.9 0 001.3 4.5 4.4 4.4 0 003.6 1.5zm21.2 3.7a12.6 12.6 0 01-8-2.4l1.3-3.2a11.2 11.2 0 006.8 2.2 4.8 4.8 0 002.6-.6 1.7 1.7 0 001-1.5 1.6 1.6 0 00-.7-1.3 5.5 5.5 0 00-2.2-1l-3-.6c-3.5-.8-5.2-2.5-5.2-5.2a4.9 4.9 0 011-3 6.2 6.2 0 012.7-2.1 10.1 10.1 0 014-.7 12.2 12.2 0 013.9.6 10 10 0 013.2 1.7L533 301a9.6 9.6 0 00-5.8-2 4.5 4.5 0 00-2.4.5 1.9 1.9 0 00-1 1.6 1.7 1.7 0 00.6 1.3 4.5 4.5 0 001.9.9l3.1.7a7.8 7.8 0 014 2 4.6 4.6 0 011.3 3.4 4.8 4.8 0 01-2 4 9.4 9.4 0 01-5.7 1.6zm17.4-15.5v8.4c0 2.2 1 3.3 3 3.3a6.7 6.7 0 002-.3v3.6a8.8 8.8 0 01-3 .5 6.5 6.5 0 01-5-1.8 7.1 7.1 0 01-1.7-5.1v-8.6H536V296h3.6v-4.5l4.6-1.6v6.1h5v3.5zm24.5 6.1h-12.9a6.8 6.8 0 001.5 4.4 5.4 5.4 0 004 1.5 9.2 9.2 0 005.7-2l1.3 3.1a10.5 10.5 0 01-3.3 1.8 12.5 12.5 0 01-4 .6 9.8 9.8 0 01-7.1-2.6 9.5 9.5 0 01-2.6-7 10.8 10.8 0 011.1-5.1 8.3 8.3 0 013.2-3.5 9 9 0 014.7-1.2 7.7 7.7 0 016 2.5 9.8 9.8 0 012.3 6.8zm-8.2-6.7a4.3 4.3 0 00-3 1 5.3 5.3 0 00-1.5 3.2h8.7a5.1 5.1 0 00-1.3-3.2 3.8 3.8 0 00-3-1zm22.1-3.3a5.2 5.2 0 011.9.3v4.2a6.4 6.4 0 00-2.5-.5 4.7 4.7 0 00-3.6 1.4 5.2 5.2 0 00-1.2 3.6v10.1h-4.6v-13.4a41.8 41.8 0 00-.3-5.3h4.3l.4 3.3a5.6 5.6 0 012.2-2.8 6.3 6.3 0 013.4-1z" fill="url(#linear-gradient-4)"/><path class="cls-17" d="M61.2 311.6l-4.5-7.8a1.8 1.8 0 00-1.6-.9h-8.9a1.8 1.8 0 00-1.5 1l-4.5 7.7a1.8 1.8 0 000 1.7l4.5 7.8a1.8 1.8 0 001.5.9h9a1.8 1.8 0 001.5-.9l4.5-7.8a1.8 1.8 0 000-1.7zM77 306.8h2v11.3h-1.5l-6.1-7.9v8h-2v-11.4H71l6.1 7.9zM82.9 318.1v-11.3H85v11.3zM98.3 306.8h1.6v11.3H98v-7l-3 7h-1.4l-3-7v7h-1.8v-11.3h1.6l3.9 8.9zM103.8 318.1v-11.3h2v11.3zM119.8 315.6a6.9 6.9 0 00.7-3.1 6.7 6.7 0 00-.7-3.1 4.6 4.6 0 00-1.9-2 6 6 0 00-3-.7 5.8 5.8 0 00-3 .7 4.8 4.8 0 00-1.9 2 6.7 6.7 0 00-.6 3 6.9 6.9 0 00.6 3.2 4.7 4.7 0 002 2 6 6 0 003 .6h.4a9.7 9.7 0 001.3 1.8 8.3 8.3 0 001.4 1.2l1.4-1a11.6 11.6 0 01-1.2-1.2 6.2 6.2 0 01-.9-1.2 4.7 4.7 0 002.4-2.3zm-2.3 0a3.5 3.5 0 01-5 0 5.7 5.7 0 010-6.3 3 3 0 012.5-1 3.1 3.1 0 012.5 1 5.8 5.8 0 010 6.3z"/><rect class="cls-19" x="21.6" y="117.8" width="351.4" height="179.4" rx="8.5"/><g id="Bunny_2" data-name="Bunny 2"><path class="cls-2" d="M651.7 273l-.5.5a7 7 0 11-.2-11.5h.1a.5.5 0 01.1.2h.1a7.8 7.8 0 01.9.8l.2.3.2.2a7 7 0 01-.4 9l-.5.5z"/><path class="cls-3" d="M651.1 262.2a.5.5 0 01.1 0l-.2-.1zM651.7 273l-.5.5a4.9 4.9 0 00-.5-1.2c1.1-1.3 2.9-4 2.2-6.8a6.1 6.1 0 00-1.6-3.2h.1a7.8 7.8 0 01.8.8l.3.3.1.2a7 7 0 01-.4 9l-.5.4z"/><path class="cls-2" d="M652.3 255.4a43.5 43.5 0 01-2.2 5.3 4.8 4.8 0 00-.5-.2c.5-1 3.3-7.6 2.2-9.3a1.2 1.2 0 00-.6-.5 1 1 0 00-.9.2 3.5 3.5 0 00-.9 1.2 18 18 0 00-1.4 8.2.6.6 0 00-.2 0h-.3v-2.4c0-2.7.1-6.2.8-8a4.3 4.3 0 011.5-2 2 2 0 011-.3 1.6 1.6 0 011 .4 4 4 0 011 1.9 11 11 0 01-.7 5.5z"/><path class="cls-3" d="M650.7 259.4a3.6 3.6 0 01-.5-.2l-.6 1.3a4.8 4.8 0 01.5.2l.6-1.3zm-2.6-2c-.6-1.9.3-4.6.9-6.9a5.7 5.7 0 011.5-3 2.7 2.7 0 00-.7.3 4.5 4.5 0 00-1.4 2c-.8 1.8-.8 5.3-.8 8v2.4a1.3 1.3 0 01.2 0h.3a24.7 24.7 0 010-3z"/><path class="cls-5" d="M651.6 251.3c1.1 1.6-1.7 8.2-2.2 9.2a5.5 5.5 0 00-1.2-.2 18 18 0 011.4-8.1 3.4 3.4 0 01.8-1.1.8.8 0 01.8-.2.8.8 0 01.4.4z"/><path class="cls-4" d="M650 259.2l-.6 1.3a5.5 5.5 0 00-1.2-.2 22.8 22.8 0 010-2.5 3 3 0 001.8 1.4z"/><path class="cls-2" d="M659.4 263.6a44.6 44.6 0 01-5.5 1.5 5 5 0 00-.2-.5c1.2-.3 8-2 8.8-4a1.1 1.1 0 000-.7 1 1 0 00-.8-.6 3.5 3.5 0 00-1.5 0 18.4 18.4 0 00-7.3 3.9l-.2-.2a1.8 1.8 0 01-.2-.2l2-1.4c2.1-1.7 5-3.8 6.8-4.3a4.3 4.3 0 012.5 0 2 2 0 011 .6 1.5 1.5 0 01.3 1 3.6 3.6 0 01-.9 2c-.8 1.2-2.7 2-4.8 2.8z"/><path class="cls-3" d="M655.3 261.5c1-1.6 3.8-2.5 6-3.5a6 6 0 013.2-.6 2 2 0 00-.7-.4 4.5 4.5 0 00-2.5.1c-1.9.6-4.7 2.6-6.8 4.3l-2 1.4a1.8 1.8 0 01.3.2l.1.2 2.4-1.7z"/><path class="cls-5" d="M662.3 260.6c-.7 1.8-7.6 3.6-8.6 3.8a4.4 4.4 0 00-.6-1 17.8 17.8 0 017.2-3.9 3.1 3.1 0 011.4 0 .8.8 0 01.6 1z"/><path class="cls-4" d="M655 264c-.6.3-1.1.4-1.3.4a4.7 4.7 0 00-.6-1c.6-.6 1.3-1.1 2-1.5a2.6 2.6 0 00-.1 2.2z"/><path class="cls-6" d="M643.6 265.3c.5.3.8.8.7 1s-.7.2-1.2-.2-.8-.8-.7-1 .7-.1 1.2.2zM650.5 269.6c.6.3.9.8.7 1s-.7.1-1.2-.2-.8-.8-.7-1 .7-.2 1.2.2z"/><path class="cls-7" d="M645.3 267.2s-.5 2 .4 2.6 2.8-1 2.8-1l-.5-.3-.4-.4-.4-.6h-1.4z"/><path class="cls-9" d="M645.3 267.2a4.1 4.1 0 00-.1 1.5 1.4 1.4 0 00.7 1.2 1.6 1.6 0 001.4-.3 7.7 7.7 0 001.2-.9l-.6-.1-.4-.4-.4-.7-.6.1-.8-.1zm0 0l.5.3h1.4l.4.6.3.4.6.2a6.6 6.6 0 01-1.2 1 1.9 1.9 0 01-1.4.2 1.4 1.4 0 01-.8-1.2 4.9 4.9 0 01.2-1.5z"/><path class="cls-9" d="M644.9 267a2.3 2.3 0 002.2.4l.1-.1v.1a1.9 1.9 0 001.8 1.3 1.4 1.4 0 01-1.2-.2 2.6 2.6 0 01-.8-1h.1a2.1 2.1 0 01-2.2-.6zM647.2 264.9h-.1s-.6-1.6-2-1.4a.2.2 0 010-.3s1.1-.5 2.1 1.7z"/><path class="cls-9" d="M645.7 263.2a1.4 1.4 0 01-.2-.5.6.6 0 000 .5zM645.3 263.2a1 1 0 01-.2-.5s0 .2.1.5h.1M649.2 266.1v.1a2.2 2.2 0 012.3 1.2.3.3 0 00.2-.2s-.1-1.2-2.5-1.1z"/><path class="cls-9" d="M651.4 266.7a1.2 1.2 0 00.5 0 .6.6 0 01-.4.1zM651.6 267a.9.9 0 00.6 0s-.2.1-.6.1v-.1"/><path class="cls-10" d="M647.2 266.3a.1.1 0 01.2-.1 1.7 1.7 0 01.8.5c.1.2-.6.3-.7.2a.7.7 0 01-.3-.6z"/><path class="cls-11" d="M651.4 271v.2l-.1-.2zM651.5 270.7h.2v.1h-.3v-.1h.1zM651.5 270.4h.2-.2zM642 264.5v-.2.2zM641.8 264.8l-.2-.2h.3v.2h-.1zM641.7 265.1h-.3v-.1h.4v.1z"/></g><path d="M652 275a37.2 37.2 0 00-11.5-18.6 12.4 12.4 0 00-14.7-.4c-3.9 2.7-8.6 8-12.5 18-6.5 17-4.2 33.4 8.1 40.4a21.8 21.8 0 0020.4.5c12.6-6.3 15.8-22.6 10.2-39.9z" fill="#f26846"/><path d="M652 275a37.2 37.2 0 00-11.5-18.6 13.6 13.6 0 00-1.5-1 54.7 54.7 0 014.2 9.7c5.6 17.4 2.4 33.6-10.3 39.9a21.7 21.7 0 01-20.3-.6 3.3 3.3 0 00-.3-.2 21.7 21.7 0 0029.4 10.7c12.7-6.3 16-22.6 10.3-39.9z" fill="#ef6348"/><path d="M652 275a46.7 46.7 0 00-6.3-13.1 54.5 54.5 0 014.2 9.7c5.6 17.4 2.4 33.6-10.3 40a21.7 21.7 0 01-26.8-6.2 21.4 21.4 0 008.6 9 21.8 21.8 0 0020.4.5c12.6-6.3 15.8-22.6 10.2-39.9z" fill="#ea5d49"/><path class="cls-34" d="M633.4 253.4s-2.1-6.9-6.6-5.3-.6 7.4 6.6 5.3zM633.5 253.4s2-6.9 6.5-5.3.6 7.4-6.5 5.3zM633.5 253.4s7 3.3 5.8 11.3M633.9 252.8s-5.6 1.6-4.8 8.4"/><path id="Bunny_R-2" data-name="Bunny R" class="cls-2" d="M650 274.4a1.7 1.7 0 00-.7.7.7.7 0 000 .8.8.8 0 00.5.3 2.6 2.6 0 00.6 0 2 2 0 001.2-.4 1.2 1.2 0 00.4-.4 1 1 0 000-.5 1.5 1.5 0 00-.2-.8l-.2.5a.1.1 0 01-.2 0 1.2 1.2 0 00-1.4-.2z"/><path id="Bunny_L-2" data-name="Bunny L" class="cls-2" d="M645.5 261.7l.2-.6a1 1 0 000-.5.3.3 0 00-.2-.2 1 1 0 00-.2-.3 2 2 0 00-.9-.5 1.3 1.3 0 00-.3 0c-.6 0-1 0-1 .2a.7.7 0 000 .7 1.6 1.6 0 00.6.8 1 1 0 001.3-.1.6.6 0 01.1-.1z"/><path stroke-width="1.3" stroke="#fff" stroke-miterlimit="10" fill="none" d="M633.4 253.4V0"/><path class="cls-2" d="M646.6 66.3v8.4a1 1 0 00.1.4 3.2 3.2 0 00.3.7l.1.1.2.1a1.6 1.6 0 00.3.3l7.3 4a2.1 2.1 0 011.1 1.9V99a1.5 1.5 0 01-.2.7v.2l-.1.1-.1.1-.1.1-.2.2-.2.2a1 1 0 01-.2.1l-7.5 4.2h-.1a1.6 1.6 0 01-.2.2.7.7 0 000 .1h-.2a.6.6 0 000 .2l-.2.2a1.2 1.2 0 000 .2 2 2 0 00-.1.2 1.2 1.2 0 000 .3v8.7a.6.6 0 000 .2l.1.1a.3.3 0 010 .1v.2l.2.2.2.1v.1a.9.9 0 00.2.1l7.3 4.2a2 2 0 011.2 1.8V139a2.2 2.2 0 01-1.2 1.8l-4.4 2.7-3 1.7a1.7 1.7 0 00-.8 1.5v8.3a1.6 1.6 0 00.8 1.4l7.4 4.3a2 2 0 011.2 1.8V179a2.2 2.2 0 01-1.2 1.8l-5.9 3.6-1.4.9a1.8 1.8 0 00-.8 1.4v8.5a.7.7 0 000 .2.5.5 0 010 .1v.1a.3.3 0 000 .3l.2.1.3.3a2 2 0 00.3.2l7.3 4.1a2 2 0 011 1.8v14.6a1.9 1.9 0 01-.2.8l-.4.7-.2.4a.9.9 0 01-.2.2.5.5 0 000 .1.6.6 0 00-.2.1l-.2.3-.2.1-.3.3a3 3 0 00-.3.1v.1a.6.6 0 01-.2 0l-.2.2a4.9 4.9 0 01-.5.2 1.9 1.9 0 01-.6.1l-.4.1a2.2 2.2 0 01-.5 0h-14a2 2 0 01-1.7-1l-4.2-7.4a1.5 1.5 0 00-.2-.3.9.9 0 00-.2-.2.8.8 0 00-.2-.1.9.9 0 00-.4-.2H621a1.6 1.6 0 00-.4 0l-.2.2-.2.1-.2.3a1.6 1.6 0 00-.2.4l-4.1 7.2a2 2 0 01-1.9 1.1H597a2.1 2.1 0 01-1.8-1 .7.7 0 010-.2l-4.2-7.4v-.1l-.2-.3-.2-.1v-.1h-.2a1 1 0 00-.4-.2H581.3a1.8 1.8 0 00-1.3.5h-.2v.3l-4.2 7.3a2 2 0 01-1.8 1.1h-17a.3.3 0 01-.2 0l-.3-.1-.3-.1-.4-.4-.2-.2a1.7 1.7 0 01-.3-.4l-2.5-4.2-1.7-3a1.8 1.8 0 00-1.5-.8h-8.3a1.8 1.8 0 00-1.5.8l-4.2 7.4a2.1 2.1 0 01-1.8 1.1h-17a.8.8 0 01-.4-.1h-.1l-.3-.2-.3-.2-.2-.3a1.4 1.4 0 01-.2-.3l-3.7-6-.5-.8-.2-.3-.1-.1-.1-.1h-.2a.2.2 0 00-.1 0l-.1-.2h-.2a.8.8 0 00-.2 0l-.3-.1H501a1.7 1.7 0 00-1.4.9l-.8 1.3-3.3 5.4a2.2 2.2 0 01-.5.6 2 2 0 01-1.3.6H480a4.4 4.4 0 01-1.5-.3l-.5-.2c-.2 0-.3 0-.4-.2s-.3-.1-.4-.2a1.8 1.8 0 01-.4-.3l-.4-.3-.3-.4-.3-.4a2 2 0 01-.3-.4 4.8 4.8 0 01-.2-.5l-.2-.4a1.7 1.7 0 01-.1-.8 1.2 1.2 0 000-.2 1.4 1.4 0 010-.2V202a2 2 0 01.4-1.3 4.7 4.7 0 01.5-.5h.2l7.3-4.3a2.1 2.1 0 00.3-.2 1.7 1.7 0 00.2-.1.8.8 0 00.1-.2v-.1a.8.8 0 00.2-.4V186.2a1 1 0 000-.5 4.2 4.2 0 00-.3-.6 1 1 0 00-.2-.1v-.1a2 2 0 00-.5-.3l-7.2-4a2 2 0 01-1.1-1.9V162a2 2 0 01.5-1.3 2.2 2.2 0 01.6-.5h.1l7.4-4.2a2.1 2.1 0 00.3-.2 1.6 1.6 0 00.2-.2.8.8 0 00.1-.2.8.8 0 00.2-.4V146.3a1.8 1.8 0 00-.5-1.4.3.3 0 00-.1-.1l-.2-.1-7.3-4.2a2.1 2.1 0 01-1.2-1.8v-17a.8.8 0 01.1-.2v-.1l.2-.3a.4.4 0 010-.2h.1l.2-.3h.1a2 2 0 00.3-.3 2.5 2.5 0 01.4-.2l4.2-2.6.9-.5 1.3-.7a1.5 1.5 0 00.4-.2l.1-.2a.3.3 0 00.2-.2l.1-.3a.1.1 0 010-.1v-.1a.2.2 0 000-.2v-8.6a1 1 0 000-.3v-.1c0-.1 0 0 0 0a.7.7 0 010-.1v-.1a.3.3 0 010-.1l-.1-.1v-.1a.4.4 0 00-.2-.2.9.9 0 00-.2-.1.2.2 0 01-.2 0l-6.7-4.3a2.3 2.3 0 01-1.2-2V82a.8.8 0 010-.3v-.2a.8.8 0 010-.2.6.6 0 01.2-.1v-.3a2.4 2.4 0 01.8-.7h.1l6-3.7.8-.5a2 2 0 00.2-.1l.2-.2v-.2h.1a.3.3 0 010-.1.6.6 0 000-.1h.1V75l.1-.1V66a1.6 1.6 0 00-.8-1.4l-1.4-.8-5.4-3.3a2.3 2.3 0 01-.6-.5 2 2 0 01-.6-1.3V45a2.7 2.7 0 01.1-.8 3.4 3.4 0 01.2-.7l.2-.4a.8.8 0 000-.2l.2-.3v-.2h.1a1.5 1.5 0 01.1-.1 1.3 1.3 0 00.2-.3v-.2h.2a2.7 2.7 0 01.4-.5h.1a.3.3 0 000-.1l.2-.1.2-.1v-.1a1.2 1.2 0 00.2-.1h.1l.2-.1a2.9 2.9 0 01.3-.2h.2a2 2 0 01.7-.2h.6a1 1 0 00.3 0 .8.8 0 01.2 0H494a.5.5 0 01.2 0 .3.3 0 00.1 0h.4l.1.1h.1l.2.2.1.2a.8.8 0 01.3.2.4.4 0 010 .1v.2l4.5 7.2a2 2 0 00.2.3 1.1 1.1 0 00.2.2.8.8 0 00.2.1.8.8 0 00.4.2h9a1.4 1.4 0 00.4 0 1.8 1.8 0 00.2-.2h.1a1.5 1.5 0 00.3-.5 1.6 1.6 0 00.1-.1l3.1-5.5c.8-1.3 1.5-3 3-3h17.3l.5.1.2.1.1.2h.1a.6.6 0 01.3.3l.2.2a.4.4 0 010 .1l4.2 7.4a2.4 2.4 0 00.2.3 2 2 0 00.1.2.8.8 0 00.2.2h.1a1 1 0 00.4.1H550.8l.2-.1a.7.7 0 00.1-.2 2.7 2.7 0 00.4-.5l4-7.2a2.1 2.1 0 011.8-1.1h17.5a.7.7 0 01.3 0v.2l.3.1a.4.4 0 00.1 0 .7.7 0 01.2.2l.2.2v.2h.1l.1.2 2.5 4.5 1.7 3a1.8 1.8 0 001.5.9h8.4a1.7 1.7 0 001.4-1l4.2-7.3a2.1 2.1 0 011.8-1.2H615a.6.6 0 01.3.1v.1l.3.1a.4.4 0 00.1.1.7.7 0 01.2.1l.2.2a1.7 1.7 0 00.1.2.3.3 0 000 .1v.1a.3.3 0 01.1.1l3.3 6 .8 1.4a1.8 1.8 0 001.5.9h8.5a.4.4 0 00.2 0h.4l.2-.2a3 3 0 00.3-.2v-.1a2.3 2.3 0 00.4-.5l4.1-7.3a2 2 0 011.8-1.1h13.6l.8.1a1 1 0 01.3.1l.2.1.5.2.4.2.2.1.2.2s.2 0 .2.2h.2l.3.4a.8.8 0 01.1.2c.2.2.4.3.4.5a.2.2 0 000 .1.7.7 0 01.1.2.3.3 0 00.1 0 .5.5 0 010 .2l.2.2v.1a1 1 0 010 .4l.1.3v.5l.1.4v14.6l-.1.4v.2a2.8 2.8 0 01-.8.7l-7.5 4.3a1.5 1.5 0 00-.2.2 1.2 1.2 0 00-.2.1.8.8 0 00-.2.2l-.1.3v.2z"/><path d="M680 2a6 6 0 016 6v331c0 3.4-2.8 6-6.5 6H7.5c-3 0-5.5-2.8-5.5-6V8a6 6 0 016-6h672m0-2H8a8 8 0 00-8 8v331a8 8 0 007.5 8h672c5 0 8.5-3.6 8.5-8V8a8 8 0 00-8-8z" fill="url(#radial-gradient-2)"/></svg>